<svg width="24" height="24" viewBox="0 0 24 24" fill="none" xmlns="http://www.w3.org/2000/svg">
<path d="M15.9877 3.26953C18.3268 3.79922 19.8971 5.63203 20.0049 7.96172C20.0705 9.31172 19.6393 10.5352 18.7393 11.5664L18.5799 11.7492L18.8424 11.8898C19.3299 12.143 19.8033 12.4992 20.2533 12.9492C21.3221 14.018 21.8986 15.2977 22.0111 16.8398C22.1565 18.7898 21.0033 20.4773 19.1283 21.068L18.7768 21.1758H15.0033H11.2299L10.8783 21.068C9.00332 20.4773 7.8502 18.7898 7.99551 16.8398C8.14551 14.7539 9.2377 12.9961 11.033 11.9602C11.2158 11.8523 11.3752 11.7586 11.3846 11.7492C11.3939 11.7445 11.2674 11.5711 11.1033 11.3602C10.6252 10.7602 10.3299 10.1695 10.1189 9.39609C10.0346 9.09141 10.0158 8.90391 10.0158 8.21484C10.0158 7.47422 10.0299 7.35234 10.1424 6.92578C10.6158 5.16328 11.9611 3.81797 13.733 3.33516C14.2111 3.20391 15.533 3.1664 15.9877 3.26953ZM14.2064 5.33672C13.2127 5.62734 12.3736 6.49453 12.1205 7.48828C12.0361 7.81641 12.0268 8.48203 12.1018 8.83359C12.2799 9.68672 12.9361 10.5023 13.7611 10.8914C15.1861 11.5711 16.9627 10.943 17.6471 9.51328C17.7596 9.27422 17.8768 8.96953 17.9049 8.83359C17.9799 8.47734 17.9705 7.81172 17.8861 7.48828C17.6049 6.38203 16.6205 5.46328 15.5143 5.26641C15.1815 5.20547 14.5299 5.23828 14.2064 5.33672ZM12.9502 13.3617C11.8393 13.6992 10.9111 14.4867 10.4283 15.5039C10.1705 16.057 10.0861 16.3805 10.0533 16.9805C10.0252 17.407 10.0393 17.5102 10.1236 17.768C10.3627 18.4664 10.8596 18.9305 11.558 19.1133C11.7924 19.1742 12.308 19.1836 15.0033 19.1836C17.6986 19.1836 18.2143 19.1742 18.4486 19.1133C19.1471 18.9305 19.6439 18.4664 19.883 17.768C19.9674 17.5102 19.9815 17.407 19.9533 16.9805C19.9205 16.357 19.8361 16.043 19.5502 15.457C19.1096 14.5523 18.4299 13.9148 17.4689 13.5164C16.8361 13.2539 16.6393 13.2352 14.8861 13.2492C13.4002 13.2586 13.269 13.268 12.9502 13.3617Z" fill="#76B800"/>
<path d="M5.82427 6.73359C6.08677 6.82734 6.22271 6.93047 6.36802 7.14609C6.49459 7.33828 6.49459 7.34766 6.50865 8.27109L6.52271 9.19922H7.41334C8.1399 9.19922 8.33209 9.21328 8.45396 9.27422C8.85709 9.47578 9.02115 9.77578 8.99302 10.2539C8.97427 10.6805 8.82427 10.9195 8.47271 11.0977C8.24302 11.2102 8.20084 11.2148 7.37584 11.2148H6.51802V12.0727C6.51802 12.8977 6.51334 12.9398 6.40084 13.1695C6.32584 13.3195 6.20865 13.4555 6.08677 13.5398C5.91334 13.6617 5.85709 13.6758 5.50552 13.6758C5.15396 13.6758 5.1024 13.6617 4.91959 13.5352C4.81177 13.4555 4.67115 13.3008 4.61021 13.1883C4.50709 12.9914 4.5024 12.9305 4.5024 12.1008V11.2195L3.56959 11.2055L2.63677 11.1914L2.43052 11.0508C1.79771 10.6008 1.85396 9.63984 2.53834 9.29297C2.69771 9.20859 2.8149 9.19922 3.61177 9.19922H4.5024V8.30859C4.5024 7.52109 4.51178 7.39453 4.59146 7.23984C4.83052 6.77578 5.35084 6.56484 5.82427 6.73359Z" fill="#76B800"/>
</svg>
