<svg width="33" height="21" viewBox="0 0 33 21" fill="none" xmlns="http://www.w3.org/2000/svg">
<g clip-path="url(#clip0_2121_13980)">
<path d="M9.80859 1.84441C8.46094 2.19206 7.48828 3.19206 7.13281 4.5905L7.08984 4.75847H6.33594C5.69922 4.75847 5.53906 4.77019 5.33984 4.83269C4.77344 5.00847 4.3125 5.47331 4.13281 6.04753C4.05078 6.30534 2.64062 15.36 2.64062 15.6257C2.64062 16.8483 3.39062 17.9655 4.52344 18.4342C5.10156 18.6725 5.01172 18.6686 9.32812 18.6569C13.2461 18.6452 13.2617 18.6452 13.3711 18.5632C13.7578 18.2741 13.7578 17.7663 13.3711 17.4772C13.2617 17.3952 13.2422 17.3952 9.28906 17.3757C6.55469 17.36 5.28125 17.3405 5.19922 17.3132C4.74609 17.1452 4.35547 16.8249 4.15625 16.4538C4.03125 16.2194 3.92969 15.86 3.92969 15.6374C3.92969 15.5514 4.25391 13.4382 4.64844 10.9382C5.15234 7.75456 5.38672 6.36784 5.42969 6.29753C5.46875 6.24284 5.55078 6.16472 5.62109 6.12566C5.74219 6.05144 5.85937 6.04753 10.6992 6.04753C15.3516 6.04753 15.6641 6.05144 15.7734 6.11394C16.0117 6.25847 16.0039 6.22331 16.543 9.66081C16.8867 11.8405 17.0742 12.946 17.1211 13.0397C17.3164 13.4186 17.8437 13.4967 18.1445 13.1882C18.3867 12.9421 18.3984 13.0983 17.8164 9.41862C17.3086 6.19206 17.2852 6.05925 17.1523 5.78191C16.9727 5.39909 16.6836 5.11394 16.2852 4.92253L15.9805 4.778L15.1367 4.76628L14.2969 4.75456L14.25 4.53191C14.1211 3.92253 13.6953 3.19206 13.2031 2.73112C12.6953 2.25847 12.1016 1.94206 11.4609 1.81316C10.9961 1.7155 10.2461 1.73112 9.80859 1.84441ZM11.4102 3.13737C12.0078 3.3405 12.5156 3.778 12.7891 4.33269C12.8789 4.51628 12.9531 4.68425 12.9531 4.71159C12.9531 4.74675 12.4375 4.75847 10.6875 4.75847H8.42187L8.50391 4.55925C8.63672 4.21941 8.77734 4.00847 9.0625 3.71941C9.33594 3.44597 9.67187 3.23503 10.0352 3.12175C10.3984 3.00066 11.0273 3.00847 11.4102 3.13737Z" fill="#966BC1"/>
<path d="M7.42632 7.19531C7.28179 7.25781 7.1021 7.46094 7.07085 7.59766C7.05523 7.65234 7.05523 7.86719 7.06695 8.07422C7.13335 9.13672 7.73492 10.1914 8.63335 10.8086C8.90288 10.9961 9.41851 11.2305 9.77007 11.3281C10.231 11.4531 11.1568 11.4531 11.6177 11.3281C13.1607 10.9102 14.2388 9.60156 14.3443 8.02344C14.3638 7.69922 14.3599 7.65234 14.274 7.49219C14.0865 7.14062 13.6294 7.04297 13.3169 7.28125C13.1451 7.41406 13.0865 7.55469 13.0591 7.92188C12.9576 9.17188 11.9302 10.1445 10.7037 10.1484C10.3443 10.1484 9.88335 10.0273 9.55913 9.84766C8.86773 9.46484 8.34429 8.61719 8.34429 7.87891C8.34429 7.34766 7.87554 7 7.42632 7.19531Z" fill="#966BC1"/>
<path d="M16.6641 14.4106C16.6094 14.434 16.5234 14.4887 16.4766 14.5356C16.2891 14.7075 16.2734 14.7895 16.2734 15.5004V16.1645H15.6367C15.0547 16.1645 14.9844 16.1723 14.8281 16.2504C14.582 16.3754 14.4766 16.5512 14.4766 16.8247C14.4766 16.9926 14.5 17.0786 14.5703 17.184C14.7344 17.4223 14.8477 17.4536 15.6055 17.4536H16.2734V18.1215C16.2734 18.8793 16.3047 18.9926 16.543 19.1567C16.7344 19.2856 17.0664 19.2895 17.25 19.1645C17.5273 18.9731 17.543 18.9301 17.5547 18.1528L17.5703 17.4536H18.2422C18.8789 17.4536 18.9258 17.4497 19.0469 17.3637C19.2305 17.2426 19.3242 17.102 19.3477 16.9145C19.3789 16.6684 19.2734 16.4184 19.0742 16.2895C18.9219 16.1879 18.8984 16.184 18.2383 16.1723L17.5625 16.1567V15.5239C17.5625 14.9379 17.5547 14.8754 17.4727 14.7153C17.3281 14.434 16.9531 14.2973 16.6641 14.4106Z" fill="#966BC1"/>
<path d="M23.1875 14.4106C23.1328 14.434 23.0469 14.4887 23 14.5356C22.8125 14.7075 22.7969 14.7895 22.7969 15.5004V16.1645H22.1602C21.5781 16.1645 21.5078 16.1723 21.3516 16.2504C21.1055 16.3754 21 16.5512 21 16.8247C21 16.9926 21.0234 17.0786 21.0938 17.184C21.2578 17.4223 21.3711 17.4536 22.1289 17.4536H22.7969V18.1215C22.7969 18.8793 22.8281 18.9926 23.0664 19.1567C23.2578 19.2856 23.5898 19.2895 23.7734 19.1645C24.0508 18.9731 24.0664 18.9301 24.0781 18.1528L24.0938 17.4536H24.7656C25.4023 17.4536 25.4492 17.4497 25.5703 17.3637C25.7539 17.2426 25.8477 17.102 25.8711 16.9145C25.9023 16.6684 25.7969 16.4184 25.5977 16.2895C25.4453 16.1879 25.4219 16.184 24.7617 16.1723L24.0859 16.1567V15.5239C24.0859 14.9379 24.0781 14.8754 23.9961 14.7153C23.8516 14.434 23.4766 14.2973 23.1875 14.4106Z" fill="#966BC1"/>
<path d="M30.1875 14.4106C30.1328 14.434 30.0469 14.4887 30 14.5356C29.8125 14.7075 29.7969 14.7895 29.7969 15.5004V16.1645H29.1602C28.5781 16.1645 28.5078 16.1723 28.3516 16.2504C28.1055 16.3754 28 16.5512 28 16.8247C28 16.9926 28.0234 17.0786 28.0938 17.184C28.2578 17.4223 28.3711 17.4536 29.1289 17.4536H29.7969V18.1215C29.7969 18.8793 29.8281 18.9926 30.0664 19.1567C30.2578 19.2856 30.5898 19.2895 30.7734 19.1645C31.0508 18.9731 31.0664 18.9301 31.0781 18.1528L31.0938 17.4536H31.7656C32.4023 17.4536 32.4492 17.4497 32.5703 17.3637C32.7539 17.2426 32.8477 17.102 32.8711 16.9145C32.9023 16.6684 32.7969 16.4184 32.5977 16.2895C32.4453 16.1879 32.4219 16.184 31.7617 16.1723L31.0859 16.1567V15.5239C31.0859 14.9379 31.0781 14.8754 30.9961 14.7153C30.8516 14.434 30.4766 14.2973 30.1875 14.4106Z" fill="#966BC1"/>
</g>
<defs>
<clipPath id="clip0_2121_13980">
<rect width="32" height="20" fill="white" transform="translate(0.5 0.5)"/>
</clipPath>
</defs>
</svg>
