<svg width="21" height="21" viewBox="0 0 21 21" fill="none" xmlns="http://www.w3.org/2000/svg">
<path d="M11.6914 1.84441C13.0391 2.19206 14.0117 3.19206 14.3672 4.5905L14.4102 4.75847H15.1641C15.8008 4.75847 15.9609 4.77019 16.1602 4.83269C16.7266 5.00847 17.1875 5.47331 17.3672 6.04753C17.4492 6.30534 18.8594 15.36 18.8594 15.6257C18.8594 16.8483 18.1094 17.9655 16.9766 18.4342C16.3984 18.6725 16.4883 18.6686 12.1719 18.6569C8.25391 18.6452 8.23828 18.6452 8.12891 18.5632C7.74219 18.2741 7.74219 17.7663 8.12891 17.4772C8.23828 17.3952 8.25781 17.3952 12.2109 17.3757C14.9453 17.36 16.2188 17.3405 16.3008 17.3132C16.7539 17.1452 17.1445 16.8249 17.3438 16.4538C17.4688 16.2194 17.5703 15.86 17.5703 15.6374C17.5703 15.5514 17.2461 13.4382 16.8516 10.9382C16.3477 7.75456 16.1133 6.36784 16.0703 6.29753C16.0313 6.24284 15.9492 6.16472 15.8789 6.12566C15.7578 6.05144 15.6406 6.04753 10.8008 6.04753C6.14844 6.04753 5.83594 6.05144 5.72656 6.11394C5.48828 6.25847 5.49609 6.22331 4.95703 9.66081C4.61328 11.8405 4.42578 12.946 4.37891 13.0397C4.18359 13.4186 3.65625 13.4967 3.35547 13.1882C3.11328 12.9421 3.10156 13.0983 3.68359 9.41862C4.19141 6.19206 4.21484 6.05925 4.34766 5.78191C4.52734 5.39909 4.81641 5.11394 5.21484 4.92253L5.51953 4.778L6.36328 4.76628L7.20313 4.75456L7.25 4.53191C7.37891 3.92253 7.80469 3.19206 8.29688 2.73112C8.80469 2.25847 9.39844 1.94206 10.0391 1.81316C10.5039 1.7155 11.2539 1.73112 11.6914 1.84441ZM10.0898 3.13737C9.49219 3.3405 8.98438 3.778 8.71094 4.33269C8.62109 4.51628 8.54688 4.68425 8.54688 4.71159C8.54688 4.74675 9.0625 4.75847 10.8125 4.75847H13.0781L12.9961 4.55925C12.8633 4.21941 12.7227 4.00847 12.4375 3.71941C12.1641 3.44597 11.8281 3.23503 11.4648 3.12175C11.1016 3.00066 10.4727 3.00847 10.0898 3.13737Z" fill="#966BC1"/>
<path d="M14.0737 7.19531C14.2182 7.25781 14.3979 7.46094 14.4291 7.59766C14.4448 7.65234 14.4448 7.86719 14.4331 8.07422C14.3666 9.13672 13.7651 10.1914 12.8666 10.8086C12.5971 10.9961 12.0815 11.2305 11.7299 11.3281C11.269 11.4531 10.3432 11.4531 9.88227 11.3281C8.3393 10.9102 7.26118 9.60156 7.15571 8.02344C7.13618 7.69922 7.14008 7.65234 7.22602 7.49219C7.41352 7.14062 7.87055 7.04297 8.18305 7.28125C8.35493 7.41406 8.41352 7.55469 8.44086 7.92188C8.54243 9.17188 9.56977 10.1445 10.7963 10.1484C11.1557 10.1484 11.6166 10.0273 11.9409 9.84766C12.6323 9.46484 13.1557 8.61719 13.1557 7.87891C13.1557 7.34766 13.6245 7 14.0737 7.19531Z" fill="#966BC1"/>
<path d="M4.83594 14.4106C4.89062 14.434 4.97656 14.4887 5.02344 14.5356C5.21094 14.7075 5.22656 14.7895 5.22656 15.5004V16.1645H5.86328C6.44531 16.1645 6.51562 16.1723 6.67188 16.2504C6.91797 16.3754 7.02344 16.5512 7.02344 16.8247C7.02344 16.9926 7 17.0786 6.92969 17.184C6.76562 17.4223 6.65234 17.4536 5.89453 17.4536H5.22656V18.1215C5.22656 18.8793 5.19531 18.9926 4.95703 19.1567C4.76562 19.2856 4.43359 19.2895 4.25 19.1645C3.97266 18.9731 3.95703 18.9301 3.94531 18.1528L3.92969 17.4536H3.25781C2.62109 17.4536 2.57422 17.4497 2.45312 17.3637C2.26953 17.2426 2.17578 17.102 2.15234 16.9145C2.12109 16.6684 2.22656 16.4184 2.42578 16.2895C2.57812 16.1879 2.60156 16.184 3.26172 16.1723L3.9375 16.1567V15.5239C3.9375 14.9379 3.94531 14.8754 4.02734 14.7153C4.17188 14.434 4.54688 14.2973 4.83594 14.4106Z" fill="#966BC1"/>
</svg>
