<svg width="24" height="24" viewBox="0 0 24 24" fill="none" xmlns="http://www.w3.org/2000/svg">
<path d="M8.88769 7.16906C9.07069 7.17406 9.27369 7.18406 9.46669 7.61206C9.59469 7.89706 9.80969 8.42206 9.98569 8.85006C10.1227 9.18306 10.2347 9.45706 10.2627 9.51306C10.3267 9.64106 10.3667 9.78806 10.2827 9.96106L10.2547 10.0191C10.1978 10.1536 10.1202 10.2785 10.0247 10.3891L9.88169 10.5591C9.79669 10.6631 9.71169 10.7651 9.63969 10.8371C9.51069 10.9651 9.37769 11.1031 9.52569 11.3591C9.67369 11.6151 10.1937 12.4571 10.9607 13.1361C11.5217 13.642 12.1654 14.0479 12.8637 14.3361C12.9337 14.3661 12.9904 14.3914 13.0337 14.4121C13.2907 14.5401 13.4437 14.5201 13.5917 14.3481C13.7407 14.1751 14.2347 13.5991 14.4087 13.3431C14.5767 13.0871 14.7487 13.1271 14.9867 13.2151C15.2247 13.3041 16.4907 13.9251 16.7477 14.0521L16.8907 14.1221C17.0697 14.2071 17.1907 14.2661 17.2427 14.3521C17.3067 14.4611 17.3067 14.9721 17.0947 15.5741C16.8767 16.1741 15.8277 16.7501 15.3527 16.7941L15.2177 16.8101C14.7817 16.8621 14.2297 16.9301 12.2617 16.1551C9.83569 15.2011 8.23469 12.8351 7.91169 12.3561L7.85869 12.2801L7.85269 12.2721C7.70569 12.0751 6.80469 10.8701 6.80469 9.62606C6.80469 8.43606 7.39169 7.81606 7.65869 7.53406L7.70569 7.48406C7.79211 7.38643 7.8977 7.30764 8.0159 7.25259C8.13409 7.19754 8.26235 7.1674 8.39269 7.16406C8.56569 7.16406 8.73969 7.16406 8.88769 7.16906Z" fill="black"/>
<path fill-rule="evenodd" clip-rule="evenodd" d="M2.18594 21.331C2.16709 21.3988 2.16647 21.4704 2.18412 21.5385C2.20177 21.6066 2.23708 21.6689 2.28647 21.719C2.33587 21.7691 2.39761 21.8053 2.46546 21.8239C2.53332 21.8425 2.60488 21.8429 2.67294 21.825L7.27994 20.621C8.74162 21.4128 10.3776 21.8276 12.0399 21.828H12.0439C17.5299 21.828 22.0019 17.382 22.0019 11.916C22.0053 10.6126 21.7494 9.32149 21.2491 8.11785C20.7489 6.91422 20.0142 5.8221 19.0879 4.90505C18.1632 3.98046 17.0648 3.24782 15.856 2.74927C14.6471 2.25072 13.3516 1.9961 12.0439 2.00005C6.55794 2.00005 2.08594 6.44604 2.08594 11.911C2.08594 13.65 2.54394 15.358 3.41594 16.865L2.18594 21.331ZM4.86294 17.263C4.91581 17.0711 4.92996 16.8706 4.90455 16.6732C4.87914 16.4757 4.81468 16.2853 4.71494 16.113C3.97608 14.8358 3.58668 13.3866 3.58594 11.911C3.58594 7.28104 7.37894 3.50005 12.0439 3.50005C14.3139 3.50005 16.4319 4.37705 18.0299 5.96805C18.8162 6.74575 19.4397 7.67223 19.8641 8.69344C20.2885 9.71465 20.5054 10.8102 20.5019 11.916C20.5019 16.546 16.7089 20.328 12.0439 20.328H12.0389C10.6266 20.3273 9.23677 19.9747 7.99494 19.302C7.66022 19.1208 7.26914 19.0737 6.90094 19.17L4.13894 19.891L4.86294 17.263Z" fill="black"/>
</svg>
