<svg width="24" height="24" viewBox="0 0 24 24" fill="none" xmlns="http://www.w3.org/2000/svg">
<path fill-rule="evenodd" clip-rule="evenodd" d="M6 9C5.23479 8.99996 4.49849 9.29233 3.94174 9.81728C3.38499 10.3422 3.04989 11.0601 3.005 11.824L3 12V15C3 15.64 3.379 16.139 3.882 16.367L4 16.414V20C3.99984 20.5046 4.19041 20.9906 4.5335 21.3605C4.87659 21.7305 5.34684 21.9572 5.85 21.995L6 22H18C18.5046 22.0002 18.9906 21.8096 19.3605 21.4665C19.7305 21.1234 19.9572 20.6532 19.995 20.15L20 20V16.415C20.2699 16.3209 20.507 16.1511 20.6831 15.9259C20.8592 15.7007 20.9667 15.4296 20.993 15.145L21 15V12C21 11.2348 20.7077 10.4985 20.1827 9.94174C19.6578 9.38499 18.9399 9.04989 18.176 9.005L18 9H6ZM6.067 15.7C6.22213 15.5836 6.40777 15.5148 6.6013 15.502C6.79483 15.4892 6.9879 15.533 7.157 15.628L7.267 15.7L7.533 15.9C8.02372 16.2682 8.61552 16.4771 9.22865 16.4986C9.84178 16.5201 10.4467 16.353 10.962 16.02L11.133 15.9L11.4 15.7C11.5551 15.5836 11.7408 15.5148 11.9343 15.502C12.1278 15.4892 12.3209 15.533 12.49 15.628L12.6 15.7L12.867 15.9C13.3576 16.268 13.9492 16.4768 14.5622 16.4982C15.1751 16.5197 15.7798 16.3528 16.295 16.02L16.467 15.9L16.733 15.7C16.8881 15.5836 17.0738 15.5148 17.2673 15.502C17.4608 15.4892 17.6539 15.533 17.823 15.628L17.933 15.7L18 15.75V20H6V15.75L6.067 15.7ZM6 11H18C18.2652 11 18.5196 11.1054 18.7071 11.2929C18.8946 11.4804 19 11.7348 19 12V14.005C18.4834 13.6599 17.8724 13.4837 17.2514 13.5007C16.6304 13.5177 16.0299 13.7271 15.533 14.1L15.267 14.3C15.0939 14.4298 14.8834 14.5 14.667 14.5C14.4506 14.5 14.2401 14.4298 14.067 14.3L13.8 14.1C13.2807 13.7105 12.6491 13.5 12 13.5C11.3509 13.5 10.7193 13.7105 10.2 14.1L9.933 14.3C9.7599 14.4298 9.54937 14.5 9.333 14.5C9.11663 14.5 8.9061 14.4298 8.733 14.3L8.467 14.1C7.97008 13.7271 7.36965 13.5177 6.74862 13.5007C6.12759 13.4837 5.5166 13.6599 5 14.005V12C5 11.7348 5.10536 11.4804 5.29289 11.2929C5.48043 11.1054 5.73478 11 6 11ZM11.4 2.2C10.9871 2.52356 10.6033 2.88259 10.253 3.273C9.729 3.862 9 4.855 9 6C9 6.79565 9.31607 7.55871 9.87868 8.12132C10.4413 8.68393 11.2044 9 12 9C12.7956 9 13.5587 8.68393 14.1213 8.12132C14.6839 7.55871 15 6.79565 15 6C15 4.855 14.27 3.862 13.747 3.273C13.3967 2.88259 13.0129 2.52356 12.6 2.2C12.4269 2.07018 12.2164 2 12 2C11.7836 2 11.5731 2.07018 11.4 2.2ZM12 4.334C12.0871 4.42072 12.1714 4.5101 12.253 4.602C12.729 5.138 13 5.645 13 6C13 6.26522 12.8946 6.51957 12.7071 6.70711C12.5196 6.89464 12.2652 7 12 7C11.7348 7 11.4804 6.89464 11.2929 6.70711C11.1054 6.51957 11 6.26522 11 6C11 5.645 11.27 5.138 11.747 4.602C11.8286 4.5101 11.9129 4.42072 12 4.334Z" fill="black"/>
</svg>
