<svg width="36" height="36" viewBox="0 0 36 36" fill="none" xmlns="http://www.w3.org/2000/svg">
<rect width="36" height="36" rx="18" transform="matrix(-1 0 0 1 36 0)" fill="white"/>
<path d="M16.4071 18.002L11.954 13.5488C11.7426 13.3379 11.6238 13.0516 11.6235 12.7529C11.6232 12.4543 11.7416 12.1678 11.9526 11.9565C12.1636 11.7451 12.4498 11.6263 12.7485 11.626C13.0471 11.6257 13.3336 11.7441 13.5449 11.9551L17.998 16.4082L22.4512 11.9551C22.6625 11.7437 22.9492 11.625 23.248 11.625C23.5469 11.625 23.8336 11.7437 24.0449 11.9551C24.2563 12.1664 24.375 12.4531 24.375 12.752C24.375 13.0508 24.2563 13.3375 24.0449 13.5488L19.5918 18.002L24.0449 22.4551C24.2563 22.6664 24.375 22.9531 24.375 23.252C24.375 23.5508 24.2563 23.8375 24.0449 24.0488C23.8336 24.2602 23.5469 24.3789 23.248 24.3789C22.9492 24.3789 22.6625 24.2602 22.4512 24.0488L17.998 19.5957L13.5449 24.0488C13.3336 24.2602 13.0469 24.3789 12.748 24.3789C12.4492 24.3789 12.1625 24.2602 11.9512 24.0488C11.7398 23.8375 11.6211 23.5508 11.6211 23.252C11.6211 22.9531 11.7398 22.6664 11.9512 22.4551L16.4071 18.002Z" fill="black"/>
</svg>
