<svg width="16" height="16" viewBox="0 0 16 16" fill="none" xmlns="http://www.w3.org/2000/svg">
<path d="M12 9H9V10H12V9ZM12 11H7V12H12V11Z" fill="white"/>
<path d="M3 2H13C13.2651 2.0004 13.5192 2.10588 13.7067 2.29333C13.8941 2.48078 13.9996 2.73491 14 3V13C13.9996 13.2651 13.8941 13.5192 13.7067 13.7067C13.5192 13.8941 13.2651 13.9996 13 14H3C2.73491 13.9996 2.48078 13.8941 2.29333 13.7067C2.10588 13.5192 2.0004 13.2651 2 13V3C2.0004 2.73491 2.10588 2.48078 2.29333 2.29333C2.48078 2.10588 2.73491 2.0004 3 2ZM7 3V5H9V3H7ZM13 13V3H10V6H6V3H3L2.9995 13H13Z" fill="white"/>
</svg>
