<svg width="24" height="24" viewBox="0 0 24 24" fill="none" xmlns="http://www.w3.org/2000/svg">
<rect width="24" height="24" rx="12" transform="matrix(-1 0 0 1 24 0)" fill="white"/>
<path d="M6.16536 12.0013C6.16536 12.2223 6.25316 12.4343 6.40944 12.5906C6.56572 12.7468 6.77768 12.8346 6.9987 12.8346C7.21971 12.8346 7.43167 12.7468 7.58795 12.5906C7.74423 12.4343 7.83203 12.2223 7.83203 12.0013C7.83203 11.7803 7.74423 11.5683 7.58795 11.412C7.43167 11.2558 7.21971 11.168 6.9987 11.168C6.77768 11.168 6.56572 11.2558 6.40944 11.412C6.25316 11.5683 6.16536 11.7803 6.16536 12.0013Z" fill="#9D64CB"/>
<path fill-rule="evenodd" clip-rule="evenodd" d="M13.712 4.70703H11.1187C9.58703 4.70703 8.3737 4.70703 7.42453 4.83453C6.44786 4.9662 5.65703 5.24286 5.03287 5.8662C4.26287 6.63703 4.01703 7.6687 3.92787 9.00786C3.44703 9.2187 3.0837 9.6662 3.04453 10.2329C3.04037 10.2837 3.04037 10.3379 3.04037 10.3879V13.6095C3.04037 13.6595 3.04037 13.7137 3.0437 13.7637C3.0837 14.3304 3.44703 14.7787 3.92787 14.9904C4.01703 16.3287 4.26287 17.3604 5.03287 18.1312C5.65703 18.7545 6.44786 19.0312 7.42453 19.1629C8.37453 19.2904 9.58703 19.2904 11.1187 19.2904H13.712C15.2437 19.2904 16.457 19.2904 17.4062 19.1629C18.3829 19.0312 19.1737 18.7545 19.7979 18.1312C20.4212 17.507 20.6979 16.7162 20.8295 15.7395C20.957 14.7895 20.957 13.577 20.957 12.0454V11.952C20.957 10.4204 20.957 9.20703 20.8295 8.25786C20.6979 7.2812 20.4212 6.49036 19.7979 5.8662C19.1737 5.24286 18.3829 4.9662 17.4062 4.83453C16.4562 4.70703 15.2437 4.70703 13.712 4.70703ZM5.19203 15.1237H6.80703C8.59453 15.1237 10.1245 13.767 10.1245 11.9987C10.1245 10.2304 8.59453 8.8737 6.80787 8.8737H5.19287C5.28786 7.7562 5.50203 7.16536 5.91786 6.75036C6.27036 6.39786 6.7537 6.1862 7.59203 6.0737C8.44786 5.9587 9.57703 5.95703 11.1662 5.95703H13.6662C15.2554 5.95703 16.3837 5.9587 17.2412 6.0737C18.0787 6.1862 18.562 6.39786 18.9145 6.75036C19.267 7.10286 19.4779 7.5862 19.5904 8.4237C19.7054 9.28036 19.707 10.4087 19.707 11.9979C19.707 13.587 19.7054 14.7162 19.5904 15.5729C19.4779 16.4104 19.2662 16.8937 18.9137 17.2462C18.5612 17.5987 18.0779 17.8104 17.2395 17.9229C16.3829 18.0379 15.2545 18.0395 13.6654 18.0395H11.1654C9.5762 18.0395 8.44703 18.0379 7.59036 17.9229C6.75286 17.8104 6.26953 17.5987 5.91703 17.2462C5.5012 16.8312 5.28703 16.2412 5.19203 15.1229M17.6237 8.66536C17.6237 8.4996 17.5579 8.34063 17.4406 8.22342C17.3234 8.10621 17.1645 8.04036 16.9987 8.04036H13.6654C13.4996 8.04036 13.3406 8.10621 13.2234 8.22342C13.1062 8.34063 13.0404 8.4996 13.0404 8.66536C13.0404 8.83113 13.1062 8.9901 13.2234 9.10731C13.3406 9.22452 13.4996 9.29036 13.6654 9.29036H16.9987C17.1645 9.29036 17.3234 9.22452 17.4406 9.10731C17.5579 8.9901 17.6237 8.83113 17.6237 8.66536ZM4.56203 10.1237H6.80703C7.9937 10.1237 8.87453 11.0062 8.87453 11.9987C8.87453 12.9912 7.9937 13.8737 6.80787 13.8737H4.54286C4.3712 13.8629 4.29703 13.747 4.2912 13.677V10.3204C4.29703 10.2504 4.3712 10.1345 4.54286 10.1245L4.56203 10.1237Z" fill="#9D64CB"/>
</svg>
