<svg width="52" height="24" viewBox="0 0 52 24" fill="none" xmlns="http://www.w3.org/2000/svg">
<path d="M37 12H45.5C45.7651 12.0003 46.0193 12.1057 46.2068 12.2932C46.3943 12.4807 46.4997 12.7349 46.5 13V20C46.5 20.1326 46.4473 20.2598 46.3535 20.3535C46.2598 20.4473 46.1326 20.5 46 20.5H36.5C36.3674 20.5 36.2402 20.4473 36.1465 20.3535C36.0527 20.2598 36 20.1326 36 20V13C36.0003 12.7349 36.1057 12.4807 36.2932 12.2932C36.4807 12.1057 36.7349 12.0003 37 12Z" fill="url(#paint0_linear_2151_18697)"/>
<path d="M42.5 12V14.7496C42.5 14.7938 42.4883 14.8373 42.466 14.8755C42.4437 14.9137 42.4117 14.9454 42.3732 14.9672C42.3347 14.989 42.2911 15.0002 42.2469 14.9996C42.2026 14.9991 42.1593 14.9868 42.1214 14.964L41.25 14.4412L40.3786 14.964C40.3407 14.9868 40.2974 14.9991 40.2531 14.9996C40.2089 15.0002 40.1653 14.989 40.1268 14.9672C40.0883 14.9454 40.0563 14.9137 40.034 14.8755C40.0117 14.8373 40 14.7938 40 14.7496V12H42.5Z" fill="url(#paint1_linear_2151_18697)"/>
<path d="M34.5879 19.058C34.6994 18.7638 34.908 18.5163 35.1791 18.3565C35.4502 18.1968 35.7676 18.1342 36.0791 18.1791L39.7019 18.7161C39.7051 18.4384 39.7935 18.1684 39.9553 17.9426C40.117 17.7169 40.3442 17.5463 40.6062 17.454L43.7195 16.4338C44.2855 16.2496 44.8955 16.2513 45.4605 16.4385L48.6582 17.5057C48.7577 17.5388 48.8443 17.6025 48.9056 17.6876C48.967 17.7727 49 17.875 49 17.9799V21.6868C49 21.7595 48.9841 21.8312 48.9536 21.8971C48.923 21.963 48.8785 22.0215 48.823 22.0684C48.7676 22.1153 48.7026 22.1496 48.6326 22.1689C48.5625 22.1882 48.4891 22.192 48.4175 22.18L46.0696 21.7867C45.8973 21.7579 45.7203 21.7845 45.5642 21.8627L44.0298 22.6299C43.619 22.8367 43.1713 22.9599 42.7126 22.9925C42.2539 23.0251 41.7933 22.9665 41.3574 22.8199L35.4418 20.8479C35.2662 20.7894 35.1041 20.696 34.9654 20.5734C34.8267 20.4508 34.7141 20.3015 34.6344 20.1345C34.5547 19.9674 34.5095 19.7859 34.5015 19.601C34.4935 19.416 34.5228 19.2314 34.5878 19.058H34.5879Z" fill="url(#paint2_linear_2151_18697)"/>
<path d="M49 16.25H50C50.5523 16.25 51 16.6977 51 17.25V21.75C51 22.3023 50.5523 22.75 50 22.75H49C48.4477 22.75 48 22.3023 48 21.75V17.25C48 16.6977 48.4477 16.25 49 16.25Z" fill="url(#paint3_linear_2151_18697)"/>
<path d="M31.3931 2.52495L37.8287 1.09381C38.6206 0.906519 39.4531 1.0015 40.1824 1.36236L42.1307 2.25556C42.5872 2.4847 42.9884 2.81038 43.3065 3.21003L44.4815 4.68913C44.54 4.76278 44.5764 4.85141 44.5868 4.94485C44.5972 5.03829 44.581 5.13276 44.5401 5.21742C44.4992 5.30208 44.4353 5.37351 44.3557 5.4235C44.276 5.47349 44.1839 5.50003 44.0899 5.50006H31.5018C31.3692 5.50006 31.242 5.4474 31.1483 5.35366C31.0545 5.25992 31.0018 5.13278 31.0018 5.00019V3.01297C31.0018 2.89924 31.0405 2.78891 31.1117 2.70019C31.1828 2.61146 31.2821 2.54965 31.3931 2.52495Z" fill="url(#paint4_linear_2151_18697)"/>
<path d="M35 4.5H45.5C46.0523 4.5 46.5 4.94771 46.5 5.49998V10C46.5 10.5523 46.0523 11 45.5 11H35C34.4477 11 34 10.5523 34 10V5.49998C34 4.94771 34.4477 4.5 35 4.5Z" fill="url(#paint5_linear_2151_18697)"/>
<path d="M43.5 9.75001H44.75C44.8826 9.75001 45.0098 9.69733 45.1035 9.60356C45.1973 9.50979 45.25 9.3826 45.25 9.24999V6.24999C45.25 6.11739 45.1973 5.99022 45.1035 5.89646C45.0098 5.8027 44.8826 5.75002 44.75 5.75002H43.5C43.4339 5.74938 43.3684 5.76184 43.3072 5.78668C43.246 5.81152 43.1903 5.84825 43.1433 5.89474C43.0964 5.94124 43.0591 5.99657 43.0337 6.05755C43.0083 6.11853 42.9952 6.18395 42.9952 6.25002C42.9952 6.31609 43.0083 6.3815 43.0337 6.44248C43.0591 6.50346 43.0964 6.5588 43.1433 6.60529C43.1903 6.65178 43.246 6.68851 43.3072 6.71335C43.3684 6.73819 43.4339 6.75065 43.5 6.75001H44.25V8.75002H43.5C43.4339 8.74938 43.3684 8.76184 43.3072 8.78668C43.246 8.81152 43.1903 8.84825 43.1433 8.89474C43.0964 8.94124 43.0591 8.99657 43.0337 9.05755C43.0083 9.11853 42.9952 9.18395 42.9952 9.25002C42.9952 9.31609 43.0083 9.3815 43.0337 9.44248C43.0591 9.50346 43.0964 9.5588 43.1433 9.60529C43.1903 9.65178 43.246 9.68851 43.3072 9.71335C43.3684 9.73819 43.4339 9.75065 43.5 9.75001Z" fill="url(#paint6_linear_2151_18697)"/>
<path d="M36.999 9.75001H35.749C35.6164 9.75 35.4893 9.69731 35.3955 9.60354C35.3017 9.50977 35.2491 9.3826 35.2491 9.24999V6.24999C35.2491 6.1174 35.3018 5.99023 35.3955 5.89647C35.4893 5.80271 35.6164 5.75004 35.749 5.75002H36.999C37.0651 5.74938 37.1307 5.76184 37.1919 5.78668C37.2531 5.81152 37.3088 5.84825 37.3557 5.89474C37.4027 5.94124 37.4399 5.99657 37.4654 6.05755C37.4908 6.11853 37.5039 6.18395 37.5039 6.25002C37.5039 6.31609 37.4908 6.3815 37.4654 6.44248C37.4399 6.50346 37.4027 6.5588 37.3557 6.60529C37.3088 6.65178 37.2531 6.68851 37.1919 6.71335C37.1307 6.73819 37.0651 6.75065 36.999 6.75001H36.249V8.75002H36.999C37.0651 8.74938 37.1307 8.76184 37.1919 8.78668C37.2531 8.81152 37.3088 8.84825 37.3557 8.89474C37.4027 8.94124 37.4399 8.99657 37.4654 9.05755C37.4908 9.11853 37.5039 9.18395 37.5039 9.25002C37.5039 9.31609 37.4908 9.3815 37.4654 9.44248C37.4399 9.50346 37.4027 9.5588 37.3557 9.60529C37.3088 9.65178 37.2531 9.68851 37.1919 9.71335C37.1307 9.73819 37.0651 9.75065 36.999 9.75001Z" fill="url(#paint7_linear_2151_18697)"/>
<path d="M40.25 9.75003C39.1454 9.75003 38.25 8.85459 38.25 7.75002C38.25 6.64544 39.1454 5.75 40.25 5.75C41.3546 5.75 42.25 6.64544 42.25 7.75002C42.25 8.85459 41.3546 9.75003 40.25 9.75003Z" fill="url(#paint8_linear_2151_18697)"/>
<path d="M31.5006 3.5H35.2506C35.3533 3.50005 35.4534 3.53165 35.5375 3.59052C35.6215 3.64939 35.6855 3.73268 35.7206 3.82911L36.0807 4.81958C36.1703 5.06416 36.3218 5.28134 36.5204 5.44988C36.7189 5.61843 36.9579 5.73259 37.2138 5.78122L40.5091 6.39903C40.7689 6.44729 41.0014 6.59096 41.1607 6.80181C41.3201 7.01267 41.3949 7.27549 41.3704 7.53866C41.346 7.80184 41.224 8.04637 41.0285 8.22423C40.833 8.40209 40.578 8.50044 40.3137 8.49997H35.141C34.6484 8.50067 34.1614 8.39671 33.712 8.19495L31.2968 7.11683C31.2086 7.07747 31.1337 7.01341 31.0811 6.93238C31.0286 6.85136 31.0006 6.75684 31.0006 6.66027V3.99997C31.0006 3.86736 31.0533 3.7402 31.1471 3.64643C31.2408 3.55267 31.368 3.5 31.5006 3.5Z" fill="url(#paint9_linear_2151_18697)"/>
<path d="M30 1.5H31C31.5523 1.5 32 1.94771 32 2.49998V7.00003C32 7.55231 31.5523 8.00002 31 8.00002H30C29.4477 8.00002 29 7.55231 29 7.00003V2.49998C29 1.94771 29.4477 1.5 30 1.5Z" fill="url(#paint10_linear_2151_18697)"/>
<path d="M5.42373 24H18.5732C19.3751 24 20.0312 23.3439 20.0312 22.542V1.45805C20.0312 0.656109 19.3751 0 18.5732 0H5.42378C4.62184 0 3.96573 0.656109 3.96573 1.45805V22.542C3.96569 23.3439 4.62184 24 5.42373 24Z" fill="#666666"/>
<path d="M10.858 13.011H13.1396C13.4584 13.011 13.7191 12.7502 13.7191 12.4315V10.1498C13.7191 9.83108 13.4584 9.57031 13.1396 9.57031H10.858C10.5392 9.57031 10.2785 9.83108 10.2785 10.1498V12.4315C10.2785 12.7502 10.5393 13.011 10.858 13.011ZM6.2765 13.011H8.55819C8.87694 13.011 9.1377 12.7502 9.1377 12.4315V10.1498C9.1377 9.83108 8.87694 9.57031 8.55819 9.57031H6.2765C5.95775 9.57031 5.69698 9.83108 5.69698 10.1498V12.4315C5.69698 12.7502 5.9577 13.011 6.2765 13.011ZM10.858 17.6232H13.1396C13.4584 17.6232 13.7191 17.3625 13.7191 17.0437V14.7621C13.7191 14.4433 13.4584 14.1826 13.1396 14.1826H10.858C10.5392 14.1826 10.2785 14.4433 10.2785 14.7621V17.0437C10.2785 17.3625 10.5393 17.6232 10.858 17.6232ZM6.2765 17.6232H8.55819C8.87694 17.6232 9.1377 17.3625 9.1377 17.0437V14.7621C9.1377 14.4433 8.87694 14.1826 8.55819 14.1826H6.2765C5.95775 14.1826 5.69698 14.4433 5.69698 14.7621V17.0437C5.69698 17.3625 5.9577 17.6232 6.2765 17.6232ZM15.4396 22.2424H17.7213C18.04 22.2424 18.3008 21.9816 18.3008 21.6629V19.3812C18.3008 19.0625 18.04 18.8017 17.7213 18.8017H15.4396C15.1208 18.8017 14.8601 19.0625 14.8601 19.3812V21.6629C14.8601 21.9816 15.1208 22.2424 15.4396 22.2424ZM10.858 22.2424H13.1396C13.4584 22.2424 13.7191 21.9816 13.7191 21.6629V19.3812C13.7191 19.0625 13.4584 18.8017 13.1396 18.8017H10.858C10.5392 18.8017 10.2785 19.0625 10.2785 19.3812V21.6629C10.2785 21.9816 10.5393 22.2424 10.858 22.2424Z" fill="#F4F4F4"/>
<path d="M6.27552 22.2415H8.5572C8.87595 22.2415 9.13672 21.9807 9.13672 21.662V19.3803C9.13672 19.0615 8.87595 18.8008 8.5572 18.8008H6.27552C5.95677 18.8008 5.696 19.0615 5.696 19.3803V21.662C5.696 21.9807 5.95672 22.2415 6.27552 22.2415Z" fill="#F94A46"/>
<path d="M18.836 22.542V1.45805C18.836 0.656109 18.1799 0 17.3779 0H18.5732C19.3751 0 20.0312 0.656109 20.0312 1.45805V22.542C20.0312 23.3439 19.3751 24 18.5732 24H17.3779C18.1799 24 18.836 23.3439 18.836 22.542Z" fill="#4F4D4D"/>
<path d="M15.4396 13.011H17.7213C18.04 13.011 18.3008 12.7502 18.3008 12.4315V10.1498C18.3008 9.83108 18.04 9.57031 17.7213 9.57031H15.4396C15.1208 9.57031 14.8601 9.83108 14.8601 10.1498V12.4315C14.8601 12.7502 15.1208 13.011 15.4396 13.011Z" fill="#F4F4F4"/>
<path d="M16.5804 12.4315V10.1498C16.5804 9.83108 16.3197 9.57031 16.0009 9.57031H17.7213C18.04 9.57031 18.3008 9.83108 18.3008 10.1498V12.4315C18.3008 12.7502 18.04 13.011 17.7213 13.011H16.0009C16.3196 13.011 16.5804 12.7502 16.5804 12.4315Z" fill="#E6E6E6"/>
<path d="M15.4396 17.6243H17.7213C18.04 17.6243 18.3008 17.3635 18.3008 17.0447V14.7631C18.3008 14.4444 18.04 14.1836 17.7213 14.1836H15.4396C15.1208 14.1836 14.8601 14.4444 14.8601 14.7631V17.0447C14.8601 17.3635 15.1208 17.6243 15.4396 17.6243Z" fill="#F4F4F4"/>
<path d="M17.7031 11.2972C17.7031 10.3602 16.6172 9.83492 15.8825 10.4139C15.7254 10.5377 15.6984 10.7654 15.8223 10.9226C15.9461 11.0797 16.1738 11.1066 16.3309 10.9828C16.5911 10.7776 16.9787 10.9615 16.9787 11.2972C16.9787 11.6309 16.5926 11.818 16.331 11.6117C16.2555 11.5534 16.16 11.5273 16.0653 11.539C15.9706 11.5507 15.8844 11.5993 15.8253 11.6742C15.7662 11.7491 15.7391 11.8443 15.7498 11.9391C15.7605 12.0339 15.8082 12.1206 15.8825 12.1805C16.6162 12.7593 17.7031 12.2352 17.7031 11.2972Z" fill="#CCCCCC"/>
<path d="M6.09734 3.41016H17.9005C18.0066 3.41016 18.1085 3.45233 18.1835 3.52741C18.2586 3.60248 18.3008 3.7043 18.3008 3.81047V7.54673C18.3008 7.6529 18.2586 7.75472 18.1835 7.8298C18.1085 7.90487 18.0066 7.94705 17.9005 7.94705H6.09734C5.99117 7.94705 5.88935 7.90487 5.81428 7.8298C5.73921 7.75472 5.69703 7.6529 5.69703 7.54673V3.81047C5.69703 3.7043 5.73921 3.60248 5.81428 3.52741C5.88935 3.45233 5.99117 3.41016 6.09734 3.41016Z" fill="#70B5E8"/>
<path d="M17.1018 7.54669V3.81047C17.1018 3.7043 17.0596 3.60248 16.9845 3.52741C16.9094 3.45233 16.8076 3.41016 16.7015 3.41016H17.9005C18.0066 3.41016 18.1085 3.45233 18.1835 3.52741C18.2586 3.60248 18.3008 3.7043 18.3008 3.81047V7.54669C18.3008 7.65286 18.2586 7.75468 18.1835 7.82975C18.1085 7.90482 18.0066 7.947 17.9005 7.947H16.7014C16.754 7.94701 16.806 7.93666 16.8546 7.91654C16.9032 7.89643 16.9473 7.86694 16.9845 7.82977C17.0217 7.79259 17.0512 7.74846 17.0713 7.69989C17.0914 7.65132 17.1018 7.59926 17.1018 7.54669Z" fill="#4AA5D3"/>
<path d="M6.08342 2.0955H9.1378C9.23386 2.0955 9.32599 2.05734 9.39391 1.98941C9.46184 1.92149 9.5 1.82936 9.5 1.7333C9.5 1.63723 9.46184 1.54511 9.39391 1.47718C9.32599 1.40925 9.23386 1.37109 9.1378 1.37109H6.08342C5.98736 1.37109 5.89523 1.40925 5.82731 1.47718C5.75938 1.54511 5.72122 1.63723 5.72122 1.7333C5.72122 1.82936 5.75938 1.92149 5.82731 1.98941C5.89523 2.05734 5.98736 2.0955 6.08342 2.0955Z" fill="#FFB70D"/>
<path d="M16.5804 17.0438V14.7621C16.5804 14.4434 16.3197 14.1826 16.0009 14.1826H17.7213C18.04 14.1826 18.3008 14.4434 18.3008 14.7621V17.0438C18.3008 17.3626 18.04 17.6233 17.7213 17.6233H16.0009C16.3196 17.6233 16.5804 17.3625 16.5804 17.0438ZM16.5804 21.6629V19.3812C16.5804 19.0625 16.3197 18.8017 16.0009 18.8017H17.7213C18.04 18.8017 18.3008 19.0625 18.3008 19.3812V21.6629C18.3008 21.9817 18.04 22.2425 17.7213 22.2425H16.0009C16.3196 22.2425 16.5804 21.9817 16.5804 21.6629ZM11.9989 12.4315V10.1498C11.9989 9.83108 11.7381 9.57031 11.4193 9.57031H13.1397C13.4585 9.57031 13.7192 9.83108 13.7192 10.1498V12.4315C13.7192 12.7502 13.4585 13.011 13.1397 13.011H11.4193C11.7381 13.011 11.9989 12.7502 11.9989 12.4315ZM11.9989 17.0438V14.7621C11.9989 14.4434 11.7381 14.1826 11.4193 14.1826H13.1397C13.4585 14.1826 13.7192 14.4434 13.7192 14.7621V17.0438C13.7192 17.3626 13.4585 17.6233 13.1397 17.6233H11.4193C11.7381 17.6233 11.9989 17.3625 11.9989 17.0438ZM11.9989 21.6629V19.3812C11.9989 19.0625 11.7381 18.8017 11.4193 18.8017H13.1397C13.4585 18.8017 13.7192 19.0625 13.7192 19.3812V21.6629C13.7192 21.9817 13.4585 22.2425 13.1397 22.2425H11.4193C11.7381 22.2425 11.9989 21.9817 11.9989 21.6629ZM7.4173 12.4315V10.1498C7.4173 9.83108 7.15653 9.57031 6.83778 9.57031H8.55814C8.87689 9.57031 9.13766 9.83108 9.13766 10.1498V12.4315C9.13766 12.7502 8.87689 13.011 8.55814 13.011H6.83778C7.15653 13.011 7.4173 12.7502 7.4173 12.4315ZM7.4173 17.0438V14.7621C7.4173 14.4434 7.15653 14.1826 6.83778 14.1826H8.55814C8.87689 14.1826 9.13766 14.4434 9.13766 14.7621V17.0438C9.13766 17.3626 8.87689 17.6233 8.55814 17.6233H6.83778C7.15653 17.6233 7.4173 17.3625 7.4173 17.0438Z" fill="#E6E6E6"/>
<path d="M7.41636 21.662V19.3803C7.41636 19.0615 7.15559 18.8008 6.83684 18.8008H8.5572C8.87595 18.8008 9.13672 19.0615 9.13672 19.3803V21.662C9.13672 21.9807 8.87595 22.2415 8.5572 22.2415H6.83684C7.15559 22.2415 7.41636 21.9807 7.41636 21.662Z" fill="#EA3939"/>
<path d="M17.2671 16.594C17.3007 16.5604 17.3274 16.5204 17.3456 16.4765C17.3638 16.4326 17.3732 16.3855 17.3732 16.3379C17.3732 16.2903 17.3638 16.2432 17.3456 16.1993C17.3274 16.1554 17.3007 16.1154 17.2671 16.0818L16.402 15.2167C16.3338 15.1504 16.2422 15.1136 16.147 15.1142C16.0519 15.1149 15.9608 15.153 15.8935 15.2203C15.8262 15.2876 15.7881 15.3787 15.7874 15.4738C15.7867 15.569 15.8235 15.6606 15.8898 15.7288L16.7549 16.594C16.7885 16.6276 16.8285 16.6543 16.8724 16.6725C16.9163 16.6907 16.9634 16.7001 17.011 16.7001C17.0586 16.7001 17.1057 16.6907 17.1496 16.6725C17.1935 16.6543 17.2335 16.6276 17.2671 16.594ZM17.4319 15.5637C17.685 15.3125 17.4544 14.8815 17.105 14.9528C16.9354 14.9856 16.8138 15.1363 16.8138 15.3078C16.8138 15.4238 16.8713 15.5405 16.9751 15.6086C17.0145 15.6349 17.0586 15.6533 17.105 15.6627C17.1287 15.6676 17.3503 15.646 17.4319 15.5637ZM16.2372 16.759C16.2706 16.7252 16.2971 16.6854 16.3154 16.6416C16.3535 16.5497 16.3508 16.448 16.3154 16.3644C16.2773 16.2739 16.2117 16.2074 16.1194 16.1683C16.0644 16.1455 16.0047 16.1366 15.9454 16.1424C15.8862 16.1482 15.8293 16.1686 15.7799 16.2017C15.6986 16.2552 15.6453 16.3387 15.6258 16.432C15.6162 16.4787 15.6162 16.5269 15.6258 16.5735C15.6352 16.6201 15.6535 16.6644 15.6799 16.7039C15.7335 16.7852 15.8168 16.8385 15.9103 16.858C15.9334 16.8628 16.1509 16.8453 16.2372 16.759ZM16.5785 21.6915C17.1878 21.6915 17.6836 21.168 17.6836 20.5244C17.6836 19.8809 17.1878 19.3574 16.5785 19.3574C15.9691 19.3574 15.4733 19.8809 15.4733 20.5244C15.4733 21.168 15.9691 21.6915 16.5785 21.6915ZM16.5785 20.0818C16.7884 20.0818 16.9592 20.2804 16.9592 20.5244C16.9592 20.7685 16.7884 20.9671 16.5785 20.9671C16.3685 20.9671 16.1978 20.7685 16.1978 20.5244C16.1977 20.2804 16.3685 20.0818 16.5785 20.0818ZM11.3852 11.6619H12.6086C12.7047 11.6619 12.7968 11.6237 12.8647 11.5558C12.9327 11.4879 12.9708 11.3958 12.9708 11.2997C12.9708 11.2036 12.9327 11.1115 12.8647 11.0436C12.7968 10.9757 12.7047 10.9375 12.6086 10.9375H11.3852C11.3377 10.9375 11.2906 10.9469 11.2466 10.9651C11.2027 10.9833 11.1627 11.0099 11.1291 11.0436C11.0955 11.0772 11.0688 11.1171 11.0506 11.1611C11.0324 11.205 11.023 11.2521 11.023 11.2997C11.023 11.3472 11.0324 11.3943 11.0506 11.4383C11.0688 11.4822 11.0954 11.5222 11.1291 11.5558C11.1627 11.5894 11.2026 11.6161 11.2466 11.6343C11.2905 11.6525 11.3376 11.6619 11.3852 11.6619ZM12.6855 16.594C12.7192 16.5604 12.7459 16.5204 12.7641 16.4765C12.7823 16.4326 12.7916 16.3855 12.7916 16.3379C12.7916 16.2903 12.7823 16.2432 12.7641 16.1993C12.7459 16.1554 12.7192 16.1154 12.6855 16.0818L11.8205 15.2167C11.7522 15.1504 11.6606 15.1136 11.5655 15.1142C11.4703 15.1149 11.3792 15.153 11.3119 15.2203C11.2447 15.2876 11.2065 15.3787 11.2059 15.4738C11.2052 15.569 11.242 15.6606 11.3083 15.7288L12.1733 16.594C12.207 16.6276 12.2469 16.6543 12.2908 16.6725C12.3348 16.6907 12.3819 16.7001 12.4294 16.7001C12.477 16.7001 12.5241 16.6907 12.568 16.6725C12.612 16.6543 12.6519 16.6276 12.6855 16.594Z" fill="#CCCCCC"/>
<path d="M11.8218 16.5913L12.6869 15.7262C12.7548 15.6583 12.793 15.5662 12.793 15.4701C12.793 15.3741 12.7548 15.2819 12.6869 15.214C12.619 15.1461 12.5268 15.108 12.4308 15.108C12.3347 15.108 12.2426 15.1461 12.1747 15.214L11.3096 16.0792C11.2417 16.1471 11.2036 16.2392 11.2036 16.3353C11.2036 16.4313 11.2417 16.5234 11.3096 16.5914C11.3776 16.6593 11.4697 16.6974 11.5657 16.6974C11.6618 16.6974 11.7539 16.6593 11.8218 16.5913ZM12.3326 20.3831C12.2068 20.0853 11.7889 20.0874 11.6638 20.3831C11.5744 20.5943 11.7082 20.8356 11.9274 20.8767C12.2122 20.9346 12.444 20.6464 12.3326 20.3831ZM12.1994 10.7531C12.281 10.6993 12.3341 10.6154 12.3534 10.5227C12.373 10.4288 12.352 10.3309 12.2993 10.2508C12.2483 10.1734 12.167 10.1173 12.069 10.0968C11.8434 10.0527 11.6362 10.2251 11.6362 10.4522C11.6362 10.62 11.7519 10.7707 11.9275 10.8071C11.9506 10.8115 12.1212 10.8044 12.1994 10.7531ZM12.3326 12.2806C12.351 12.2368 12.3605 12.1897 12.3605 12.1422C12.3605 12.0947 12.351 12.0476 12.3326 12.0038C12.297 11.9176 12.2307 11.8472 12.1371 11.8078C12.0285 11.7629 11.9029 11.7715 11.7971 11.8411C11.718 11.8932 11.663 11.9756 11.643 12.0715C11.5774 12.4214 12.167 12.6817 12.3326 12.2806ZM6.82622 20.3507H8.04965C8.14572 20.3507 8.23784 20.3125 8.30577 20.2446C8.3737 20.1767 8.41186 20.0846 8.41186 19.9885C8.41186 19.8924 8.3737 19.8003 8.30577 19.7324C8.23784 19.6645 8.14572 19.6263 8.04965 19.6263H6.82622C6.73015 19.6263 6.63803 19.6645 6.5701 19.7324C6.50217 19.8003 6.46401 19.8924 6.46401 19.9885C6.46401 20.0846 6.50217 20.1767 6.5701 20.2446C6.63803 20.3125 6.73015 20.3507 6.82622 20.3507ZM6.82622 11.6526H8.04965C8.14572 11.6526 8.23784 11.6144 8.30577 11.5465C8.3737 11.4786 8.41186 11.3864 8.41186 11.2904C8.41186 11.1943 8.3737 11.1022 8.30577 11.0343C8.23784 10.9663 8.14572 10.9282 8.04965 10.9282H6.82622C6.73015 10.9282 6.63803 10.9663 6.5701 11.0343C6.50217 11.1022 6.46401 11.1943 6.46401 11.2904C6.46401 11.3864 6.50217 11.4786 6.5701 11.5465C6.63803 11.6144 6.73015 11.6526 6.82622 11.6526ZM6.82622 16.2649H8.04965C8.14572 16.2649 8.23784 16.2267 8.30577 16.1588C8.3737 16.0909 8.41186 15.9988 8.41186 15.9027C8.41186 15.8066 8.3737 15.7145 8.30577 15.6466C8.23784 15.5786 8.14572 15.5405 8.04965 15.5405H6.82622C6.73015 15.5405 6.63803 15.5786 6.5701 15.6466C6.50217 15.7145 6.46401 15.8066 6.46401 15.9027C6.46401 15.9988 6.50217 16.0909 6.5701 16.1588C6.63803 16.2267 6.73015 16.2649 6.82622 16.2649Z" fill="#CCCCCC"/>
<path d="M7.43624 16.8775C7.5323 16.8775 7.62443 16.8393 7.69235 16.7714C7.76028 16.7035 7.79844 16.6113 7.79844 16.5153V15.2919C7.79844 15.1958 7.76028 15.1037 7.69235 15.0358C7.62443 14.9678 7.5323 14.9297 7.43624 14.9297C7.34017 14.9297 7.24804 14.9678 7.18012 15.0358C7.11219 15.1037 7.07403 15.1958 7.07403 15.2919V16.5153C7.07403 16.6113 7.11219 16.7035 7.18012 16.7714C7.24804 16.8393 7.34017 16.8775 7.43624 16.8775ZM6.82452 21.3818H8.04795C8.14402 21.3818 8.23614 21.3437 8.30407 21.2758C8.372 21.2078 8.41016 21.1157 8.41016 21.0196C8.41016 20.9236 8.372 20.8314 8.30407 20.7635C8.23614 20.6956 8.14402 20.6574 8.04795 20.6574H6.82452C6.72845 20.6574 6.63633 20.6956 6.5684 20.7635C6.50047 20.8314 6.46231 20.9236 6.46231 21.0196C6.46231 21.1157 6.50047 21.2078 6.5684 21.2758C6.63633 21.3437 6.72845 21.3818 6.82452 21.3818Z" fill="#CCCCCC"/>
<defs>
<linearGradient id="paint0_linear_2151_18697" x1="41.25" y1="11.9732" x2="41.25" y2="18.9302" gradientUnits="userSpaceOnUse">
<stop stop-color="#FED200"/>
<stop offset="1" stop-color="#F59815"/>
</linearGradient>
<linearGradient id="paint1_linear_2151_18697" x1="41.25" y1="12.0937" x2="41.25" y2="15.1674" gradientUnits="userSpaceOnUse">
<stop stop-color="#FD9B02"/>
<stop offset="1" stop-color="#FF7302"/>
</linearGradient>
<linearGradient id="paint2_linear_2151_18697" x1="41.7496" y1="16.553" x2="41.7496" y2="22.8211" gradientUnits="userSpaceOnUse">
<stop stop-color="#F1D2BD"/>
<stop offset="1" stop-color="#FEB592"/>
</linearGradient>
<linearGradient id="paint3_linear_2151_18697" x1="49.5" y1="16.2372" x2="49.5" y2="22.711" gradientUnits="userSpaceOnUse">
<stop stop-color="#34CA82"/>
<stop offset="1" stop-color="#37A477"/>
</linearGradient>
<linearGradient id="paint4_linear_2151_18697" x1="37.7959" y1="0.884094" x2="37.7959" y2="8.18052" gradientUnits="userSpaceOnUse">
<stop stop-color="#F1D2BD"/>
<stop offset="1" stop-color="#FEB592"/>
</linearGradient>
<linearGradient id="paint5_linear_2151_18697" x1="46.5979" y1="4.85845" x2="33.8964" y2="10.6441" gradientUnits="userSpaceOnUse">
<stop stop-color="#34CA82"/>
<stop offset="1" stop-color="#37A477"/>
</linearGradient>
<linearGradient id="paint6_linear_2151_18697" x1="47.0327" y1="6.27971" x2="35.0544" y2="12.3366" gradientUnits="userSpaceOnUse">
<stop stop-color="#37AA79"/>
<stop offset="1" stop-color="#398A70"/>
</linearGradient>
<linearGradient id="paint7_linear_2151_18697" x1="45.4536" y1="3.15882" x2="33.4754" y2="9.21578" gradientUnits="userSpaceOnUse">
<stop stop-color="#37AA79"/>
<stop offset="1" stop-color="#398A70"/>
</linearGradient>
<linearGradient id="paint8_linear_2151_18697" x1="46.1782" y1="4.63944" x2="34.2903" y2="10.8772" gradientUnits="userSpaceOnUse">
<stop stop-color="#37AA79"/>
<stop offset="1" stop-color="#398A70"/>
</linearGradient>
<linearGradient id="paint9_linear_2151_18697" x1="36.1869" y1="0.883906" x2="36.1869" y2="8.18033" gradientUnits="userSpaceOnUse">
<stop stop-color="#F1D2BD"/>
<stop offset="1" stop-color="#FEB592"/>
</linearGradient>
<linearGradient id="paint10_linear_2151_18697" x1="30.5" y1="1.23047" x2="30.5" y2="8.28239" gradientUnits="userSpaceOnUse">
<stop stop-color="#34CA82"/>
<stop offset="1" stop-color="#37A477"/>
</linearGradient>
</defs>
</svg>
