<svg width="25" height="24" viewBox="0 0 25 24" fill="none" xmlns="http://www.w3.org/2000/svg">
<path d="M3.43125 0.838868C2.38594 1.14356 1.59375 1.95449 1.32656 2.98574C1.21406 3.41231 1.21406 8.5873 1.32656 9.01387C1.59844 10.0686 2.47031 10.9357 3.51094 11.1795C3.95156 11.2826 9.05625 11.2826 9.49688 11.1795C10.275 10.9967 11.0391 10.3967 11.4094 9.67949C11.7563 9.00449 11.7516 9.06543 11.7516 5.9998C11.7516 2.94824 11.7563 2.99043 11.4188 2.33887C11.0719 1.67793 10.4813 1.15762 9.76875 0.895118L9.43125 0.773243L6.57188 0.763867C3.96563 0.754493 3.68906 0.763867 3.43125 0.838868ZM9.18281 2.33418C9.62344 2.48418 10.0359 2.90137 10.1672 3.34199C10.2563 3.62324 10.2563 8.37637 10.1672 8.65762C10.0312 9.10293 9.60469 9.52949 9.15938 9.66543C8.87813 9.75449 4.125 9.75449 3.84375 9.66543C3.40313 9.53418 2.98594 9.12168 2.83594 8.68105C2.76094 8.44668 2.72344 4.06387 2.79844 3.59981C2.90625 2.88731 3.35156 2.41856 4.02188 2.30137C4.41094 2.23574 8.96719 2.26387 9.18281 2.33418Z" fill="#151515"/>
<path d="M18.093 0.843653C18.0086 0.890528 17.9055 0.988965 17.8633 1.05928C17.8164 1.1249 17.6664 1.66865 17.5305 2.26865C17.2445 3.52022 17.118 3.82959 16.7242 4.22334C16.3305 4.61709 16.0211 4.74365 14.7648 5.02959C14.1695 5.17022 13.6258 5.31553 13.5555 5.3624C13.143 5.63428 13.143 6.36553 13.5555 6.6374C13.6258 6.68428 14.1695 6.82959 14.7648 6.97022C16.0211 7.25615 16.3305 7.38271 16.7242 7.77646C17.118 8.17022 17.2445 8.47959 17.5305 9.73115C17.6664 10.3312 17.8164 10.8749 17.8633 10.9405C18.1352 11.3577 18.8664 11.3577 19.1383 10.9405C19.1852 10.8749 19.3352 10.3312 19.4711 9.73115C19.757 8.47959 19.8836 8.17022 20.2773 7.77646C20.6711 7.38271 20.9805 7.25615 22.232 6.97022C22.832 6.83428 23.3758 6.68428 23.4414 6.6374C23.8586 6.36553 23.8586 5.63428 23.4414 5.3624C23.3758 5.31553 22.832 5.16553 22.232 5.02959C20.9805 4.74365 20.6711 4.61709 20.2773 4.22334C19.8836 3.82959 19.757 3.52022 19.4711 2.26865C19.3352 1.66865 19.1852 1.1249 19.1383 1.05928C19.007 0.853028 18.7914 0.749903 18.5008 0.749903C18.3273 0.749903 18.1914 0.778028 18.093 0.843653ZM18.7352 4.79053C18.9789 5.17022 19.4102 5.59209 19.7852 5.81709C19.9258 5.90615 20.043 5.98584 20.043 5.9999C20.043 6.01397 19.9258 6.09365 19.7852 6.18271C19.4102 6.40772 18.9789 6.82959 18.7352 7.20928C18.618 7.39209 18.5148 7.54209 18.5008 7.54209C18.4867 7.54209 18.3836 7.39209 18.2664 7.20928C18.0227 6.82959 17.5914 6.40772 17.2164 6.18271C17.0758 6.09365 16.9586 6.01397 16.9586 5.9999C16.9586 5.98584 17.0758 5.90615 17.2164 5.81709C17.5914 5.59209 18.0227 5.17022 18.2664 4.79053C18.3836 4.60772 18.4867 4.45772 18.5008 4.45772C18.5148 4.45772 18.618 4.60772 18.7352 4.79053Z" fill="#151515"/>
<path d="M3.43125 12.8389C2.38594 13.1436 1.59375 13.9545 1.32656 14.9857C1.21406 15.4123 1.21406 20.5873 1.32656 21.0139C1.59844 22.0686 2.47031 22.9357 3.51094 23.1795C3.95156 23.2826 9.05625 23.2826 9.49688 23.1795C10.275 22.9967 11.0391 22.3967 11.4094 21.6795C11.7563 21.0045 11.7516 21.0654 11.7516 17.9998C11.7516 14.9482 11.7563 14.9904 11.4188 14.3389C11.0719 13.6779 10.4813 13.1576 9.76875 12.8951L9.43125 12.7732L6.57188 12.7639C3.96563 12.7545 3.68906 12.7639 3.43125 12.8389ZM9.18281 14.3342C9.62344 14.4842 10.0359 14.9014 10.1672 15.342C10.2563 15.6232 10.2563 20.3764 10.1672 20.6576C10.0312 21.1029 9.60469 21.5295 9.15938 21.6654C8.87813 21.7545 4.125 21.7545 3.84375 21.6654C3.40313 21.5342 2.98594 21.1217 2.83594 20.6811C2.76094 20.4467 2.72344 16.0639 2.79844 15.5998C2.90625 14.8873 3.35156 14.4186 4.02188 14.3014C4.41094 14.2357 8.96719 14.2639 9.18281 14.3342Z" fill="#151515"/>
<path d="M15.4313 12.8389C14.3859 13.1436 13.5938 13.9545 13.3266 14.9857C13.2141 15.4123 13.2141 20.5873 13.3266 21.0139C13.5984 22.0686 14.4703 22.9357 15.5109 23.1795C15.9516 23.2826 21.0563 23.2826 21.4969 23.1795C22.275 22.9967 23.0391 22.3967 23.4094 21.6795C23.7563 21.0045 23.7516 21.0654 23.7516 17.9998C23.7516 14.9482 23.7563 14.9904 23.4188 14.3389C23.0719 13.6779 22.4813 13.1576 21.7688 12.8951L21.4313 12.7732L18.5719 12.7639C15.9656 12.7545 15.6891 12.7639 15.4313 12.8389ZM21.1828 14.3342C21.6234 14.4842 22.0359 14.9014 22.1672 15.342C22.2563 15.6232 22.2563 20.3764 22.1672 20.6576C22.0312 21.1029 21.6047 21.5295 21.1594 21.6654C20.8781 21.7545 16.125 21.7545 15.8438 21.6654C15.4031 21.5342 14.9859 21.1217 14.8359 20.6811C14.7609 20.4467 14.7234 16.0639 14.7984 15.5998C14.9063 14.8873 15.3516 14.4186 16.0219 14.3014C16.4109 14.2357 20.9672 14.2639 21.1828 14.3342Z" fill="#151515"/>
</svg>
