<svg width="24" height="24" viewBox="0 0 24 24" fill="none" xmlns="http://www.w3.org/2000/svg">
<path d="M8.63487 1.55262C8.8325 1.60417 9.00865 1.70729 9.15902 1.86625C9.43398 2.1498 9.42968 2.11543 9.42968 4.39245C9.42968 6.66947 9.43398 6.6351 9.15902 6.91866C8.89265 7.19791 8.74658 7.24517 8.04199 7.26236C7.30733 7.28384 7.37177 7.2151 7.47488 7.87243C7.50925 8.09583 7.53933 8.34072 7.53933 8.41805C7.53933 8.5942 7.36318 8.80042 7.16985 8.85627C6.882 8.9379 6.79607 8.87346 6.04852 8.04858L5.34823 7.27525L3.55669 7.26236C1.80811 7.24947 1.75655 7.24517 1.589 7.15495C1.36559 7.03466 1.15937 6.81984 1.07774 6.61792C0.974631 6.37733 0.974631 2.40758 1.07774 2.16699C1.15937 1.96506 1.36559 1.75025 1.589 1.62995C1.76085 1.53543 1.76514 1.53543 5.13342 1.52684C6.9894 1.52255 8.56184 1.53543 8.63487 1.55262ZM1.9327 2.28728C1.705 2.37321 1.6964 2.46772 1.6964 4.39245C1.6964 6.21407 1.70929 6.37733 1.87255 6.48044C1.90692 6.50192 2.77906 6.5277 3.81446 6.54059L5.69623 6.56207L5.89815 6.77688C6.00986 6.89288 6.23756 7.14636 6.40511 7.3311L6.71015 7.6705L6.67578 7.45999C6.60704 7.03036 6.62422 6.85421 6.7617 6.70384L6.88629 6.56207L7.71118 6.54059C8.51458 6.5191 8.53606 6.51481 8.61769 6.41599C8.69502 6.32148 8.69932 6.22266 8.69932 4.40534C8.69932 3.13794 8.68213 2.46772 8.65206 2.41187C8.62628 2.36461 8.56613 2.30876 8.51458 2.28728C8.38139 2.23573 2.07448 2.23143 1.9327 2.28728Z" fill="#151515"/>
<path d="M7.55504 3.4944C8.04052 3.64906 8.31119 4.16462 8.16941 4.65869C8.04482 5.08402 7.73119 5.31602 7.27578 5.32031C7.03519 5.32031 6.96216 5.30313 6.78601 5.19142C6.02128 4.71884 6.30483 3.54166 7.19845 3.47292C7.32734 3.46003 7.4863 3.47292 7.55504 3.4944ZM7.1426 4.25484C7.04379 4.34506 7.04379 4.44817 7.1469 4.54269C7.32304 4.70165 7.56363 4.48254 7.43045 4.28491C7.35312 4.16462 7.2543 4.15173 7.1426 4.25484Z" fill="#151515"/>
<path d="M5.48588 3.4901C5.71358 3.56314 5.90691 3.7178 6.02721 3.91543C6.19476 4.20328 6.19476 4.58995 6.02291 4.8778C5.85106 5.17424 5.58469 5.32031 5.21951 5.32031C4.99181 5.32031 4.90159 5.29883 4.73833 5.20002C4.14545 4.85202 4.13685 3.94551 4.72544 3.60181C4.93166 3.47721 5.28825 3.42996 5.48588 3.4901ZM5.08203 4.25484C4.98751 4.34076 4.98322 4.43099 5.07774 4.5341C5.16366 4.62861 5.25388 4.63291 5.35699 4.53839C5.45151 4.45247 5.45581 4.36224 5.36129 4.25913C5.27536 4.16462 5.18514 4.16032 5.08203 4.25484Z" fill="#151515"/>
<path d="M3.45995 3.50729C3.72202 3.6061 3.87669 3.74358 3.99698 3.98847C4.14306 4.28921 4.13017 4.58995 3.95832 4.88209C3.78647 5.17424 3.5158 5.32031 3.15492 5.32031C2.76825 5.31602 2.4847 5.14417 2.30426 4.80476C2.21403 4.63291 2.21403 4.16032 2.30426 3.98847C2.39018 3.82092 2.57922 3.63188 2.73818 3.55025C2.91432 3.46003 3.27521 3.43855 3.45995 3.50729ZM3.00455 4.28491C2.87136 4.48254 3.11195 4.70165 3.2881 4.54269C3.38691 4.45247 3.39121 4.36225 3.29669 4.25913C3.20217 4.15173 3.08188 4.16032 3.00455 4.28491Z" fill="#151515"/>
<path d="M16.0455 6.4174C17.5578 6.69666 18.7908 7.34539 19.8692 8.43235C20.9346 9.51071 21.592 10.7996 21.8411 12.3205L21.9099 12.7458L22.086 12.7974C22.4727 12.9091 22.8551 13.2914 22.9668 13.6781C22.9968 13.7726 23.0054 14.301 22.9968 15.1173C22.984 16.3633 22.9797 16.4105 22.8851 16.591C22.636 17.0592 22.2407 17.2955 21.665 17.3213L21.2869 17.3385V17.7123C21.2869 18.1419 21.1838 18.4169 20.9389 18.6489C20.664 18.9109 20.4749 18.9625 19.809 18.9625H19.2118L18.7779 19.3835C17.9487 20.1912 17.0637 20.6638 15.9467 20.9001C15.328 21.0333 14.3141 21.0333 13.6954 20.9001C11.9254 20.5263 10.4818 19.3835 9.70849 17.7467L9.51086 17.3342L8.55709 17.3213C7.66347 17.3084 7.59043 17.3041 7.40569 17.2096C7.15221 17.085 6.87725 16.8101 6.75696 16.5609C6.66244 16.3718 6.65814 16.3117 6.64525 15.1173C6.63666 14.2495 6.64955 13.8156 6.68392 13.6867C6.78703 13.3086 7.14792 12.9391 7.53888 12.8059C7.72362 12.7458 7.73221 12.7329 7.76658 12.5353C7.8568 11.9897 7.98569 11.444 8.10598 11.1046C8.93087 8.74168 10.92 6.9888 13.3732 6.45606C13.9919 6.32288 15.4182 6.3014 16.0455 6.4174ZM13.8114 7.13058C12.9221 7.26376 11.8738 7.69339 11.0919 8.2519C10.4217 8.73308 9.6999 9.53649 9.27886 10.284C8.92227 10.9113 8.59576 11.8651 8.51413 12.5267L8.48406 12.7329H8.84924H9.21012L9.2359 12.5697C9.5882 10.4387 11.0446 8.72449 13.0725 8.05428C14.1079 7.71057 15.4741 7.70198 16.5224 8.03279C17.6179 8.3765 18.6447 9.10256 19.3364 10.022C19.8305 10.6793 20.2472 11.6374 20.389 12.4537L20.4363 12.7329H20.7972C21.2096 12.7329 21.1881 12.7716 21.0893 12.256C20.6597 9.99189 19.0701 8.15309 16.879 7.39265C15.8994 7.04895 14.9199 6.96732 13.8114 7.13058ZM13.6611 8.65146C12.7245 8.88775 11.9769 9.32597 11.2895 10.0392C10.7439 10.6063 10.3701 11.2292 10.1467 11.9381C10.0307 12.3119 9.9276 12.8145 9.96197 12.8489C9.97056 12.8618 10.0866 12.8145 10.2112 12.7501C10.5763 12.5525 11.1177 11.9725 11.5559 11.3065C11.7664 10.98 11.9812 10.7008 12.0285 10.6879C12.1788 10.6363 12.3636 10.6621 12.4366 10.7437C12.4753 10.7867 12.5526 10.9371 12.6042 11.0788C12.7417 11.444 12.9135 11.6975 13.2529 12.0197C14.0864 12.8059 15.5256 13.2742 17.4074 13.3731C18.0261 13.4074 19.3579 13.3688 19.6243 13.3086L19.7489 13.2828L19.7188 12.995C19.5341 11.212 18.4901 9.72982 16.8833 8.96938C15.9166 8.50968 14.7008 8.38938 13.6611 8.65146ZM11.818 12.2302C11.3411 12.8833 10.7439 13.3731 10.1596 13.5922L9.89323 13.691L9.91471 14.8767C9.9319 15.968 9.94479 16.0969 10.0436 16.4921C10.2498 17.2998 10.5849 17.9572 11.1048 18.5629C12.312 19.985 14.2625 20.5951 16.0584 20.1225C16.72 19.9463 17.5019 19.5382 18.0218 19.0914L18.1721 18.9668L17.6523 18.9625H17.1281L17.0766 19.0914C17.0036 19.2718 16.6856 19.5468 16.488 19.6069C16.3892 19.637 16.0884 19.6499 15.6932 19.6413C15.0745 19.6284 15.0616 19.6284 14.8812 19.4995C14.2196 19.0355 14.2797 18.0302 14.9886 17.665C15.1304 17.592 15.2636 17.5705 15.6674 17.5533C16.4279 17.5232 16.7887 17.6564 17.0207 18.0474L17.1281 18.2321H17.9745H18.8209L19.0228 17.897C19.5684 16.9862 19.7403 16.2687 19.7403 14.8467C19.7403 14.0733 19.736 14.0175 19.6629 14.039C19.6243 14.0519 19.2462 14.0819 18.8252 14.1077C15.8693 14.2839 13.3302 13.4976 12.3077 12.0928C12.2046 11.951 12.1058 11.8479 12.0886 11.8651C12.0757 11.8822 11.9511 12.0455 11.818 12.2302ZM20.4706 14.5889C20.4663 15.5985 20.4363 16.1184 20.3589 16.4793L20.3332 16.5995H21.085C21.7896 16.5995 21.8411 16.5953 21.9743 16.5007C22.056 16.4492 22.1591 16.3375 22.2063 16.2558C22.2923 16.1141 22.2966 16.0367 22.2966 15.0314C22.2966 14.0261 22.2923 13.9488 22.2063 13.807C22.1591 13.7253 22.056 13.6136 21.9743 13.5621C21.8411 13.4719 21.7853 13.4633 21.1537 13.4633H20.4706V14.5889ZM7.67636 13.5492C7.59902 13.5965 7.50021 13.6953 7.45295 13.7726C7.37132 13.9058 7.36703 13.9917 7.36703 15.0314C7.36703 16.0711 7.37132 16.157 7.45295 16.2902C7.6248 16.5695 7.73221 16.5995 8.56568 16.5995H9.30894L9.28316 16.4492C9.20153 16.0281 9.17146 15.4911 9.17146 14.5245V13.4633H8.49265C7.89547 13.4633 7.80095 13.4719 7.67636 13.5492ZM20.0797 17.4459C20.0582 17.5104 19.9594 17.7123 19.8692 17.897L19.6973 18.2321H19.9938C20.2687 18.2321 20.3031 18.2235 20.4234 18.0989C20.548 17.9744 20.5566 17.9486 20.5566 17.6478V17.3299H20.3417C20.1441 17.3299 20.1226 17.3428 20.0797 17.4459ZM15.3194 18.3395C15.1089 18.4469 15.0788 18.6746 15.255 18.8379C15.3452 18.9238 15.4182 18.941 15.6889 18.9582C15.8693 18.9668 16.0884 18.9496 16.1787 18.9238C16.4794 18.8336 16.5439 18.5157 16.2947 18.3438C16.1658 18.2536 15.4913 18.2493 15.3194 18.3395Z" fill="#151515"/>
</svg>
