<svg width="24" height="18" viewBox="0 0 24 18" fill="none" xmlns="http://www.w3.org/2000/svg">
<mask id="mask0_2146_56968" style="mask-type:luminance" maskUnits="userSpaceOnUse" x="0" y="0" width="24" height="18">
<path d="M0 0H23.9977V18H0V0Z" fill="white"/>
</mask>
<g mask="url(#mask0_2146_56968)">
<path fill-rule="evenodd" clip-rule="evenodd" d="M-1.5 0H25.5V18H-1.5V0Z" fill="#165D31"/>
<path fill-rule="evenodd" clip-rule="evenodd" d="M5.30298 5.10342C5.27485 5.5253 5.23267 6.26358 5.59477 6.34092C6.0272 6.38311 5.78813 5.60967 5.94634 5.46905C5.97446 5.39874 6.0272 5.39874 6.03071 5.48663V6.14405C6.03071 6.35499 6.17134 6.41827 6.27681 6.46045C6.38931 6.45342 6.46665 6.46045 6.50884 6.56592L6.56509 7.70147C6.56509 7.70147 6.82524 7.77881 6.83931 7.06514C6.84985 6.64327 6.75493 6.29522 6.81118 6.21436C6.81118 6.1335 6.91665 6.12999 6.98696 6.16866C7.09946 6.246 7.14868 6.34444 7.32446 6.30928C7.59165 6.23194 7.75337 6.10186 7.75688 5.89795C7.75161 5.69757 7.70991 5.49982 7.63384 5.31436C7.6479 5.2792 7.58462 5.18428 7.59868 5.14913C7.64438 5.22647 7.71821 5.21944 7.73228 5.14913C7.68657 5.00147 7.61626 4.85733 7.50376 4.79756C7.40884 4.71319 7.26821 4.72725 7.22251 4.90303C7.19438 5.10342 7.29282 5.33897 7.43696 5.53584C7.4686 5.60967 7.51079 5.73624 7.49321 5.84874C7.41353 5.89092 7.3397 5.87686 7.27173 5.80655C7.27173 5.80655 7.06079 5.64835 7.06079 5.60967C7.11704 5.25108 7.07134 5.20889 7.0397 5.10694C7.0186 4.96983 6.95181 4.92413 6.89907 4.83272C6.84634 4.77647 6.77603 4.77647 6.74087 4.83272C6.64595 4.99444 6.69165 5.34249 6.75845 5.50069C6.80767 5.64483 6.88149 5.73624 6.84634 5.73624C6.81821 5.8171 6.75845 5.796 6.71274 5.70108C6.66146 5.50129 6.63663 5.29562 6.63892 5.08936C6.62134 4.92764 6.60024 4.58311 6.49126 4.4917C6.42798 4.40733 6.33306 4.44952 6.2979 4.52686C6.28855 4.68392 6.29208 4.84147 6.30845 4.99795C6.37876 5.25811 6.40337 5.49014 6.43853 5.75381C6.44907 6.10889 6.23462 5.9085 6.24517 5.7292C6.29129 5.5038 6.28769 5.27105 6.23462 5.04717C6.19946 4.95577 6.16079 4.93467 6.0729 4.94874C6.0061 4.94874 5.83384 5.13506 5.78462 5.45147C5.78462 5.45147 5.74243 5.61319 5.72485 5.75733C5.70024 5.91905 5.59477 6.03858 5.51743 5.73624C5.45415 5.51475 5.41196 4.97686 5.30649 5.10342H5.30298Z" fill="white"/>
<path fill-rule="evenodd" clip-rule="evenodd" d="M6.48047 6.82773L5.35547 7.36914C5.36602 7.1125 5.88633 6.65195 6.24492 6.64844C6.47344 6.65195 6.41719 6.73633 6.47695 6.82773H6.48047Z" fill="white"/>
<path fill-rule="evenodd" clip-rule="evenodd" d="M6.27905 7.17889C5.68843 8.70819 7.66773 8.92264 7.88921 7.24218C7.91031 7.17186 7.99468 7.10507 8.00874 7.21757C7.96304 8.73983 6.47593 8.84179 6.2228 8.36366C6.16333 8.19912 6.13357 8.02533 6.13491 7.85038C6.09976 7.55155 5.94155 7.66757 5.91695 7.96288C5.89234 8.12811 5.89937 8.17382 5.89937 8.33202C5.97671 9.53436 7.89273 9.01757 8.20562 8.02616C8.37085 7.47772 8.17749 7.07343 8.26538 7.07343C8.45523 7.27733 8.72241 7.10155 8.78218 7.03124C8.80679 6.99608 8.87007 6.97147 8.91226 7.01718C9.05991 7.12265 9.32007 7.07343 9.37632 6.8871C9.40913 6.6996 9.43023 6.50975 9.4396 6.31757C9.31655 6.35272 9.22866 6.37733 9.21812 6.43007L9.19351 6.59179C9.18296 6.64452 9.08101 6.64452 9.07398 6.57772C9.02827 6.36679 8.83843 6.34218 8.72241 6.66561C8.64859 6.7289 8.50796 6.74296 8.4939 6.64804C8.51148 6.43007 8.42359 6.40194 8.2478 6.5039L8.07905 5.23124C8.14937 5.23124 8.21968 5.28397 8.28648 5.1996C8.21616 4.97108 8.05796 4.50702 7.97007 4.47186C7.9314 4.42265 7.89624 4.45429 7.83999 4.46835C7.74859 4.49647 7.66421 4.57382 7.69234 4.7285C7.7978 5.38944 7.86812 5.89218 7.9771 6.55663C7.99468 6.63046 7.9314 6.73241 7.84702 6.72186C7.7064 6.62694 7.67124 6.43358 7.42515 6.44061C7.24937 6.44061 7.05249 6.63397 7.02788 6.81679C6.99624 6.96444 6.9857 7.12264 7.02788 7.24921C7.15093 7.39686 7.29859 7.3828 7.42866 7.35116C7.53413 7.30546 7.62202 7.19999 7.6607 7.2246C7.6853 7.25624 7.66421 7.6078 7.15796 7.87499C6.8521 8.01561 6.60601 8.04374 6.47593 7.79413C6.39507 7.63593 6.48296 7.04179 6.27905 7.17889Z" fill="white"/>
<path fill-rule="evenodd" clip-rule="evenodd" d="M8.80096 5.62342C8.91697 5.58123 9.47947 4.93436 9.47947 4.93436L9.3951 4.86404C9.36463 4.83826 9.36463 4.81248 9.3951 4.7867C9.53572 4.70232 9.49002 4.52654 9.41971 4.44217C9.37175 4.41968 9.31934 4.40831 9.26638 4.40892C9.21341 4.40953 9.16127 4.4221 9.11385 4.44568C9.01541 4.54061 8.99432 4.69178 9.07166 4.78318C9.14549 4.81834 9.21932 4.89568 9.1701 4.93787C8.93807 5.18396 8.30877 5.60936 8.3826 5.62342C8.39666 5.64451 8.78689 5.64451 8.79744 5.62342H8.80096ZM5.3908 7.90857C5.17986 8.24607 5.16229 8.74881 5.2783 8.89998C5.34158 8.97029 5.44354 9.00193 5.51736 8.97732C5.65096 8.92107 5.71072 8.65037 5.67908 8.55545C5.63689 8.48514 5.59471 8.47693 5.55252 8.53084C5.46111 8.72068 5.42244 8.5906 5.41189 8.48514C5.40182 8.30652 5.41125 8.12733 5.44002 7.95076C5.46463 7.8031 5.44002 7.84529 5.3908 7.90857ZM14.4295 7.37068C14.2256 6.92771 13.9408 6.49178 13.8529 6.32654C13.5789 5.89344 13.2881 5.47124 12.981 5.06092C12.7631 4.80076 13.3396 5.1699 12.9107 4.64959L12.5978 4.38592C12.5275 4.3367 12.3588 4.24529 12.3306 4.39295C12.3166 4.52654 12.3236 4.59686 12.3447 4.70584C12.3623 4.77615 12.4678 4.8992 12.5205 4.96951C13.2412 5.92416 13.8743 6.94197 14.4119 8.01053C14.5033 7.96482 14.4822 7.44451 14.4295 7.37068Z" fill="white"/>
<path fill-rule="evenodd" clip-rule="evenodd" d="M13.531 8.84276C13.4888 8.88847 13.6294 9.08183 13.8122 9.08183C14.1146 9.04667 14.3818 8.87792 14.6278 8.42792C14.7278 8.27823 14.7916 8.10731 14.8142 7.9287C14.8439 7.07525 14.7755 6.22121 14.6103 5.38339C14.5997 5.31308 14.6103 5.2287 14.6173 5.20761C14.6384 5.183 14.7052 5.20761 14.7403 5.14784C14.7931 5.09511 14.5997 4.65566 14.4943 4.49042C14.4591 4.41308 14.4415 4.36386 14.3782 4.49745C14.3019 4.64486 14.2655 4.80972 14.2728 4.97558C14.4169 5.97753 14.4626 6.85292 14.554 7.85487C14.5646 7.95331 14.5505 8.09394 14.4837 8.15019C14.2186 8.4457 13.8939 8.68174 13.531 8.84276ZM17.6267 8.83925C17.4087 8.96581 17.4087 9.10995 17.5845 9.11347C17.8868 9.07831 18.2454 9.0537 18.4915 8.68105C18.5784 8.50553 18.6287 8.31413 18.6392 8.11855C18.6834 7.27824 18.628 6.43565 18.4739 5.60839C18.4669 5.53808 18.4353 5.37284 18.4458 5.35175C18.4669 5.30253 18.5653 5.35526 18.6005 5.29901C18.6497 5.24628 18.3439 4.85253 18.2349 4.68378C18.1997 4.60644 18.1857 4.55722 18.1189 4.69081C18.0473 4.83937 18.0252 5.00689 18.0556 5.16894C18.2173 6.25878 18.3368 7.07441 18.3614 8.03769C18.3474 8.12909 18.3439 8.17831 18.3017 8.29433C18.2068 8.41386 18.1013 8.56855 18.0028 8.64237C17.9044 8.71269 17.6935 8.783 17.6267 8.83925Z" fill="white"/>
<path fill-rule="evenodd" clip-rule="evenodd" d="M17.7921 7.86207C17.7945 7.6066 17.7933 7.38394 17.7886 7.1941C17.7863 7.03034 17.7504 6.86879 17.6831 6.71949C17.6199 6.57535 17.6585 6.45933 17.6269 6.30464C17.5988 6.14996 17.6058 5.91793 17.5636 5.73863C17.5495 5.66832 17.5144 5.4398 17.5249 5.41519C17.5425 5.36597 17.6093 5.41519 17.6445 5.35894C17.6937 5.30621 17.4687 4.72613 17.3562 4.56089C17.3175 4.48707 17.2402 4.51168 17.1523 4.63121C17.0644 4.71207 17.096 4.89136 17.1312 5.06363C17.3456 6.19918 17.5109 7.22925 17.4757 8.30855C17.4617 8.39996 17.7921 8.03433 17.7921 7.86207ZM16.1855 6.45582C16.0484 6.44878 15.7636 6.18511 15.6792 6.03394C15.6654 5.99699 15.6595 5.95756 15.662 5.91819C15.6644 5.87882 15.6751 5.8404 15.6933 5.80543C15.746 5.77027 15.8234 5.73511 15.8831 5.77027C15.8831 5.77027 15.9429 5.85464 15.9324 5.86519C16.0027 5.90035 16.0378 5.88277 16.0449 5.85113C16.0484 5.79839 16.0238 5.76675 16.0238 5.7105C16.0554 5.54878 16.2347 5.52418 16.305 5.62613C16.3542 5.68941 16.3753 5.81949 16.3788 5.90738C16.3788 5.95308 16.3085 5.90035 16.2628 5.90738C16.2242 5.92144 16.2136 5.97066 16.2101 6.01285C16.2031 6.12886 16.189 6.31519 16.1855 6.4523V6.45582ZM13.6613 8.14332C13.6964 7.79878 13.6472 7.18355 13.6437 6.97964C13.6249 6.45524 13.5815 5.93201 13.5136 5.41168C13.4714 5.11636 13.6331 5.44332 13.612 5.27105C13.5593 4.97925 13.3976 4.77886 13.2042 4.51519C13.1445 4.4273 13.1445 4.40972 13.0495 4.53628C12.9441 4.77183 13.0355 4.93707 13.0636 5.12339C13.2007 5.72808 13.2816 6.28355 13.3202 6.8355C13.3608 7.40887 13.3655 7.98421 13.3343 8.55816C13.4398 8.56168 13.6015 8.39293 13.6613 8.14332Z" fill="white"/>
<path fill-rule="evenodd" clip-rule="evenodd" d="M18.2571 7.59105C18.0145 7.18324 17.6524 6.7473 17.554 6.58207C17.228 6.12682 16.8856 5.68356 16.5274 5.25316C16.2286 4.93675 16.6681 5.20043 16.4712 4.95433C16.3059 4.77504 16.2602 4.71527 16.1161 4.60629C16.0458 4.56058 16.0036 4.47269 15.9755 4.62386C15.9643 4.75481 15.9619 4.88636 15.9684 5.01761C15.9684 5.07738 16.0317 5.1934 16.088 5.26371C16.8157 6.16019 17.6138 7.07426 18.2536 8.22386C18.345 8.17816 18.3134 7.66136 18.2536 7.59105H18.2571Z" fill="white"/>
<path fill-rule="evenodd" clip-rule="evenodd" d="M7.31083 6.84349C7.29325 6.87513 7.25458 6.9138 7.26864 6.95247C7.29208 6.98529 7.32255 7.00052 7.36005 6.99818C7.39872 6.99818 7.45497 7.00872 7.46552 6.98763C7.48896 6.9595 7.49599 6.92083 7.48661 6.87161C7.44442 6.76615 7.33192 6.80833 7.31083 6.84349Z" fill="#165D31"/>
<path fill-rule="evenodd" clip-rule="evenodd" d="M15.4539 12.7449C15.7773 12.7589 15.9883 12.7625 16.273 12.7941L16.6105 12.7589C16.9832 12.7238 16.9973 13.2898 16.9973 13.2898C16.9973 13.6238 16.8672 13.6414 16.702 13.6765C16.607 13.6906 16.5613 13.6203 16.5086 13.55C16.4291 13.5754 16.3444 13.5803 16.2625 13.564C16.1266 13.5593 15.9918 13.5535 15.8582 13.5464C15.7176 13.5359 15.6402 13.564 15.4961 13.55C15.468 13.5957 15.4258 13.6589 15.3414 13.6414C15.2711 13.6308 15.1832 13.4304 15.2078 13.2722C15.2605 13.1597 15.243 13.1984 15.243 13.1492C13.9211 13.114 12.5887 13.0543 11.2949 13.0718C10.2824 13.0753 9.28398 13.1175 8.28203 13.1597C7.74766 13.1527 7.33984 13.0683 7.05859 12.657C7.08672 12.657 8.42266 12.7308 8.81289 12.7062C9.53359 12.6992 10.1945 12.6394 10.9293 12.6183C12.3777 12.6429 13.8156 12.6429 15.2641 12.7449C15.1234 12.65 15.1234 12.4285 15.3344 12.3722C15.352 12.3582 15.3625 12.4812 15.3941 12.4777C15.5664 12.4671 15.4891 12.6992 15.4539 12.7449ZM9.63203 4.75738C9.41406 5.38316 9.75859 6.07222 9.99766 6.00542C10.1734 6.07573 10.2789 5.74527 10.3492 5.38667C10.402 5.28472 10.4371 5.27417 10.4617 5.32691C10.4547 5.80503 10.4969 5.91402 10.6199 6.05816C10.8941 6.26909 11.1227 6.08628 11.1402 6.0687L11.3512 5.85425C11.4027 5.80269 11.4625 5.79917 11.5305 5.8437C11.5973 5.90347 11.5867 6.00542 11.7273 6.07573C11.8469 6.12495 12.0965 6.0898 12.1562 5.98784C12.2336 5.85073 12.2547 5.80503 12.2898 5.75581C12.3461 5.68198 12.441 5.71363 12.441 5.73823C12.4305 5.78042 12.3742 5.81909 12.4129 5.89644C12.4832 5.94566 12.4973 5.91402 12.5359 5.90347C12.6766 5.83316 12.782 5.53081 12.782 5.53081C12.7855 5.41831 12.7223 5.42534 12.6801 5.45347L12.5711 5.5273C12.5008 5.53784 12.3707 5.58355 12.3039 5.48159C12.2371 5.36206 12.2371 5.1898 12.1879 5.06675C12.1879 5.05972 12.0965 4.87339 12.1809 4.86284C12.223 4.86988 12.3109 4.89448 12.325 4.82066C12.3672 4.74683 12.2336 4.53941 12.1387 4.43394C12.0578 4.34605 11.9453 4.3355 11.8363 4.42691C11.759 4.49722 11.7695 4.57456 11.7555 4.64839C11.7427 4.70134 11.7424 4.75652 11.7546 4.8096C11.7668 4.86268 11.7912 4.9122 11.8258 4.95425C11.9031 5.10191 12.0402 5.29527 11.9945 5.56948C11.9945 5.56948 11.9137 5.69605 11.773 5.67847C11.7133 5.66792 11.6184 5.64331 11.5691 5.26363C11.5305 4.98238 11.5762 4.58159 11.4566 4.39527C11.4109 4.27925 11.3793 4.17027 11.2738 4.36363C11.2457 4.44097 11.1227 4.55698 11.2105 4.79253C11.2937 5.00479 11.318 5.23558 11.2809 5.4605C11.2281 5.53784 11.2176 5.56245 11.1508 5.63628C11.0594 5.74175 10.9574 5.71363 10.8801 5.67495C10.8098 5.62925 10.7535 5.60464 10.7184 5.44644C10.7254 5.20034 10.7395 4.79605 10.6937 4.71167C10.627 4.57808 10.518 4.6273 10.4723 4.66948C10.2636 4.90213 10.1236 5.18814 10.068 5.49566C10.0047 5.69956 9.93789 5.6398 9.89219 5.55894C9.77969 5.45347 9.76914 4.62027 9.63203 4.75738Z" fill="white"/>
<path fill-rule="evenodd" clip-rule="evenodd" d="M10.2897 6.11742C10.3916 6.0471 10.3459 5.99789 10.4936 6.14554C10.6842 6.48276 10.7948 6.85922 10.817 7.24593C10.81 7.33734 10.8733 7.39359 10.9049 7.3725C10.919 7.16156 11.4358 6.86625 11.9104 6.82406C11.9807 6.80648 11.9455 6.66937 11.9561 6.59906C11.928 6.33539 12.1038 6.09632 12.3498 6.07875C12.6873 6.12796 12.7998 6.30726 12.8069 6.57796C12.7682 7.10531 12.2198 7.1932 11.9139 7.23539C11.8682 7.25296 11.8471 7.27406 11.9139 7.29867L13.2006 7.3057L13.2674 7.34085C13.2745 7.37601 13.2463 7.34789 13.1971 7.43226C13.1268 7.55681 13.0825 7.69437 13.067 7.83656C12.6838 7.96312 12.2866 8.01234 11.8858 8.06507C11.7452 8.13539 11.6748 8.23031 11.703 8.33578C11.7522 8.45179 12.0616 8.57132 12.0616 8.57484C12.1213 8.61 12.1881 8.69789 12.044 8.87718C11.4182 8.84906 10.9295 8.58187 10.7608 8.2057C10.7116 8.16703 10.6553 8.2057 10.6202 8.25492C10.3741 8.57132 10.135 8.85257 9.71664 9.00726C9.47055 9.07054 9.21391 8.96859 9.09438 8.80687C9.01352 8.71195 9.01703 8.61 8.98891 8.5889C8.8518 8.64867 7.69164 9.14085 7.8393 8.90882C8.12055 8.61 8.61274 8.385 9.04164 8.08968C9.07328 7.98773 9.12953 7.65023 9.29828 7.54125C9.30883 7.54125 9.27367 7.73812 9.27719 7.8225C9.27719 7.89281 9.27016 7.91742 9.28422 7.89984C9.31586 7.88226 9.83617 7.47093 9.88188 7.34437C9.9311 7.27406 9.89242 7.09125 9.89242 7.08421C9.79399 6.83109 9.65688 6.81 9.60766 6.68343C9.56195 6.5182 9.58305 6.32835 9.67797 6.2721C9.76469 6.19945 9.85727 6.20531 9.9557 6.28968C10.0612 6.3846 10.1526 6.57093 10.1807 6.70804C10.1631 6.76078 10.0401 6.67289 10.0049 6.6975C10.0726 6.77526 10.1176 6.87012 10.135 6.97171C10.2053 7.26 10.1842 7.3725 10.1139 7.55882C9.88188 8.0475 9.58656 8.19164 9.32641 8.37445C9.31938 8.37445 9.31586 8.4975 9.41078 8.56429C9.44594 8.59945 9.58305 8.61703 9.74125 8.56429C10.0786 8.37572 10.3516 8.09041 10.5252 7.74515C10.5551 7.48196 10.5263 7.21541 10.4409 6.96468C10.3389 6.72914 10.2194 6.39515 10.2194 6.38812C10.2159 6.24046 10.2264 6.19125 10.2897 6.11742ZM6.92172 4.76039C7.06938 4.8307 7.35063 4.79906 7.33656 4.56L7.32953 4.45101C7.30141 4.3807 7.21703 4.39828 7.19946 4.46859C7.19242 4.4932 7.21 4.53187 7.18891 4.54242C7.17485 4.55648 7.12914 4.54945 7.12914 4.48265C7.1268 4.45921 7.1186 4.44046 7.10453 4.4264C7.09985 4.42171 7.0893 4.41937 7.07289 4.41937C7.0518 4.41937 7.0518 4.42289 7.04125 4.44046C7.03656 4.45687 7.03305 4.47562 7.03071 4.49671C7.02836 4.51781 7.01899 4.52953 7.00258 4.53187C6.98149 4.53187 6.985 4.53187 6.96742 4.52484C6.95805 4.51781 6.95219 4.50609 6.94985 4.48968L6.9393 4.43343C6.93227 4.42406 6.92055 4.41703 6.90414 4.41234C6.82328 4.41234 6.81625 4.50726 6.82328 4.54242C6.81625 4.54945 6.81274 4.71468 6.92172 4.76039Z" fill="white"/>
<path fill-rule="evenodd" clip-rule="evenodd" d="M11.2633 6.59684C11.411 6.66716 11.7661 6.62849 11.6782 6.39997L11.6711 6.28747C11.6395 6.21716 11.5586 6.23474 11.5411 6.30856C11.534 6.32966 11.5516 6.36833 11.527 6.37888C11.5165 6.39294 11.4672 6.38591 11.4708 6.32263C11.4684 6.29919 11.4602 6.27927 11.4461 6.26286C11.4391 6.25817 11.4274 6.25583 11.411 6.25583C11.3934 6.25583 11.3934 6.26286 11.3829 6.28044C11.3758 6.29684 11.3723 6.31559 11.3723 6.33669C11.3676 6.35544 11.3571 6.36716 11.3407 6.37184C11.3231 6.37184 11.3266 6.37184 11.3126 6.3613C11.3008 6.35427 11.2938 6.34372 11.2915 6.32966L11.2809 6.27341C11.2739 6.26169 11.2622 6.25466 11.2458 6.25231C11.1649 6.25231 11.1579 6.34372 11.1614 6.37888C11.1579 6.38591 11.1543 6.55466 11.2668 6.59684H11.2633ZM13.7946 5.83747C13.9422 5.90778 14.22 5.87614 14.2094 5.64059L14.2024 5.5281C14.1708 5.45778 14.0899 5.47536 14.0723 5.54567C14.0653 5.57028 14.0829 5.60895 14.0583 5.62302C14.0477 5.63356 13.9985 5.62653 14.002 5.55974C13.9997 5.5363 13.9915 5.51755 13.9774 5.50349C13.9704 5.4988 13.9586 5.49645 13.9422 5.49645C13.9258 5.49645 13.9165 5.50466 13.9141 5.52106L13.9036 5.5738C13.9012 5.59724 13.8907 5.60895 13.8719 5.60895C13.8438 5.60895 13.8579 5.60895 13.8438 5.60192C13.8321 5.59489 13.8251 5.58434 13.8227 5.57028C13.8227 5.54684 13.8192 5.52692 13.8122 5.51052C13.8028 5.50114 13.7911 5.49528 13.777 5.49294C13.6961 5.49294 13.6891 5.58434 13.6926 5.6195C13.6891 5.62653 13.6856 5.79177 13.7981 5.83747H13.7946ZM15.1059 7.74645C14.8493 8.03825 14.9618 8.51989 15.0215 8.62536C15.1059 8.79411 15.1727 8.90309 15.3379 8.98747C15.4891 9.09645 15.6086 9.02966 15.6719 8.95231C15.8231 8.79411 15.8266 8.38981 15.8969 8.31247C15.9461 8.16481 16.0727 8.18942 16.1325 8.25622C16.1889 8.3351 16.2637 8.39905 16.3504 8.44255C16.4911 8.56559 16.6598 8.5902 16.8286 8.4777C16.9411 8.41091 17.0149 8.33005 17.0817 8.16481C17.152 7.96794 17.1168 7.05388 17.0993 6.51247L16.9516 5.75661C16.9516 5.74958 16.934 5.39802 16.9165 5.31716C16.9165 5.282 16.9059 5.27145 16.9411 5.27497C16.9797 5.31013 16.9833 5.31013 17.0114 5.32067C17.0465 5.3277 17.0817 5.26091 17.0571 5.20466L16.7055 4.55075C16.6774 4.52263 16.6387 4.4945 16.593 4.55778C16.5655 4.58174 16.5437 4.61152 16.5291 4.64496C16.5145 4.6784 16.5075 4.71467 16.5086 4.75114C16.5227 4.90817 16.5379 5.06403 16.5543 5.21872L16.695 6.01325C16.7407 6.57575 16.7512 7.03981 16.7969 7.60583C16.7899 7.84489 16.7161 8.05231 16.6458 8.08395C16.6458 8.08395 16.5403 8.14372 16.47 8.07692C16.4172 8.05583 16.2098 7.72888 16.2098 7.72888C16.1043 7.63395 16.034 7.65856 15.9602 7.72888C15.7493 7.93278 15.6579 8.30544 15.5137 8.56559C15.4786 8.62536 15.3731 8.67106 15.2606 8.56208C14.9723 8.16481 15.1411 7.60231 15.1059 7.74645ZM13.8614 4.45231C13.995 4.50505 14.0864 4.77575 14.0583 4.90934C14.0301 5.06755 13.9598 5.24333 13.9106 5.22224C13.8543 5.20114 13.9458 5.06052 13.893 4.91286C13.8649 4.81442 13.6821 4.63864 13.7032 4.58942C13.668 4.48044 13.7805 4.43122 13.8614 4.4488V4.45231Z" fill="white"/>
<path fill-rule="evenodd" clip-rule="evenodd" d="M15.5354 7.90824C15.56 7.5848 15.5143 7.38793 15.5073 7.19808C15.5002 7.00824 15.2928 5.5598 15.2506 5.41917C15.1979 5.14496 15.451 5.38402 15.4229 5.2223C15.335 5.02543 15.1205 4.73363 15.0538 4.56136C15.0116 4.49105 15.0291 4.42074 14.9377 4.54378C14.8586 4.75943 14.831 4.99056 14.8569 5.21878C15.0748 6.35433 15.2963 7.29652 15.2612 8.37582C15.3666 8.37582 15.4827 8.14027 15.5354 7.90824ZM17.7995 4.90941C17.9225 4.96917 17.9928 5.30667 17.9788 5.4016C17.9541 5.57738 17.8909 5.76722 17.8452 5.74261C17.7924 5.72152 17.8557 5.48246 17.8311 5.40863C17.803 5.30316 17.6377 5.11332 17.6553 5.05707C17.6202 4.93753 17.7256 4.88832 17.7995 4.90941ZM8.81 7.29652C8.92602 7.34222 8.99633 7.58832 8.98578 7.65863C8.95766 7.78871 8.89789 7.92933 8.85219 7.90824C8.80649 7.89418 8.86274 7.71839 8.84164 7.66214C8.8311 7.53207 8.66938 7.46175 8.67289 7.4055C8.64477 7.30003 8.74321 7.28246 8.81352 7.29652H8.81Z" fill="white"/>
<path fill-rule="evenodd" clip-rule="evenodd" d="M11.6111 7.67266C11.7587 7.67969 11.8326 7.79922 11.6955 7.84844C11.5548 7.89414 11.4248 7.93281 11.4212 8.12969C11.474 8.41094 11.3509 8.3125 11.2806 8.27734C11.1962 8.21406 10.9572 8.06641 10.922 7.75C10.9185 7.67617 10.9783 7.60938 11.0732 7.60938C11.2138 7.64805 11.4248 7.65156 11.6111 7.67266Z" fill="#165D31"/>
<path fill-rule="evenodd" clip-rule="evenodd" d="M5.72117 4.37131C5.88992 4.42053 5.90047 4.67366 5.88992 4.74749C5.86531 4.88108 5.80555 5.02522 5.76336 5.00764C5.71414 4.99006 5.76336 4.80725 5.73875 4.751C5.71414 4.67366 5.57 4.526 5.58406 4.48381C5.55242 4.39592 5.65438 4.35374 5.72117 4.37131ZM9.09266 5.55256C8.95906 5.62288 8.90984 5.83381 8.9907 5.96038C9.06805 6.06585 9.18758 6.02717 9.20164 6.02717C9.33172 6.04124 9.40906 5.7846 9.40906 5.7846C9.40906 5.7846 9.41258 5.71428 9.26141 5.85139C9.19461 5.86194 9.19109 5.83733 9.17352 5.80217C9.15742 5.73524 9.16359 5.66489 9.19109 5.60178C9.2157 5.5385 9.16648 5.51038 9.09266 5.55256ZM10.077 4.27288C10.0067 4.31858 9.87664 4.45569 9.87313 4.61038C9.86961 4.69827 9.85203 4.69827 9.90828 4.751C9.95398 4.81428 9.99266 4.81077 10.077 4.76506C10.0982 4.752 10.1164 4.73459 10.1303 4.71398C10.1442 4.69337 10.1536 4.67004 10.1579 4.64553C10.179 4.5471 10.0524 4.69475 10.0384 4.58225C10.0102 4.47678 10.0911 4.4346 10.1684 4.33616C10.1684 4.26585 10.1684 4.22014 10.0735 4.27288H10.077ZM10.8645 4.4135C10.8336 4.54154 10.8148 4.67219 10.8083 4.80374C10.7872 4.90217 10.9138 4.94436 10.9665 4.8178C11.0509 4.58928 11.0509 4.49085 11.0579 4.39592C11.0333 4.24475 10.9313 4.24827 10.8645 4.4135ZM15.8567 6.9553C15.8708 6.93772 16.5598 6.44905 16.5598 6.44905C16.6302 6.42444 16.6126 6.70217 16.5809 6.69866C16.3672 6.90451 16.1214 7.0743 15.8532 7.20139C15.818 7.226 15.7864 7.01506 15.8532 6.9553H15.8567ZM16.479 6.94827C16.602 7.00803 16.6512 7.36311 16.6372 7.45803C16.6372 7.64788 16.5212 7.79553 16.472 7.77444C16.4227 7.74983 16.479 7.53889 16.4544 7.46506C16.4263 7.3596 16.3243 7.16624 16.3419 7.10999C16.3067 6.99046 16.4052 6.92717 16.4825 6.94827H16.479ZM12.4009 8.47405C12.4579 8.40749 12.5242 8.34947 12.5977 8.30178C12.668 8.26663 12.7313 8.32991 12.7278 8.32639C12.7384 8.39671 12.6856 8.45647 12.7032 8.54788C12.7173 8.58303 12.7278 8.62522 12.7946 8.61116C12.9036 8.52327 13.0055 8.51624 13.111 8.51272C13.1989 8.51624 13.2024 8.66038 13.1462 8.66038C12.9458 8.70256 12.8579 8.75882 12.7137 8.81155C12.6434 8.85374 12.5872 8.801 12.5872 8.79749C12.5872 8.79397 12.5485 8.75882 12.5731 8.66741C12.5802 8.59241 12.552 8.55725 12.4887 8.56194C12.4466 8.59007 12.4044 8.60413 12.3833 8.55139C12.3692 8.51858 12.3751 8.4928 12.4009 8.47405ZM17.2032 8.66389C17.2313 8.69905 17.2524 8.73421 17.1997 8.79749L17.0696 8.90999C17.0485 8.94514 17.0345 9.00842 17.1048 9.026C17.2313 9.06116 17.5266 8.8678 17.5266 8.86428C17.5759 8.82913 17.5618 8.75882 17.5548 8.75882C17.5266 8.72717 17.4634 8.74827 17.4212 8.74124C17.4001 8.74124 17.3333 8.73421 17.3649 8.67092C17.3887 8.63997 17.4077 8.6056 17.4212 8.56897C17.4423 8.52913 17.4188 8.49749 17.3509 8.47405C17.277 8.45999 17.2454 8.46702 17.1645 8.47405C17.127 8.47874 17.1048 8.50569 17.0977 8.55491C17.1012 8.63577 17.1505 8.63225 17.2032 8.66038V8.66389Z" fill="white"/>
<path fill-rule="evenodd" clip-rule="evenodd" d="M12.4249 6.6679C12.4073 6.70306 12.344 6.70306 12.2843 6.6679C12.2245 6.63274 12.1893 6.57649 12.2104 6.54485C12.2315 6.51321 12.2913 6.51321 12.3511 6.54485C12.4108 6.57649 12.4425 6.63626 12.4249 6.6679ZM9.29598 4.78352C9.26082 4.79407 9.2116 4.76243 9.19051 4.71321C9.16942 4.66399 9.17996 4.62181 9.21512 4.61126C9.25028 4.60071 9.29598 4.63587 9.32059 4.68157C9.3452 4.72727 9.33114 4.77649 9.29246 4.78704L9.29598 4.78352ZM15.487 13.1824C15.8175 13.1964 16.1268 13.1824 16.4538 13.1999C16.5136 13.2527 16.4714 13.3757 16.4327 13.3687L16.1585 13.3581C16.155 13.2527 15.8878 13.2702 15.8948 13.3616C15.7507 13.3792 15.6206 13.3581 15.4729 13.3511C15.4307 13.2984 15.4378 13.2034 15.487 13.1824Z" fill="#165D31"/>
</g>
</svg>
