<svg width="24" height="24" viewBox="0 0 24 24" fill="none" xmlns="http://www.w3.org/2000/svg">
<path d="M22.2415 10.2141C22.4711 10.3219 22.7055 10.5609 22.7993 10.7906C22.9024 11.0344 22.893 11.5078 22.7805 11.7516C22.6352 12.0797 21.604 13.05 20.6149 13.7906L20.2118 14.0953L21.0555 14.9344C21.9977 15.8719 22.1243 16.0547 22.1243 16.5C22.1243 16.9594 21.843 17.3906 21.4352 17.5641C21.3508 17.5969 21.1493 17.625 20.9852 17.625C20.4977 17.625 20.3571 17.5266 19.1993 16.3641L18.1774 15.3375L17.6524 15.5859C16.3211 16.2141 14.6852 16.6875 13.4618 16.8094L13.1243 16.8422V18.3C13.1243 19.7297 13.1196 19.7625 13.0118 19.9922C12.8149 20.4141 12.4774 20.625 11.9852 20.625C11.4508 20.625 11.0383 20.3297 10.893 19.8375C10.8415 19.6781 10.8274 19.2797 10.8274 18.2391V16.8516L10.1243 16.7437C9.05552 16.5844 7.92583 16.2656 6.9602 15.8625C6.75395 15.7734 6.56645 15.7031 6.53364 15.7031C6.50552 15.7031 5.92896 16.2656 5.25395 16.95C4.40083 17.8125 3.96489 18.2203 3.82895 18.2859C3.57114 18.4031 3.08833 18.4031 2.83521 18.2859C2.61958 18.1922 2.36177 17.9156 2.26802 17.6906C2.17896 17.4844 2.18364 17.0062 2.27739 16.7906C2.31958 16.6781 2.71802 16.2422 3.38364 15.5766C3.95552 15.0047 4.41489 14.5266 4.40083 14.5172C4.39145 14.5078 4.18052 14.3625 3.93677 14.1937C3.0977 13.6125 1.87895 12.5812 1.46177 12.0938C1.19927 11.7891 1.12427 11.5969 1.12427 11.2406C1.12895 10.7625 1.37739 10.3687 1.78989 10.2C2.0102 10.1062 2.48364 10.1062 2.70395 10.1953C2.79302 10.2328 3.12114 10.5047 3.42114 10.8C5.57739 12.8719 8.05708 14.1422 10.6868 14.5125C11.2727 14.5922 12.5524 14.6016 13.1711 14.5312C15.7821 14.2172 18.393 12.9 20.5774 10.7953C20.8821 10.5047 21.2055 10.2328 21.2946 10.1953C21.5336 10.0969 22.0118 10.1062 22.2415 10.2141Z" fill="#151515"/>
</svg>
