<svg width="30" height="30" viewBox="0 0 30 30" fill="none" xmlns="http://www.w3.org/2000/svg">
<circle cx="15" cy="15" r="15" fill="#262626"/>
<path d="M22.9999 10.4255C22.4483 10.6598 21.848 10.8284 21.2297 10.8941C21.8716 10.5185 22.3523 9.92521 22.5817 9.22545C21.9793 9.57833 21.3193 9.82578 20.6312 9.95681C20.3435 9.65402 19.9957 9.4128 19.6092 9.24819C19.2228 9.08357 18.8061 8.99909 18.385 9.00001C16.6815 9.00001 15.3115 10.3598 15.3115 12.0284C15.3115 12.2627 15.3403 12.497 15.3872 12.7225C12.8364 12.5911 10.5615 11.3911 9.04903 9.55385C8.77345 10.0174 8.62903 10.5451 8.63081 11.0823C8.63081 12.1331 9.17341 13.0598 10.0008 13.6047C9.51323 13.5858 9.03703 13.4538 8.61098 13.2195V13.2568C8.61098 14.7284 9.66735 15.9479 11.0752 16.2284C10.8109 16.296 10.5389 16.3306 10.2658 16.3314C10.0657 16.3314 9.87646 16.3118 9.68537 16.2852C10.0747 17.4852 11.2086 18.3568 12.5588 18.3852C11.5025 19.2 10.1793 19.6793 8.74258 19.6793C8.4848 19.6793 8.24684 19.6704 7.99988 19.642C9.36269 20.503 10.9797 21 12.7211 21C18.3742 21 21.4676 16.3882 21.4676 12.3852C21.4676 12.2539 21.4676 12.1225 21.4586 11.9911C22.0571 11.5598 22.5817 11.0254 22.9999 10.4255Z" fill="white"/>
</svg>
