<svg width="30" height="30" viewBox="0 0 30 30" fill="none" xmlns="http://www.w3.org/2000/svg">
<circle cx="15" cy="15" r="15" fill="white"/>
<path fill-rule="evenodd" clip-rule="evenodd" d="M12.4078 7.045C13.2076 7.00818 13.4626 7 15.4999 7C17.5372 7 17.7922 7.00886 18.5912 7.045C19.3903 7.08114 19.9358 7.20864 20.4131 7.39341C20.9128 7.58227 21.3662 7.8775 21.7412 8.25932C22.1231 8.63364 22.4176 9.08636 22.6058 9.58682C22.7912 10.0641 22.9181 10.6095 22.9549 11.4073C22.9917 12.2084 22.9999 12.4634 22.9999 14.5C22.9999 16.5373 22.991 16.7923 22.9549 17.592C22.9187 18.3898 22.7912 18.9352 22.6058 19.4125C22.4176 19.913 22.1226 20.3665 21.7412 20.7414C21.3662 21.1232 20.9128 21.4177 20.4131 21.6059C19.9358 21.7914 19.3903 21.9182 18.5926 21.955C17.7922 21.9918 17.5372 22 15.4999 22C13.4626 22 13.2076 21.9911 12.4078 21.955C11.6101 21.9189 11.0647 21.7914 10.5874 21.6059C10.0869 21.4177 9.63339 21.1227 9.25851 20.7414C8.87696 20.3668 8.58168 19.9136 8.39329 19.4132C8.20851 18.9359 8.0817 18.3905 8.04488 17.5927C8.00806 16.7916 7.99988 16.5366 7.99988 14.5C7.99988 12.4627 8.00874 12.2077 8.04488 11.4086C8.08101 10.6095 8.20851 10.0641 8.39329 9.58682C8.58196 9.08642 8.87746 8.63317 9.2592 8.25864C9.63354 7.87716 10.0866 7.58189 10.5867 7.39341C11.064 7.20864 11.6094 7.08182 12.4072 7.045H12.4078ZM18.5306 8.395C17.7397 8.35886 17.5024 8.35136 15.4999 8.35136C13.4974 8.35136 13.2601 8.35886 12.4692 8.395C11.7376 8.42841 11.3408 8.55045 11.0762 8.65341C10.7265 8.78977 10.4762 8.95136 10.2137 9.21386C9.96491 9.45594 9.77341 9.75065 9.65329 10.0764C9.55033 10.3409 9.42829 10.7377 9.39488 11.4693C9.35874 12.2602 9.35124 12.4975 9.35124 14.5C9.35124 16.5025 9.35874 16.7398 9.39488 17.5307C9.42829 18.2623 9.55033 18.6591 9.65329 18.9236C9.77329 19.2489 9.96488 19.5441 10.2137 19.7861C10.4558 20.035 10.751 20.2266 11.0762 20.3466C11.3408 20.4495 11.7376 20.5716 12.4692 20.605C13.2601 20.6411 13.4967 20.6486 15.4999 20.6486C17.5031 20.6486 17.7397 20.6411 18.5306 20.605C19.2622 20.5716 19.659 20.4495 19.9235 20.3466C20.2733 20.2102 20.5235 20.0486 20.786 19.7861C21.0349 19.5441 21.2265 19.2489 21.3465 18.9236C21.4494 18.6591 21.5715 18.2623 21.6049 17.5307C21.641 16.7398 21.6485 16.5025 21.6485 14.5C21.6485 12.4975 21.641 12.2602 21.6049 11.4693C21.5715 10.7377 21.4494 10.3409 21.3465 10.0764C21.2101 9.72659 21.0485 9.47636 20.786 9.21386C20.5439 8.96505 20.2492 8.77355 19.9235 8.65341C19.659 8.55045 19.2622 8.42841 18.5306 8.395ZM14.5419 16.812C15.0769 17.0347 15.6726 17.0648 16.2273 16.8971C16.782 16.7294 17.2613 16.3743 17.5832 15.8924C17.9052 15.4106 18.0499 14.832 17.9926 14.2553C17.9354 13.6786 17.6797 13.1398 17.2692 12.7307C17.0075 12.4692 16.6912 12.269 16.3428 12.1444C15.9945 12.0199 15.6229 11.9741 15.2548 12.0104C14.8866 12.0467 14.5311 12.1642 14.2138 12.3544C13.8966 12.5446 13.6254 12.8028 13.4199 13.1104C13.2143 13.4179 13.0796 13.7672 13.0252 14.1332C12.9709 14.4991 12.9984 14.8725 13.1057 15.2265C13.213 15.5805 13.3975 15.9063 13.6458 16.1805C13.8942 16.4547 14.2002 16.6704 14.5419 16.812ZM12.774 11.7741C13.1319 11.4161 13.5569 11.1322 14.0246 10.9384C14.4923 10.7447 14.9936 10.645 15.4999 10.645C16.0061 10.645 16.5074 10.7447 16.9751 10.9384C17.4428 11.1322 17.8678 11.4161 18.2258 11.7741C18.5838 12.1321 18.8677 12.557 19.0615 13.0247C19.2552 13.4925 19.3549 13.9938 19.3549 14.5C19.3549 15.0062 19.2552 15.5075 19.0615 15.9753C18.8677 16.443 18.5838 16.8679 18.2258 17.2259C17.5028 17.9489 16.5223 18.355 15.4999 18.355C14.4775 18.355 13.4969 17.9489 12.774 17.2259C12.051 16.503 11.6449 15.5224 11.6449 14.5C11.6449 13.4776 12.051 12.497 12.774 11.7741ZM20.2099 11.2191C20.2986 11.1354 20.3696 11.0348 20.4187 10.9232C20.4678 10.8115 20.4941 10.6912 20.4958 10.5693C20.4976 10.4473 20.4749 10.3263 20.4291 10.2133C20.3832 10.1003 20.3152 9.99762 20.2289 9.91139C20.1427 9.82516 20.0401 9.75711 19.9271 9.71126C19.8141 9.66542 19.693 9.64271 19.5711 9.64449C19.4491 9.64627 19.3288 9.67249 19.2172 9.72161C19.1056 9.77073 19.0049 9.84175 18.9212 9.93045C18.7585 10.103 18.6694 10.3321 18.6729 10.5693C18.6763 10.8064 18.7721 11.0329 18.9398 11.2006C19.1075 11.3683 19.3339 11.464 19.5711 11.4675C19.8082 11.4709 20.0374 11.3818 20.2099 11.2191Z" fill="black"/>
</svg>
