<svg width="24" height="24" viewBox="0 0 24 24" fill="none" xmlns="http://www.w3.org/2000/svg">
<g clip-path="url(#clip0_2139_47888)">
<path d="M13.525 0.0749989C15.7656 0.379686 17.8469 1.27031 19.5813 2.67656C20.05 3.05625 20.9453 3.95156 21.325 4.42031C22.3281 5.6625 23.1578 7.25156 23.5703 8.74219C23.9219 9.99375 24.0156 10.8047 23.9875 12.2344C23.9641 13.4625 23.8703 14.0906 23.5609 15.1734C23.3828 15.7969 23.1203 16.5 23.0734 16.5C23.0547 16.5 22.75 16.3828 22.3938 16.2328C21.8734 16.0219 21.7516 15.9562 21.7797 15.8953C21.7938 15.8531 21.9109 15.5156 22.0328 15.1406C22.4125 14.0016 22.5484 13.1437 22.5484 11.9391C22.5484 9.65625 21.8266 7.50937 20.4344 5.65781C18.7328 3.39375 16.2156 1.92187 13.3609 1.52344C12.6719 1.42969 11.3969 1.425 10.6891 1.52344C8.97345 1.74844 7.26251 2.44219 5.84689 3.47812C5.63595 3.63281 5.44845 3.77812 5.42501 3.79219C5.40626 3.81094 5.44845 3.95156 5.51876 4.10625C5.64064 4.36406 5.65001 4.425 5.65001 4.96875C5.65001 5.53125 5.64532 5.56406 5.50001 5.86406C5.22814 6.41719 4.81564 6.7875 4.23907 6.98906C4.00939 7.06875 3.87814 7.08281 3.47033 7.06875C3.02501 7.05469 2.94533 7.03594 2.65001 6.89062C2.21876 6.68437 1.84845 6.31406 1.63751 5.88281C1.48283 5.56406 1.47814 5.54062 1.47814 4.96875C1.47814 4.39687 1.48283 4.37344 1.63751 4.05469C1.84845 3.62344 2.21876 3.25312 2.65001 3.04219C2.97345 2.8875 2.9922 2.88281 3.60626 2.87812L4.2297 2.87344L4.60001 2.58281C6.3297 1.21406 8.38751 0.346874 10.5625 0.0703125C11.2516 -0.0187511 12.8734 -0.0140629 13.525 0.0749989ZM3.2172 4.40156C3.01564 4.5375 2.90783 4.72969 2.90783 4.96875C2.90783 5.20781 3.01564 5.4 3.2172 5.53594C3.50314 5.72344 3.9297 5.62031 4.13126 5.31562C4.31876 5.02969 4.21564 4.60312 3.91095 4.40156C3.82657 4.35 3.69064 4.3125 3.56408 4.3125C3.43751 4.3125 3.30157 4.35 3.2172 4.40156Z" fill="#151515"/>
<path d="M12.9617 4.29363C14.2273 4.48582 15.3617 4.91238 16.3367 5.57332C18.0148 6.69832 19.1445 8.38582 19.6039 10.4389C19.6977 10.8421 19.707 11.0343 19.707 11.9999C19.707 12.9655 19.6977 13.1577 19.6039 13.5608C19.1445 15.6139 18.0148 17.3014 16.3367 18.4264C15.5258 18.9796 14.7008 19.3311 13.6602 19.5749C13.1305 19.7014 13.0461 19.7108 12.0008 19.7061C11.0352 19.7061 10.843 19.6968 10.4352 19.603C7.34141 18.9093 5.09141 16.6593 4.39766 13.5608C4.30391 13.1577 4.29453 12.9655 4.29453 11.9999C4.29453 11.0343 4.30391 10.8421 4.39766 10.4389C5.08672 7.34519 7.34141 5.08582 10.4164 4.40144C10.7633 4.32175 11.0539 4.303 11.8367 4.28894C12.3758 4.27957 12.882 4.28425 12.9617 4.29363ZM11.7242 5.78894C11.3258 5.9905 10.8477 6.80144 10.5008 7.8655C10.3977 8.17957 10.3133 8.45144 10.3133 8.46082C10.3133 8.47488 11.0727 8.48425 12.0008 8.48425C12.9289 8.48425 13.6883 8.47488 13.6883 8.46082C13.6883 8.37644 13.2898 7.26082 13.1586 6.97488C12.8961 6.403 12.5398 5.92957 12.2586 5.77488C12.1273 5.69988 11.8789 5.70457 11.7242 5.78894ZM14.6492 6.72644C14.832 7.18582 14.982 7.65457 15.1414 8.28269L15.193 8.48425H16.2008C16.993 8.48425 17.2039 8.47019 17.1758 8.42332C16.9414 8.03425 16.1539 7.23269 15.6336 6.86238C15.357 6.6655 14.4805 6.178 14.4523 6.20144C14.4477 6.21082 14.5367 6.44519 14.6492 6.72644ZM8.36797 6.86707C7.91797 7.18582 7.34609 7.73425 7.02266 8.15613L6.78828 8.46082L7.78672 8.47488C8.33047 8.47957 8.78984 8.47957 8.79453 8.47019C8.80391 8.46082 8.88828 8.18425 8.97734 7.85613C9.10391 7.39207 9.35703 6.67488 9.55859 6.22019C9.59141 6.1405 8.72891 6.60925 8.36797 6.86707ZM15.4555 10.2749C15.5023 10.7764 15.5023 13.2233 15.4555 13.7202L15.4227 14.1093H16.6789H17.9398L18.043 13.7577C18.2164 13.1764 18.2773 12.7171 18.2773 11.9999C18.2773 11.2827 18.2164 10.8233 18.043 10.2421L17.9398 9.8905H16.6789H15.4227L15.4555 10.2749ZM9.99922 10.2983C9.95234 10.8327 9.95234 13.1671 9.99922 13.6968L10.0414 14.1093H12.0008H13.9602L14.0023 13.6968C14.0211 13.4718 14.0398 12.7077 14.0398 11.9999C14.0398 11.2921 14.0211 10.528 14.0023 10.2983L13.9602 9.8905H12.0008H10.0414L9.99922 10.2983ZM5.95859 10.2421C5.78516 10.8233 5.72422 11.2827 5.72422 11.9999C5.72422 12.7171 5.78516 13.1764 5.95859 13.7577L6.06172 14.1093H7.32266H8.57891L8.54609 13.7202C8.52266 13.5093 8.50859 12.7358 8.50859 11.9999C8.50859 11.2639 8.52266 10.4905 8.54609 10.2749L8.57891 9.8905H7.32266H6.06172L5.95859 10.2421ZM15.1414 15.7124C14.9539 16.4577 14.7148 17.1608 14.443 17.7796C14.4102 17.8593 15.2727 17.3905 15.6336 17.1327C16.1773 16.7483 16.9367 15.9749 17.1758 15.5718C17.2039 15.5296 16.993 15.5155 16.2008 15.5155H15.193L15.1414 15.7124ZM10.3133 15.5389C10.3133 15.5483 10.3977 15.8108 10.4961 16.1155C10.9508 17.4936 11.4945 18.2811 12.0008 18.2811C12.3477 18.2811 12.7227 17.9014 13.0742 17.1889C13.257 16.8186 13.6883 15.6608 13.6883 15.5389C13.6883 15.5249 12.9289 15.5155 12.0008 15.5155C11.0727 15.5155 10.3133 15.5249 10.3133 15.5389ZM6.82578 15.5718C7.05078 15.9608 7.83828 16.753 8.36797 17.1327C8.78047 17.428 9.59141 17.8546 9.54922 17.7561C9.23984 17.0296 8.99609 16.303 8.84141 15.6421L8.81328 15.5155H7.80078C7.00859 15.5155 6.79766 15.5296 6.82578 15.5718Z" fill="#151515"/>
<path d="M1.6125 7.76357C1.94531 7.90419 2.22656 8.02138 2.23125 8.03075C2.23594 8.03544 2.1375 8.34482 2.01563 8.71982C1.60313 9.93857 1.45313 10.8151 1.45313 12.0479C1.44844 17.8276 6.18281 22.5526 11.9672 22.5526C12.4266 22.5526 13.0125 22.5198 13.3266 22.4776C15.0094 22.2573 16.7531 21.5495 18.1547 20.5229C18.3656 20.3683 18.5531 20.2229 18.5766 20.2089C18.5953 20.1901 18.5531 20.0495 18.4828 19.8948C18.3609 19.637 18.3516 19.5761 18.3516 19.0323C18.3516 18.4604 18.3563 18.437 18.5109 18.1183C18.7219 17.687 19.0922 17.3167 19.5234 17.1058C19.8422 16.9511 19.8656 16.9464 20.4375 16.9464C21.0094 16.9464 21.0328 16.9511 21.3516 17.1058C21.7828 17.3167 22.1531 17.687 22.3641 18.1183C22.5188 18.437 22.5234 18.4604 22.5234 19.0323C22.5234 19.6042 22.5188 19.6276 22.3641 19.9464C22.1531 20.3776 21.7828 20.7479 21.3516 20.9589C21.0281 21.1136 21.0094 21.1183 20.3906 21.1229L19.7531 21.1276L19.3781 21.4323C18.0234 22.5245 16.1578 23.4104 14.4516 23.762C13.3359 23.9917 11.7797 24.0714 10.7109 23.9542C8.42344 23.7011 6.21563 22.7776 4.42031 21.3245C3.94688 20.9448 3.05625 20.0495 2.67188 19.5761C1.48125 18.1042 0.581251 16.2011 0.215626 14.3917C-0.0843735 12.8917 -0.0749989 11.0776 0.239063 9.61513C0.435938 8.71513 0.848438 7.49638 0.951563 7.50575C0.984377 7.51044 1.27969 7.62763 1.6125 7.76357ZM20.0906 18.4651C19.8891 18.6011 19.7813 18.7933 19.7813 19.0323C19.7813 19.4073 20.0625 19.6886 20.4375 19.6886C20.8125 19.6886 21.0938 19.4073 21.0938 19.0323C21.0938 18.6573 20.8125 18.3761 20.4375 18.3761C20.3109 18.3761 20.175 18.4136 20.0906 18.4651Z" fill="#151515"/>
</g>
<defs>
<clipPath id="clip0_2139_47888">
<rect width="24" height="24" fill="white" transform="matrix(-1 0 0 1 24 0)"/>
</clipPath>
</defs>
</svg>
