<svg width="13" height="13" viewBox="0 0 13 13" fill="none" xmlns="http://www.w3.org/2000/svg">
<path d="M0.834636 2.5H12.168M1.94597 4.16667L2.25264 8.76667C2.37064 10.536 2.4293 11.4207 3.00597 11.96C3.58264 12.4993 4.46997 12.5 6.2433 12.5H6.7593C8.53264 12.5 9.41997 12.5 9.99664 11.96C10.5733 11.4207 10.6326 10.536 10.75 8.76667L11.0566 4.16667" stroke="#9D64CB" stroke-linecap="round"/>
<path d="M10.168 2.5H10.0946C9.82634 2.49314 9.56635 2.40548 9.34869 2.24847C9.13102 2.09147 8.9658 1.87243 8.87464 1.62L8.85197 1.55133L8.7873 1.35733C8.73197 1.19133 8.70397 1.10867 8.6673 1.038C8.59516 0.899593 8.49163 0.779994 8.36498 0.688773C8.23834 0.597551 8.0921 0.53724 7.93797 0.512667C7.85997 0.5 7.77264 0.5 7.59797 0.5H5.40463C5.22997 0.5 5.14264 0.5 5.06464 0.512667C4.9105 0.53724 4.76426 0.597551 4.63762 0.688773C4.51097 0.779994 4.40744 0.899593 4.3353 1.038C4.29864 1.10867 4.27064 1.19133 4.2153 1.35733L4.15064 1.55133C4.06615 1.83218 3.89142 2.07734 3.65352 2.24884C3.41561 2.42034 3.12779 2.50862 2.83464 2.5" stroke="#9D64CB"/>
</svg>
