<svg width="22" height="23" viewBox="0 0 22 23" fill="none" xmlns="http://www.w3.org/2000/svg">
<path d="M19.7152 21.9459H4.85439C4.1448 21.9459 3.5696 21.3707 3.5696 20.6611" stroke="#71839B" stroke-width="0.85" stroke-miterlimit="10" stroke-linecap="round" stroke-linejoin="round"/>
<path d="M17.1456 18.0915H2.2848C1.5752 18.0915 1 18.6667 1 19.3763H15.8608C15.8608 18.6667 16.436 18.0915 17.1456 18.0915ZM17.1456 18.0915C17.8552 18.0915 18.4304 18.6667 18.4304 19.3763V20.6611C18.4304 21.3707 19.0056 21.9459 19.7152 21.9459C20.4248 21.9459 21 21.3707 21 20.6611V1.94593C21 1.23634 20.4248 0.661133 19.7152 0.661133M19.7152 0.661133C19.0056 0.661133 18.4304 1.23634 18.4304 1.94593H3.56959C3.56959 1.23634 4.1448 0.661133 4.85439 0.661133H19.7152ZM6.13919 1.94593V16.8067" stroke="#71839B" stroke-width="0.85" stroke-miterlimit="10" stroke-linecap="round" stroke-linejoin="round"/>
<path d="M15.2184 13.2309L15.8608 13.8733L18.4304 11.3037" stroke="#71839B" stroke-width="0.85" stroke-miterlimit="10" stroke-linecap="round" stroke-linejoin="round"/>
<path d="M16.6134 11.3034H13.9336V15.1578H17.788V13.7627M15.2184 6.80659L15.8608 7.44899L18.4304 4.87939" stroke="#71839B" stroke-width="0.85" stroke-miterlimit="10" stroke-linecap="round" stroke-linejoin="round"/>
<path d="M16.6135 4.87939H13.9336V8.73378H17.788V7.33875M9.35118 4.87939H12.6488M9.35118 6.16419H12.6488M9.35118 7.44899H12.6488M9.35118 8.73378H12.6488M9.35118 11.3034H12.6488M9.35118 12.5882H12.6488M9.35118 13.873H12.6488M9.35118 15.1578H12.6488" stroke="#71839B" stroke-width="0.85" stroke-miterlimit="10" stroke-linecap="round" stroke-linejoin="round"/>
</svg>
