<svg width="20" height="21" viewBox="0 0 20 21" fill="none" xmlns="http://www.w3.org/2000/svg">
<path d="M15 2.32764H5C4.33696 2.32764 3.70107 2.59103 3.23223 3.05987C2.76339 3.52871 2.5 4.1646 2.5 4.82764V13.9943C2.5 14.6573 2.76339 15.2932 3.23223 15.7621C3.70107 16.2309 4.33696 16.4943 5 16.4943H7.15833L9.40833 18.7526C9.4862 18.8299 9.57855 18.891 9.68008 18.9324C9.78161 18.9739 9.89033 18.9949 10 18.9943C10.1986 18.9943 10.3907 18.9234 10.5417 18.7943L13.225 16.4943H15C15.663 16.4943 16.2989 16.2309 16.7678 15.7621C17.2366 15.2932 17.5 14.6573 17.5 13.9943V4.82764C17.5 4.1646 17.2366 3.52871 16.7678 3.05987C16.2989 2.59103 15.663 2.32764 15 2.32764ZM15.8333 13.9943C15.8333 14.2153 15.7455 14.4273 15.5893 14.5836C15.433 14.7398 15.221 14.8276 15 14.8276H12.9167C12.718 14.8276 12.526 14.8985 12.375 15.0276L10.0417 17.0276L8.09167 15.0693C8.0138 14.9921 7.92145 14.931 7.81992 14.8895C7.71839 14.848 7.60967 14.827 7.5 14.8276H5C4.77899 14.8276 4.56702 14.7398 4.41074 14.5836C4.25446 14.4273 4.16667 14.2153 4.16667 13.9943V4.82764C4.16667 4.60662 4.25446 4.39466 4.41074 4.23838C4.56702 4.0821 4.77899 3.9943 5 3.9943H15C15.221 3.9943 15.433 4.0821 15.5893 4.23838C15.7455 4.39466 15.8333 4.60662 15.8333 4.82764V13.9943Z" fill="#71839B"/>
</svg>
