<svg width="28" height="28" viewBox="0 0 28 28" fill="none" xmlns="http://www.w3.org/2000/svg">
<path d="M3.79102 6.4165C3.79102 6.89975 4.18277 7.2915 4.66602 7.2915H23.3327C23.816 7.2915 24.2077 6.89975 24.2077 6.4165C24.2077 5.93326 23.816 5.5415 23.3327 5.5415H4.66602C4.18277 5.5415 3.79102 5.93326 3.79102 6.4165Z" fill="black"/>
<path d="M3.79102 14C3.79102 13.5168 4.18277 13.125 4.66602 13.125H23.3327C23.816 13.125 24.2077 13.5168 24.2077 14C24.2077 14.4832 23.816 14.875 23.3327 14.875H4.66602C4.18277 14.875 3.79102 14.4832 3.79102 14Z" fill="black"/>
<path d="M3.79102 21.583C3.79102 21.0998 4.18277 20.708 4.66602 20.708H23.3327C23.816 20.708 24.2077 21.0998 24.2077 21.583C24.2077 22.0662 23.816 22.458 23.3327 22.458H4.66602C4.18277 22.458 3.79102 22.0662 3.79102 21.583Z" fill="black"/>
<path d="M8.58454 10.0815C8.92625 10.4232 8.92626 10.9772 8.58454 11.3189L5.90344 14.0001L8.58454 16.6812C8.92626 17.0229 8.92625 17.5769 8.58454 17.9187C8.24283 18.2604 7.68881 18.2604 7.34711 17.9187L4.04729 14.6187C3.70559 14.277 3.70559 13.7231 4.04729 13.3814L7.34711 10.0815C7.68881 9.73977 8.24283 9.73976 8.58454 10.0815Z" fill="black"/>
</svg>
