<svg width="20" height="21" viewBox="0 0 20 21" fill="none" xmlns="http://www.w3.org/2000/svg">
<path d="M10.4917 11.7791L8.575 13.6874C8.49689 13.7649 8.4349 13.857 8.39259 13.9586C8.35028 14.0601 8.3285 14.169 8.3285 14.2791C8.3285 14.3891 8.35028 14.498 8.39259 14.5995C8.4349 14.7011 8.49689 14.7933 8.575 14.8707C8.65247 14.9488 8.74463 15.0108 8.84618 15.0531C8.94773 15.0954 9.05665 15.1172 9.16666 15.1172C9.27667 15.1172 9.3856 15.0954 9.48715 15.0531C9.58869 15.0108 9.68086 14.9488 9.75833 14.8707L13.0917 11.5374C13.1675 11.4581 13.227 11.3647 13.2667 11.2624C13.35 11.0595 13.35 10.8319 13.2667 10.6291C13.227 10.5268 13.1675 10.4333 13.0917 10.3541L9.75833 7.02072C9.68063 6.94302 9.58839 6.88139 9.48687 6.83934C9.38535 6.79729 9.27655 6.77564 9.16666 6.77564C9.05678 6.77564 8.94797 6.79729 8.84646 6.83934C8.74494 6.88139 8.6527 6.94302 8.575 7.02072C8.4973 7.09842 8.43566 7.19066 8.39361 7.29218C8.35156 7.3937 8.32992 7.5025 8.32992 7.61239C8.32992 7.72227 8.35156 7.83108 8.39361 7.9326C8.43566 8.03411 8.4973 8.12636 8.575 8.20405L10.4917 10.1124H2.5C2.27898 10.1124 2.06702 10.2002 1.91074 10.3565C1.75446 10.5127 1.66666 10.7247 1.66666 10.9457C1.66666 11.1667 1.75446 11.3787 1.91074 11.535C2.06702 11.6913 2.27898 11.7791 2.5 11.7791H10.4917ZM10 2.61239C8.44257 2.60543 6.91437 3.03507 5.58872 3.85255C4.26307 4.67003 3.19304 5.84265 2.5 7.23739C2.40054 7.4363 2.38418 7.66657 2.4545 7.87755C2.52483 8.08853 2.67609 8.26293 2.875 8.36239C3.07391 8.46184 3.30418 8.47821 3.51516 8.40788C3.72614 8.33756 3.90054 8.1863 4 7.98739C4.52682 6.92349 5.32819 6.01957 6.32129 5.36904C7.31439 4.71852 8.46318 4.34499 9.64896 4.28705C10.8347 4.22911 12.0145 4.48887 13.0663 5.03948C14.118 5.59009 15.0037 6.41158 15.6318 7.41905C16.2598 8.42652 16.6074 9.58343 16.6387 10.7702C16.6699 11.957 16.3837 13.1306 15.8096 14.1697C15.2355 15.2089 14.3943 16.0758 13.3729 16.6811C12.3516 17.2863 11.1872 17.6078 10 17.6124C8.7574 17.6178 7.53846 17.2727 6.48307 16.6168C5.42769 15.9608 4.57863 15.0206 4.03333 13.9041C3.93387 13.7051 3.75947 13.5539 3.5485 13.4836C3.33752 13.4132 3.10724 13.4296 2.90833 13.5291C2.70942 13.6285 2.55816 13.8029 2.48784 14.0139C2.41751 14.2249 2.43387 14.4551 2.53333 14.6541C3.19402 15.9836 4.19793 17.1126 5.44122 17.9241C6.68451 18.7356 8.12204 19.2002 9.6051 19.2699C11.0882 19.3395 12.5629 19.0117 13.8768 18.3203C15.1907 17.6289 16.296 16.599 17.0784 15.3372C17.8608 14.0754 18.2919 12.6275 18.3271 11.1432C18.3623 9.65894 18.0003 8.19221 17.2785 6.89475C16.5568 5.59728 15.5015 4.51619 14.2219 3.76331C12.9422 3.01043 11.4847 2.61308 10 2.61239V2.61239Z" fill="#71839B"/>
</svg>
