<svg width="22" height="23" viewBox="0 0 22 23" fill="none" xmlns="http://www.w3.org/2000/svg">
<g clip-path="url(#clip0_669_7914)">
<path d="M20.7413 11.095H18.7002V10.7899C18.7002 10.1583 18.1889 9.64694 17.5573 9.64694H15.108C14.4764 9.64694 13.9694 10.1583 13.9651 10.7899V11.095H13.2131C13.1959 11.0778 13.1745 11.0563 13.1573 11.0434C12.1776 10.1497 11.0733 9.53952 9.89164 9.23015C12.0659 8.22038 13.0112 5.63796 12.0014 3.45945C10.9916 1.28093 8.40492 0.339914 6.2307 1.34968C4.05648 2.35945 3.11117 4.94616 4.12094 7.12038C4.55492 8.04851 5.29828 8.79616 6.2307 9.23015C5.04906 9.53952 3.94476 10.1497 2.96508 11.0434C1.55141 12.3325 0.511562 14.1544 0.0346085 16.1739C-0.0470321 16.5176 0.0303116 16.8786 0.245155 17.1536C2.9307 20.6384 7.59281 21.9317 11.6877 20.3247V21.3001C11.6877 22.2067 12.4225 22.9458 13.3334 22.9458H19.4221C20.3287 22.9458 21.0635 22.211 21.0678 21.3001V14.9794C21.6178 14.8333 22.0045 14.3348 22.0045 13.7634V12.3583C22.0002 11.6622 21.4373 11.0993 20.7413 11.095ZM4.36586 5.28991C4.36586 3.2489 6.02016 1.5946 8.06117 1.5946C10.1022 1.5946 11.7565 3.2489 11.7565 5.28991C11.7565 7.33093 10.1022 8.98523 8.06117 8.98523C6.02016 8.98093 4.36586 7.32663 4.36586 5.28991ZM8.06117 20.3634C5.19516 20.3719 2.49242 19.0399 0.756484 16.7626C0.661952 16.638 0.627577 16.479 0.661952 16.3243C1.59437 12.3884 4.63656 9.63835 8.06117 9.63835C9.56508 9.63835 10.9916 10.1669 12.2034 11.095H11.9241C11.228 11.095 10.6651 11.6579 10.6651 12.354V13.7591C10.6651 14.3649 11.0948 14.8805 11.6877 14.9966V19.6243C10.5362 20.1141 9.30727 20.3634 8.06117 20.3634ZM20.4147 21.3001C20.4147 21.8501 19.9678 22.2969 19.4178 22.2969H13.3291C12.7791 22.2969 12.3323 21.8501 12.3323 21.3001V15.0223H20.4147V21.3001ZM21.3514 13.7634C21.3514 13.9739 21.244 14.1716 21.0635 14.2833C20.9647 14.3434 20.853 14.3778 20.7413 14.3735H11.9241C11.8424 14.3735 11.7608 14.3563 11.6877 14.3262C11.46 14.2317 11.3139 14.0083 11.3139 13.7634V12.3583C11.3139 12.0188 11.5889 11.7438 11.9284 11.7438H14.6096V10.7899C14.6096 10.5149 14.833 10.2958 15.108 10.2915H17.5573C17.8323 10.2915 18.0557 10.5149 18.0557 10.7899V11.7438H20.7413C21.0807 11.7438 21.3557 12.0188 21.3557 12.3583L21.3514 13.7634Z" fill="#71839B"/>
<path d="M14.4117 16.2383C14.227 16.2383 14.0766 16.3887 14.0766 16.5691V20.7242C14.068 20.909 14.2141 21.0637 14.3988 21.068C14.5836 21.0766 14.7383 20.9305 14.7426 20.7457V16.5648C14.7426 16.3887 14.5965 16.2383 14.4117 16.2383ZM16.3754 21.0594C16.5602 21.0594 16.7105 20.909 16.7105 20.7242V16.5691C16.702 16.3844 16.5473 16.2426 16.3668 16.2469C16.1906 16.2512 16.0531 16.393 16.0445 16.5691V20.7242C16.0402 20.9133 16.1906 21.0594 16.3754 21.0594ZM18.3391 21.0594C18.5238 21.0594 18.6742 20.909 18.6742 20.7242V16.5691C18.6656 16.3844 18.5109 16.2426 18.3305 16.2469C18.1543 16.2512 18.0168 16.393 18.0082 16.5691V20.7242C18.0039 20.9133 18.1543 21.0594 18.3391 21.0594Z" fill="#71839B"/>
</g>
<defs>
<clipPath id="clip0_669_7914">
<rect width="22" height="22" fill="white" transform="translate(0 0.945801)"/>
</clipPath>
</defs>
</svg>
