<svg width="20" height="21" viewBox="0 0 20 21" fill="none" xmlns="http://www.w3.org/2000/svg">
<path d="M16.5833 11.2111C16.4497 11.0591 16.3761 10.8636 16.3761 10.6611C16.3761 10.4587 16.4497 10.2632 16.5833 10.1111L17.65 8.91113C17.7675 8.78002 17.8405 8.61505 17.8585 8.43988C17.8765 8.26472 17.8385 8.08837 17.75 7.93613L16.0833 5.05279C15.9958 4.90073 15.8624 4.78019 15.7023 4.70837C15.5422 4.63654 15.3635 4.61709 15.1917 4.65279L13.625 4.96946C13.4257 5.01065 13.2181 4.97745 13.0416 4.87613C12.865 4.7748 12.7317 4.61236 12.6667 4.41946L12.1583 2.89446C12.1024 2.72894 11.9959 2.58518 11.8539 2.4835C11.7118 2.38181 11.5414 2.32734 11.3667 2.32779H8.03334C7.85161 2.31831 7.67178 2.36857 7.52131 2.47089C7.37083 2.57321 7.25799 2.72198 7.2 2.89446L6.73334 4.41946C6.66834 4.61236 6.53498 4.7748 6.35843 4.87613C6.18188 4.97745 5.97435 5.01065 5.775 4.96946L4.16667 4.65279C4.00379 4.62978 3.83775 4.65548 3.68946 4.72666C3.54116 4.79784 3.41725 4.91132 3.33334 5.05279L1.66667 7.93613C1.57597 8.08667 1.53519 8.26203 1.55015 8.43715C1.56512 8.61226 1.63507 8.77816 1.75 8.91113L2.80834 10.1111C2.94194 10.2632 3.01561 10.4587 3.01561 10.6611C3.01561 10.8636 2.94194 11.0591 2.80834 11.2111L1.75 12.4111C1.63507 12.5441 1.56512 12.71 1.55015 12.8851C1.53519 13.0602 1.57597 13.2356 1.66667 13.3861L3.33334 16.2695C3.42092 16.4215 3.55427 16.5421 3.71438 16.6139C3.87449 16.6857 4.05319 16.7052 4.225 16.6695L5.79167 16.3528C5.99102 16.3116 6.19855 16.3448 6.3751 16.4461C6.55165 16.5475 6.685 16.7099 6.75 16.9028L7.25834 18.4278C7.31632 18.6003 7.42917 18.749 7.57964 18.8514C7.73012 18.9537 7.90995 19.0039 8.09167 18.9945H11.425C11.5997 18.9949 11.7701 18.9404 11.9122 18.8388C12.0543 18.7371 12.1608 18.5933 12.2167 18.4278L12.725 16.9028C12.79 16.7099 12.9234 16.5475 13.0999 16.4461C13.2765 16.3448 13.484 16.3116 13.6833 16.3528L15.25 16.6695C15.4218 16.7052 15.6005 16.6857 15.7606 16.6139C15.9207 16.5421 16.0541 16.4215 16.1417 16.2695L17.8083 13.3861C17.8968 13.2339 17.9348 13.0575 17.9168 12.8824C17.8989 12.7072 17.8259 12.5422 17.7083 12.4111L16.5833 11.2111ZM15.3417 12.3278L16.0083 13.0778L14.9417 14.9278L13.9583 14.7278C13.3582 14.6051 12.7338 14.7071 12.2038 15.0143C11.6739 15.3215 11.2751 15.8127 11.0833 16.3945L10.7667 17.3278H8.63334L8.33334 16.3778C8.14155 15.796 7.74282 15.3049 7.21284 14.9976C6.68286 14.6904 6.05852 14.5884 5.45834 14.7111L4.475 14.9111L3.39167 13.0695L4.05834 12.3195C4.4683 11.8611 4.69495 11.2677 4.69495 10.6528C4.69495 10.0379 4.4683 9.44448 4.05834 8.98613L3.39167 8.23613L4.45834 6.40279L5.44167 6.60279C6.04185 6.72548 6.66619 6.62353 7.19617 6.31629C7.72615 6.00906 8.12488 5.51793 8.31667 4.93613L8.63334 3.99446H10.7667L11.0833 4.94446C11.2751 5.52626 11.6739 6.01739 12.2038 6.32463C12.7338 6.63186 13.3582 6.73381 13.9583 6.61113L14.9417 6.41113L16.0083 8.26113L15.3417 9.01113C14.9363 9.46843 14.7125 10.0584 14.7125 10.6695C14.7125 11.2806 14.9363 11.8705 15.3417 12.3278V12.3278ZM9.7 7.32779C9.04073 7.32779 8.39627 7.52329 7.8481 7.88956C7.29994 8.25583 6.8727 8.77643 6.6204 9.38552C6.36811 9.9946 6.3021 10.6648 6.43072 11.3114C6.55934 11.958 6.8768 12.552 7.34298 13.0182C7.80915 13.4843 8.4031 13.8018 9.0497 13.9304C9.6963 14.059 10.3665 13.993 10.9756 13.7407C11.5847 13.4884 12.1053 13.0612 12.4716 12.513C12.8378 11.9649 13.0333 11.3204 13.0333 10.6611C13.0333 9.77707 12.6821 8.92923 12.057 8.3041C11.4319 7.67898 10.5841 7.32779 9.7 7.32779V7.32779ZM9.7 12.3278C9.37037 12.3278 9.04813 12.23 8.77405 12.0469C8.49997 11.8638 8.28635 11.6035 8.1602 11.2989C8.03406 10.9944 8.00105 10.6593 8.06536 10.336C8.12967 10.0127 8.2884 9.7157 8.52149 9.48262C8.75458 9.24953 9.05155 9.09079 9.37485 9.02648C9.69815 8.96218 10.0333 8.99518 10.3378 9.12133C10.6424 9.24747 10.9026 9.46109 11.0858 9.73518C11.2689 10.0093 11.3667 10.3315 11.3667 10.6611C11.3667 11.1032 11.1911 11.5271 10.8785 11.8396C10.566 12.1522 10.142 12.3278 9.7 12.3278Z" fill="#71839B"/>
</svg>
