<svg width="18" height="21" viewBox="0 0 18 21" fill="none" xmlns="http://www.w3.org/2000/svg">
<path d="M12.3389 13.8754C14.4671 10.5358 14.1996 10.9525 14.2609 10.8654C15.0358 9.7725 15.4453 8.48621 15.4453 7.14551C15.4453 3.59004 12.5601 0.661133 9 0.661133C5.45148 0.661133 2.55469 3.58426 2.55469 7.14551C2.55469 8.48535 2.97281 9.80531 3.77305 10.9129L5.66102 13.8754C3.64246 14.1856 0.210938 15.11 0.210938 17.1455C0.210938 17.8875 0.695234 18.9449 3.00242 19.7689C4.61344 20.3443 6.7434 20.6611 9 20.6611C13.2197 20.6611 17.7891 19.4708 17.7891 17.1455C17.7891 15.1097 14.3616 14.1862 12.3389 13.8754ZM4.75191 10.2684C4.74547 10.2583 4.73874 10.2484 4.73172 10.2387C4.06582 9.32266 3.72656 8.23695 3.72656 7.14551C3.72656 4.21512 6.08617 1.83301 9 1.83301C11.9078 1.83301 14.2734 4.21617 14.2734 7.14551C14.2734 8.23871 13.9406 9.28758 13.3107 10.1795C13.2543 10.254 13.5487 9.79648 9 16.9341L4.75191 10.2684ZM9 19.4893C4.39086 19.4893 1.38281 18.1345 1.38281 17.1455C1.38281 16.4808 2.92844 15.3879 6.35344 14.9619L8.50586 18.3393C8.55879 18.4224 8.63181 18.4908 8.71817 18.5382C8.80454 18.5856 8.90145 18.6104 8.99996 18.6104C9.09847 18.6104 9.19538 18.5856 9.28175 18.5382C9.36811 18.4908 9.44113 18.4224 9.49406 18.3393L11.6464 14.9619C15.0715 15.3879 16.6172 16.4808 16.6172 17.1455C16.6172 18.1261 13.6362 19.4893 9 19.4893Z" fill="#71839B"/>
<path d="M9 4.21582C7.38457 4.21582 6.07031 5.53008 6.07031 7.14551C6.07031 8.76094 7.38457 10.0752 9 10.0752C10.6154 10.0752 11.9297 8.76094 11.9297 7.14551C11.9297 5.53008 10.6154 4.21582 9 4.21582ZM9 8.90332C8.03074 8.90332 7.24219 8.11477 7.24219 7.14551C7.24219 6.17625 8.03074 5.3877 9 5.3877C9.96926 5.3877 10.7578 6.17625 10.7578 7.14551C10.7578 8.11477 9.96926 8.90332 9 8.90332Z" fill="#71839B"/>
</svg>
