<svg width="22" height="23" viewBox="0 0 22 23" fill="none" xmlns="http://www.w3.org/2000/svg">
<g clip-path="url(#clip0_669_7875)">
<path d="M21.046 7.61748C21.0157 7.57967 20.9747 7.55958 20.9267 7.55722C18.437 7.46308 16.4385 5.45592 16.357 2.96391C16.3539 2.87568 16.2822 2.80518 16.1939 2.80518H5.80721C5.71898 2.80518 5.64651 2.87568 5.64414 2.96391C5.56301 5.45592 3.56333 7.46308 1.07446 7.55722C1.02641 7.55958 0.985055 7.57967 0.955121 7.61748C0.924005 7.6545 0.911401 7.69783 0.919279 7.74588C2.34076 16.8329 6.05613 20.9862 10.9488 22.6082C10.9846 22.6192 11.0169 22.6192 11.0516 22.6082C15.945 20.9858 19.6608 16.8325 21.0819 7.74549C21.0886 7.69783 21.0764 7.65411 21.046 7.61748ZM19.0475 9.13585C18.4902 11.8792 17.5638 14.6969 15.9592 16.9266C14.6728 18.7128 13.0631 19.9645 11.0591 20.7393C11.0201 20.7538 10.9811 20.7538 10.9417 20.7393C8.93768 19.9645 7.32754 18.7128 6.04156 16.9266C4.43733 14.6969 3.51055 11.8792 2.95322 9.13585C2.93629 9.0555 2.98119 8.97633 3.05799 8.94955C5.00844 8.26067 6.53232 6.67101 7.12982 4.68C7.15109 4.60949 7.21253 4.56381 7.28619 4.56381H14.7146C14.787 4.56381 14.8497 4.60949 14.8709 4.68C15.4684 6.67062 16.9923 8.26067 18.9428 8.94955C19.02 8.97594 19.0645 9.0555 19.0475 9.13585ZM8.93335 9.83694H7.90378V9.23628C7.90378 8.38434 8.25196 7.61078 8.81243 7.04912C9.37409 6.48865 10.1477 6.14047 10.9996 6.14047C11.8527 6.14047 12.6263 6.48865 13.1868 7.04912C13.7484 7.61078 14.0966 8.38434 14.0966 9.23628V9.83694H13.0662V9.23628C13.0662 8.66911 12.8338 8.15235 12.4589 7.777C12.0847 7.40282 11.5679 7.16965 10.9996 7.16965C10.4324 7.16965 9.91566 7.40282 9.5403 7.777C9.16613 8.15196 8.93296 8.66911 8.93296 9.23628V9.83694H8.93335ZM14.249 10.4888H7.75214C7.34015 10.4888 7.00299 10.8259 7.00299 11.2379V15.1199C7.00299 15.5319 7.34015 15.8691 7.75214 15.8691H14.249C14.661 15.8691 14.9982 15.5319 14.9982 15.1199V11.2379C14.9982 10.8259 14.661 10.4888 14.249 10.4888ZM11 14.897C10.0543 14.897 9.28193 14.1254 9.28193 13.1789C9.28193 12.2321 10.0547 11.4605 11 11.4605C11.9469 11.4605 12.7192 12.2321 12.7192 13.1789C12.7196 14.1254 11.9469 14.897 11 14.897ZM12.0296 12.4774C12.1568 12.6047 12.1568 12.8114 12.0296 12.9387L11.0882 13.88C10.961 14.0072 10.7542 14.0072 10.627 13.88L9.97199 13.223C9.84477 13.0958 9.84477 12.8902 9.97199 12.7618C10.0992 12.6346 10.306 12.6346 10.4332 12.7618L10.8586 13.1872L11.5687 12.477C11.6956 12.3502 11.9023 12.3502 12.0296 12.4774Z" fill="#71839B"/>
</g>
<defs>
<clipPath id="clip0_669_7875">
<rect width="22" height="22" fill="white" transform="translate(0 0.661133)"/>
</clipPath>
</defs>
</svg>
