<svg width="22" height="23" viewBox="0 0 22 23" fill="none" xmlns="http://www.w3.org/2000/svg">
<path fill-rule="evenodd" clip-rule="evenodd" d="M14.6663 18.9946C14.7878 18.9946 14.9044 18.9463 14.9904 18.8603C15.0763 18.7744 15.1246 18.6578 15.1246 18.5362C15.1246 18.4147 15.0763 18.2981 14.9904 18.2122C14.9044 18.1262 14.7878 18.0779 14.6663 18.0779C14.5447 18.0779 14.4281 18.1262 14.3422 18.2122C14.2562 18.2981 14.208 18.4147 14.208 18.5362C14.208 18.6578 14.2562 18.7744 14.3422 18.8603C14.4281 18.9463 14.5447 18.9946 14.6663 18.9946ZM14.6663 20.3696C15.1525 20.3696 15.6188 20.1764 15.9626 19.8326C16.3065 19.4888 16.4996 19.0225 16.4996 18.5362C16.4996 18.05 16.3065 17.5837 15.9626 17.2399C15.6188 16.8961 15.1525 16.7029 14.6663 16.7029C14.1801 16.7029 13.7137 16.8961 13.3699 17.2399C13.0261 17.5837 12.833 18.05 12.833 18.5362C12.833 19.0225 13.0261 19.4888 13.3699 19.8326C13.7137 20.1764 14.1801 20.3696 14.6663 20.3696ZM9.16629 18.9946C9.28784 18.9946 9.40442 18.9463 9.49038 18.8603C9.57633 18.7744 9.62462 18.6578 9.62462 18.5362C9.62462 18.4147 9.57633 18.2981 9.49038 18.2122C9.40442 18.1262 9.28784 18.0779 9.16629 18.0779C9.04473 18.0779 8.92815 18.1262 8.8422 18.2122C8.75624 18.2981 8.70795 18.4147 8.70795 18.5362C8.70795 18.6578 8.75624 18.7744 8.8422 18.8603C8.92815 18.9463 9.04473 18.9946 9.16629 18.9946ZM9.16629 20.3696C9.65252 20.3696 10.1188 20.1764 10.4626 19.8326C10.8065 19.4888 10.9996 19.0225 10.9996 18.5362C10.9996 18.05 10.8065 17.5837 10.4626 17.2399C10.1188 16.8961 9.65252 16.7029 9.16629 16.7029C8.68006 16.7029 8.21374 16.8961 7.86992 17.2399C7.52611 17.5837 7.33295 18.05 7.33295 18.5362C7.33295 19.0225 7.52611 19.4888 7.86992 19.8326C8.21374 20.1764 8.68006 20.3696 9.16629 20.3696ZM2.63595 3.48824C2.7371 3.33655 2.89435 3.23124 3.07313 3.19548C3.25192 3.15973 3.43758 3.19645 3.58929 3.29757L4.65995 4.0112C5.00203 4.23918 5.24354 4.58979 5.33462 4.99066L7.22066 13.2902C7.27823 13.5435 7.42016 13.7697 7.6232 13.9318C7.82623 14.0938 8.0783 14.1821 8.33808 14.1821H15.4945C15.7543 14.1821 16.0063 14.0938 16.2094 13.9318C16.4124 13.7697 16.5543 13.5435 16.6119 13.2902L18.0703 6.87349C18.1085 6.70571 18.1083 6.53151 18.0699 6.36379C18.0315 6.19608 17.9558 6.03917 17.8485 5.90471C17.7411 5.77024 17.6049 5.66168 17.4499 5.58707C17.2948 5.51247 17.125 5.47373 16.9529 5.47374H9.85379C9.67145 5.47374 9.49658 5.40131 9.36765 5.27238C9.23872 5.14345 9.16629 4.96858 9.16629 4.78624C9.16629 4.6039 9.23872 4.42904 9.36765 4.3001C9.49658 4.17117 9.67145 4.09874 9.85379 4.09874H16.9529C18.5708 4.09874 19.7694 5.6007 19.411 7.17828L17.9525 13.5949C17.8258 14.1521 17.5135 14.6497 17.0669 15.0061C16.6203 15.3625 16.0659 15.5566 15.4945 15.5566H8.33808C7.76669 15.5566 7.21225 15.3625 6.76565 15.0061C6.31905 14.6497 6.00678 14.1521 5.88004 13.5949L3.99354 5.29499C3.98053 5.23779 3.94608 5.18776 3.89729 5.1552L2.82662 4.44157C2.67492 4.34043 2.56962 4.18317 2.53386 4.00439C2.49811 3.82561 2.53483 3.63995 2.63595 3.48824Z" fill="#263238"/>
<path fill-rule="evenodd" clip-rule="evenodd" d="M9.16125 9.85599C9.2901 9.72718 9.4648 9.65478 9.64699 9.6547C9.82918 9.65461 10.004 9.72684 10.1329 9.85553L10.9442 10.6654L13.6988 7.91082C13.7622 7.84519 13.8381 7.79285 13.922 7.75686C14.0059 7.72087 14.0961 7.70194 14.1874 7.7012C14.2787 7.70045 14.3692 7.71788 14.4537 7.75249C14.5381 7.7871 14.6149 7.83818 14.6794 7.90277C14.7439 7.96735 14.7949 8.04413 14.8295 8.12864C14.864 8.21315 14.8813 8.30368 14.8805 8.39497C14.8797 8.48625 14.8607 8.57646 14.8246 8.66032C14.7885 8.74418 14.7361 8.82002 14.6704 8.8834L11.43 12.1238C11.3011 12.2526 11.1264 12.3249 10.9442 12.3249C10.762 12.3249 10.5872 12.2526 10.4583 12.1238L9.16125 10.8281C9.03237 10.6992 8.95996 10.5244 8.95996 10.3421C8.95996 10.1598 9.03237 9.98491 9.16125 9.85599Z" fill="#263238"/>
</svg>
