<svg width="24" height="25" viewBox="0 0 24 25" fill="none" xmlns="http://www.w3.org/2000/svg">
<mask id="path-1-inside-1_669_7850" fill="white">
<path d="M5.55669 18.8499H5.52717C5.25549 18.8499 5.03469 18.6301 5.03469 18.3599C5.03469 18.0896 5.25549 17.8698 5.52717 17.8698C5.79885 17.8698 6.01989 18.0896 6.01989 18.3599C6.01989 18.4235 6.04517 18.4846 6.09018 18.5296C6.13519 18.5746 6.19624 18.5999 6.25989 18.5999C6.32354 18.5999 6.38458 18.5746 6.42959 18.5296C6.4746 18.4846 6.49989 18.4235 6.49989 18.3599C6.49989 17.9082 6.18717 17.5307 5.76717 17.4234V17.3123C5.76717 17.2486 5.74188 17.1876 5.69687 17.1426C5.65186 17.0976 5.59082 17.0723 5.52717 17.0723C5.46352 17.0723 5.40247 17.0976 5.35746 17.1426C5.31245 17.1876 5.28717 17.2486 5.28717 17.3123V17.4234C4.86717 17.5307 4.55469 17.9082 4.55469 18.3599C4.55532 18.6174 4.65806 18.8641 4.84037 19.046C5.02267 19.2278 5.26967 19.3299 5.52717 19.3299H5.55693C5.68717 19.3298 5.81217 19.3812 5.90453 19.473C5.99689 19.5649 6.04908 19.6896 6.04965 19.8198C6.04965 20.09 5.82861 20.3099 5.55693 20.3099C5.28525 20.3099 5.06445 20.09 5.06445 19.8198C5.06445 19.7561 5.03916 19.6951 4.99415 19.6501C4.94914 19.6051 4.8881 19.5798 4.82445 19.5798C4.7608 19.5798 4.69975 19.6051 4.65474 19.6501C4.60973 19.6951 4.58445 19.7561 4.58445 19.8198C4.58445 20.2607 4.88253 20.6295 5.28717 20.7471V20.8674C5.28717 20.931 5.31245 20.9921 5.35746 21.0371C5.40247 21.0821 5.46352 21.1074 5.52717 21.1074C5.59082 21.1074 5.65186 21.0821 5.69687 21.0371C5.74188 20.9921 5.76717 20.931 5.76717 20.8674V20.7656C6.20253 20.6694 6.52965 20.2825 6.52965 19.82C6.52908 19.5625 6.42632 19.3157 6.24395 19.1338C6.06158 18.9519 5.81425 18.8498 5.55669 18.8499Z"/>
</mask>
<path d="M5.55669 18.8499H5.52717C5.25549 18.8499 5.03469 18.6301 5.03469 18.3599C5.03469 18.0896 5.25549 17.8698 5.52717 17.8698C5.79885 17.8698 6.01989 18.0896 6.01989 18.3599C6.01989 18.4235 6.04517 18.4846 6.09018 18.5296C6.13519 18.5746 6.19624 18.5999 6.25989 18.5999C6.32354 18.5999 6.38458 18.5746 6.42959 18.5296C6.4746 18.4846 6.49989 18.4235 6.49989 18.3599C6.49989 17.9082 6.18717 17.5307 5.76717 17.4234V17.3123C5.76717 17.2486 5.74188 17.1876 5.69687 17.1426C5.65186 17.0976 5.59082 17.0723 5.52717 17.0723C5.46352 17.0723 5.40247 17.0976 5.35746 17.1426C5.31245 17.1876 5.28717 17.2486 5.28717 17.3123V17.4234C4.86717 17.5307 4.55469 17.9082 4.55469 18.3599C4.55532 18.6174 4.65806 18.8641 4.84037 19.046C5.02267 19.2278 5.26967 19.3299 5.52717 19.3299H5.55693C5.68717 19.3298 5.81217 19.3812 5.90453 19.473C5.99689 19.5649 6.04908 19.6896 6.04965 19.8198C6.04965 20.09 5.82861 20.3099 5.55693 20.3099C5.28525 20.3099 5.06445 20.09 5.06445 19.8198C5.06445 19.7561 5.03916 19.6951 4.99415 19.6501C4.94914 19.6051 4.8881 19.5798 4.82445 19.5798C4.7608 19.5798 4.69975 19.6051 4.65474 19.6501C4.60973 19.6951 4.58445 19.7561 4.58445 19.8198C4.58445 20.2607 4.88253 20.6295 5.28717 20.7471V20.8674C5.28717 20.931 5.31245 20.9921 5.35746 21.0371C5.40247 21.0821 5.46352 21.1074 5.52717 21.1074C5.59082 21.1074 5.65186 21.0821 5.69687 21.0371C5.74188 20.9921 5.76717 20.931 5.76717 20.8674V20.7656C6.20253 20.6694 6.52965 20.2825 6.52965 19.82C6.52908 19.5625 6.42632 19.3157 6.24395 19.1338C6.06158 18.9519 5.81425 18.8498 5.55669 18.8499Z" fill="#71839B"/>
<path d="M5.55669 18.8499V20.8499L5.55768 20.8499L5.55669 18.8499ZM5.76717 17.4234H3.76717V18.9767L5.2722 19.3612L5.76717 17.4234ZM5.28717 17.4234L5.78213 19.3612L7.28717 18.9767V17.4234H5.28717ZM4.55469 18.3599H2.55468L2.55469 18.3648L4.55469 18.3599ZM5.52717 19.3299V17.3299H5.52716L5.52717 19.3299ZM5.55693 19.3299V21.3299L5.55987 21.3299L5.55693 19.3299ZM6.04965 19.8198H8.04967L8.04963 19.811L6.04965 19.8198ZM5.28717 20.7471H7.28717V19.2457L5.84533 18.8266L5.28717 20.7471ZM5.35746 21.0371L6.77168 19.6229L5.35746 21.0371ZM5.69687 21.0371L4.28266 19.6229L5.69687 21.0371ZM5.76717 20.7656L5.33547 18.8128L3.76717 19.1595V20.7656H5.76717ZM6.52965 19.82H8.52965L8.52964 19.8156L6.52965 19.82ZM5.55669 16.8499H5.52717V20.8499H5.55669V16.8499ZM5.52717 16.8499C6.35114 16.8499 7.03469 17.5166 7.03469 18.3599H3.03469C3.03469 19.7436 4.15983 20.8499 5.52717 20.8499V16.8499ZM7.03469 18.3599C7.03469 19.2031 6.35114 19.8698 5.52717 19.8698V15.8698C4.15983 15.8698 3.03469 16.9762 3.03469 18.3599H7.03469ZM5.52717 19.8698C4.70446 19.8698 4.01989 19.2044 4.01989 18.3599H8.01989C8.01989 16.9749 6.89323 15.8698 5.52717 15.8698V19.8698ZM4.01989 18.3599C4.01989 18.954 4.25589 19.5237 4.67597 19.9438L7.5044 17.1154C7.83445 17.4454 8.01989 17.8931 8.01989 18.3599H4.01989ZM4.67597 19.9438C5.09603 20.3638 5.66577 20.5999 6.25989 20.5999V16.5999C6.7267 16.5999 7.17435 16.7853 7.5044 17.1154L4.67597 19.9438ZM6.25989 20.5999C6.85401 20.5999 7.42375 20.3638 7.84381 19.9438L5.01538 17.1154C5.34542 16.7853 5.79307 16.5999 6.25989 16.5999V20.5999ZM7.84381 19.9438C8.26388 19.5237 8.49989 18.954 8.49989 18.3599H4.49989C4.49989 17.8931 4.68532 17.4454 5.01538 17.1154L7.84381 19.9438ZM8.49989 18.3599C8.49989 16.955 7.52906 15.8092 6.26213 15.4856L5.2722 19.3612C4.84528 19.2521 4.49989 18.8613 4.49989 18.3599H8.49989ZM7.76717 17.4234V17.3123H3.76717V17.4234H7.76717ZM7.76717 17.3123C7.76717 16.7182 7.53116 16.1484 7.11109 15.7283L4.28266 18.5568C3.9526 18.2267 3.76717 17.7791 3.76717 17.3123H7.76717ZM7.11109 15.7283C6.691 15.3083 6.12125 15.0723 5.52717 15.0723V19.0723C5.06039 19.0723 4.61272 18.8868 4.28266 18.5568L7.11109 15.7283ZM5.52717 15.0723C4.93309 15.0723 4.36333 15.3083 3.94325 15.7283L6.77168 18.5568C6.44161 18.8868 5.99394 19.0723 5.52717 19.0723V15.0723ZM3.94325 15.7283C3.52316 16.1484 3.28717 16.7182 3.28717 17.3123H7.28717C7.28717 17.779 7.10174 18.2267 6.77168 18.5568L3.94325 15.7283ZM3.28717 17.3123V17.4234H7.28717V17.3123H3.28717ZM4.7922 15.4856C3.52454 15.8094 2.55469 16.9558 2.55469 18.3599H6.55469C6.55469 18.8606 6.2098 19.2519 5.78213 19.3612L4.7922 15.4856ZM2.55469 18.3648C2.55664 19.1519 2.87066 19.9061 3.4279 20.4619L6.25283 17.63C6.44546 17.8222 6.55401 18.0829 6.55468 18.3549L2.55469 18.3648ZM3.4279 20.4619C3.98514 21.0178 4.74009 21.3299 5.52717 21.3299L5.52716 17.3299C5.79924 17.3299 6.06021 17.4379 6.25283 17.63L3.4279 20.4619ZM5.52717 21.3299H5.55693V17.3299H5.52717V21.3299ZM5.55987 21.3299C5.1607 21.3305 4.77756 21.1728 4.49447 20.8914L7.31459 18.0547C6.84677 17.5896 6.21363 17.329 5.55398 17.3299L5.55987 21.3299ZM4.49447 20.8914C4.21137 20.6099 4.05142 20.2277 4.04967 19.8286L8.04963 19.811C8.04673 19.1514 7.78241 18.5198 7.31459 18.0547L4.49447 20.8914ZM4.04965 19.8198C4.04965 18.9753 4.73423 18.3099 5.55693 18.3099V22.3099C6.92299 22.3099 8.04965 21.2048 8.04965 19.8198H4.04965ZM5.55693 18.3099C6.3809 18.3099 7.06445 18.9766 7.06445 19.8198H3.06445C3.06445 21.2035 4.18959 22.3099 5.55693 22.3099V18.3099ZM7.06445 19.8198C7.06445 19.2257 6.82844 18.6559 6.40837 18.2359L3.57994 21.0643C3.24988 20.7342 3.06445 20.2866 3.06445 19.8198H7.06445ZM6.40837 18.2359C5.98828 17.8158 5.41853 17.5798 4.82445 17.5798V21.5798C4.35767 21.5798 3.91 21.3944 3.57994 21.0643L6.40837 18.2359ZM4.82445 17.5798C4.23037 17.5798 3.66061 17.8158 3.24053 18.2359L6.06896 21.0643C5.73889 21.3944 5.29122 21.5798 4.82445 21.5798V17.5798ZM3.24053 18.2359C2.82044 18.656 2.58445 19.2257 2.58445 19.8198H6.58445C6.58445 20.2866 6.39902 20.7342 6.06896 21.0643L3.24053 18.2359ZM2.58445 19.8198C2.58445 21.1949 3.51374 22.3145 4.729 22.6677L5.84533 18.8266C6.25132 18.9446 6.58445 19.3264 6.58445 19.8198H2.58445ZM3.28717 20.7471V20.8674H7.28717V20.7471H3.28717ZM3.28717 20.8674C3.28717 21.4615 3.52316 22.0312 3.94325 22.4513L6.77168 19.6229C7.10174 19.9529 7.28717 20.4006 7.28717 20.8674H3.28717ZM3.94325 22.4513C4.36333 22.8714 4.93309 23.1074 5.52717 23.1074V19.1074C5.99394 19.1074 6.44161 19.2928 6.77168 19.6229L3.94325 22.4513ZM5.52717 23.1074C6.12125 23.1074 6.691 22.8714 7.11109 22.4513L4.28266 19.6229C4.61272 19.2928 5.06039 19.1074 5.52717 19.1074V23.1074ZM7.11109 22.4513C7.53116 22.0312 7.76717 21.4615 7.76717 20.8674H3.76717C3.76717 20.4006 3.9526 19.9529 4.28266 19.6229L7.11109 22.4513ZM7.76717 20.8674V20.7656H3.76717V20.8674H7.76717ZM6.19886 22.7185C7.52066 22.4263 8.52965 21.2508 8.52965 19.82H4.52965C4.52965 19.3142 4.8844 18.9125 5.33547 18.8128L6.19886 22.7185ZM8.52964 19.8156C8.52789 19.0282 8.21378 18.2737 7.65624 17.7176L4.83166 20.5499C4.63887 20.3576 4.53026 20.0967 4.52965 19.8245L8.52964 19.8156ZM7.65624 17.7176C7.09834 17.1613 6.34257 16.8496 5.5557 16.8499L5.55768 20.8499C5.28594 20.8501 5.02482 20.7425 4.83166 20.5499L7.65624 17.7176Z" fill="#71839B" mask="url(#path-1-inside-1_669_7850)"/>
<mask id="path-3-inside-2_669_7850" fill="white">
<path d="M17.302 22.2618C17.5355 22.2618 17.7688 22.2123 17.9889 22.1137C18.1899 22.0245 18.3713 21.8964 18.5225 21.7367C18.6737 21.5769 18.7917 21.3888 18.8697 21.1832L21.4912 14.3017C21.6488 13.8866 21.6353 13.426 21.4537 13.0208C21.2721 12.6156 20.9373 12.299 20.5226 12.1405L18.5366 11.3838V4.73576C18.5361 4.29177 18.3596 3.86609 18.0456 3.55213C17.7317 3.23816 17.3061 3.06154 16.8621 3.06104H4.07511C3.6311 3.06154 3.20543 3.23815 2.89147 3.55211C2.57751 3.86607 2.4009 4.29175 2.40039 4.73576V12.0999C2.4009 12.5439 2.57751 12.9696 2.89147 13.2836C3.20543 13.5975 3.6311 13.7741 4.07511 13.7746H4.42383L3.79071 15.4362C3.65419 15.794 3.64545 16.1879 3.76599 16.5514C2.94759 17.1171 2.40951 18.061 2.40951 19.129C2.40951 20.8561 3.81471 22.261 5.54151 22.261C7.26831 22.261 8.67399 20.8561 8.67399 19.129C8.67399 19.1151 8.67207 19.1022 8.67183 19.0885L16.7082 22.1518C16.8978 22.2244 17.099 22.2616 17.302 22.2618ZM17.6603 13.5716L20.7995 14.7682L20.0812 16.6542L12.5248 13.7746H16.8621C17.141 13.7749 17.4154 13.7051 17.6603 13.5716ZM20.3517 12.589C20.6475 12.7021 20.8863 12.9279 21.0159 13.2169C21.1454 13.5059 21.155 13.8345 21.0426 14.1306L20.9706 14.3197L18.0988 13.225C18.3802 12.9179 18.5364 12.5165 18.5366 12.0999V11.8974L20.3517 12.589ZM2.88039 12.0999V4.73576C2.88077 4.41901 3.00677 4.11535 3.23074 3.89138C3.45471 3.66741 3.75837 3.54142 4.07511 3.54104H16.8621C17.1788 3.54142 17.4824 3.66742 17.7064 3.8914C17.9303 4.11537 18.0562 4.41903 18.0566 4.73576V12.0999C18.0562 12.4166 17.9303 12.7203 17.7064 12.9443C17.4824 13.1683 17.1788 13.2943 16.8621 13.2946H4.07511C3.75837 13.2943 3.45471 13.1683 3.23074 12.9443C3.00677 12.7203 2.88077 12.4167 2.88039 12.0999ZM5.54175 21.781C4.07943 21.781 2.88975 20.5914 2.88975 19.129C2.88975 17.6667 4.07943 16.4766 5.54175 16.4766C7.00407 16.4766 8.19375 17.6662 8.19375 19.1288C8.19375 20.5914 7.00407 21.781 5.54175 21.781ZM5.54175 15.9966C5.05959 15.9966 4.60455 16.1094 4.19631 16.3047C4.14004 16.0731 4.1551 15.8299 4.23951 15.607L4.93767 13.7746H11.1834C11.1873 13.7763 11.1899 13.7794 11.194 13.7811L19.9103 17.1027L18.4209 21.0123C18.3652 21.1589 18.281 21.2931 18.1732 21.407C18.0653 21.5208 17.936 21.6122 17.7926 21.6757C17.6497 21.7404 17.4954 21.7762 17.3386 21.781C17.1818 21.7857 17.0256 21.7593 16.8791 21.7033L8.61879 18.5545C8.34807 17.101 7.07247 15.9966 5.54175 15.9966Z"/>
</mask>
<path d="M17.302 22.2618C17.5355 22.2618 17.7688 22.2123 17.9889 22.1137C18.1899 22.0245 18.3713 21.8964 18.5225 21.7367C18.6737 21.5769 18.7917 21.3888 18.8697 21.1832L21.4912 14.3017C21.6488 13.8866 21.6353 13.426 21.4537 13.0208C21.2721 12.6156 20.9373 12.299 20.5226 12.1405L18.5366 11.3838V4.73576C18.5361 4.29177 18.3596 3.86609 18.0456 3.55213C17.7317 3.23816 17.3061 3.06154 16.8621 3.06104H4.07511C3.6311 3.06154 3.20543 3.23815 2.89147 3.55211C2.57751 3.86607 2.4009 4.29175 2.40039 4.73576V12.0999C2.4009 12.5439 2.57751 12.9696 2.89147 13.2836C3.20543 13.5975 3.6311 13.7741 4.07511 13.7746H4.42383L3.79071 15.4362C3.65419 15.794 3.64545 16.1879 3.76599 16.5514C2.94759 17.1171 2.40951 18.061 2.40951 19.129C2.40951 20.8561 3.81471 22.261 5.54151 22.261C7.26831 22.261 8.67399 20.8561 8.67399 19.129C8.67399 19.1151 8.67207 19.1022 8.67183 19.0885L16.7082 22.1518C16.8978 22.2244 17.099 22.2616 17.302 22.2618ZM17.6603 13.5716L20.7995 14.7682L20.0812 16.6542L12.5248 13.7746H16.8621C17.141 13.7749 17.4154 13.7051 17.6603 13.5716ZM20.3517 12.589C20.6475 12.7021 20.8863 12.9279 21.0159 13.2169C21.1454 13.5059 21.155 13.8345 21.0426 14.1306L20.9706 14.3197L18.0988 13.225C18.3802 12.9179 18.5364 12.5165 18.5366 12.0999V11.8974L20.3517 12.589ZM2.88039 12.0999V4.73576C2.88077 4.41901 3.00677 4.11535 3.23074 3.89138C3.45471 3.66741 3.75837 3.54142 4.07511 3.54104H16.8621C17.1788 3.54142 17.4824 3.66742 17.7064 3.8914C17.9303 4.11537 18.0562 4.41903 18.0566 4.73576V12.0999C18.0562 12.4166 17.9303 12.7203 17.7064 12.9443C17.4824 13.1683 17.1788 13.2943 16.8621 13.2946H4.07511C3.75837 13.2943 3.45471 13.1683 3.23074 12.9443C3.00677 12.7203 2.88077 12.4167 2.88039 12.0999ZM5.54175 21.781C4.07943 21.781 2.88975 20.5914 2.88975 19.129C2.88975 17.6667 4.07943 16.4766 5.54175 16.4766C7.00407 16.4766 8.19375 17.6662 8.19375 19.1288C8.19375 20.5914 7.00407 21.781 5.54175 21.781ZM5.54175 15.9966C5.05959 15.9966 4.60455 16.1094 4.19631 16.3047C4.14004 16.0731 4.1551 15.8299 4.23951 15.607L4.93767 13.7746H11.1834C11.1873 13.7763 11.1899 13.7794 11.194 13.7811L19.9103 17.1027L18.4209 21.0123C18.3652 21.1589 18.281 21.2931 18.1732 21.407C18.0653 21.5208 17.936 21.6122 17.7926 21.6757C17.6497 21.7404 17.4954 21.7762 17.3386 21.781C17.1818 21.7857 17.0256 21.7593 16.8791 21.7033L8.61879 18.5545C8.34807 17.101 7.07247 15.9966 5.54175 15.9966Z" fill="#71839B"/>
<path d="M17.302 22.2618L17.3005 24.2618H17.302V22.2618ZM17.9889 22.1137L17.1781 20.2854L17.1709 20.2886L17.9889 22.1137ZM18.8697 21.1832L17.0007 20.4712L16.9997 20.4738L18.8697 21.1832ZM21.4912 14.3017L23.3602 15.0137L23.361 15.0116L21.4912 14.3017ZM20.5226 12.1405L21.2369 10.2724L21.2347 10.2715L20.5226 12.1405ZM18.5366 11.3838H16.5366V12.762L17.8244 13.2527L18.5366 11.3838ZM18.5366 4.73576H20.5366L20.5365 4.73375L18.5366 4.73576ZM16.8621 3.06104L16.8644 1.06104H16.8621V3.06104ZM4.07511 3.06104V1.06103L4.07282 1.06104L4.07511 3.06104ZM2.40039 4.73576L0.400391 4.73347V4.73576H2.40039ZM2.40039 12.0999H0.400389L0.400392 12.1022L2.40039 12.0999ZM4.07511 13.7746L4.07282 15.7746H4.07511V13.7746ZM4.42383 13.7746L6.29275 14.4868L7.32621 11.7746H4.42383V13.7746ZM3.79071 15.4362L5.65931 16.1491L5.65963 16.1483L3.79071 15.4362ZM3.76599 16.5514L4.90318 18.1967L6.13606 17.3445L5.66434 15.9219L3.76599 16.5514ZM8.67183 19.0885L9.3842 17.2196L6.62025 16.1661L6.67214 19.1236L8.67183 19.0885ZM16.7082 22.1518L17.4228 20.2839L17.4206 20.283L16.7082 22.1518ZM17.6603 13.5716L18.3727 11.7028L17.5118 11.3746L16.703 11.8156L17.6603 13.5716ZM20.7995 14.7682L22.6685 15.4801L23.3802 13.6116L21.5119 12.8994L20.7995 14.7682ZM20.0812 16.6542L19.369 18.5231L21.2382 19.2354L21.9502 17.366L20.0812 16.6542ZM12.5248 13.7746V11.7746L11.8126 15.6435L12.5248 13.7746ZM16.8621 13.7746L16.8641 11.7746H16.8621V13.7746ZM20.3517 12.589L21.0659 10.7209L21.0638 10.7201L20.3517 12.589ZM21.0426 14.1306L22.9118 14.8422L22.9124 14.8404L21.0426 14.1306ZM20.9706 14.3197L20.2583 16.1885L22.1279 16.9011L22.8398 15.0313L20.9706 14.3197ZM18.0988 13.225L16.6243 11.8738L14.6346 14.045L17.3865 15.0939L18.0988 13.225ZM18.5366 12.0999L20.5366 12.1005V12.0999H18.5366ZM18.5366 11.8974L19.2487 10.0285L16.5366 8.99493V11.8974H18.5366ZM2.88039 12.0999H0.880389L0.880392 12.1023L2.88039 12.0999ZM2.88039 4.73576L0.880391 4.73335V4.73576H2.88039ZM4.07511 3.54104V1.54103L4.0727 1.54104L4.07511 3.54104ZM16.8621 3.54104L16.8645 1.54104H16.8621V3.54104ZM18.0566 4.73576H20.0566L20.0565 4.73375L18.0566 4.73576ZM18.0566 12.0999L20.0566 12.1019V12.0999H18.0566ZM16.8621 13.2946V15.2946L16.8645 15.2946L16.8621 13.2946ZM4.07511 13.2946L4.0727 15.2946H4.07511V13.2946ZM4.19631 16.3047L2.25285 16.7769L2.83508 19.1733L5.05963 18.1088L4.19631 16.3047ZM4.23951 15.607L2.37057 14.895L2.36914 14.8987L4.23951 15.607ZM4.93767 13.7746V11.7746H3.55944L3.06873 13.0626L4.93767 13.7746ZM11.1834 13.7746L11.9851 11.9423L11.6018 11.7746H11.1834V13.7746ZM11.194 13.7811L10.4325 15.6305L10.457 15.6406L10.4818 15.65L11.194 13.7811ZM19.9103 17.1027L21.7793 17.8147L22.4912 15.9459L20.6225 15.2338L19.9103 17.1027ZM18.4209 21.0123L16.5519 20.3003L16.551 20.3027L18.4209 21.0123ZM17.7926 21.6757L16.9826 19.847L16.9747 19.8505L16.9668 19.8541L17.7926 21.6757ZM16.8791 21.7033L17.5933 19.8352L17.5915 19.8345L16.8791 21.7033ZM8.61879 18.5545L6.65261 18.9207L6.85805 20.0237L7.9064 20.4233L8.61879 18.5545ZM17.302 24.2618C17.8196 24.2618 18.3314 24.1518 18.8069 23.9387L17.1709 20.2886C17.2062 20.2728 17.2515 20.2618 17.302 20.2618V24.2618ZM18.7997 23.942C19.2425 23.7456 19.6419 23.4633 19.9749 23.1116L17.07 20.3617C17.1006 20.3294 17.1373 20.3035 17.1781 20.2854L18.7997 23.942ZM19.9749 23.1116C20.3079 22.7598 20.5678 22.3455 20.7396 21.8926L16.9997 20.4738C17.0155 20.4322 17.0394 20.3941 17.07 20.3617L19.9749 23.1116ZM20.7386 21.8952L23.3602 15.0137L19.6222 13.5897L17.0007 20.4712L20.7386 21.8952ZM23.361 15.0116C23.7065 14.1014 23.677 13.0913 23.2788 12.2028L19.6287 13.8388C19.5936 13.7606 19.591 13.6718 19.6214 13.5918L23.361 15.0116ZM23.2788 12.2028C22.8806 11.3144 22.1463 10.6201 21.2369 10.2724L19.8082 14.0086C19.7283 13.978 19.6637 13.9169 19.6287 13.8388L23.2788 12.2028ZM21.2347 10.2715L19.2487 9.51483L17.8244 13.2527L19.8104 14.0094L21.2347 10.2715ZM20.5366 11.3838V4.73576H16.5366V11.3838H20.5366ZM20.5365 4.73375C20.5356 3.76008 20.1484 2.82655 19.4599 2.13801L16.6313 4.96624C16.5707 4.90563 16.5366 4.82346 16.5366 4.73776L20.5365 4.73375ZM19.4599 2.13801C18.7715 1.44947 17.838 1.06215 16.8644 1.06104L16.8598 5.06103C16.7741 5.06094 16.6919 5.02684 16.6313 4.96624L19.4599 2.13801ZM16.8621 1.06104H4.07511V5.06104H16.8621V1.06104ZM4.07282 1.06104C3.09918 1.06215 2.16573 1.44942 1.47725 2.1379L4.30568 4.96632C4.24513 5.02688 4.16303 5.06094 4.0774 5.06103L4.07282 1.06104ZM1.47725 2.1379C0.788779 2.82637 0.401506 3.75982 0.400392 4.73347L4.40039 4.73804C4.40029 4.82368 4.36623 4.90577 4.30568 4.96632L1.47725 2.1379ZM0.400391 4.73576V12.0999H4.40039V4.73576H0.400391ZM0.400392 12.1022C0.401506 13.0759 0.788779 14.0093 1.47725 14.6978L4.30568 11.8693C4.36623 11.9299 4.40029 12.012 4.40039 12.0976L0.400392 12.1022ZM1.47725 14.6978C2.16573 15.3862 3.09918 15.7735 4.07282 15.7746L4.0774 11.7746C4.16303 11.7747 4.24513 11.8088 4.30568 11.8693L1.47725 14.6978ZM4.07511 15.7746H4.42383V11.7746H4.07511V15.7746ZM2.55491 13.0625L1.92179 14.724L5.65963 16.1483L6.29275 14.4868L2.55491 13.0625ZM1.92212 14.7232C1.62126 15.5117 1.60201 16.3799 1.86764 17.1809L5.66434 15.9219C5.6889 15.996 5.68712 16.0763 5.65931 16.1491L1.92212 14.7232ZM2.6288 14.9062C1.29656 15.827 0.409511 17.3727 0.409511 19.129H4.40951C4.40951 18.7494 4.59862 18.4072 4.90318 18.1967L2.6288 14.9062ZM0.409511 19.129C0.409511 21.9607 2.71024 24.261 5.54151 24.261V20.261C4.91918 20.261 4.40951 19.7514 4.40951 19.129H0.409511ZM5.54151 24.261C8.37238 24.261 10.674 21.9611 10.674 19.129H6.67399C6.67399 19.751 6.16424 20.261 5.54151 20.261V24.261ZM10.674 19.129C10.674 19.08 10.6723 19.039 10.6707 19.0104C10.6693 18.9834 10.6676 18.9611 10.6672 18.9567C10.6668 18.9518 10.6671 18.9546 10.6671 18.9555C10.6673 18.9577 10.6677 18.9636 10.6682 18.9715C10.6692 18.9871 10.6709 19.0163 10.6715 19.0534L6.67214 19.1236C6.67291 19.1675 6.67489 19.2034 6.67631 19.2257C6.67703 19.237 6.6777 19.2463 6.67811 19.2518C6.67832 19.2546 6.67851 19.257 6.67861 19.2584C6.67866 19.2591 6.67872 19.2598 6.67874 19.2601C6.67877 19.2605 6.67878 19.2606 6.67879 19.2607C6.67883 19.2612 6.67854 19.2575 6.67818 19.2523C6.6778 19.2469 6.67722 19.2381 6.67662 19.2271C6.67544 19.2052 6.67399 19.1711 6.67399 19.129H10.674ZM7.95946 20.9573L15.9959 24.0207L17.4206 20.283L9.3842 17.2196L7.95946 20.9573ZM15.9936 24.0198C16.4109 24.1794 16.8538 24.2614 17.3005 24.2618L17.3034 20.2618C17.3443 20.2618 17.3847 20.2693 17.4228 20.2839L15.9936 24.0198ZM16.9479 15.4404L20.0871 16.6371L21.5119 12.8994L18.3727 11.7028L16.9479 15.4404ZM18.9305 14.0564L18.2122 15.9423L21.9502 17.366L22.6685 15.4801L18.9305 14.0564ZM20.7934 14.7853L13.237 11.9057L11.8126 15.6435L19.369 18.5231L20.7934 14.7853ZM12.5248 15.7746H16.8621V11.7746H12.5248V15.7746ZM16.8601 15.7746C17.4742 15.7752 18.0785 15.6215 18.6177 15.3276L16.703 11.8156C16.7524 11.7887 16.8078 11.7746 16.8641 11.7746L16.8601 15.7746ZM19.6374 14.4571C19.4385 14.3811 19.2779 14.2293 19.1908 14.035L22.8409 12.3989C22.4948 11.6266 21.8564 11.0232 21.0659 10.7209L19.6374 14.4571ZM19.1908 14.035C19.1037 13.8407 19.0973 13.6198 19.1728 13.4207L22.9124 14.8404C23.2128 14.0492 23.1871 13.1712 22.8409 12.3989L19.1908 14.035ZM19.1735 13.419L19.1015 13.6081L22.8398 15.0313L22.9118 14.8422L19.1735 13.419ZM21.683 12.4508L18.8111 11.3562L17.3865 15.0939L20.2583 16.1885L21.683 12.4508ZM19.5733 14.5763C20.1926 13.9005 20.5363 13.0172 20.5366 12.1005L16.5366 12.0993C16.5366 12.0158 16.5679 11.9354 16.6243 11.8738L19.5733 14.5763ZM20.5366 12.0999V11.8974H16.5366V12.0999H20.5366ZM17.8244 13.7663L19.6395 14.4579L21.0638 10.7201L19.2487 10.0285L17.8244 13.7663ZM4.88039 12.0999V4.73576H0.880391V12.0999H4.88039ZM4.88039 4.73816C4.88013 4.95102 4.79546 5.15508 4.64495 5.30559L1.81652 2.47717C1.21807 3.07562 0.88141 3.88701 0.880392 4.73335L4.88039 4.73816ZM4.64495 5.30559C4.49444 5.45611 4.29037 5.54078 4.07752 5.54103L4.0727 1.54104C3.22636 1.54205 2.41498 1.87871 1.81652 2.47717L4.64495 5.30559ZM4.07511 5.54104H16.8621V1.54104H4.07511V5.54104ZM16.8597 5.54103C16.6467 5.54078 16.4426 5.45606 16.292 5.30547L19.1207 2.47732C18.5223 1.87878 17.7109 1.54206 16.8645 1.54104L16.8597 5.54103ZM16.292 5.30547C16.1414 5.15487 16.0568 4.95071 16.0566 4.73776L20.0565 4.73375C20.0557 3.88736 19.7191 3.07587 19.1207 2.47732L16.292 5.30547ZM16.0566 4.73576V12.0999H20.0566V4.73576H16.0566ZM16.0566 12.0979C16.0568 11.885 16.1414 11.6808 16.292 11.5302L19.1207 14.3583C19.7191 13.7598 20.0557 12.9483 20.0565 12.1019L16.0566 12.0979ZM16.292 11.5302C16.4426 11.3796 16.6467 11.2949 16.8597 11.2946L16.8645 15.2946C17.7109 15.2936 18.5223 14.9569 19.1207 14.3583L16.292 11.5302ZM16.8621 11.2946H4.07511V15.2946H16.8621V11.2946ZM4.07752 11.2946C4.29037 11.2949 4.49444 11.3796 4.64495 11.5301L1.81652 14.3585C2.41498 14.957 3.22637 15.2936 4.0727 15.2946L4.07752 11.2946ZM4.64495 11.5301C4.79546 11.6806 4.88013 11.8847 4.88039 12.0975L0.880392 12.1023C0.88141 12.9487 1.21807 13.76 1.81652 14.3585L4.64495 11.5301ZM5.54175 19.781C5.184 19.781 4.88975 19.4868 4.88975 19.129H0.88975C0.88975 21.6959 2.97486 23.781 5.54175 23.781V19.781ZM4.88975 19.129C4.88975 18.7708 5.18447 18.4766 5.54175 18.4766V14.4766C2.97439 14.4766 0.88975 16.5626 0.88975 19.129H4.88975ZM5.54175 18.4766C5.89938 18.4766 6.19375 18.7707 6.19375 19.1288H10.1938C10.1938 16.5618 8.10876 14.4766 5.54175 14.4766V18.4766ZM6.19375 19.1288C6.19375 19.4869 5.89938 19.781 5.54175 19.781V23.781C8.10876 23.781 10.1938 21.6958 10.1938 19.1288H6.19375ZM5.54175 13.9966C4.74324 13.9966 3.99446 14.1841 3.33299 14.5006L5.05963 18.1088C5.21464 18.0346 5.37594 17.9966 5.54175 17.9966V13.9966ZM6.13977 15.8325C6.17871 15.9928 6.16829 16.1611 6.10988 16.3154L2.36914 14.8987C2.14191 15.4987 2.10137 16.1534 2.25285 16.7769L6.13977 15.8325ZM6.10845 16.3191L6.80661 14.4867L3.06873 13.0626L2.37057 14.895L6.10845 16.3191ZM4.93767 15.7746H11.1834V11.7746H4.93767V15.7746ZM10.3818 15.6069C10.252 15.5502 10.1535 15.4904 10.0938 15.4515C10.0641 15.4321 10.0409 15.4158 10.0282 15.4068C10.0217 15.4021 10.0166 15.3985 10.0141 15.3967C10.0127 15.3956 10.0096 15.3934 10.0122 15.3953C10.0135 15.3962 10.0272 15.4062 10.0445 15.4183C10.0628 15.4311 10.0906 15.4501 10.1253 15.472C10.1955 15.5162 10.2995 15.5757 10.4325 15.6305L11.9555 11.9318C12.0865 11.9857 12.1885 12.0442 12.257 12.0873C12.2908 12.1086 12.3178 12.127 12.3352 12.1392C12.3441 12.1454 12.3513 12.1506 12.3561 12.154C12.3608 12.1574 12.3644 12.16 12.365 12.1604C12.3652 12.1606 12.3654 12.1607 12.3654 12.1607C12.3654 12.1607 12.3654 12.1607 12.3653 12.1607C12.3653 12.1607 12.3653 12.1606 12.3653 12.1606C12.3652 12.1606 12.3651 12.1605 12.365 12.1604C12.3645 12.1601 12.3633 12.1592 12.3619 12.1582C12.359 12.1561 12.3535 12.1521 12.3466 12.1472C12.333 12.1375 12.309 12.1207 12.2785 12.1008C12.2171 12.0607 12.1168 12 11.9851 11.9423L10.3818 15.6069ZM10.4818 15.65L19.1981 18.9716L20.6225 15.2338L11.9062 11.9122L10.4818 15.65ZM18.0413 16.3907L16.5519 20.3003L20.2898 21.7243L21.7793 17.8147L18.0413 16.3907ZM16.551 20.3027C16.5892 20.202 16.647 20.1098 16.7211 20.0316L19.6252 22.7823C19.915 22.4763 20.1412 22.1159 20.2907 21.7219L16.551 20.3027ZM16.7211 20.0316C16.7952 19.9534 16.8841 19.8906 16.9826 19.847L18.6025 23.5043C18.9878 23.3337 19.3354 23.0883 19.6252 22.7823L16.7211 20.0316ZM16.9668 19.8541C17.0648 19.8097 17.1706 19.7851 17.2782 19.7819L17.399 23.78C17.8201 23.7673 18.2345 23.6712 18.6183 23.4973L16.9668 19.8541ZM17.2782 19.7819C17.3857 19.7786 17.4928 19.7967 17.5933 19.8352L16.1649 23.5714C16.5584 23.7219 16.9779 23.7928 17.399 23.78L17.2782 19.7819ZM17.5915 19.8345L9.33118 16.6857L7.9064 20.4233L16.1667 23.5721L17.5915 19.8345ZM10.585 18.1883C10.1418 15.8089 8.05711 13.9966 5.54175 13.9966V17.9966C6.08783 17.9966 6.55435 18.3932 6.65261 18.9207L10.585 18.1883Z" fill="#71839B" mask="url(#path-3-inside-2_669_7850)"/>
<mask id="path-5-inside-3_669_7850" fill="white">
<path d="M7.37919 14.8435L6.55263 14.5284C6.42903 14.4809 6.29007 14.5433 6.24303 14.6671C6.19599 14.791 6.25791 14.9297 6.38175 14.977L7.20831 15.2921C7.26783 15.3148 7.3339 15.3129 7.39201 15.2868C7.45012 15.2607 7.49549 15.2127 7.51815 15.1531C7.54081 15.0936 7.5389 15.0275 7.51284 14.9694C7.48678 14.9113 7.43871 14.8662 7.37919 14.8435ZM9.61575 15.696L8.78943 15.3809C8.75996 15.3697 8.72857 15.3644 8.69705 15.3653C8.66553 15.3662 8.6345 15.3733 8.60573 15.3862C8.57696 15.3991 8.55101 15.4176 8.52937 15.4405C8.50773 15.4634 8.49081 15.4904 8.47959 15.5199C8.46837 15.5493 8.46307 15.5807 8.46398 15.6122C8.46489 15.6438 8.472 15.6748 8.4849 15.7036C8.4978 15.7323 8.51625 15.7583 8.53918 15.7799C8.56211 15.8016 8.58908 15.8185 8.61855 15.8297L9.44511 16.1446C9.50463 16.1672 9.5707 16.1653 9.62881 16.1393C9.68692 16.1132 9.73229 16.0651 9.75495 16.0056C9.77761 15.9461 9.7757 15.88 9.74964 15.8219C9.72358 15.7638 9.67551 15.7184 9.61599 15.6958L9.61575 15.696ZM11.8526 16.5485L11.026 16.2336C10.9965 16.2224 10.9652 16.2171 10.9337 16.218C10.9022 16.2189 10.8711 16.226 10.8424 16.2389C10.8136 16.2518 10.7877 16.2702 10.766 16.2931C10.7444 16.3161 10.7275 16.343 10.7163 16.3725C10.7051 16.4019 10.6997 16.4333 10.7006 16.4648C10.7016 16.4963 10.7087 16.5273 10.7215 16.5561C10.7344 16.5848 10.7529 16.6108 10.7758 16.6324C10.7987 16.6541 10.8257 16.671 10.8551 16.6822L11.6817 16.9971C11.7412 17.0197 11.8073 17.0178 11.8654 16.9918C11.9235 16.9657 11.9689 16.9176 11.9915 16.8581C12.0142 16.7986 12.0123 16.7325 11.9862 16.6744C11.9601 16.6163 11.9121 16.5712 11.8526 16.5485ZM4.54383 9.50522C4.48018 9.50522 4.41913 9.53051 4.37413 9.57552C4.32912 9.62053 4.30383 9.68157 4.30383 9.74522C4.30383 9.80887 4.32912 9.86992 4.37413 9.91493C4.41913 9.95994 4.48018 9.98522 4.54383 9.98522H6.24039C6.30404 9.98522 6.36509 9.95994 6.4101 9.91493C6.45511 9.86992 6.48039 9.80887 6.48039 9.74522C6.48039 9.68157 6.45511 9.62053 6.4101 9.57552C6.36509 9.53051 6.30404 9.50522 6.24039 9.50522H4.54383ZM15.988 9.50522H14.2912C14.2275 9.50522 14.1665 9.53051 14.1215 9.57552C14.0765 9.62053 14.0512 9.68157 14.0512 9.74522C14.0512 9.80887 14.0765 9.86992 14.1215 9.91493C14.1665 9.95994 14.2275 9.98522 14.2912 9.98522H15.988C16.0516 9.98522 16.1127 9.95994 16.1577 9.91493C16.2027 9.86992 16.228 9.80887 16.228 9.74522C16.228 9.68157 16.2027 9.62053 16.1577 9.57552C16.1127 9.53051 16.0516 9.50522 15.988 9.50522ZM11.0423 9.98522H12.7389C12.8025 9.98522 12.8636 9.95994 12.9086 9.91493C12.9536 9.86992 12.9789 9.80887 12.9789 9.74522C12.9789 9.68157 12.9536 9.62053 12.9086 9.57552C12.8636 9.53051 12.8025 9.50522 12.7389 9.50522H11.0421C10.9784 9.50522 10.9174 9.53051 10.8724 9.57552C10.8274 9.62053 10.8021 9.68157 10.8021 9.74522C10.8021 9.80887 10.8274 9.86992 10.8724 9.91493C10.9174 9.95994 10.9787 9.98522 11.0423 9.98522ZM7.79319 9.98522H9.48975C9.5534 9.98522 9.61445 9.95994 9.65946 9.91493C9.70447 9.86992 9.72975 9.80887 9.72975 9.74522C9.72975 9.68157 9.70447 9.62053 9.65946 9.57552C9.61445 9.53051 9.5534 9.50522 9.48975 9.50522H7.79295C7.7293 9.50522 7.66825 9.53051 7.62325 9.57552C7.57824 9.62053 7.55295 9.68157 7.55295 9.74522C7.55295 9.80887 7.57824 9.86992 7.62325 9.91493C7.66825 9.95994 7.72954 9.98522 7.79319 9.98522ZM13.054 11.3453H11.0423C10.9787 11.3453 10.9176 11.3706 10.8726 11.4156C10.8276 11.4606 10.8023 11.5217 10.8023 11.5853C10.8023 11.649 10.8276 11.71 10.8726 11.755C10.9176 11.8 10.9787 11.8253 11.0423 11.8253H13.0538C13.1174 11.8253 13.1784 11.8 13.2235 11.755C13.2685 11.71 13.2938 11.649 13.2938 11.5853C13.2938 11.5217 13.2685 11.4606 13.2235 11.4156C13.1784 11.3706 13.1176 11.3453 13.054 11.3453ZM15.988 5.01074H11.0423C10.9787 5.01074 10.9176 5.03603 10.8726 5.08104C10.8276 5.12605 10.8023 5.18709 10.8023 5.25074C10.8023 5.31439 10.8276 5.37544 10.8726 5.42045C10.9176 5.46546 10.9787 5.49074 11.0423 5.49074H15.988C16.0516 5.49074 16.1127 5.46546 16.1577 5.42045C16.2027 5.37544 16.228 5.31439 16.228 5.25074C16.228 5.18709 16.2027 5.12605 16.1577 5.08104C16.1127 5.03603 16.0516 5.01074 15.988 5.01074ZM15.988 6.85082H11.0423C10.9787 6.85082 10.9176 6.87611 10.8726 6.92112C10.8276 6.96613 10.8023 7.02717 10.8023 7.09082C10.8023 7.15447 10.8276 7.21552 10.8726 7.26053C10.9176 7.30554 10.9787 7.33082 11.0423 7.33082H15.988C16.0516 7.33082 16.1127 7.30554 16.1577 7.26053C16.2027 7.21552 16.228 7.15447 16.228 7.09082C16.228 7.02717 16.2027 6.96613 16.1577 6.92112C16.1127 6.87611 16.0516 6.85082 15.988 6.85082ZM9.69303 11.3453H4.53399C4.47034 11.3453 4.40929 11.3706 4.36429 11.4156C4.31928 11.4606 4.29399 11.5217 4.29399 11.5853C4.29399 11.649 4.31928 11.71 4.36429 11.755C4.40929 11.8 4.47034 11.8253 4.53399 11.8253H9.69303C9.75668 11.8253 9.81773 11.8 9.86274 11.755C9.90775 11.71 9.93303 11.649 9.93303 11.5853C9.93303 11.5217 9.90775 11.4606 9.86274 11.4156C9.81773 11.3706 9.75668 11.3453 9.69303 11.3453ZM4.92711 8.25026H6.89991C7.06779 8.25014 7.22875 8.18339 7.34745 8.06469C7.46616 7.94598 7.5329 7.78502 7.53303 7.61714V5.64386C7.5329 5.47599 7.46616 5.31502 7.34745 5.19632C7.22875 5.07761 7.06779 5.01087 6.89991 5.01074H4.92711C4.75926 5.01093 4.59833 5.0777 4.47964 5.19639C4.36095 5.31508 4.29418 5.47601 4.29399 5.64386V7.61714C4.29418 7.785 4.36095 7.94592 4.47964 8.06462C4.59833 8.18331 4.75926 8.25007 4.92711 8.25026ZM4.77399 5.64386C4.77399 5.55938 4.84263 5.49074 4.92711 5.49074H6.89991C6.98439 5.49074 7.05303 5.55938 7.05303 5.64386V7.61714C7.05303 7.65775 7.0369 7.6967 7.00818 7.72541C6.97947 7.75413 6.94052 7.77026 6.89991 7.77026H4.92711C4.88652 7.7702 4.84761 7.75405 4.81891 7.72534C4.79021 7.69664 4.77405 7.65773 4.77399 7.61714V5.64386ZM17.5732 17.5179C17.5396 17.4418 17.4912 17.3731 17.4309 17.3159C17.3706 17.2586 17.2995 17.2139 17.2218 17.1843L15.3803 16.4767C15.3027 16.4467 15.2199 16.4324 15.1368 16.4346C15.0536 16.4367 14.9717 16.4554 14.8958 16.4895C14.8197 16.5231 14.751 16.5715 14.6937 16.6318C14.6364 16.6922 14.5917 16.7633 14.5622 16.8411L13.8544 18.6833C13.7944 18.8401 13.799 19.0142 13.8672 19.1676C13.9355 19.3209 14.0618 19.4409 14.2185 19.5012L16.0598 20.2085C16.1373 20.2385 16.22 20.2528 16.3032 20.2507C16.3863 20.2485 16.4682 20.2299 16.5441 20.196C16.6202 20.1625 16.6889 20.1141 16.7462 20.0538C16.8035 19.9935 16.8483 19.9224 16.8779 19.8447L17.5857 18.0024C17.6158 17.9248 17.6301 17.8421 17.628 17.7589C17.6259 17.6757 17.6072 17.5938 17.5732 17.5179ZM17.1376 17.8303L16.4298 19.6726C16.4227 19.6914 16.4119 19.7086 16.3981 19.7233C16.3843 19.7379 16.3677 19.7496 16.3493 19.7578C16.3309 19.766 16.3111 19.7704 16.2909 19.7708C16.2708 19.7713 16.2508 19.7678 16.2321 19.7604L14.3906 19.0531C14.3717 19.046 14.3545 19.0352 14.3399 19.0214C14.3253 19.0075 14.3136 18.991 14.3054 18.9726C14.2972 18.9542 14.2927 18.9344 14.2922 18.9143C14.2917 18.8942 14.2952 18.8741 14.3025 18.8554L15.0102 17.0131C15.0173 16.9943 15.0281 16.977 15.0419 16.9624C15.0557 16.9477 15.0723 16.936 15.0907 16.9278C15.1091 16.9196 15.1289 16.9151 15.1491 16.9147C15.1692 16.9142 15.1892 16.9177 15.208 16.9251L17.0495 17.6326C17.0684 17.6397 17.0856 17.6505 17.1003 17.6643C17.1149 17.6781 17.1267 17.6947 17.1349 17.7131C17.1431 17.7315 17.1475 17.7513 17.148 17.7714C17.1485 17.7916 17.1449 17.8116 17.1376 17.8303Z"/>
</mask>
<path d="M7.37919 14.8435L6.55263 14.5284C6.42903 14.4809 6.29007 14.5433 6.24303 14.6671C6.19599 14.791 6.25791 14.9297 6.38175 14.977L7.20831 15.2921C7.26783 15.3148 7.3339 15.3129 7.39201 15.2868C7.45012 15.2607 7.49549 15.2127 7.51815 15.1531C7.54081 15.0936 7.5389 15.0275 7.51284 14.9694C7.48678 14.9113 7.43871 14.8662 7.37919 14.8435ZM9.61575 15.696L8.78943 15.3809C8.75996 15.3697 8.72857 15.3644 8.69705 15.3653C8.66553 15.3662 8.6345 15.3733 8.60573 15.3862C8.57696 15.3991 8.55101 15.4176 8.52937 15.4405C8.50773 15.4634 8.49081 15.4904 8.47959 15.5199C8.46837 15.5493 8.46307 15.5807 8.46398 15.6122C8.46489 15.6438 8.472 15.6748 8.4849 15.7036C8.4978 15.7323 8.51625 15.7583 8.53918 15.7799C8.56211 15.8016 8.58908 15.8185 8.61855 15.8297L9.44511 16.1446C9.50463 16.1672 9.5707 16.1653 9.62881 16.1393C9.68692 16.1132 9.73229 16.0651 9.75495 16.0056C9.77761 15.9461 9.7757 15.88 9.74964 15.8219C9.72358 15.7638 9.67551 15.7184 9.61599 15.6958L9.61575 15.696ZM11.8526 16.5485L11.026 16.2336C10.9965 16.2224 10.9652 16.2171 10.9337 16.218C10.9022 16.2189 10.8711 16.226 10.8424 16.2389C10.8136 16.2518 10.7877 16.2702 10.766 16.2931C10.7444 16.3161 10.7275 16.343 10.7163 16.3725C10.7051 16.4019 10.6997 16.4333 10.7006 16.4648C10.7016 16.4963 10.7087 16.5273 10.7215 16.5561C10.7344 16.5848 10.7529 16.6108 10.7758 16.6324C10.7987 16.6541 10.8257 16.671 10.8551 16.6822L11.6817 16.9971C11.7412 17.0197 11.8073 17.0178 11.8654 16.9918C11.9235 16.9657 11.9689 16.9176 11.9915 16.8581C12.0142 16.7986 12.0123 16.7325 11.9862 16.6744C11.9601 16.6163 11.9121 16.5712 11.8526 16.5485ZM4.54383 9.50522C4.48018 9.50522 4.41913 9.53051 4.37413 9.57552C4.32912 9.62053 4.30383 9.68157 4.30383 9.74522C4.30383 9.80887 4.32912 9.86992 4.37413 9.91493C4.41913 9.95994 4.48018 9.98522 4.54383 9.98522H6.24039C6.30404 9.98522 6.36509 9.95994 6.4101 9.91493C6.45511 9.86992 6.48039 9.80887 6.48039 9.74522C6.48039 9.68157 6.45511 9.62053 6.4101 9.57552C6.36509 9.53051 6.30404 9.50522 6.24039 9.50522H4.54383ZM15.988 9.50522H14.2912C14.2275 9.50522 14.1665 9.53051 14.1215 9.57552C14.0765 9.62053 14.0512 9.68157 14.0512 9.74522C14.0512 9.80887 14.0765 9.86992 14.1215 9.91493C14.1665 9.95994 14.2275 9.98522 14.2912 9.98522H15.988C16.0516 9.98522 16.1127 9.95994 16.1577 9.91493C16.2027 9.86992 16.228 9.80887 16.228 9.74522C16.228 9.68157 16.2027 9.62053 16.1577 9.57552C16.1127 9.53051 16.0516 9.50522 15.988 9.50522ZM11.0423 9.98522H12.7389C12.8025 9.98522 12.8636 9.95994 12.9086 9.91493C12.9536 9.86992 12.9789 9.80887 12.9789 9.74522C12.9789 9.68157 12.9536 9.62053 12.9086 9.57552C12.8636 9.53051 12.8025 9.50522 12.7389 9.50522H11.0421C10.9784 9.50522 10.9174 9.53051 10.8724 9.57552C10.8274 9.62053 10.8021 9.68157 10.8021 9.74522C10.8021 9.80887 10.8274 9.86992 10.8724 9.91493C10.9174 9.95994 10.9787 9.98522 11.0423 9.98522ZM7.79319 9.98522H9.48975C9.5534 9.98522 9.61445 9.95994 9.65946 9.91493C9.70447 9.86992 9.72975 9.80887 9.72975 9.74522C9.72975 9.68157 9.70447 9.62053 9.65946 9.57552C9.61445 9.53051 9.5534 9.50522 9.48975 9.50522H7.79295C7.7293 9.50522 7.66825 9.53051 7.62325 9.57552C7.57824 9.62053 7.55295 9.68157 7.55295 9.74522C7.55295 9.80887 7.57824 9.86992 7.62325 9.91493C7.66825 9.95994 7.72954 9.98522 7.79319 9.98522ZM13.054 11.3453H11.0423C10.9787 11.3453 10.9176 11.3706 10.8726 11.4156C10.8276 11.4606 10.8023 11.5217 10.8023 11.5853C10.8023 11.649 10.8276 11.71 10.8726 11.755C10.9176 11.8 10.9787 11.8253 11.0423 11.8253H13.0538C13.1174 11.8253 13.1784 11.8 13.2235 11.755C13.2685 11.71 13.2938 11.649 13.2938 11.5853C13.2938 11.5217 13.2685 11.4606 13.2235 11.4156C13.1784 11.3706 13.1176 11.3453 13.054 11.3453ZM15.988 5.01074H11.0423C10.9787 5.01074 10.9176 5.03603 10.8726 5.08104C10.8276 5.12605 10.8023 5.18709 10.8023 5.25074C10.8023 5.31439 10.8276 5.37544 10.8726 5.42045C10.9176 5.46546 10.9787 5.49074 11.0423 5.49074H15.988C16.0516 5.49074 16.1127 5.46546 16.1577 5.42045C16.2027 5.37544 16.228 5.31439 16.228 5.25074C16.228 5.18709 16.2027 5.12605 16.1577 5.08104C16.1127 5.03603 16.0516 5.01074 15.988 5.01074ZM15.988 6.85082H11.0423C10.9787 6.85082 10.9176 6.87611 10.8726 6.92112C10.8276 6.96613 10.8023 7.02717 10.8023 7.09082C10.8023 7.15447 10.8276 7.21552 10.8726 7.26053C10.9176 7.30554 10.9787 7.33082 11.0423 7.33082H15.988C16.0516 7.33082 16.1127 7.30554 16.1577 7.26053C16.2027 7.21552 16.228 7.15447 16.228 7.09082C16.228 7.02717 16.2027 6.96613 16.1577 6.92112C16.1127 6.87611 16.0516 6.85082 15.988 6.85082ZM9.69303 11.3453H4.53399C4.47034 11.3453 4.40929 11.3706 4.36429 11.4156C4.31928 11.4606 4.29399 11.5217 4.29399 11.5853C4.29399 11.649 4.31928 11.71 4.36429 11.755C4.40929 11.8 4.47034 11.8253 4.53399 11.8253H9.69303C9.75668 11.8253 9.81773 11.8 9.86274 11.755C9.90775 11.71 9.93303 11.649 9.93303 11.5853C9.93303 11.5217 9.90775 11.4606 9.86274 11.4156C9.81773 11.3706 9.75668 11.3453 9.69303 11.3453ZM4.92711 8.25026H6.89991C7.06779 8.25014 7.22875 8.18339 7.34745 8.06469C7.46616 7.94598 7.5329 7.78502 7.53303 7.61714V5.64386C7.5329 5.47599 7.46616 5.31502 7.34745 5.19632C7.22875 5.07761 7.06779 5.01087 6.89991 5.01074H4.92711C4.75926 5.01093 4.59833 5.0777 4.47964 5.19639C4.36095 5.31508 4.29418 5.47601 4.29399 5.64386V7.61714C4.29418 7.785 4.36095 7.94592 4.47964 8.06462C4.59833 8.18331 4.75926 8.25007 4.92711 8.25026ZM4.77399 5.64386C4.77399 5.55938 4.84263 5.49074 4.92711 5.49074H6.89991C6.98439 5.49074 7.05303 5.55938 7.05303 5.64386V7.61714C7.05303 7.65775 7.0369 7.6967 7.00818 7.72541C6.97947 7.75413 6.94052 7.77026 6.89991 7.77026H4.92711C4.88652 7.7702 4.84761 7.75405 4.81891 7.72534C4.79021 7.69664 4.77405 7.65773 4.77399 7.61714V5.64386ZM17.5732 17.5179C17.5396 17.4418 17.4912 17.3731 17.4309 17.3159C17.3706 17.2586 17.2995 17.2139 17.2218 17.1843L15.3803 16.4767C15.3027 16.4467 15.2199 16.4324 15.1368 16.4346C15.0536 16.4367 14.9717 16.4554 14.8958 16.4895C14.8197 16.5231 14.751 16.5715 14.6937 16.6318C14.6364 16.6922 14.5917 16.7633 14.5622 16.8411L13.8544 18.6833C13.7944 18.8401 13.799 19.0142 13.8672 19.1676C13.9355 19.3209 14.0618 19.4409 14.2185 19.5012L16.0598 20.2085C16.1373 20.2385 16.22 20.2528 16.3032 20.2507C16.3863 20.2485 16.4682 20.2299 16.5441 20.196C16.6202 20.1625 16.6889 20.1141 16.7462 20.0538C16.8035 19.9935 16.8483 19.9224 16.8779 19.8447L17.5857 18.0024C17.6158 17.9248 17.6301 17.8421 17.628 17.7589C17.6259 17.6757 17.6072 17.5938 17.5732 17.5179ZM17.1376 17.8303L16.4298 19.6726C16.4227 19.6914 16.4119 19.7086 16.3981 19.7233C16.3843 19.7379 16.3677 19.7496 16.3493 19.7578C16.3309 19.766 16.3111 19.7704 16.2909 19.7708C16.2708 19.7713 16.2508 19.7678 16.2321 19.7604L14.3906 19.0531C14.3717 19.046 14.3545 19.0352 14.3399 19.0214C14.3253 19.0075 14.3136 18.991 14.3054 18.9726C14.2972 18.9542 14.2927 18.9344 14.2922 18.9143C14.2917 18.8942 14.2952 18.8741 14.3025 18.8554L15.0102 17.0131C15.0173 16.9943 15.0281 16.977 15.0419 16.9624C15.0557 16.9477 15.0723 16.936 15.0907 16.9278C15.1091 16.9196 15.1289 16.9151 15.1491 16.9147C15.1692 16.9142 15.1892 16.9177 15.208 16.9251L17.0495 17.6326C17.0684 17.6397 17.0856 17.6505 17.1003 17.6643C17.1149 17.6781 17.1267 17.6947 17.1349 17.7131C17.1431 17.7315 17.1475 17.7513 17.148 17.7714C17.1485 17.7916 17.1449 17.8116 17.1376 17.8303Z" fill="#71839B" stroke="#71839B" stroke-width="5" mask="url(#path-5-inside-3_669_7850)"/>
</svg>
