<svg width="24" height="25" viewBox="0 0 24 25" fill="none" xmlns="http://www.w3.org/2000/svg">
<g clip-path="url(#clip0_669_7884)">
<path fill-rule="evenodd" clip-rule="evenodd" d="M2.84225 16.9909H2.74503C2.02321 16.9909 1.33095 16.7042 0.820541 16.1938C0.310135 15.6834 0.0233917 14.9911 0.0233917 14.2693V12.1546C0.0233917 11.4328 0.310135 10.7405 0.820541 10.2301C1.33095 9.7197 2.02321 9.43295 2.74503 9.43295H3.69591V9.40956C3.69591 4.82332 7.4138 1.10547 12 1.10547C16.5862 1.10547 20.3041 4.82332 20.3041 9.40956V9.43295H21.255C21.9768 9.43295 22.6691 9.7197 23.1795 10.2301C23.6899 10.7405 23.9766 11.4328 23.9766 12.1546V14.2693C23.9766 14.9911 23.6899 15.6834 23.1795 16.1938C22.6691 16.7042 21.9768 16.9909 21.255 16.9909H19.9365C19.8107 16.9909 19.69 16.9409 19.601 16.852C19.512 16.763 19.462 16.6423 19.462 16.5164V9.40956C19.462 5.28844 16.1212 1.94757 12 1.94757C7.87888 1.94757 4.53801 5.28844 4.53801 9.40956V16.5164C4.53802 16.5787 4.52575 16.6404 4.50191 16.698C4.47807 16.7556 4.44312 16.8079 4.39906 16.852C4.355 16.896 4.30269 16.931 4.24512 16.9548C4.18755 16.9787 4.12585 16.9909 4.06353 16.9909H3.6844C3.70596 19.6548 5.87181 21.8072 8.54035 21.8072H9.35504C9.45121 21.3633 9.69646 20.9657 10.05 20.6806C10.4035 20.3955 10.844 20.24 11.2982 20.24H12.7018C13.7999 20.24 14.6901 21.1302 14.6901 22.2283C14.6901 23.3264 13.7999 24.2166 12.7018 24.2166H11.2982C10.3447 24.2166 9.54784 23.5453 9.35462 22.6493H8.54035C5.4065 22.6493 2.86353 20.1195 2.84225 16.9909ZM13.848 22.2283C13.848 21.5952 13.3348 21.0821 12.7018 21.0821H11.2982C11.1477 21.0821 10.9987 21.1117 10.8596 21.1693C10.7205 21.2269 10.5942 21.3113 10.4877 21.4178C10.3813 21.5242 10.2969 21.6506 10.2393 21.7896C10.1817 21.9287 10.152 22.0778 10.152 22.2283C10.152 22.8613 10.6652 23.3745 11.2982 23.3745H12.7018C13.3348 23.3745 13.848 22.8613 13.848 22.2283ZM3.69591 10.2751H2.74503C2.24655 10.2751 1.76849 10.4731 1.41601 10.8256C1.06353 11.1781 0.865509 11.6561 0.865497 12.1546V14.2693C0.865509 14.7678 1.06353 15.2458 1.41601 15.5983C1.76849 15.9508 2.24655 16.1488 2.74503 16.1488H3.69591V10.2751ZM20.3041 10.2751V16.1488H21.255C21.7535 16.1488 22.2315 15.9508 22.584 15.5983C22.9365 15.2458 23.1345 14.7678 23.1345 14.2693V12.1546C23.1345 11.9078 23.0859 11.6633 22.9915 11.4353C22.897 11.2073 22.7586 11.0001 22.584 10.8255C22.4095 10.651 22.2023 10.5125 21.9743 10.4181C21.7462 10.3236 21.5018 10.275 21.255 10.2751H20.3041Z" fill="#71839B"/>
</g>
<defs>
<clipPath id="clip0_669_7884">
<rect width="24" height="24" fill="white" transform="translate(0 0.661133)"/>
</clipPath>
</defs>
</svg>
