<svg width="24" height="24" viewBox="0 0 24 24" fill="none" xmlns="http://www.w3.org/2000/svg">
<rect x="-0.5" y="0.5" width="23" height="23" rx="11.5" transform="matrix(-1 0 0 1 23 0)" fill="#9D64CB"/>
<rect x="-0.5" y="0.5" width="23" height="23" rx="11.5" transform="matrix(-1 0 0 1 23 0)" stroke="#C6A2E0"/>
<path d="M12.55 4.67602C13.406 4.78629 14.0763 5.09677 14.6596 5.65101C15.4285 6.38805 15.8058 7.3224 15.7622 8.38444C15.7216 9.34491 15.3473 10.1777 14.6596 10.8306C13.9864 11.469 13.1536 11.7969 12.2018 11.7969C11.253 11.7969 10.4405 11.4806 9.75567 10.8393C9.06216 10.1922 8.68203 9.35362 8.64141 8.38444C8.59788 7.32821 8.9722 6.39965 9.73826 5.65681C10.2257 5.18383 10.8525 4.85883 11.5112 4.73116C11.7521 4.68473 12.3614 4.65281 12.55 4.67602ZM11.6244 5.68873C10.69 5.91216 9.93848 6.63469 9.67152 7.57485C9.58447 7.88244 9.57576 8.54403 9.65701 8.83711C9.79049 9.33621 10.0023 9.71053 10.3447 10.0558C10.7248 10.4418 11.1833 10.6942 11.6911 10.8016C11.9523 10.8538 12.4514 10.8538 12.7096 10.8016C13.6962 10.5956 14.4768 9.84691 14.7437 8.85162C14.825 8.54403 14.8192 7.88824 14.7321 7.58066C14.4391 6.55344 13.6063 5.8106 12.5645 5.6452C12.3411 5.61038 11.8623 5.6336 11.6244 5.68873Z" fill="white"/>
<path d="M13.1167 12.7702C15.3714 13.0749 17.1791 14.4213 17.7885 16.2465C17.9481 16.7224 18.0438 17.413 17.98 17.6481C17.9394 17.796 17.7624 17.9643 17.6144 17.9934C17.3822 18.0369 17.0979 17.8599 17.066 17.6539C17.0602 17.5987 17.0398 17.4188 17.0224 17.2505C16.9818 16.8443 16.9006 16.5425 16.7323 16.1885C16.2767 15.2309 15.4439 14.4968 14.3035 14.0499C13.6477 13.7917 12.9861 13.6727 12.2027 13.6727C11.6252 13.6727 11.2538 13.7162 10.7576 13.8439C10.6038 13.8816 10.421 13.9135 10.3514 13.9135C10.1279 13.9135 9.96834 13.7858 9.9074 13.5624C9.87548 13.4463 9.87838 13.4086 9.92191 13.2926C10.009 13.0604 10.1337 12.9966 10.7228 12.8689C11.3815 12.7238 12.458 12.6803 13.1167 12.7702Z" fill="white"/>
<path d="M7.35547 12.8599C7.69207 12.9498 7.7501 13.0021 9.0936 14.334C10.6431 15.8748 10.5387 15.7239 10.6547 16.5857C10.7215 17.079 10.7273 17.1719 10.6983 17.3169C10.6286 17.6477 10.3646 17.9118 10.0367 17.9785C9.80162 18.0279 8.77731 17.8799 8.52777 17.7609C8.38558 17.6942 8.17085 17.491 7.0653 16.3855C5.64635 14.9636 5.62314 14.9346 5.5535 14.5197C5.48095 14.0989 5.63184 13.7217 6.03518 13.3213C6.48205 12.8773 6.89119 12.7351 7.35547 12.8599ZM6.93472 13.8175C6.80994 13.8784 6.53138 14.1773 6.50526 14.2788C6.48205 14.3688 6.5749 14.5487 6.71709 14.6822C6.79834 14.7605 6.80994 14.7634 6.8999 14.7257C7.02467 14.6764 7.39319 14.3078 7.44252 14.1831C7.48024 14.0902 7.48024 14.0844 7.38449 13.9828C7.27422 13.8697 7.13204 13.771 7.074 13.771C7.05079 13.771 6.98985 13.7913 6.93472 13.8175ZM8.04028 14.9985C7.96773 15.0913 7.82555 15.2335 7.72689 15.3147C7.62823 15.396 7.54408 15.4714 7.53828 15.4801C7.53538 15.4888 7.85166 15.8167 8.23759 16.2027L8.94561 16.9107L9.32864 16.9687C9.54047 17.0007 9.72037 17.021 9.72618 17.0123C9.73488 17.0065 9.71747 16.8323 9.69136 16.6263L9.64203 16.252L8.9282 15.5324C8.53647 15.1377 8.20567 14.8185 8.19697 14.8214C8.18536 14.8273 8.11572 14.9056 8.04028 14.9985Z" fill="white"/>
</svg>
