<svg width="24" height="24" viewBox="0 0 24 24" fill="none" xmlns="http://www.w3.org/2000/svg">
<path d="M10.8975 1.48594C9.52879 1.65 8.35222 2.00156 7.19441 2.59219C4.63972 3.89531 2.66629 6.26719 1.86473 9C1.38191 10.6594 1.31629 12.6422 1.6866 14.2922C2.14129 16.3125 3.06941 17.9859 4.54129 19.4578C5.49285 20.4094 6.21004 20.9203 7.38191 21.4969C8.88191 22.2281 10.2647 22.5422 11.985 22.5469C13.3303 22.5469 14.5257 22.3406 15.6788 21.9141C16.6444 21.5531 18.0928 20.7422 18.0132 20.6109C17.9944 20.5781 17.7928 20.2828 17.5632 19.9547L17.1553 19.3641L16.8366 19.5656C15.2335 20.6062 13.1194 21.1312 11.2725 20.9578C8.04754 20.6484 5.28191 18.7406 3.91316 15.8812C2.2866 12.4734 2.9241 8.50781 5.53035 5.79375C7.56941 3.67031 10.5038 2.67188 13.3585 3.12187C16.6632 3.64219 19.4053 5.94844 20.5022 9.12656C20.8303 10.0734 21.0553 11.6203 20.9804 12.375C20.9194 12.9469 20.61 13.4062 20.1272 13.6453C19.7991 13.8047 19.2038 13.8047 18.8663 13.6406C18.571 13.4953 18.3178 13.2422 18.1585 12.9281C18.046 12.7078 18.0272 12.6047 17.9944 11.9625C17.9522 11.1562 17.8632 10.6594 17.6616 10.0781C17.3428 9.17812 16.9257 8.52187 16.2225 7.82812C15.5147 7.12031 14.7882 6.675 13.8882 6.37969C13.2225 6.16406 12.885 6.11719 12.046 6.11719C11.2069 6.11719 10.8694 6.16406 10.1991 6.37969C8.5491 6.91875 7.20847 8.16094 6.53347 9.78281C6.16785 10.6641 6.00379 11.8875 6.13504 12.8016C6.27566 13.8 6.69285 14.8312 7.25535 15.5859C8.15066 16.7859 9.51472 17.6344 10.996 17.9156C11.4882 18.0094 12.7303 17.9906 13.2178 17.8875C14.9428 17.5172 16.4475 16.4156 17.2397 14.9484C17.3335 14.7703 17.4319 14.625 17.4507 14.625C17.4741 14.625 17.5678 14.6859 17.6616 14.7609C18.2757 15.2531 19.3022 15.4828 20.1085 15.3094C20.3007 15.2719 20.6522 15.1406 20.8866 15.0234C21.5991 14.6766 22.1663 14.0203 22.4147 13.2656C22.5413 12.8812 22.5835 11.6344 22.4991 10.8562C22.2929 8.97656 21.5897 7.19062 20.4553 5.66719C20.0382 5.10938 19.1944 4.22812 18.6788 3.81094C17.1319 2.56406 15.3178 1.78594 13.3585 1.51875C12.9132 1.4625 11.2913 1.43906 10.8975 1.48594ZM13.171 7.81875C14.7038 8.28281 15.7913 9.35156 16.2507 10.8609C16.3632 11.2312 16.3772 11.3484 16.3772 12.0234C16.3819 12.6703 16.3678 12.825 16.2741 13.1437C15.8335 14.6719 14.7413 15.7875 13.2413 16.2469C12.8522 16.3687 12.7585 16.3781 12.046 16.3781C11.3382 16.3781 11.235 16.3687 10.86 16.2516C9.42566 15.8109 8.37097 14.7984 7.89285 13.3969C7.72879 12.9094 7.67254 12.4406 7.70066 11.8031C7.73816 10.9734 7.94441 10.3312 8.40847 9.6375C9.02722 8.70937 10.0585 8.00156 11.1319 7.7625C11.6007 7.65937 12.7491 7.6875 13.171 7.81875Z" fill="#151515"/>
</svg>
