<svg width="36" height="36" viewBox="0 0 36 36" fill="none" xmlns="http://www.w3.org/2000/svg">
<rect width="36" height="36" rx="18" fill="#9D64CB" fill-opacity="0.1"/>
<path d="M25.2975 20.4502C25.1451 20.2979 24.8983 20.2979 24.746 20.4502L23.4617 21.7345L22.1775 20.4502C22.0251 20.2979 21.7783 20.2979 21.626 20.4502C21.4736 20.6025 21.4736 20.8493 21.626 21.0017L22.9102 22.2859L21.626 23.5702C21.4736 23.7225 21.4736 23.9693 21.626 24.1217C21.7021 24.1979 21.8019 24.2359 21.9017 24.2359C22.0015 24.2359 22.1013 24.1979 22.1775 24.1217L23.4617 22.8374L24.746 24.1217C24.8221 24.1979 24.9219 24.2359 25.0217 24.2359C25.1215 24.2359 25.2213 24.1979 25.2975 24.1217C25.4498 23.9693 25.4498 23.7225 25.2975 23.5702L24.0132 22.2859L25.2975 21.0017C25.4498 20.8493 25.4498 20.6025 25.2975 20.4502Z" fill="#9D64CB"/>
<path d="M23.4598 11.7578H12.5398C11.4647 11.7578 10.5898 12.6326 10.5898 13.7078V20.7278C10.5898 21.803 11.4647 22.6778 12.5398 22.6778H21.1198C21.3354 22.6778 21.5098 22.5034 21.5098 22.2878C21.5098 22.0722 21.3354 21.8978 21.1198 21.8978H12.5398C11.8947 21.8978 11.3698 21.373 11.3698 20.7278V16.4378H24.6298V19.1678C24.6298 19.3834 24.8043 19.5578 25.0198 19.5578C25.2354 19.5578 25.4098 19.3834 25.4098 19.1678V13.7078C25.4098 12.6326 24.535 11.7578 23.4598 11.7578ZM11.3698 15.6578V13.7078C11.3698 13.0626 11.8947 12.5378 12.5398 12.5378H23.4598C24.105 12.5378 24.6298 13.0626 24.6298 13.7078V15.6578H11.3698Z" fill="#9D64CB"/>
<path d="M14.1009 18.7812C13.8854 18.7812 13.7109 18.9557 13.7109 19.1713C13.7109 19.3868 13.8854 19.5613 14.1009 19.5613H15.6609C15.8765 19.5613 16.0509 19.3868 16.0509 19.1713C16.0509 18.9557 15.8765 18.7812 15.6609 18.7812H14.1009Z" fill="#9D64CB"/>
</svg>
