<svg width="12" height="13" viewBox="0 0 12 13" fill="none" xmlns="http://www.w3.org/2000/svg">
<path d="M7.70785 4.61797L6.40885 2.00197C6.37103 1.92626 6.31288 1.86259 6.2409 1.81808C6.16892 1.77357 6.08597 1.75 6.00135 1.75C5.91672 1.75 5.83377 1.77357 5.76179 1.81808C5.68981 1.86259 5.63166 1.92626 5.59385 2.00197L4.29485 4.61797L1.39085 5.03997C1.30708 5.05159 1.22827 5.08652 1.16341 5.14078C1.09855 5.19504 1.05025 5.26644 1.02402 5.34683C0.9978 5.42723 0.994707 5.51338 1.0151 5.59545C1.03549 5.67752 1.07854 5.7522 1.13935 5.81097L3.24035 7.84597L2.74435 10.721C2.68085 11.09 3.07085 11.371 3.40435 11.197L6.00135 9.83897L8.59885 11.197C8.93185 11.3715 9.32185 11.09 9.25835 10.7205L8.76235 7.84547L10.8633 5.81047C10.9239 5.75166 10.9666 5.67705 10.9869 5.59513C11.0071 5.51321 11.0039 5.42725 10.9777 5.34704C10.9515 5.26683 10.9033 5.19558 10.8387 5.14139C10.774 5.08719 10.6954 5.05223 10.6118 5.04047L7.70785 4.61797Z" stroke="#FCC02E" stroke-linecap="round" stroke-linejoin="round"/>
<path d="M6 10.2887V1.5L8 4.5L8.5 5L11 5.5L10.5 6.5L9.5 7L9 7.5V9V11L7.5 10.5L6 10.2887Z" fill="#FCC02E"/>
</svg>
