<svg width="24" height="24" viewBox="0 0 24 24" fill="none" xmlns="http://www.w3.org/2000/svg">
<path d="M12 1.5C9.21523 1.5 6.54451 2.60625 4.57538 4.57538C2.60625 6.54451 1.5 9.21523 1.5 12C1.5 14.7848 2.60625 17.4555 4.57538 19.4246C6.54451 21.3938 9.21523 22.5 12 22.5C14.7848 22.5 17.4555 21.3938 19.4246 19.4246C21.3938 17.4555 22.5 14.7848 22.5 12C22.5 9.21523 21.3938 6.54451 19.4246 4.57538C17.4555 2.60625 14.7848 1.5 12 1.5ZM12 6C12.1904 5.99983 12.3788 6.03938 12.5531 6.11613C12.7274 6.19288 12.8838 6.30514 13.0122 6.44573C13.1407 6.58633 13.2384 6.75217 13.2992 6.93267C13.3599 7.11317 13.3823 7.30435 13.365 7.494L12.8175 13.503C12.7963 13.705 12.701 13.892 12.55 14.028C12.3991 14.1639 12.2031 14.2391 12 14.2391C11.7969 14.2391 11.6009 14.1639 11.45 14.028C11.299 13.892 11.2037 13.705 11.1825 13.503L10.6365 7.494C10.6192 7.30447 10.6416 7.11342 10.7022 6.93303C10.7629 6.75263 10.8605 6.58686 10.9888 6.44629C11.1171 6.30572 11.2732 6.19343 11.4474 6.11659C11.6215 6.03975 11.8097 6.00004 12 6ZM12 18C11.6817 18 11.3765 17.8736 11.1515 17.6485C10.9264 17.4235 10.8 17.1183 10.8 16.8C10.8 16.4817 10.9264 16.1765 11.1515 15.9515C11.3765 15.7264 11.6817 15.6 12 15.6C12.3183 15.6 12.6235 15.7264 12.8485 15.9515C13.0736 16.1765 13.2 16.4817 13.2 16.8C13.2 17.1183 13.0736 17.4235 12.8485 17.6485C12.6235 17.8736 12.3183 18 12 18Z" fill="#EF2D28"/>
</svg>
