<svg width="18" height="19" viewBox="0 0 18 19" fill="none" xmlns="http://www.w3.org/2000/svg">
<g clip-path="url(#clip0_6_179)">
<path d="M7.515 18.2738C3.24 17.5088 0 13.8188 0 9.36377C0 4.41377 4.05 0.36377 9 0.36377C13.95 0.36377 18 4.41377 18 9.36377C18 13.8188 14.76 17.5088 10.485 18.2738L9.99 17.8688H8.01L7.515 18.2738Z" fill="url(#paint0_linear_6_179)"/>
<path d="M12.5096 11.8835L12.9146 9.36354H10.5296V7.60854C10.5296 6.88854 10.7996 6.34854 11.8796 6.34854H13.0496V4.05353C12.4196 3.96353 11.6996 3.87354 11.0696 3.87354C8.99957 3.87354 7.55957 5.13354 7.55957 7.38354V9.36354H5.30957V11.8835H7.55957V18.2285C8.05457 18.3185 8.54957 18.3635 9.04457 18.3635C9.53957 18.3635 10.0346 18.3185 10.5296 18.2285V11.8835H12.5096Z" fill="white"/>
</g>
<defs>
<linearGradient id="paint0_linear_6_179" x1="9.00045" y1="17.7378" x2="9.00045" y2="0.360454" gradientUnits="userSpaceOnUse">
<stop stop-color="#0062E0"/>
<stop offset="1" stop-color="#19AFFF"/>
</linearGradient>
<clipPath id="clip0_6_179">
<rect width="18" height="18" fill="white" transform="translate(0 0.36377)"/>
</clipPath>
</defs>
</svg>
