<svg width="20" height="19" viewBox="0 0 20 19" fill="none" xmlns="http://www.w3.org/2000/svg">
<path d="M5.30371 1C2.66502 1.00016 0.5 3.20941 0.5 5.98145C0.50015 8.82144 1.93507 11.2725 4.50781 13.6895C5.71472 14.8238 7.15265 15.9205 8.2959 16.7373C8.86589 17.1445 9.35991 17.4802 9.71094 17.7139C9.82303 17.7885 9.92129 17.8526 10.002 17.9053C10.0861 17.8511 10.1888 17.7854 10.3066 17.708C10.6663 17.4717 11.1712 17.132 11.748 16.7227C12.9053 15.9014 14.3404 14.8075 15.4873 13.6953C17.7984 11.4541 19.4998 8.80424 19.5 5.98145C19.5 3.21786 17.3345 1.00016 14.6963 1C12.8555 1 11.2541 2.07794 10.4453 3.66992L10 4.54688L9.55469 3.66992C8.74593 2.07794 7.14448 1 5.30371 1Z" fill="black"/>
<path d="M5.30371 1C2.66502 1.00016 0.5 3.20941 0.5 5.98145C0.50015 8.82144 1.93507 11.2725 4.50781 13.6895C5.71472 14.8238 7.15265 15.9205 8.2959 16.7373C8.86589 17.1445 9.35991 17.4802 9.71094 17.7139C9.82303 17.7885 9.92129 17.8526 10.002 17.9053C10.0861 17.8511 10.1888 17.7854 10.3066 17.708C10.6663 17.4717 11.1712 17.132 11.748 16.7227C12.9053 15.9014 14.3404 14.8075 15.4873 13.6953C17.7984 11.4541 19.4998 8.80424 19.5 5.98145C19.5 3.21786 17.3345 1.00016 14.6963 1C12.8555 1 11.2541 2.07794 10.4453 3.66992L10 4.54688L9.55469 3.66992C8.74593 2.07794 7.14448 1 5.30371 1Z" fill="#D1005C"/>
<path d="M5.30371 1C2.66502 1.00016 0.5 3.20941 0.5 5.98145C0.50015 8.82144 1.93507 11.2725 4.50781 13.6895C5.71472 14.8238 7.15265 15.9205 8.2959 16.7373C8.86589 17.1445 9.35991 17.4802 9.71094 17.7139C9.82303 17.7885 9.92129 17.8526 10.002 17.9053C10.0861 17.8511 10.1888 17.7854 10.3066 17.708C10.6663 17.4717 11.1712 17.132 11.748 16.7227C12.9053 15.9014 14.3404 14.8075 15.4873 13.6953C17.7984 11.4541 19.4998 8.80424 19.5 5.98145C19.5 3.21786 17.3345 1.00016 14.6963 1C12.8555 1 11.2541 2.07794 10.4453 3.66992L10 4.54688L9.55469 3.66992C8.74593 2.07794 7.14448 1 5.30371 1Z" stroke="#D1005C"/>
</svg>
