<svg width="40" height="40" viewBox="0 0 40 40" fill="none" xmlns="http://www.w3.org/2000/svg">
<rect width="40" height="40" rx="20" transform="matrix(-1 0 0 1 40 0)" fill="white"/>
<path d="M28 11H12C11.7348 11 11.4804 11.1054 11.2929 11.2929C11.1054 11.4804 11 11.7348 11 12V13.586C11.0001 13.8512 11.1054 14.1055 11.293 14.293L17.707 20.707C17.8945 20.8945 17.9999 21.1488 18 21.414V27.719C18 27.871 18.0347 28.021 18.1013 28.1576C18.168 28.2942 18.265 28.4138 18.3848 28.5073C18.5046 28.6008 18.6442 28.6658 18.7929 28.6973C18.9416 28.7288 19.0956 28.7259 19.243 28.689L21.243 28.189C21.4592 28.1348 21.6512 28.01 21.7883 27.8342C21.9255 27.6585 22 27.4419 22 27.219V21.414C22.0001 21.1488 22.1055 20.8945 22.293 20.707L28.707 14.293C28.8945 14.1055 28.9999 13.8512 29 13.586V12C29 11.7348 28.8946 11.4804 28.7071 11.2929C28.5196 11.1054 28.2652 11 28 11Z" stroke="#9D64CB" stroke-width="1.5" stroke-linecap="round" stroke-linejoin="round"/>
</svg>
