<svg width="24" height="24" viewBox="0 0 24 24" fill="none" xmlns="http://www.w3.org/2000/svg">
<path d="M14 5H10C10 4.46957 10.2107 3.96086 10.5858 3.58579C10.9609 3.21071 11.4696 3 12 3C12.5304 3 13.0391 3.21071 13.4142 3.58579C13.7893 3.96086 14 4.46957 14 5ZM15.5 5C15.5 4.54037 15.4095 4.08525 15.2336 3.66061C15.0577 3.23597 14.7999 2.85013 14.4749 2.52513C14.1499 2.20012 13.764 1.94231 13.3394 1.76642C12.9148 1.59053 12.4596 1.5 12 1.5C11.5404 1.5 11.0852 1.59053 10.6606 1.76642C10.236 1.94231 9.85013 2.20012 9.52513 2.52513C9.20012 2.85013 8.94231 3.23597 8.76642 3.66061C8.59053 4.08525 8.5 4.54037 8.5 5H2.75C2.55109 5 2.36032 5.07902 2.21967 5.21967C2.07902 5.36032 2 5.55109 2 5.75C2 5.94891 2.07902 6.13968 2.21967 6.28033C2.36032 6.42098 2.55109 6.5 2.75 6.5H4.07L5.24 18.611C5.32975 19.539 5.76196 20.4002 6.45232 21.0268C7.14268 21.6534 8.04169 22.0004 8.974 22H15.026C15.9581 22.0001 16.8569 21.653 17.5471 21.0265C18.2372 20.3999 18.6693 19.5388 18.759 18.611L19.93 6.5H21.25C21.4489 6.5 21.6397 6.42098 21.7803 6.28033C21.921 6.13968 22 5.94891 22 5.75C22 5.55109 21.921 5.36032 21.7803 5.21967C21.6397 5.07902 21.4489 5 21.25 5H15.5ZM13.5 9.75C13.5 9.55109 13.579 9.36032 13.7197 9.21967C13.8603 9.07902 14.0511 9 14.25 9C14.4489 9 14.6397 9.07902 14.7803 9.21967C14.921 9.36032 15 9.55109 15 9.75V17.25C15 17.4489 14.921 17.6397 14.7803 17.7803C14.6397 17.921 14.4489 18 14.25 18C14.0511 18 13.8603 17.921 13.7197 17.7803C13.579 17.6397 13.5 17.4489 13.5 17.25V9.75ZM9.75 9C9.55109 9 9.36032 9.07902 9.21967 9.21967C9.07902 9.36032 9 9.55109 9 9.75V17.25C9 17.4489 9.07902 17.6397 9.21967 17.7803C9.36032 17.921 9.55109 18 9.75 18C9.94891 18 10.1397 17.921 10.2803 17.7803C10.421 17.6397 10.5 17.4489 10.5 17.25V9.75C10.5 9.55109 10.421 9.36032 10.2803 9.21967C10.1397 9.07902 9.94891 9 9.75 9ZM17.266 18.467C17.2121 19.0236 16.9528 19.5403 16.5386 19.9161C16.1245 20.292 15.5853 20.5001 15.026 20.5H8.974C8.41475 20.5001 7.87549 20.292 7.46137 19.9161C7.04725 19.5403 6.78794 19.0236 6.734 18.467L5.576 6.5H18.424L17.266 18.467Z" fill="#D1005C"/>
</svg>
