<svg width="24" height="24" viewBox="0 0 24 24" fill="none" xmlns="http://www.w3.org/2000/svg">
<path d="M12.6884 2.07105C14.1623 2.34232 15.4158 2.95718 16.4173 3.90963C17.4944 4.92838 18.1369 6.08578 18.414 7.50238C18.5589 8.23178 18.5148 9.70264 18.3258 10.3778C17.7212 12.5781 16.0583 14.3142 13.8159 15.0858C13.5703 15.1641 13.2553 15.2545 13.1041 15.2787L12.8396 15.3208V16.3034V17.286L13.8915 17.3101C14.9056 17.3282 14.9623 17.3342 15.2331 17.491C16.0142 17.925 16.0016 19.0462 15.2079 19.4802C14.9686 19.6068 14.8615 19.6189 13.9041 19.637L12.8522 19.6611L12.827 20.4206C12.8018 21.2465 12.7451 21.4153 12.4176 21.7107C12.1908 21.9156 11.9578 22 11.605 22C11.2334 22 10.9563 21.8855 10.7169 21.6202C10.4461 21.3249 10.3831 21.0717 10.3831 20.294V19.649H9.46975C8.97214 19.649 8.41785 19.6189 8.24148 19.5827C7.14549 19.3597 6.96283 17.9491 7.95804 17.4307C8.10921 17.3523 8.38635 17.3282 9.26189 17.3101L10.3831 17.286V16.3396V15.3872L9.80358 15.2545C7.6116 14.7361 5.79755 13.2351 4.96611 11.2458C4.57559 10.3115 4.5 9.90157 4.5 8.70801C4.5 7.72542 4.5189 7.56869 4.67007 7.02013C4.98501 5.89288 5.66528 4.76562 6.51561 3.95182C7.37225 3.132 8.55642 2.48096 9.7217 2.19161C10.4964 1.99871 11.9578 1.93843 12.6884 2.07105ZM10.2256 4.45819C8.6698 4.92235 7.52342 6.02549 7.03841 7.53252C6.91874 7.89421 6.89354 8.12931 6.88724 8.67787C6.88724 9.52783 6.96913 9.85938 7.37225 10.6611C7.6368 11.1916 7.76277 11.3604 8.19739 11.7823C8.78318 12.343 9.36267 12.6926 10.0996 12.9337C10.5531 13.0844 10.6917 13.0965 11.4854 13.0965C12.2601 13.1025 12.4239 13.0844 12.8522 12.9458C13.1167 12.8614 13.5262 12.6926 13.7655 12.566C14.3324 12.2586 15.1953 11.4327 15.5166 10.8902C16.3669 9.42535 16.2976 7.65911 15.3339 6.27868C14.6914 5.35035 13.5829 4.60889 12.5247 4.40393C12.3357 4.36776 12.1215 4.32557 12.0523 4.31351C11.7562 4.2472 10.6476 4.33762 10.2256 4.45819Z" fill="black"/>
</svg>
