<svg width="24" height="24" viewBox="0 0 24 24" fill="none" xmlns="http://www.w3.org/2000/svg">
<path d="M7.49906 2.25V3.75H4.82681L7.35806 6.3045C8.26277 5.62123 9.36533 5.25108 10.4991 5.25C11.9016 5.25 13.2111 5.805 14.2026 6.79725C14.6927 7.28144 15.0818 7.8581 15.3473 8.4938C15.6128 9.1295 15.7495 9.8116 15.7495 10.5005C15.7494 11.1895 15.6126 11.8715 15.3469 12.5072C15.0812 13.1428 14.692 13.7194 14.2018 14.2035C13.5493 14.856 12.7723 15.3247 11.9053 15.5625C11.8198 15.4972 11.7238 15.429 11.6473 15.3525C11.3329 15.0328 11.1071 14.6368 10.9918 14.2035C11.8084 14.103 12.5677 13.7315 13.1481 13.1483C13.8561 12.441 14.2491 11.502 14.2491 10.5C14.2491 9.498 13.8553 8.5605 13.1466 7.8525C12.4401 7.14225 11.5011 6.75 10.4991 6.75C9.49706 6.75 8.55881 7.14375 7.85156 7.8525C7.50175 8.19889 7.22418 8.61127 7.03493 9.06573C6.84567 9.5202 6.74851 10.0077 6.74906 10.5C6.74906 11.1488 6.93281 11.7525 7.24106 12.3045C7.16906 12.6915 7.12406 13.098 7.12406 13.5C7.12406 13.8745 7.15531 14.242 7.21781 14.6025C7.06781 14.4802 6.93431 14.3415 6.79556 14.2035C5.80406 13.2105 5.24906 11.9025 5.24906 10.5C5.24906 9.3525 5.62706 8.262 6.30356 7.359L3.74906 4.8285V7.5H2.24906V2.25H7.49906ZM12.0928 8.4375C12.1783 8.50275 12.2743 8.571 12.3508 8.6475C12.6748 8.973 12.8863 9.3675 13.0063 9.79725C12.1888 9.90225 11.4426 10.2592 10.8501 10.8517C10.1413 11.559 9.74756 12.498 9.74756 13.4993C9.74756 14.5005 10.1413 15.4387 10.8501 16.1467C11.5581 16.8577 12.4971 17.25 13.4991 17.25C14.5011 17.25 15.4393 16.8563 16.1466 16.1475C16.4967 15.8014 16.7745 15.389 16.9638 14.9345C17.1531 14.48 17.25 13.9924 17.2491 13.5C17.2491 12.8512 17.0653 12.2475 16.7571 11.6955C16.8315 11.3013 16.8707 10.9012 16.8741 10.5C16.8741 10.126 16.8428 9.7585 16.7803 9.3975C16.9303 9.51975 17.0631 9.6585 17.2026 9.79725C18.1926 10.788 18.7491 12.0975 18.7491 13.5C18.7491 14.6475 18.3711 15.738 17.6946 16.641L18.9591 17.9062L20.4591 16.4062L21.5391 17.4608L20.0391 18.9608L21.5391 20.4608L20.4591 21.5408L18.9591 20.0408L17.4591 21.5408L16.4053 20.4608L17.9053 18.9608L16.6393 17.6962C15.7355 18.3806 14.6327 18.7506 13.4991 18.75C12.0966 18.75 10.7871 18.195 9.79556 17.2028C8.80406 16.212 8.24906 14.9025 8.24906 13.5C8.24906 12.0975 8.80406 10.7895 9.79631 9.7965C10.4488 9.144 11.2258 8.67525 12.0928 8.4375Z" fill="black"/>
</svg>
