<svg width="18" height="19" viewBox="0 0 18 19" fill="none" xmlns="http://www.w3.org/2000/svg">
<path d="M16.8754 9.5387C16.8754 8.8912 16.8218 8.4187 16.7058 7.92871H9.16113V10.8512H13.5897C13.5004 11.5775 13.0183 12.6712 11.9468 13.4062L11.9318 13.504L14.3173 15.315L14.4825 15.3312C16.0004 13.9574 16.8754 11.9362 16.8754 9.5387Z" fill="#4285F4"/>
<path d="M9.16098 17.2389C11.3306 17.2389 13.152 16.5389 14.4824 15.3314L11.9467 13.4064C11.2681 13.8701 10.3574 14.1939 9.16098 14.1939C7.03601 14.1939 5.23246 12.8202 4.58954 10.9214L4.4953 10.9292L2.01486 12.8105L1.98242 12.8989C3.30383 15.4714 6.01811 17.2389 9.16098 17.2389Z" fill="#34A853"/>
<path d="M4.59022 10.9214C4.42059 10.4314 4.32241 9.90634 4.32241 9.36386C4.32241 8.82133 4.42059 8.29635 4.5813 7.80636L4.57681 7.702L2.06527 5.79053L1.9831 5.82883C1.43848 6.89634 1.12598 8.09512 1.12598 9.36386C1.12598 10.6326 1.43848 11.8313 1.9831 12.8988L4.59022 10.9214Z" fill="#FBBC05"/>
<path d="M9.16103 4.53375C10.6699 4.53375 11.6878 5.1725 12.2682 5.70628L14.536 3.53627C13.1432 2.26752 11.3306 1.48877 9.16103 1.48877C6.01814 1.48877 3.30384 3.25626 1.98242 5.82873L4.58063 7.80626C5.23248 5.90752 7.03604 4.53375 9.16103 4.53375Z" fill="#EB4335"/>
</svg>
