<svg width="24" height="24" viewBox="0 0 24 24" fill="none" xmlns="http://www.w3.org/2000/svg">
<path d="M5.75167 1.79297L3.64817 3.89647C3.55709 3.99077 3.50669 4.11707 3.50783 4.24817C3.50897 4.37927 3.56155 4.50467 3.65426 4.59738C3.74696 4.69008 3.87237 4.74267 4.00347 4.74381C4.13456 4.74494 4.26087 4.69455 4.35517 4.60347L5.25167 3.70697V22H6.25167V3.70697L7.14817 4.60347C7.19429 4.65122 7.24946 4.68932 7.31047 4.71552C7.37147 4.74172 7.43708 4.75552 7.50347 4.75609C7.56986 4.75667 7.6357 4.74402 7.69714 4.71888C7.75859 4.69374 7.81442 4.65661 7.86137 4.60967C7.90831 4.56272 7.94544 4.50689 7.97058 4.44545C7.99572 4.384 8.00837 4.31816 8.00779 4.25177C8.00722 4.18538 7.99342 4.11977 7.96722 4.05877C7.94102 3.99776 7.90292 3.94259 7.85517 3.89647L5.75167 1.79297Z" fill="black"/>
<path fill-rule="evenodd" clip-rule="evenodd" d="M9.50072 4.5C9.50072 5.16304 9.76412 5.79893 10.233 6.26777C10.7018 6.73661 11.3377 7 12.0007 7C12.6638 7 13.2996 6.73661 13.7685 6.26777C14.2373 5.79893 14.5007 5.16304 14.5007 4.5C14.5007 3.83696 14.2373 3.20107 13.7685 2.73223C13.2996 2.26339 12.6638 2 12.0007 2C11.3377 2 10.7018 2.26339 10.233 2.73223C9.76412 3.20107 9.50072 3.83696 9.50072 4.5ZM10.5007 4.5C10.5007 4.89782 10.6588 5.27936 10.9401 5.56066C11.2214 5.84196 11.6029 6 12.0007 6C12.3985 6 12.7801 5.84196 13.0614 5.56066C13.3427 5.27936 13.5007 4.89782 13.5007 4.5C13.5007 4.10218 13.3427 3.72064 13.0614 3.43934C12.7801 3.15804 12.3985 3 12.0007 3C11.6029 3 11.2214 3.15804 10.9401 3.43934C10.6588 3.72064 10.5007 4.10218 10.5007 4.5ZM10.0442 22C10.4186 22 10.7795 21.8601 11.0559 21.6076C11.3324 21.3551 11.5044 21.0084 11.5382 20.6355L11.9142 16.5H12.0877L12.4637 20.6355C12.4717 20.7253 12.4878 20.8141 12.5117 20.901C12.5994 21.2171 12.7883 21.4957 13.0495 21.6942C13.3107 21.8927 13.6297 22.0001 13.9577 22H14.0007C14.3985 22 14.7801 21.842 15.0614 21.5607C15.3427 21.2794 15.5007 20.8978 15.5007 20.5V16.1035C15.743 15.923 15.9411 15.6899 16.0804 15.4218C16.2196 15.1537 16.2963 14.8575 16.3047 14.5555L16.4367 9.797C16.4447 9.51114 16.3913 9.2269 16.28 8.96345C16.1688 8.69999 16.0024 8.46345 15.792 8.26978C15.5816 8.07611 15.3321 7.9298 15.0604 7.84074C14.7886 7.75168 14.5009 7.72193 14.2167 7.7535L12.2217 7.9755C12.0744 7.9915 11.9271 7.9915 11.7797 7.9755L9.84972 7.7605C9.56082 7.72837 9.26839 7.75959 8.99279 7.85201C8.71719 7.94442 8.46505 8.0958 8.25392 8.2956C8.04279 8.4954 7.87775 8.73882 7.7703 9.00891C7.66284 9.279 7.61555 9.56927 7.63172 9.8595L7.89572 14.611C7.92367 15.113 8.13968 15.5861 8.50072 15.936V20.5C8.50072 20.8978 8.65876 21.2794 8.94006 21.5607C9.22137 21.842 9.6029 22 10.0007 22H10.0442ZM14.5007 16.1035C14.5007 15.9478 14.5371 15.7943 14.6069 15.6552C14.6766 15.516 14.778 15.3951 14.9027 15.302C15.024 15.2117 15.1232 15.0951 15.1929 14.961C15.2627 14.8268 15.301 14.6786 15.3052 14.5275L15.4372 9.7695C15.4412 9.62655 15.4146 9.4844 15.359 9.35264C15.3034 9.22089 15.2202 9.10258 15.115 9.00572C15.0098 8.90886 14.885 8.83568 14.7491 8.79114C14.6132 8.74659 14.4694 8.73171 14.3272 8.7475L12.3322 8.9695C12.1122 8.994 11.8897 8.994 11.6692 8.9695L9.73922 8.7545C9.59473 8.73842 9.44847 8.75405 9.31063 8.80028C9.17279 8.84652 9.04669 8.92225 8.94112 9.02221C8.83555 9.12216 8.75304 9.24394 8.69935 9.37905C8.64565 9.51415 8.62206 9.65934 8.63022 9.8045L8.89422 14.5555C8.9082 14.8065 9.0162 15.043 9.19672 15.218C9.2929 15.3112 9.36936 15.4228 9.42159 15.5462C9.47381 15.6695 9.50072 15.8021 9.50072 15.936V20.5C9.50072 20.6326 9.5534 20.7598 9.64717 20.8536C9.74094 20.9473 9.86812 21 10.0007 21H10.0442C10.169 21 10.2894 20.9533 10.3815 20.8691C10.4737 20.7849 10.531 20.6693 10.5422 20.545L10.9182 16.4095C10.9407 16.1609 11.0553 15.9296 11.2396 15.7612C11.424 15.5928 11.6646 15.4995 11.9142 15.4995H12.0877C12.3374 15.4995 12.578 15.5928 12.7623 15.7612C12.9466 15.9296 13.0613 16.1609 13.0837 16.4095L13.4597 20.545C13.4709 20.6692 13.5282 20.7848 13.6203 20.869C13.7123 20.9531 13.8325 20.9999 13.9572 21H14.0007C14.1333 21 14.2605 20.9473 14.3543 20.8536C14.448 20.7598 14.5007 20.6326 14.5007 20.5V16.1035Z" fill="black"/>
</svg>
