<svg width="24" height="24" viewBox="0 0 24 24" fill="none" xmlns="http://www.w3.org/2000/svg">
<path d="M12.7729 1.72143C14.7604 1.88549 16.5697 2.56987 18.1869 3.76518C18.7588 4.19174 19.8088 5.24174 20.2354 5.81362C22.4713 8.8183 22.926 12.6855 21.4494 16.1074C20.9338 17.2886 20.2447 18.2917 19.2697 19.2714C18.5947 19.9417 18.0229 20.3964 17.2963 20.8324C14.4041 22.5761 10.8557 22.7824 7.75723 21.3902C6.64161 20.8886 5.6713 20.2089 4.72911 19.2714C3.75411 18.2917 3.06504 17.2886 2.54942 16.1074C1.07286 12.6855 1.52755 8.83237 3.76348 5.81362C4.19005 5.24174 5.24005 4.19174 5.82129 3.76049C7.82755 2.26518 10.3635 1.51987 12.7729 1.72143ZM10.3119 3.62455C7.07286 4.33237 4.55098 6.72768 3.73536 9.8683C3.21973 11.8605 3.44942 14.0027 4.37286 15.8214C5.66192 18.348 8.05255 20.0636 10.851 20.4621C11.8025 20.598 13.1057 20.5324 14.0244 20.298C15.7119 19.8621 17.3057 18.8964 18.3979 17.6355C20.7182 14.9636 21.1916 11.2933 19.626 8.17143C18.5104 5.95893 16.4385 4.30893 14.015 3.70893C13.1807 3.50268 12.89 3.47455 11.8119 3.4933C11.0057 3.50737 10.7666 3.52612 10.3119 3.62455Z" fill="#151515"/>
<path d="M12.8757 6.08984C14.2398 6.46016 15.2289 7.58516 15.421 8.99141C15.5101 9.66641 15.3929 10.0086 14.9992 10.2055C14.7554 10.332 14.4601 10.3461 14.2164 10.243C13.8601 10.093 13.7335 9.88672 13.682 9.35703C13.6117 8.67734 13.2554 8.15703 12.6648 7.88516C12.4445 7.78203 12.332 7.75859 11.9992 7.75859C11.6429 7.75859 11.5679 7.77266 11.2914 7.90859C10.921 8.09141 10.6351 8.38672 10.4617 8.75703C10.3539 8.98203 10.3351 9.08984 10.3351 9.42266C10.3351 9.76016 10.3539 9.86328 10.4664 10.1023C10.7382 10.6883 11.2492 11.0398 11.9289 11.1102C12.3601 11.1523 12.5523 11.232 12.6976 11.4195C12.8757 11.6492 12.8945 11.8461 12.8804 13.4023L12.8664 14.893L12.7398 15.0805C12.5804 15.3195 12.332 15.4414 11.9992 15.4414C11.6664 15.4414 11.4179 15.3195 11.2585 15.0805C11.132 14.893 11.132 14.8836 11.1085 13.8383L11.0851 12.7836L10.921 12.7273C10.3585 12.5352 9.72573 12.0898 9.35073 11.6352C7.80855 9.76953 8.60542 6.94297 10.8976 6.16016C11.4085 5.98672 12.3554 5.95391 12.8757 6.08984Z" fill="#151515"/>
<path d="M12.4006 16.3573C12.6303 16.4604 12.7756 16.6386 12.8459 16.8964C12.9538 17.3042 12.7897 17.7448 12.4616 17.9089C12.2038 18.0401 11.7538 18.0354 11.51 17.8948C11.0928 17.6604 10.985 16.9761 11.3038 16.5729C11.4397 16.3995 11.7397 16.2682 11.9975 16.2682C12.1147 16.2682 12.2928 16.3104 12.4006 16.3573Z" fill="#151515"/>
</svg>
