<svg width="24" height="24" viewBox="0 0 24 24" fill="none" xmlns="http://www.w3.org/2000/svg">
<g clip-path="url(#clip0_183_1161)">
<path d="M8.18307 10.3234H2.38605C1.7991 10.3228 1.23633 10.0895 0.821234 9.67451C0.406134 9.25954 0.172601 8.69685 0.171875 8.1099V2.38487C0.172601 1.79792 0.406134 1.23523 0.821234 0.820261C1.23633 0.40529 1.7991 0.171931 2.38605 0.171387H8.18307C8.76991 0.172113 9.33249 0.405552 9.74744 0.820503C10.1624 1.23546 10.3958 1.79804 10.3966 2.38487V8.1099C10.3958 8.69673 10.1624 9.25932 9.74744 9.67427C9.33249 10.0892 8.76991 10.3227 8.18307 10.3234ZM2.38605 1.88567C2.25364 1.88585 2.1267 1.93848 2.03302 2.03204C1.93933 2.1256 1.88652 2.25247 1.88616 2.38487V8.1099C1.88652 8.2423 1.93933 8.36917 2.03302 8.46273C2.1267 8.55629 2.25364 8.60892 2.38605 8.6091H8.18307C8.31542 8.60892 8.44228 8.55627 8.53586 8.46269C8.62944 8.36911 8.68209 8.24224 8.68228 8.1099V2.38487C8.68209 2.25253 8.62944 2.12566 8.53586 2.03209C8.44228 1.93851 8.31542 1.88585 8.18307 1.88567H2.38605ZM8.21119 23.8285H2.41416C1.82715 23.8278 1.26439 23.5943 0.849307 23.1792C0.434226 22.7641 0.200715 22.2014 0.199989 21.6144V15.89C0.200715 15.3031 0.434249 14.7404 0.849349 14.3254C1.26445 13.9104 1.82721 13.6771 2.41416 13.6765H8.21119C8.79778 13.6776 9.36002 13.9112 9.77467 14.3261C10.1893 14.741 10.4226 15.3034 10.4233 15.89V21.6144C10.4228 22.2011 10.1896 22.7636 9.77491 23.1787C9.36024 23.5937 8.7979 23.8274 8.21119 23.8285ZM2.41416 15.3908C2.28176 15.391 2.15482 15.4436 2.06113 15.5372C1.96744 15.6307 1.91464 15.7576 1.91427 15.89V21.6144C1.91446 21.7469 1.96718 21.8739 2.06089 21.9676C2.1546 22.0613 2.28164 22.1141 2.41416 22.1142H8.21119C8.34359 22.1139 8.47046 22.0611 8.56402 21.9674C8.65758 21.8737 8.71021 21.7468 8.71039 21.6144V15.89C8.71021 15.7577 8.65756 15.6308 8.56398 15.5372C8.4704 15.4436 8.34353 15.391 8.21119 15.3908H2.41416ZM21.6155 23.8285H15.8185C15.2315 23.8278 14.6687 23.5943 14.2536 23.1792C13.8386 22.7641 13.6051 22.2014 13.6043 21.6144V15.89C13.6051 15.3031 13.8386 14.7404 14.2537 14.3254C14.6688 13.9104 15.2316 13.6771 15.8185 13.6765H21.6155C22.2024 13.6773 22.7649 13.9107 23.1799 14.3256C23.5949 14.7406 23.8283 15.3032 23.829 15.89V21.6144C23.8285 22.2013 23.5951 22.7641 23.1801 23.1792C22.7652 23.5943 22.2025 23.8278 21.6155 23.8285ZM15.8185 15.3942C15.6861 15.3944 15.5592 15.4471 15.4655 15.5406C15.3718 15.6342 15.319 15.761 15.3186 15.8934V21.6178C15.3188 21.7503 15.3715 21.8774 15.4652 21.9711C15.5589 22.0648 15.686 22.1175 15.8185 22.1177H21.6155C21.7479 22.1173 21.8748 22.0645 21.9684 21.9708C22.0619 21.8771 22.1146 21.7502 22.1147 21.6178V15.89C22.1146 15.7577 22.0619 15.6308 21.9683 15.5372C21.8747 15.4436 21.7479 15.391 21.6155 15.3908L15.8185 15.3942ZM18.7204 10.3234C17.7185 10.3159 16.7412 10.012 15.9117 9.44994C15.0822 8.88787 14.4377 8.09279 14.0594 7.16496C13.6811 6.23712 13.586 5.21806 13.786 4.23624C13.986 3.25442 14.4723 2.3538 15.1834 1.64792C15.8945 0.942036 16.7987 0.462489 17.782 0.269733C18.7653 0.0769783 19.7836 0.179644 20.7086 0.564788C21.6336 0.949932 22.4239 1.60031 22.9798 2.43394C23.5357 3.26756 23.8324 4.24711 23.8324 5.2491C23.8257 6.59935 23.2838 7.89183 22.3255 8.84307C21.3672 9.79432 20.0707 10.3267 18.7204 10.3234ZM18.7204 1.8891C18.0576 1.89654 17.4117 2.09991 16.8641 2.47361C16.3166 2.8473 15.8918 3.37462 15.6432 3.9892C15.3947 4.60378 15.3335 5.27815 15.4674 5.92742C15.6013 6.57669 15.9242 7.17185 16.3956 7.63799C16.8669 8.10413 17.4657 8.42041 18.1164 8.54703C18.7671 8.67365 19.4408 8.60495 20.0525 8.34957C20.6643 8.09418 21.1869 7.66354 21.5544 7.11184C21.922 6.56014 22.1181 5.91203 22.1182 5.2491C22.1127 4.3528 21.7519 3.49526 21.1149 2.86469C20.4779 2.23412 19.6168 1.88202 18.7204 1.88567V1.8891Z" fill="black"/>
</g>
<defs>
<clipPath id="clip0_183_1161">
<rect width="24" height="24" fill="white"/>
</clipPath>
</defs>
</svg>
