<svg width="24" height="24" viewBox="0 0 24 24" fill="none" xmlns="http://www.w3.org/2000/svg">
<path d="M14.8428 20.7714V17.7047C14.8428 16.9246 14.2069 16.2908 13.419 16.2856H10.5329C9.74126 16.2856 9.09949 16.9209 9.09949 17.7047V17.7047V20.7809C9.09968 21.4432 8.56574 21.9845 7.89696 22H5.97291C4.05488 22 2.5 20.4607 2.5 18.5618V18.5618V9.83784C2.51024 9.09083 2.86452 8.38935 3.46202 7.93303L10.0423 2.6853C11.1951 1.77157 12.8338 1.77157 13.9866 2.6853L20.538 7.94256C21.1377 8.39702 21.4926 9.09967 21.5 9.84736V18.5618C21.5 20.4607 19.9451 22 18.0271 22H16.103C15.4176 22 14.862 21.4499 14.862 20.7714V20.7714" stroke="#263238" stroke-width="2" stroke-linecap="round" stroke-linejoin="round"/>
</svg>
