<svg width="14" height="14" viewBox="0 0 14 14" fill="none" xmlns="http://www.w3.org/2000/svg">
<g clip-path="url(#clip0_2131_8756)">
<path d="M5.00882 4.803L6.52432 1.751C6.56843 1.66267 6.63628 1.58838 6.72025 1.53646C6.80423 1.48454 6.901 1.45703 6.99973 1.45703C7.09846 1.45703 7.19524 1.48454 7.27921 1.53646C7.36319 1.58838 7.43103 1.66267 7.47515 1.751L8.99065 4.803L12.3786 5.29533C12.4764 5.30888 12.5683 5.34963 12.644 5.41294C12.7197 5.47624 12.776 5.55954 12.8066 5.65334C12.8372 5.74713 12.8408 5.84764 12.817 5.94339C12.7932 6.03913 12.743 6.12626 12.6721 6.19483L10.2209 8.569L10.7996 11.9232C10.8736 12.3537 10.4186 12.6815 10.0296 12.4785L6.99973 10.8942L3.96932 12.4785C3.58082 12.6821 3.12582 12.3537 3.1999 11.9226L3.77857 8.56841L1.3274 6.19425C1.25681 6.12563 1.20688 6.03859 1.18329 5.94301C1.15971 5.84744 1.16341 5.74716 1.19397 5.65358C1.22454 5.56 1.28074 5.47688 1.3562 5.41365C1.43165 5.35042 1.52333 5.30963 1.62082 5.29591L5.00882 4.803Z" stroke="#FCC02E" stroke-width="1.5" stroke-linecap="round" stroke-linejoin="round"/>
</g>
<defs>
<clipPath id="clip0_2131_8756">
<rect width="14" height="14" fill="white"/>
</clipPath>
</defs>
</svg>
