<svg width="60" height="60" viewBox="0 0 60 60" fill="none" xmlns="http://www.w3.org/2000/svg">
<rect width="60" height="60" rx="30" fill="black" fill-opacity="0.2"/>
<path d="M22.262 19.1223C22.1351 19.0436 21.9905 19.0014 21.843 19C21.6955 18.9987 21.5503 19.0382 21.4221 19.1146C21.2939 19.191 21.1874 19.3015 21.1132 19.435C21.0391 19.5684 21 19.72 21 19.8744V40.1256C21 40.28 21.0391 40.4316 21.1132 40.565C21.1874 40.6985 21.2939 40.809 21.4221 40.8854C21.5503 40.9618 21.6955 41.0013 21.843 41C21.9905 40.9986 22.1351 40.9564 22.262 40.8777L38.5907 30.7521C38.7154 30.6747 38.8188 30.5646 38.8905 30.4327C38.9623 30.3009 39 30.1517 39 30C39 29.8483 38.9623 29.6991 38.8905 29.5673C38.8188 29.4354 38.7154 29.3253 38.5907 29.2479L22.262 19.1223Z" fill="white"/>
</svg>
