<svg width="24" height="24" viewBox="0 0 24 24" fill="none" xmlns="http://www.w3.org/2000/svg">
<rect width="24" height="24" rx="12" transform="matrix(-1 0 0 1 24 0)" fill="white"/>
<path d="M6.16797 17.625H17.8346C18.2207 17.6228 18.5904 17.4685 18.8634 17.1954C19.1364 16.9224 19.2908 16.5528 19.293 16.1667V7.83333C19.2908 7.44723 19.1364 7.07757 18.8634 6.80455C18.5904 6.53154 18.2207 6.37719 17.8346 6.375H6.16797C5.78187 6.37719 5.4122 6.53154 5.13919 6.80455C4.86617 7.07757 4.71182 7.44723 4.70963 7.83333V16.1667C4.71182 16.5528 4.86617 16.9224 5.13919 17.1954C5.4122 17.4685 5.78187 17.6228 6.16797 17.625ZM17.8346 7.625C17.8899 7.625 17.9429 7.64695 17.9819 7.68602C18.021 7.72509 18.043 7.77808 18.043 7.83333V16.1667C18.043 16.2219 18.021 16.2749 17.9819 16.314C17.9429 16.3531 17.8899 16.375 17.8346 16.375H6.16797C6.11271 16.375 6.05972 16.3531 6.02065 16.314C5.98158 16.2749 5.95963 16.2219 5.95963 16.1667V7.83333C5.95963 7.77808 5.98158 7.72509 6.02065 7.68602C6.05972 7.64695 6.11271 7.625 6.16797 7.625H17.8346Z" fill="#9D64CB"/>
<path d="M14.5 11.7904C14.8296 11.7904 15.1519 11.6926 15.426 11.5095C15.7 11.3263 15.9137 11.066 16.0398 10.7615C16.1659 10.457 16.199 10.1219 16.1346 9.79855C16.0703 9.47525 15.9116 9.17828 15.6785 8.94519C15.4454 8.7121 15.1485 8.55337 14.8252 8.48906C14.5018 8.42475 14.1667 8.45775 13.8622 8.5839C13.5577 8.71005 13.2974 8.92367 13.1142 9.19775C12.9311 9.47183 12.8333 9.79406 12.8333 10.1237C12.8333 10.5657 13.0089 10.9896 13.3215 11.3022C13.6341 11.6148 14.058 11.7904 14.5 11.7904ZM14.5 9.70703C14.5824 9.70703 14.663 9.73147 14.7315 9.77725C14.8 9.82304 14.8534 9.88811 14.885 9.96425C14.9165 10.0404 14.9247 10.1242 14.9087 10.205C14.8926 10.2858 14.8529 10.3601 14.7946 10.4183C14.7364 10.4766 14.6621 10.5163 14.5813 10.5324C14.5005 10.5484 14.4167 10.5402 14.3405 10.5086C14.2644 10.4771 14.1993 10.4237 14.1536 10.3552C14.1078 10.2867 14.0833 10.2061 14.0833 10.1237C14.0833 10.0132 14.1272 9.90721 14.2054 9.82907C14.2835 9.75093 14.3895 9.70703 14.5 9.70703ZM12 15.1237C12.1651 15.1215 12.3228 15.055 12.4396 14.9383C12.5563 14.8215 12.6228 14.6638 12.625 14.4987C12.625 13.932 12.7667 13.457 14.5 13.457C16.2333 13.457 16.375 13.932 16.375 14.4987C16.375 14.6645 16.4408 14.8234 16.5581 14.9406C16.6753 15.0579 16.8342 15.1237 17 15.1237C17.1658 15.1237 17.3247 15.0579 17.4419 14.9406C17.5592 14.8234 17.625 14.6645 17.625 14.4987C17.625 12.207 15.275 12.207 14.5 12.207C13.725 12.207 11.375 12.207 11.375 14.4987C11.3772 14.6638 11.4437 14.8215 11.5604 14.9383C11.6772 15.055 11.8349 15.1215 12 15.1237ZM7.83333 10.957H10.3333C10.4991 10.957 10.6581 10.8912 10.7753 10.774C10.8925 10.6568 10.9583 10.4978 10.9583 10.332C10.9583 10.1663 10.8925 10.0073 10.7753 9.89009C10.6581 9.77288 10.4991 9.70703 10.3333 9.70703H7.83333C7.66757 9.70703 7.5086 9.77288 7.39139 9.89009C7.27418 10.0073 7.20833 10.1663 7.20833 10.332C7.20833 10.4978 7.27418 10.6568 7.39139 10.774C7.5086 10.8912 7.66757 10.957 7.83333 10.957ZM8.66667 13.457H10.3333C10.4991 13.457 10.6581 13.3912 10.7753 13.274C10.8925 13.1568 10.9583 12.9978 10.9583 12.832C10.9583 12.6663 10.8925 12.5073 10.7753 12.3901C10.6581 12.2729 10.4991 12.207 10.3333 12.207H8.66667C8.50091 12.207 8.34194 12.2729 8.22473 12.3901C8.10752 12.5073 8.04167 12.6663 8.04167 12.832C8.04167 12.9978 8.10752 13.1568 8.22473 13.274C8.34194 13.3912 8.50091 13.457 8.66667 13.457Z" fill="#9D64CB"/>
</svg>
