<svg width="24" height="24" viewBox="0 0 24 24" fill="none" xmlns="http://www.w3.org/2000/svg">
<rect x="-0.5" y="0.5" width="23" height="23" rx="11.5" transform="matrix(-1 0 0 1 23 0)" fill="#76B800"/>
<rect x="-0.5" y="0.5" width="23" height="23" rx="11.5" transform="matrix(-1 0 0 1 23 0)" stroke="#AFCD66"/>
<path d="M7.33464 9.9987C7.33464 9.38586 7.45534 8.77903 7.68986 8.21284C7.92439 7.64666 8.26813 7.13221 8.70147 6.69887C9.13481 6.26553 9.64926 5.92178 10.2154 5.68726C10.7816 5.45274 11.3885 5.33203 12.0013 5.33203C12.6141 5.33203 13.221 5.45274 13.7872 5.68726C14.3533 5.92178 14.8678 6.26553 15.3011 6.69887C15.7345 7.13221 16.0782 7.64666 16.3127 8.21284C16.5473 8.77903 16.668 9.38586 16.668 9.9987C16.668 10.9234 16.3953 11.7834 15.9313 12.5087H15.9366L12.0013 18.6654L8.06597 12.5087H8.07064C7.59002 11.7598 7.33456 10.8886 7.33464 9.9987ZM12.0013 11.9987C12.5317 11.9987 13.0404 11.788 13.4155 11.4129C13.7906 11.0378 14.0013 10.5291 14.0013 9.9987C14.0013 9.46826 13.7906 8.95956 13.4155 8.58448C13.0404 8.20941 12.5317 7.9987 12.0013 7.9987C11.4709 7.9987 10.9622 8.20941 10.5871 8.58448C10.212 8.95956 10.0013 9.46826 10.0013 9.9987C10.0013 10.5291 10.212 11.0378 10.5871 11.4129C10.9622 11.788 11.4709 11.9987 12.0013 11.9987Z" fill="white"/>
</svg>
