<svg width="24" height="24" viewBox="0 0 24 24" fill="none" xmlns="http://www.w3.org/2000/svg">
<path d="M22 16C22 13.172 22 11.757 21.121 10.879C20.243 10 18.828 10 16 10H8C5.172 10 3.757 10 2.879 10.879C2 11.757 2 13.172 2 16C2 18.828 2 20.243 2.879 21.121C3.757 22 5.172 22 8 22H16C18.828 22 20.243 22 21.121 21.121C22 20.243 22 18.828 22 16Z" stroke="black" stroke-width="1.5"/>
<path d="M18 10V8C18 6.4087 17.3679 4.88258 16.2426 3.75736C15.1174 2.63214 13.5913 2 12 2C10.4087 2 8.88258 2.63214 7.75736 3.75736C6.63214 4.88258 6 6.4087 6 8V10" stroke="black" stroke-width="1.5" stroke-linecap="round"/>
<path d="M16 16H15.991M12.009 16H12M8.009 16H8" stroke="black" stroke-width="2" stroke-linecap="round" stroke-linejoin="round"/>
</svg>
