<svg width="24" height="24" viewBox="0 0 24 24" fill="none" xmlns="http://www.w3.org/2000/svg">
<path d="M10.9832 1.05469C11.7801 1.18594 12.6848 1.54688 13.4066 2.02969C13.9035 2.3625 14.7754 3.25781 15.0895 3.76406C16.9035 6.70781 15.9707 10.5094 13.0082 12.2203C11.091 13.3266 8.69102 13.275 6.76446 12.0891C6.25821 11.775 5.36289 10.9031 5.03008 10.4063C4.52852 9.65625 4.19571 8.8125 4.05039 7.93125C3.94258 7.275 3.98477 6.23906 4.14414 5.5875C4.70196 3.35156 6.35196 1.70156 8.58789 1.14375C9.20196 0.993751 10.3363 0.946876 10.9832 1.05469ZM9.07071 3.14062C8.58321 3.25781 7.83321 3.6375 7.47696 3.94219C6.87227 4.4625 6.42227 5.13281 6.18789 5.88281C6.02852 6.37969 6.00508 7.33594 6.13633 7.88438C6.58633 9.76875 8.27852 11.0531 10.191 10.9547C10.8332 10.9219 11.1426 10.8422 11.7426 10.5469C12.577 10.1391 13.1441 9.57188 13.5473 8.74219C13.8379 8.14688 13.9223 7.83281 13.9551 7.21406C14.016 6.1125 13.6457 5.10938 12.8816 4.28906C11.9066 3.24375 10.4629 2.80781 9.07071 3.14062Z" fill="#9D64CB"/>
<path d="M19.275 9.01785C19.7297 9.13972 20.0156 9.51004 20.0156 9.9741C20.0156 10.2928 19.9172 10.5225 19.6781 10.7663L19.4859 10.9632L20.8875 10.9772C22.2844 10.9913 22.2891 10.9913 22.5 11.1085C22.6125 11.1741 22.7719 11.3194 22.8516 11.4272C22.9781 11.6147 22.9922 11.6663 22.9922 11.9991C22.9922 12.3319 22.9781 12.3835 22.8516 12.571C22.7719 12.6788 22.6125 12.8241 22.5 12.8897C22.2891 13.0069 22.2844 13.0069 20.8922 13.021L19.4906 13.035L19.7016 13.26C19.9547 13.5272 20.0344 13.7475 20.0063 14.1132C19.9922 14.3241 19.9547 14.4366 19.8469 14.5866C19.5656 14.9897 18.9656 15.1397 18.5391 14.9147C18.2719 14.7788 16.1484 12.6319 16.0547 12.4116C15.9656 12.1866 15.9656 11.8116 16.0547 11.5866C16.1438 11.3757 18.2719 9.2241 18.5156 9.09754C18.7453 8.98035 19.0172 8.95222 19.275 9.01785Z" fill="#9D64CB"/>
<path d="M14.8887 15.0516C16.4309 15.3141 17.8465 16.3969 18.5403 17.8453C18.8778 18.5484 19.07 19.5141 19.0137 20.2172C18.9059 21.5297 18.0106 22.6031 16.7544 22.9219C16.4028 23.0109 16.2247 23.0156 10.009 23.0156C3.80748 23.0156 3.61529 23.0109 3.26373 22.9219C2.27467 22.6687 1.51998 21.9844 1.14498 21C1.01842 20.6672 1.01373 20.6062 1.01373 19.9219C1.01373 19.2844 1.03248 19.1391 1.1403 18.7266C1.21061 18.4594 1.37467 18.0375 1.52467 17.7422C2.17623 16.4437 3.26842 15.5531 4.73092 15.1312C5.08717 15.0281 5.09186 15.0281 9.86842 15.0187C12.4981 15.0141 14.7575 15.0281 14.8887 15.0516ZM5.20436 17.1281C4.68873 17.2969 4.30436 17.5359 3.91061 17.9297C3.33873 18.4969 3.04811 19.1625 3.04811 19.9078C3.04811 20.4047 3.20279 20.6719 3.61061 20.8875C3.76998 20.9719 4.01373 20.9766 9.98561 20.9766H16.2012L16.4309 20.8547C16.9137 20.6062 17.0684 20.1328 16.9044 19.3875C16.7075 18.5062 16.0981 17.7234 15.3247 17.3531C14.6169 17.0109 14.7997 17.0203 9.86842 17.0297C5.73873 17.0391 5.44811 17.0437 5.20436 17.1281Z" fill="#9D64CB"/>
</svg>
