<svg width="36" height="12" viewBox="0 0 36 12" fill="none" xmlns="http://www.w3.org/2000/svg">
<g clip-path="url(#clip0_2151_18095)">
<path d="M17.3817 3.82204C17.4022 5.487 15.9384 6.41606 14.8358 6.9685C13.7029 7.53525 13.3224 7.89872 13.3269 8.40561C13.3353 9.18127 14.2305 9.52363 15.0682 9.53693C16.5298 9.56021 17.3796 9.13125 18.0551 8.80681L18.5816 11.3397C17.9038 11.6608 16.6487 11.9408 15.3472 11.9531C12.2922 11.9531 10.2935 10.4027 10.2826 7.99876C10.2707 4.94787 14.3872 4.779 14.3591 3.41534C14.3494 3.00185 13.9656 2.5606 13.1247 2.4484C12.7084 2.39173 11.5594 2.34835 10.2566 2.96513L9.74531 0.514524C10.4459 0.252258 11.3463 0.00112534 12.4674 0.00112534C15.3429 0.00112534 17.3654 1.57269 17.3817 3.82204ZM4.83216 0.21221C5.39001 0.21221 5.86012 0.546763 6.06994 1.06016L10.434 11.7731H7.38113L6.77362 10.047H3.04313L2.69072 11.7731H0L2.34801 0.21221H4.83216ZM4.40508 3.33525L3.52406 7.6765H5.93691L4.40508 3.33525ZM21.0831 0.212355L23.4894 11.773H20.5803L18.1751 0.212066L21.0831 0.212355ZM25.3866 0.212355L28.4145 8.08103L29.6394 1.39038C29.7831 0.643487 30.3507 0.21221 30.981 0.21221H35.9307L36 0.54792C34.9838 0.774619 33.8293 1.14026 33.1298 1.53149C32.7018 1.77047 32.5797 1.97939 32.4391 2.54729L30.1192 11.7731H27.045L22.3318 0.21221L25.3866 0.212355Z" fill="url(#paint0_linear_2151_18095)"/>
</g>
<defs>
<linearGradient id="paint0_linear_2151_18095" x1="-1619.06" y1="35.9288" x2="-1654.63" y2="-1191.5" gradientUnits="userSpaceOnUse">
<stop stop-color="#222357"/>
<stop offset="1" stop-color="#254AA5"/>
</linearGradient>
<clipPath id="clip0_2151_18095">
<rect width="36" height="12" fill="white" transform="matrix(-1 0 0 1 36 0)"/>
</clipPath>
</defs>
</svg>
