<svg width="36" height="12" viewBox="0 0 36 12" fill="none" xmlns="http://www.w3.org/2000/svg">
<g clip-path="url(#clip0_2151_18136)">
<path d="M18.6183 3.82204C18.5978 5.487 20.0616 6.41606 21.1642 6.9685C22.2971 7.53525 22.6776 7.89872 22.6731 8.40561C22.6647 9.18127 21.7695 9.52363 20.9318 9.53693C19.4702 9.56021 18.6204 9.13125 17.9449 8.80681L17.4184 11.3397C18.0962 11.6608 19.3513 11.9408 20.6528 11.9531C23.7078 11.9531 25.7065 10.4027 25.7174 7.99876C25.7293 4.94787 21.6128 4.779 21.6409 3.41534C21.6506 3.00185 22.0344 2.5606 22.8753 2.4484C23.2916 2.39173 24.4406 2.34835 25.7434 2.96513L26.2547 0.514524C25.5541 0.252258 24.6537 0.00112534 23.5326 0.00112534C20.6571 0.00112534 18.6346 1.57269 18.6183 3.82204ZM31.1678 0.21221C30.61 0.21221 30.1399 0.546763 29.9301 1.06016L25.566 11.7731H28.6189L29.2264 10.047H32.9569L33.3093 11.7731H36L33.652 0.21221H31.1678ZM31.5949 3.33525L32.4759 7.6765H30.0631L31.5949 3.33525ZM14.9169 0.212355L12.5106 11.773H15.4197L17.8249 0.212066L14.9169 0.212355ZM10.6134 0.212355L7.58545 8.08103L6.36061 1.39038C6.21689 0.643487 5.64933 0.21221 5.01905 0.21221H0.0693281L0 0.54792C1.01616 0.774619 2.17069 1.14026 2.87016 1.53149C3.29822 1.77047 3.42028 1.97939 3.56091 2.54729L5.8808 11.7731H8.955L13.6682 0.21221L10.6134 0.212355Z" fill="url(#paint0_linear_2151_18136)"/>
</g>
<defs>
<linearGradient id="paint0_linear_2151_18136" x1="1655.06" y1="35.9288" x2="1690.63" y2="-1191.5" gradientUnits="userSpaceOnUse">
<stop stop-color="#222357"/>
<stop offset="1" stop-color="#254AA5"/>
</linearGradient>
<clipPath id="clip0_2151_18136">
<rect width="36" height="12" fill="white"/>
</clipPath>
</defs>
</svg>
