<svg width="21" height="24" viewBox="0 0 21 24" fill="none" xmlns="http://www.w3.org/2000/svg">
<g clip-path="url(#clip0_2145_56483)">
<path d="M15.5616 8.64508C17.0938 9.74949 18.9708 10.3993 20.9981 10.3993V6.46579C20.6144 6.46594 20.2317 6.42556 19.8563 6.3453V9.44154C17.8293 9.44154 15.9525 8.79181 14.42 7.68748V15.7147C14.42 19.7304 11.1916 22.9855 7.20943 22.9855C5.7236 22.9855 4.34252 22.5326 3.19531 21.7557C4.5047 23.1057 6.33071 23.9432 8.35081 23.9432C12.3333 23.9432 15.5618 20.6881 15.5618 16.6722V8.64508H15.5616ZM16.9701 4.67663C16.187 3.81404 15.6728 2.69928 15.5616 1.46684V0.960938H14.4797C14.752 2.52731 15.681 3.86552 16.9701 4.67663ZM5.714 18.6743C5.27648 18.0959 5.03999 17.3883 5.0411 16.6607C5.0411 14.8242 6.51774 13.335 8.33957 13.335C8.67904 13.3348 9.01651 13.3874 9.34011 13.4908V9.46935C8.96195 9.41713 8.58034 9.39487 8.19889 9.40306V12.5332C7.87513 12.4297 7.53749 12.3771 7.19786 12.3774C5.37611 12.3774 3.89955 13.8664 3.89955 15.7032C3.89955 17.002 4.63759 18.1265 5.714 18.6743Z" fill="#FF004F"/>
<path d="M14.4203 7.68739C15.9529 8.79172 17.8296 9.44146 19.8567 9.44146V6.34521C18.7252 6.10215 17.7235 5.50596 16.9704 4.67663C15.6812 3.86543 14.7524 2.52723 14.4801 0.960938H11.6382V16.6721C11.6318 18.5037 10.1577 19.9867 8.33977 19.9867C7.26861 19.9867 6.31688 19.4719 5.7142 18.6742C4.63795 18.1265 3.89983 17.002 3.89983 15.7033C3.89983 13.8666 5.37639 12.3775 7.19814 12.3775C7.54718 12.3775 7.88359 12.4323 8.19917 12.5332V9.40314C4.28693 9.48466 1.14062 12.7079 1.14062 16.6722C1.14062 18.6511 1.92411 20.445 3.19575 21.7559C4.34296 22.5326 5.72396 22.9857 7.20987 22.9857C11.1921 22.9857 14.4204 19.7303 14.4204 15.7147L14.4203 7.68739Z" fill="black"/>
<path d="M19.8577 6.34179V5.50477C18.8373 5.50627 17.8371 5.21813 16.9714 4.6733C17.7377 5.51927 18.7468 6.10265 19.8577 6.34196M14.481 0.957517C14.455 0.807854 14.4351 0.657193 14.4213 0.505903V0H10.4974V15.7113C10.4911 17.5428 9.01704 19.0258 7.19906 19.0258C6.68368 19.0266 6.17534 18.905 5.71512 18.671C6.3178 19.4686 7.26953 19.9833 8.34069 19.9833C10.1585 19.9833 11.6328 18.5004 11.6392 16.6688V0.9576L14.481 0.957517ZM8.20034 9.39972V8.5085C7.87245 8.46333 7.54189 8.44072 7.21096 8.4408C3.22834 8.4408 0 11.696 0 15.7113C0 18.2287 1.26878 20.4473 3.19684 21.7524C1.92519 20.4416 1.14171 18.6476 1.14171 16.6687C1.14171 12.7046 4.28794 9.48124 8.20034 9.39972Z" fill="#00F2EA"/>
</g>
<defs>
<clipPath id="clip0_2145_56483">
<rect width="21" height="24" fill="white"/>
</clipPath>
</defs>
</svg>
