<svg width="24" height="16" viewBox="0 0 24 16" fill="none" xmlns="http://www.w3.org/2000/svg">
<g clip-path="url(#clip0_2151_18091)">
<path d="M15.2539 2.17578H8.77109V13.8243H15.2539V2.17578Z" fill="#FF5F00"/>
<path d="M14.8417 8.00272C14.8417 5.636 13.7303 3.53675 12.0222 2.17841C13.2775 1.19056 14.8622 0.59375 16.5909 0.59375C20.6866 0.59375 24 3.90716 24 8.00272C24 12.0983 20.6866 15.4117 16.591 15.4117C14.8623 15.4117 13.2776 14.8149 12.0222 13.8269C13.7303 12.4892 14.8417 10.3694 14.8417 8.00272Z" fill="#EB001B"/>
<path d="M0.0222178 8.00272C0.0222178 12.0982 3.33562 15.4117 7.43119 15.4117C9.15994 15.4117 10.7446 14.8149 12 13.8269C10.2712 12.4687 9.18047 10.3694 9.18047 8.00272C9.18047 5.636 10.2919 3.53675 12 2.17841C10.7447 1.19056 9.15994 0.59375 7.43119 0.59375C3.33562 0.59375 0.0222178 3.92778 0.0222178 8.00272Z" fill="#F79E1B"/>
</g>
<defs>
<clipPath id="clip0_2151_18091">
<rect width="24" height="14.8125" fill="white" transform="matrix(-1 0 0 1 24 0.59375)"/>
</clipPath>
</defs>
</svg>
