<svg width="44" height="44" viewBox="0 0 44 44" fill="none" xmlns="http://www.w3.org/2000/svg">
<rect x="2" y="-2" width="40" height="40" rx="20" transform="matrix(-1 0 0 1 44 4)" fill="#D1005C"/>
<rect x="2" y="-2" width="40" height="40" rx="20" transform="matrix(-1 0 0 1 44 4)" stroke="#FFD4E7" stroke-width="4"/>
<rect width="36" height="36" rx="18" transform="matrix(-1 0 0 1 40 4)" fill="#D1005C"/>
<rect width="36" height="36" rx="18" transform="matrix(-1 0 0 1 40 4)" stroke="#FF9BC7" stroke-width="2"/>
<path d="M17.3037 13.5C14.665 13.5002 12.5 15.7094 12.5 18.4814C12.5001 21.3214 13.9351 23.7725 16.5078 26.1895C17.7147 27.3238 19.1526 28.4205 20.2959 29.2373C20.8659 29.6445 21.3599 29.9802 21.7109 30.2139C21.823 30.2885 21.9213 30.3526 22.002 30.4053C22.0861 30.3511 22.1888 30.2854 22.3066 30.208C22.6663 29.9717 23.1712 29.632 23.748 29.2227C24.9053 28.4014 26.3404 27.3075 27.4873 26.1953C29.7984 23.9541 31.4998 21.3042 31.5 18.4814C31.5 15.7179 29.3345 13.5002 26.6963 13.5C24.8555 13.5 23.2541 14.5779 22.4453 16.1699L22 17.0469L21.5547 16.1699C20.7459 14.5779 19.1445 13.5 17.3037 13.5Z" stroke="white"/>
</svg>
