<svg width="25" height="24" viewBox="0 0 25 24" fill="none" xmlns="http://www.w3.org/2000/svg">
<path d="M7.90311 4.0316C9.45816 4.0629 9.76173 4.08795 9.92281 4.17561C10.784 4.65147 10.784 5.85992 9.92281 6.31074C9.73075 6.41718 9.57587 6.42971 8.90676 6.42344L8.11995 6.41718L9.08024 7.38144L10.0343 8.35195L10.245 8.19541C10.5547 7.95122 11.4655 7.51292 12.0231 7.33761C12.7727 7.09967 13.4356 7.02454 14.3959 7.06211C16.1554 7.12472 17.6237 7.75712 18.9124 9.00313C20.3992 10.4495 21.1675 12.5596 20.9692 14.6822C20.8825 15.6339 20.6904 16.3164 20.2815 17.1554C19.3089 19.1403 17.4502 20.5366 15.2694 20.9185C14.4269 21.0625 13.163 21.0125 12.3328 20.7933C10.4308 20.2987 8.78286 18.9462 7.90311 17.1554C7.07292 15.4586 6.94282 13.5552 7.53138 11.7394C7.68007 11.3011 8.02702 10.5622 8.23146 10.2742L8.35537 10.0989L7.35172 9.08453L6.35426 8.07645V8.85912C6.35426 9.81085 6.2923 10.0738 5.98253 10.3681C5.43114 10.9003 4.50183 10.7751 4.1363 10.1239C4 9.87973 4 9.84842 4 7.34387V4.81427L4.16728 4.55755C4.25401 4.41354 4.44607 4.23196 4.58237 4.15682C4.88594 3.98151 5.10898 3.97524 7.90311 4.0316ZM12.8285 9.61049C9.63782 10.6186 8.50406 14.413 10.6291 16.9989C11.2115 17.7002 12.054 18.2136 13.0329 18.4516C13.4728 18.558 13.702 18.5705 14.2844 18.5455C15.0836 18.5079 15.6102 18.3702 16.2669 18.0258C17.6919 17.2744 18.6212 15.6965 18.6212 14.031C18.6212 11.8082 17.0228 9.87973 14.8544 9.48526C14.3587 9.39134 13.3117 9.46021 12.8285 9.61049Z" fill="#151515"/>
</svg>
