<svg width="60" height="60" viewBox="0 0 60 60" fill="none" xmlns="http://www.w3.org/2000/svg">
<path d="M34.375 25.625L26.875 33.125M26.875 25.625L34.375 33.125M17.7675 42.3L10.0675 50M12.5 28.75C12.5 33.7228 14.4754 38.4919 17.9917 42.0083C21.5081 45.5246 26.2772 47.5 31.25 47.5C36.2228 47.5 40.9919 45.5246 44.5083 42.0083C48.0246 38.4919 50 33.7228 50 28.75C50 23.7772 48.0246 19.0081 44.5083 15.4917C40.9919 11.9754 36.2228 10 31.25 10C26.2772 10 21.5081 11.9754 17.9917 15.4917C14.4754 19.0081 12.5 23.7772 12.5 28.75Z" stroke="#9D64CB" stroke-width="2" stroke-linecap="round" stroke-linejoin="round"/>
</svg>
