
<svg width="233" height="175" viewBox="0 0 233 175" fill="none" xmlns="http://www.w3.org/2000/svg">
<path d="M63.278 82.2859C71.3215 79.7223 73.115 71.4192 68.3454 60.2966C63.5758 49.1739 52.5466 43.0269 49.5657 50.3449C46.5848 57.6623 44.7966 88.1766 63.278 82.2859Z" fill="#E1E3E4"/>
<path d="M62.7565 26.1964C59.4444 22.7638 52.2485 32.3434 55.826 34.7579C59.403 37.173 66.7809 30.3678 62.7565 26.1964Z" fill="#E1E3E4"/>
<path d="M184.378 67.4685C177.339 64.5503 171.211 73.6155 181.819 76.2498C192.426 78.8841 194.439 71.6394 184.378 67.4685Z" fill="#E1E3E4"/>
<path d="M201.144 131.597L55.3775 130.192C55.3775 130.192 35.7708 110.205 50.9799 96.3444C51.0994 96.234 51.223 96.1236 51.3467 96.0132C53.9677 93.7281 57.5611 91.6108 62.3833 89.7945C69.0309 87.2839 73.3621 84.778 76.0362 82.1968C76.1466 82.0864 76.257 81.9803 76.3632 81.8699C85.0611 72.9903 74.4847 63.2271 71.1434 49.7329C70.5293 47.2621 70.2597 44.7165 70.3302 42.1443C70.3302 41.9941 70.3345 41.8481 70.3478 41.6979C71.0282 24.9336 85.9852 7.19683 113.583 1.89269C113.755 1.85712 113.932 1.82209 114.105 1.79555C123.051 0.129416 133.304 -0.228865 144.823 1.16339C144.995 1.1809 145.168 1.19895 145.34 1.22496C149.336 1.72018 153.481 2.42719 157.773 3.36402C172.592 6.59916 180.641 13.6225 184.177 21.8566C184.239 22.0026 184.301 22.1485 184.363 22.2987C189.255 34.303 184.743 48.7605 177.707 57.8035C177.618 57.9229 177.526 58.0376 177.433 58.1528C175.873 60.1108 174.198 61.7993 172.478 63.1384C167.97 66.648 165.375 69.8656 164.438 72.725C164.389 72.8661 164.345 73.0121 164.31 73.1538C162.542 79.58 169.269 84.1108 181.318 85.9182C181.485 85.9447 181.654 85.9712 181.821 85.9935C199.805 88.5429 217.241 112.304 201.144 131.597Z" fill="#E1E3E4"/>
<path d="M181.887 86.201C173.449 88.9765 166.117 90.3645 159.818 90.3645C153.264 90.3645 147.823 88.8618 143.398 85.8607C132.888 78.7227 127.447 63.1208 125.763 35.2753C124.861 20.3761 120.773 9.16276 113.582 1.89205C113.755 1.85649 113.931 1.82146 114.104 1.79492C121.238 9.14949 125.303 20.3846 126.205 35.2487C127.88 62.9435 133.259 78.4393 143.651 85.4934C152.132 91.2525 164.455 91.3942 181.317 85.9175C181.463 85.8735 181.604 85.8294 181.75 85.7806L181.82 85.9929L181.887 86.201Z" fill="white"/>
<path d="M164.437 72.7247C164.388 72.8659 164.344 73.0118 164.309 73.1535C162.634 72.4417 160.985 71.3897 159.434 69.843C153.105 63.5362 150.028 50.6254 150.028 30.3648C150.028 18.2809 148.282 8.50863 144.822 1.16309C144.994 1.1806 145.167 1.19865 145.339 1.22466C148.751 8.60576 150.47 18.3515 150.47 30.3648C150.47 50.5017 153.507 63.3106 159.747 69.5288C161.233 71.0097 162.819 72.0309 164.437 72.7247Z" fill="white"/>
<path d="M159.261 122.254C154.859 122.912 150.311 123.593 145.749 123.593C131.181 123.593 116.486 116.654 105.816 79.9202C98.6783 55.3549 84.2696 46.2673 73.4411 42.9701C72.389 42.6474 71.3503 42.3777 70.3296 42.1437C70.3296 41.9934 70.3338 41.8475 70.3471 41.6973C71.4034 41.9313 72.4777 42.2143 73.569 42.546C84.5037 45.8788 99.0493 55.0455 106.236 79.7965C112.428 101.109 120.468 114.17 130.806 119.717C140.053 124.68 150.222 123.16 159.2 121.816L159.261 122.254Z" fill="white"/>
<path d="M95.4343 126.443L95.0054 126.337C98.36 112.795 96.6715 101.59 89.9757 93.0469C86.2676 88.3134 81.326 84.7996 76.0356 82.1961C76.146 82.0857 76.2564 81.9795 76.3626 81.8691C81.6529 84.4944 86.5988 88.0257 90.3207 92.7731C97.1052 101.432 98.8244 112.76 95.4343 126.443Z" fill="white"/>
<path d="M59.8988 123.442L59.4832 123.287C62.997 113.661 62.7141 106.293 58.6393 101.391C56.6727 99.0265 53.963 97.4177 50.9795 96.3439C51.0989 96.2335 51.2226 96.1231 51.3463 96.0127C54.3165 97.1088 57.0082 98.7351 58.9795 101.109C63.1605 106.138 63.4699 113.652 59.8988 123.442Z" fill="white"/>
<path d="M177.706 57.8028C177.617 57.9223 177.525 58.0369 177.432 58.1521C173.732 55.7832 171.483 52.8219 170.714 49.3081C168.672 40.0045 177.569 28.7248 184.177 21.8564C184.239 22.0024 184.3 22.1484 184.362 22.2986C177.83 29.1054 169.158 40.1505 171.143 49.2153C171.889 52.6229 174.086 55.4913 177.706 57.8028Z" fill="white"/>
<path d="M232.6 156.587C232.6 153.315 180.556 150.664 116.358 150.664C52.1592 150.664 0.115723 153.316 0.115723 156.587C0.115723 159.857 52.1592 162.509 116.358 162.509C118.684 162.509 120.993 162.505 123.286 162.498C127.227 164.772 144.868 166.487 166.039 166.487C190.106 166.487 209.617 164.271 209.617 161.537C209.617 161.083 209.076 160.644 208.068 160.226C223.439 159.222 232.6 157.959 232.6 156.587Z" fill="#B5B9BB"/>
<path d="M104.759 174.443C116.703 174.443 126.385 172.662 126.385 170.465C126.385 168.268 116.703 166.487 104.759 166.487C92.8152 166.487 83.1328 168.268 83.1328 170.465C83.1328 172.662 92.8152 174.443 104.759 174.443Z" fill="#B5B9BB"/>
<path d="M68.3551 166.487C63.569 166.487 59.6895 167.378 59.6895 168.476C59.6895 169.575 63.569 170.465 68.3551 170.465C73.1412 170.465 77.0207 169.574 77.0207 168.476C77.0212 167.378 73.1412 166.487 68.3551 166.487Z" fill="#B5B9BB"/>
<path d="M92.8408 99.042H67.0298V150.664H97.3403V99.042H92.8408Z" fill="#BC5C46"/>
<path d="M168.834 83.1768H124.068V134.799H176.637V83.1768H168.834Z" fill="#A8423D"/>
<path d="M206.268 105.199H137.359V155.164H206.268V105.199Z" fill="#BC5C46"/>
<path d="M206.267 105.199H172.879V155.164H206.267V105.199Z" fill="#DB7D58"/>
<path d="M172.879 105.199L182.114 116.95H214.792L206.267 105.199H172.879Z" fill="#EFA96F"/>
<path d="M91.4199 111.119H54.0059V155.164H91.4199V111.119Z" fill="#DB7D58"/>
<path d="M59.6892 111.119H26.064V155.164H59.6892V111.119Z" fill="#EFA96F"/>
<path d="M59.6892 111.119L50.3357 122.781H17.125L26.064 111.119H59.6892Z" fill="#F9BC80"/>
<path d="M59.6895 111.119L66.6751 122.781H98.4655L91.4203 111.119H59.6895Z" fill="#EFA96F"/>
<path d="M187.798 122.781H139.491V155.163H187.798V122.781Z" fill="#DB7D58"/>
<path d="M187.797 122.781H163.644V155.163H187.797V122.781Z" fill="#EFA96F"/>
<path d="M180.338 129.945H172.642C171.661 129.945 170.866 129.149 170.866 128.169C170.866 127.188 171.661 126.393 172.642 126.393H180.338C181.319 126.393 182.114 127.188 182.114 128.169C182.114 129.149 181.319 129.945 180.338 129.945Z" fill="#DB7D58"/>
<path d="M105.898 88.6988C105.898 88.6988 106.294 91.1611 104.644 97.0963C102.995 103.032 102.508 108.882 104.055 111.535C105.602 114.187 125.933 112.419 125.933 112.419C125.933 112.419 126.597 104.684 123.134 98.0539C119.672 91.4238 118.42 88.6982 118.42 88.6982H105.898V88.6988Z" fill="#C4ABA5"/>
<path d="M147.778 93.5957H83.1323V155.163H147.778V93.5957Z" fill="#EFA96F"/>
<path d="M128.596 105.197C128.596 106.245 128.171 107.191 127.486 107.88C127.053 108.313 126.518 108.64 125.917 108.822C125.568 108.932 125.192 108.989 124.808 108.989H106.103C104.901 108.989 103.831 108.433 103.137 107.557C102.62 106.908 102.311 106.09 102.311 105.197C102.311 104.149 102.735 103.204 103.42 102.519C103.438 102.501 103.456 102.483 103.478 102.465C104.158 101.812 105.082 101.409 106.103 101.409H124.808C126.903 101.409 128.596 103.107 128.596 105.197Z" fill="#A8423D"/>
<path d="M120.998 85.2724C120.503 90.2448 117.794 91.6238 111.274 91.7384C104.755 91.8446 103.54 88.972 103.319 83.8356C103.256 82.4476 103.376 81.0909 103.61 79.8579C104.149 76.9672 105.303 74.7661 106.231 74.4566C106.372 74.4078 106.505 74.3993 106.633 74.4433C107.959 74.8855 108.512 78.421 108.512 78.421C112.996 75.5851 116.357 78.8632 116.357 78.8632C116.357 78.8632 117.948 74.3462 118.902 74.386C118.942 74.386 118.973 74.395 119.009 74.4125C119.592 74.6732 120.405 76.8743 120.825 79.6944C121.078 81.4232 121.188 83.3855 120.998 85.2724Z" fill="#DBBEB6"/>
<path d="M109.545 84.0021C109.838 85.2176 109.86 86.6263 107.898 86.6263C105.79 86.6263 105.715 85.328 106.043 84.0021C106.315 82.897 106.827 81.958 107.794 81.958C108.761 81.958 109.278 82.898 109.545 84.0021Z" fill="white"/>
<path d="M109.16 84.9271C109.16 85.7912 108.653 86.4918 108.028 86.4918C107.403 86.4918 106.896 85.7912 106.896 84.9271C106.896 84.0629 107.403 83.3623 108.028 83.3623C108.653 83.3623 109.16 84.0629 109.16 84.9271Z" fill="#353332"/>
<path d="M117.519 84.0021C117.813 85.2176 117.834 86.6263 115.873 86.6263C113.765 86.6263 113.69 85.328 114.017 84.0021C114.29 82.897 114.801 81.958 115.768 81.958C116.735 81.958 117.252 82.898 117.519 84.0021Z" fill="white"/>
<path d="M111.938 87.3352C110.979 87.3134 110.7 88.9344 111.915 88.9711C113.131 89.0082 113.558 87.3723 111.938 87.3352Z" fill="#B29790"/>
<path d="M114.479 90.6316C114.436 90.6316 114.394 90.6156 114.362 90.5833C113.725 89.9469 113.048 89.6454 112.353 89.6502C111.229 89.6783 110.411 90.5679 110.403 90.5769C110.342 90.6448 110.237 90.6507 110.169 90.5891C110.101 90.5281 110.096 90.4235 110.157 90.355C110.194 90.3142 111.073 89.3524 112.341 89.3184C113.135 89.3136 113.892 89.6443 114.596 90.3481C114.661 90.4129 114.661 90.518 114.596 90.5827C114.564 90.6156 114.521 90.6316 114.479 90.6316Z" fill="#B29790"/>
<path d="M99.0463 91.1286C95.9587 91.3723 94.111 93.0437 95.9523 94.0751C97.7941 95.1064 103.296 94.9588 102.313 93.2645C101.33 91.5703 100.613 91.005 99.0463 91.1286Z" fill="#DBBEB6"/>
<path d="M126.155 91.1286C123.067 91.3723 121.219 93.0437 123.061 94.0751C124.903 95.1064 130.404 94.9588 129.421 93.2645C128.438 91.5703 127.721 91.005 126.155 91.1286Z" fill="#DBBEB6"/>
<path d="M116.899 84.9271C116.899 85.7912 116.393 86.4918 115.767 86.4918C115.142 86.4918 114.636 85.7912 114.636 84.9271C114.636 84.0629 115.142 83.3623 115.767 83.3623C116.393 83.3623 116.899 84.0629 116.899 84.9271Z" fill="#353332"/>
<path d="M107.151 79.0494C107.151 79.0494 104.852 78.9655 103.61 79.8583C104.15 76.9676 105.303 74.7665 106.231 74.457C106.505 74.9873 106.766 75.6502 106.899 76.4326C107.261 78.5674 107.151 79.0494 107.151 79.0494Z" fill="#EFD9D3"/>
<path d="M120.826 79.6951C119.566 79.3591 117.94 79.7482 117.94 79.7482C117.851 76.5529 118.625 74.8862 118.904 74.3867C118.943 74.3867 118.974 74.3957 119.01 74.4133C119.592 74.6739 120.406 76.875 120.826 79.6951Z" fill="#EFD9D3"/>
<path d="M125.918 108.822C125.568 108.932 125.192 108.989 124.808 108.989H106.103C104.901 108.989 103.832 108.433 103.138 107.557V107.522C103.098 106.655 103.125 105.719 103.208 104.724C103.266 103.999 103.359 103.243 103.478 102.465C104.158 101.812 105.083 101.409 106.103 101.409H124.539C124.64 101.714 124.733 102.019 124.821 102.324C125.135 103.42 125.37 104.495 125.542 105.511C125.612 105.922 125.67 106.324 125.718 106.713C125.816 107.469 125.878 108.176 125.918 108.822Z" fill="#C4ABA5"/>
<path d="M120.362 108.989H108.03C108.03 108.989 107.628 104.671 108.72 101.409H118.965C120.017 103.31 120.556 105.895 120.362 108.989Z" fill="#EFD9D3"/>
<path opacity="0.35" d="M125.542 105.511C123.809 105.245 116.689 104.167 116.432 104.167C116.141 104.167 124.485 102.399 124.821 102.324C125.135 103.42 125.37 104.494 125.542 105.511Z" fill="#B29790"/>
<path opacity="0.35" d="M125.918 108.821C125.568 108.932 125.192 108.989 124.808 108.989H120.362L125.493 107.999L125.719 106.713C125.816 107.469 125.878 108.176 125.918 108.821Z" fill="#B29790"/>
<path opacity="0.35" d="M111.496 106.231C111.341 106.231 106.143 107.044 103.138 107.521C103.098 106.655 103.125 105.718 103.208 104.724C106.399 105.289 111.315 106.169 111.496 106.231Z" fill="#B29790"/>
<path d="M103.61 90.6319C103.587 90.6319 103.563 90.6271 103.541 90.6165C103.458 90.5782 103.422 90.4795 103.46 90.3967C104.8 87.5071 107.966 88.2534 107.998 88.2608C108.086 88.2831 108.141 88.3728 108.119 88.4615C108.097 88.5506 108.008 88.6027 107.918 88.5825C107.799 88.5538 104.985 87.8962 103.761 90.5352C103.733 90.5963 103.673 90.6319 103.61 90.6319Z" fill="#B29790"/>
<path d="M106.191 91.5524C106.185 91.5524 106.179 91.5519 106.172 91.5514C106.082 91.5408 106.016 91.4585 106.026 91.3677C106.184 89.9946 108.042 89.2732 108.121 89.243C108.206 89.2111 108.302 89.2536 108.334 89.3391C108.367 89.4245 108.324 89.5201 108.239 89.553C108.221 89.5593 106.489 90.2334 106.356 91.4059C106.346 91.4903 106.275 91.5524 106.191 91.5524Z" fill="#B29790"/>
<path d="M120.66 90.7459C120.683 90.7459 120.707 90.7411 120.729 90.7305C120.813 90.6923 120.848 90.5935 120.81 90.5107C119.47 87.6211 116.304 88.368 116.272 88.3749C116.184 88.3971 116.13 88.4869 116.151 88.5755C116.173 88.6641 116.262 88.7167 116.352 88.6965C116.471 88.6679 119.286 88.0102 120.509 90.6493C120.538 90.7103 120.598 90.7459 120.66 90.7459Z" fill="#B29790"/>
<path d="M118.078 91.6667C118.085 91.6667 118.091 91.6662 118.097 91.6656C118.188 91.655 118.254 91.5727 118.243 91.482C118.086 90.1088 116.228 89.3875 116.149 89.3572C116.064 89.3254 115.968 89.3679 115.936 89.4533C115.903 89.5388 115.946 89.6348 116.031 89.6672C116.049 89.6736 117.781 90.3472 117.914 91.5202C117.923 91.6041 117.995 91.6667 118.078 91.6667Z" fill="#B29790"/>
<path d="M108.568 84.2914C108.568 84.5366 108.369 84.7351 108.124 84.7351C107.879 84.7351 107.68 84.5366 107.68 84.2914C107.68 84.0462 107.879 83.8477 108.124 83.8477C108.369 83.8477 108.568 84.0462 108.568 84.2914Z" fill="white"/>
<path d="M115.899 84.2914C115.899 84.5366 115.701 84.7351 115.455 84.7351C115.21 84.7351 115.012 84.5366 115.012 84.2914C115.012 84.0462 115.21 83.8477 115.455 83.8477C115.7 83.8477 115.899 84.0462 115.899 84.2914Z" fill="white"/>
<path d="M107.788 85.5981C107.882 85.6766 107.894 85.8168 107.815 85.9107C107.736 86.0047 107.596 86.0169 107.502 85.9378C107.408 85.8587 107.396 85.7191 107.475 85.6252C107.554 85.5312 107.694 85.519 107.788 85.5981Z" fill="white"/>
<path d="M116.29 85.5981C116.384 85.6766 116.396 85.8168 116.317 85.9107C116.238 86.0047 116.099 86.0169 116.005 85.9378C115.911 85.8592 115.898 85.7191 115.977 85.6252C116.056 85.5312 116.196 85.519 116.29 85.5981Z" fill="white"/>
<path d="M142.103 146.93H131.085C130.231 146.93 129.539 146.237 129.539 145.383C129.539 144.528 130.231 143.836 131.085 143.836H142.103C142.958 143.836 143.65 144.529 143.65 145.383C143.65 146.237 142.957 146.93 142.103 146.93Z" fill="#F9E0CD"/>
<path d="M142.877 149.582H130.311C129.884 149.582 129.538 149.236 129.538 148.809C129.538 148.381 129.884 148.035 130.311 148.035H142.877C143.304 148.035 143.65 148.381 143.65 148.809C143.65 149.236 143.304 149.582 142.877 149.582Z" fill="#F9E0CD"/>
<path d="M104.939 130.519H101.885L101.446 131.597H99.7988L102.594 124.739H104.241L107.036 131.597H105.379L104.939 130.519ZM104.43 129.271L103.412 126.765L102.394 129.271H104.43Z" fill="#DB7D58"/>
<path d="M107.905 124.739H110.361C112.667 124.739 114.304 126.156 114.304 128.163C114.304 130.17 112.667 131.597 110.361 131.597H107.905V124.739ZM110.551 130.259C111.859 130.259 112.787 129.391 112.787 128.163C112.787 126.945 111.859 126.076 110.551 126.076H109.373V130.259H110.551V130.259Z" fill="#DB7D58"/>
<path d="M115.173 128.163C115.173 126.236 116.851 124.619 118.817 124.619C120.803 124.619 122.46 126.236 122.46 128.163C122.46 130.09 120.803 131.717 118.817 131.717C116.85 131.717 115.173 130.09 115.173 128.163ZM120.953 128.163C120.953 126.975 119.974 125.957 118.817 125.957C117.669 125.957 116.69 126.975 116.69 128.163C116.69 129.361 117.669 130.379 118.817 130.379C119.974 130.379 120.953 129.362 120.953 128.163Z" fill="#DB7D58"/>
<path d="M123.549 124.739H126.634C128.122 124.739 129.22 125.697 129.22 127.055C129.22 128.412 128.122 129.371 126.634 129.371H125.017V131.597H123.549V124.739ZM126.474 128.023C127.203 128.023 127.703 127.644 127.703 127.055C127.703 126.466 127.203 126.086 126.474 126.086H125.017V128.023L126.474 128.023Z" fill="#DB7D58"/>
<path d="M131.916 126.067H129.779V124.739H135.529V126.067H133.392V131.597H131.916V126.067Z" fill="#DB7D58"/>
<path d="M22.8925 158.577C22.8925 158.577 20.8866 154.843 22.1095 154.314C23.3325 153.785 24.6324 156.445 24.6324 156.445C24.6324 156.445 23.8495 149.094 25.0671 148.311C26.2847 147.528 28.2858 158.576 28.2858 158.576H22.8925V158.577Z" fill="#263238"/>
<path d="M196.87 158.577C196.87 158.577 194.865 154.843 196.088 154.314C197.31 153.785 198.61 156.445 198.61 156.445C198.61 156.445 197.827 149.094 199.045 148.311C200.263 147.528 202.264 158.576 202.264 158.576H196.87V158.577Z" fill="#263238"/>
<path d="M86.1936 158.576C86.1936 158.576 83.9043 152.773 85.3003 151.95C86.6957 151.127 88.1793 155.263 88.1793 155.263C88.1793 155.263 87.2859 143.836 88.6755 142.618C90.0651 141.401 92.3486 158.576 92.3486 158.576H86.1936Z" fill="#263238"/>
<path d="M161.635 161.999C161.635 161.999 163.462 156.65 165.289 156.389C167.116 156.127 166.333 161.086 166.333 161.086C166.333 161.086 169.658 151.803 170.866 151.356C172.074 150.908 172.878 161.478 172.878 161.478C172.878 161.478 174.292 158.547 174.945 158.577C175.597 158.607 175.72 161.999 175.72 161.999H161.635Z" fill="#263238"/>
</svg>
