<svg width="60" height="60" viewBox="0 0 60 60" fill="none" xmlns="http://www.w3.org/2000/svg">
<g clip-path="url(#clip0_2123_26323)">
<path d="M50.1562 30.9131V6.32812C50.1544 4.65037 49.4871 3.04187 48.3007 1.85552C47.1144 0.66917 45.5059 0.00186107 43.8281 0L6.32812 0C4.65037 0.00186107 3.04187 0.66917 1.85552 1.85552C0.66917 3.04187 0.00186107 4.65037 0 6.32812L0 42.8906C0.00186107 44.5684 0.66917 46.1769 1.85552 47.3632C3.04187 48.5496 4.65037 49.2169 6.32812 49.2188H30.6094C31.3298 51.6772 32.6679 53.9101 34.496 55.7048C36.3242 57.4994 38.5815 58.796 41.0528 59.4708C43.5242 60.1456 46.1272 60.1762 48.6137 59.5597C51.1002 58.9432 53.3875 57.7002 55.2573 55.9491C57.1272 54.1979 58.5174 51.9971 59.2955 49.5563C60.0736 47.1154 60.2135 44.516 59.7021 42.0058C59.1906 39.4956 58.0448 37.1581 56.3737 35.2163C54.7027 33.2745 52.5622 31.7931 50.1562 30.9131ZM18.2812 1.40625H31.875V13.1953C31.8755 13.3265 31.8392 13.4551 31.7704 13.5667C31.7016 13.6784 31.603 13.7685 31.4856 13.8271C31.3682 13.8856 31.2368 13.9101 31.1063 13.8979C30.9757 13.8856 30.8512 13.8371 30.7467 13.7578L26.3531 10.4217C25.9858 10.1447 25.5382 9.99491 25.0781 9.99491C24.618 9.99491 24.1705 10.1447 23.8031 10.4217L19.4095 13.7555C19.3052 13.8346 19.1809 13.8831 19.0506 13.8954C18.9202 13.9078 18.789 13.8835 18.6717 13.8252C18.5544 13.767 18.4557 13.6772 18.3867 13.5659C18.3178 13.4546 18.2812 13.3263 18.2812 13.1953V1.40625ZM30.2681 47.8125H6.32812C5.02322 47.811 3.77219 47.292 2.84948 46.3693C1.92677 45.4466 1.40774 44.1955 1.40625 42.8906V6.32812C1.40774 5.02322 1.92677 3.77219 2.84948 2.84948C3.77219 1.92677 5.02322 1.40774 6.32812 1.40625H16.875V13.1953C16.875 13.588 16.9846 13.973 17.1916 14.3068C17.3985 14.6406 17.6945 14.91 18.0463 15.0846C18.398 15.2593 18.7916 15.3323 19.1826 15.2954C19.5736 15.2585 19.9465 15.1132 20.2594 14.8758L24.653 11.5425C24.7753 11.4497 24.9246 11.3994 25.0781 11.3994C25.2317 11.3994 25.381 11.4497 25.5033 11.5425L29.8969 14.8758C30.2097 15.1132 30.5827 15.2585 30.9737 15.2954C31.3647 15.3323 31.7582 15.2593 32.11 15.0846C32.4617 14.91 32.7578 14.6406 32.9647 14.3068C33.1716 13.973 33.2813 13.588 33.2812 13.1953V1.40625H43.8281C45.133 1.40774 46.3841 1.92677 47.3068 2.84948C48.2295 3.77219 48.7485 5.02322 48.75 6.32812V30.4748C46.3016 29.8411 43.7327 29.837 41.2823 30.4629C38.8319 31.0888 36.5797 32.3244 34.7352 34.0547C32.8907 35.785 31.5138 37.9538 30.7328 40.3593C29.9518 42.7647 29.7919 45.3287 30.2681 47.8125ZM45 58.5938C42.3114 58.5938 39.6832 57.7965 37.4477 56.3028C35.2122 54.8091 33.4699 52.686 32.441 50.2021C31.4121 47.7182 31.1429 44.9849 31.6674 42.348C32.192 39.7111 33.4866 37.2889 35.3878 35.3878C37.2889 33.4866 39.7111 32.192 42.348 31.6674C44.9849 31.1429 47.7182 31.4121 50.2021 32.441C52.686 33.4699 54.8091 35.2122 56.3028 37.4477C57.7965 39.6832 58.5938 42.3114 58.5938 45C58.5895 48.604 57.156 52.0592 54.6076 54.6076C52.0592 57.156 48.604 58.5895 45 58.5938Z" fill="#9D64CB"/>
<path d="M16.6406 35.625H8.20312C7.64387 35.6256 7.10771 35.8481 6.71226 36.2435C6.31681 36.639 6.09437 37.1751 6.09375 37.7344V40.5469C6.09437 41.1061 6.31681 41.6423 6.71226 42.0377C7.10771 42.4332 7.64387 42.6556 8.20312 42.6562H16.6406C17.1999 42.6556 17.736 42.4332 18.1315 42.0377C18.5269 41.6423 18.7494 41.1061 18.75 40.5469V37.7344C18.7494 37.1751 18.5269 36.639 18.1315 36.2435C17.736 35.8481 17.1999 35.6256 16.6406 35.625ZM17.3438 40.5469C17.3438 40.7334 17.2697 40.9122 17.1378 41.0441C17.0059 41.1759 16.8271 41.25 16.6406 41.25H8.20312C8.01664 41.25 7.8378 41.1759 7.70594 41.0441C7.57408 40.9122 7.5 40.7334 7.5 40.5469V37.7344C7.5 37.5479 7.57408 37.3691 7.70594 37.2372C7.8378 37.1053 8.01664 37.0312 8.20312 37.0312H16.6406C16.8271 37.0312 17.0059 37.1053 17.1378 37.2372C17.2697 37.3691 17.3438 37.5479 17.3438 37.7344V40.5469ZM50.7863 39.1997C50.2571 38.6753 49.5423 38.3812 48.7973 38.3812C48.0524 38.3812 47.3376 38.6753 46.8084 39.1997L44.9859 41.0227L43.1916 39.2288C42.6627 38.7083 41.9497 38.418 41.2077 38.4209C40.4658 38.4238 39.755 38.7198 39.2303 39.2444C38.7056 39.769 38.4095 40.4797 38.4064 41.2216C38.4033 41.9635 38.6935 42.6767 39.2137 43.2056L41.0081 45L39.2137 46.7944C38.9526 47.0556 38.7454 47.3656 38.6041 47.7069C38.4628 48.0481 38.3901 48.4139 38.3901 48.7832C38.3901 49.1526 38.4629 49.5183 38.6042 49.8595C38.7456 50.2008 38.9528 50.5108 39.214 50.772C39.4752 51.0331 39.7852 51.2403 40.1265 51.3816C40.4677 51.5229 40.8335 51.5956 41.2028 51.5956C41.5722 51.5956 41.9379 51.5228 42.2791 51.3815C42.6204 51.2401 42.9304 51.0329 43.1916 50.7717L44.9859 48.9773L46.8084 50.8003C47.0688 51.065 47.379 51.2755 47.7211 51.4197C48.0632 51.5639 48.4305 51.639 48.8018 51.6405C49.173 51.6421 49.5409 51.5701 49.8842 51.4288C50.2275 51.2875 50.5395 51.0795 50.802 50.817C51.0646 50.5545 51.2726 50.2427 51.414 49.8994C51.5554 49.5561 51.6275 49.1882 51.626 48.817C51.6245 48.4457 51.5496 48.0784 51.4055 47.7362C51.2613 47.3941 51.0509 47.0838 50.7863 46.8234L48.9628 45L50.7863 43.1766C51.3128 42.6488 51.6085 41.9337 51.6085 41.1881C51.6085 40.4426 51.3128 39.7275 50.7863 39.1997ZM49.792 42.1823L47.4713 44.5027C47.4059 44.568 47.3541 44.6455 47.3187 44.7308C47.2834 44.8162 47.2652 44.9076 47.2652 45C47.2652 45.0924 47.2834 45.1838 47.3187 45.2692C47.3541 45.3545 47.4059 45.432 47.4713 45.4973L49.792 47.8177C50.0557 48.0815 50.2038 48.4392 50.2037 48.8122C50.2036 49.1852 50.0554 49.5429 49.7916 49.8066C49.5278 50.0702 49.17 50.2183 48.797 50.2182C48.424 50.2182 48.0663 50.0699 47.8027 49.8061L45.4828 47.4844C45.351 47.3526 45.1721 47.2785 44.9857 47.2785C44.7993 47.2785 44.6204 47.3526 44.4886 47.4844L42.1973 49.7752C41.9337 50.039 41.576 50.1872 41.203 50.1873C40.83 50.1874 40.4722 50.0393 40.2084 49.7756C39.9446 49.5119 39.7964 49.1543 39.7963 48.7813C39.7962 48.4083 39.9443 48.0505 40.208 47.7867L42.4997 45.4955C42.565 45.4302 42.6169 45.3526 42.6522 45.2673C42.6876 45.182 42.7058 45.0905 42.7058 44.9981C42.7058 44.9058 42.6876 44.8143 42.6522 44.7289C42.6169 44.6436 42.565 44.5661 42.4997 44.5008L40.208 42.2095C39.9443 41.9457 39.7962 41.588 39.7963 41.215C39.7964 40.842 39.9446 40.4843 40.2084 40.2206C40.4722 39.9569 40.83 39.8089 41.203 39.8089C41.576 39.809 41.9337 39.9573 42.1973 40.2211L44.4886 42.5156C44.6204 42.6474 44.7993 42.7215 44.9857 42.7215C45.1721 42.7215 45.351 42.6474 45.4828 42.5156L47.8027 40.1958C47.9332 40.0652 48.0882 39.9615 48.2588 39.8908C48.4295 39.8201 48.6123 39.7837 48.797 39.7836C48.9817 39.7836 49.1646 39.8199 49.3352 39.8906C49.5059 39.9612 49.6609 40.0647 49.7916 40.1953C49.9222 40.3259 50.0258 40.4809 50.0965 40.6515C50.1673 40.8221 50.2037 41.005 50.2037 41.1897C50.2038 41.3744 50.1674 41.5572 50.0968 41.7279C50.0261 41.8985 49.9226 42.0536 49.792 42.1842V42.1823Z" fill="#9D64CB"/>
</g>
<defs>
<clipPath id="clip0_2123_26323">
<rect width="60" height="60" fill="white"/>
</clipPath>
</defs>
</svg>
