<svg width="24" height="18" viewBox="0 0 24 18" fill="none" xmlns="http://www.w3.org/2000/svg">
<g clip-path="url(#clip0_2146_57024)">
<mask id="mask0_2146_57024" style="mask-type:luminance" maskUnits="userSpaceOnUse" x="0" y="0" width="24" height="18">
<path d="M0 0H24V18H0V0Z" fill="white"/>
</mask>
<g mask="url(#mask0_2146_57024)">
<path fill-rule="evenodd" clip-rule="evenodd" d="M-0.125 -0.8125H26.2112V19.925H-0.125V-0.8125Z" fill="#EF2D29"/>
<path fill-rule="evenodd" clip-rule="evenodd" d="M6.54688 11.8984H26.6356V19.6872H6.54688V11.8984Z" fill="#009025"/>
<path fill-rule="evenodd" clip-rule="evenodd" d="M6.54672 -1.32812H27.7305V5.79688H6.54297L6.54672 -1.32812Z" fill="white"/>
<path d="M5.2453 2.60938H4.38489C4.33844 2.60938 4.30078 2.64453 4.30078 2.68789V3.09645C4.30078 3.13981 4.33844 3.17497 4.38489 3.17497H5.2453C5.29175 3.17497 5.3294 3.13981 5.3294 3.09645V2.68789C5.3294 2.64453 5.29175 2.60938 5.2453 2.60938Z" fill="white" stroke="#EF2D28" stroke-width="0.0328414"/>
<path d="M5.22426 2.63281H4.40777C4.36378 2.63281 4.32812 2.66528 4.32812 2.70534V3.0793C4.32812 3.11935 4.36378 3.15182 4.40777 3.15182H5.22426C5.26825 3.15182 5.3039 3.11935 5.3039 3.0793V2.70534C5.3039 2.66528 5.26825 2.63281 5.22426 2.63281Z" fill="white" stroke="#EF2D28" stroke-width="0.0304956"/>
<path fill-rule="evenodd" clip-rule="evenodd" d="M4.78027 2.77344L4.82944 2.77538L4.83147 2.79797L4.87202 2.81861L4.90345 2.79252L4.94147 2.81316L4.90599 2.83574L4.91461 2.86689L4.95921 2.86494V2.90583L4.92373 2.90427L4.90548 2.92997L4.94603 2.95918L4.91461 2.98332L4.88064 2.95762L4.83147 2.96774L4.834 3.00552L4.78027 3.00941L4.77317 2.97281L4.72856 2.95412L4.70372 2.97982L4.6657 2.96074L4.68801 2.93153L4.66114 2.91284H4.62312L4.62109 2.85949L4.65911 2.863L4.68598 2.83185L4.65455 2.8077L4.69511 2.78045L4.724 2.80264L4.77317 2.79563L4.78027 2.77344Z" fill="white" stroke="#EF2D28" stroke-width="0.0192526"/>
<path d="M4.79657 2.93627C4.8266 2.93627 4.85094 2.91556 4.85094 2.89001C4.85094 2.86446 4.8266 2.84375 4.79657 2.84375C4.76653 2.84375 4.74219 2.86446 4.74219 2.89001C4.74219 2.91556 4.76653 2.93627 4.79657 2.93627Z" fill="white" stroke="#EF2D28" stroke-width="0.0207327"/>
<path fill-rule="evenodd" clip-rule="evenodd" d="M4.45929 2.65625L4.37965 2.72678L4.45929 2.65625ZM4.51214 2.65625L4.4325 2.72678L4.51214 2.65625ZM4.56424 2.65625L4.48534 2.72678L4.56424 2.65625ZM4.61708 2.65625L4.53819 2.72678L4.61708 2.65625ZM4.66993 2.65625L4.59103 2.72678L4.66993 2.65625ZM4.72277 2.65625L4.64388 2.72678L4.72277 2.65625ZM4.77562 2.65625L4.69672 2.72678L4.77562 2.65625ZM4.82846 2.65625L4.74957 2.72678L4.82846 2.65625ZM4.88131 2.65625L4.80167 2.72678L4.88131 2.65625ZM4.93415 2.65625L4.85377 2.72678L4.93415 2.65625ZM4.98551 2.65625L4.90661 2.72678L4.98551 2.65625ZM5.03836 2.65625L4.95946 2.72678L5.03836 2.65625ZM4.82772 2.65625L4.74957 2.72678L4.82772 2.65625ZM5.09195 2.65625L5.01305 2.72678L5.09195 2.65625ZM5.14479 2.65625L5.0659 2.72678L5.14479 2.65625ZM5.19764 2.65625L5.11874 2.72678L5.19764 2.65625ZM5.25048 2.65625L5.17159 2.72678L5.25048 2.65625ZM5.17159 2.65625L5.25048 2.72678L5.17159 2.65625ZM5.11874 2.65625L5.19764 2.72678L5.11874 2.65625ZM5.0659 2.65625L5.14479 2.72678L5.0659 2.65625ZM5.01305 2.65625L5.09195 2.72678L5.01305 2.65625ZM4.9602 2.65625L5.0391 2.72678L4.9602 2.65625ZM4.90736 2.65625L4.98626 2.72678L4.90736 2.65625ZM4.85451 2.65625L4.93415 2.72678L4.85451 2.65625ZM4.80167 2.65625L4.88056 2.72678L4.80167 2.65625ZM4.74808 2.65625L4.82772 2.72678L4.74808 2.65625ZM4.69598 2.65625L4.77487 2.72678L4.69598 2.65625ZM4.64313 2.65625L4.72203 2.72678L4.64313 2.65625ZM4.59029 2.65625L4.66918 2.72678L4.59029 2.65625ZM4.80167 2.65625L4.88056 2.72678L4.80167 2.65625ZM4.53819 2.65625L4.61634 2.72678L4.53819 2.65625ZM4.4846 2.65625L4.56424 2.72678L4.4846 2.65625ZM4.43175 2.65625L4.51139 2.72678L4.43175 2.65625ZM4.37891 2.65625L4.45929 2.72678L4.37891 2.65625ZM4.45929 3.05682L4.38039 3.12802L4.45929 3.05682ZM4.51139 3.05682L4.43175 3.12802L4.51139 3.05682ZM4.56498 3.05682L4.48534 3.12802L4.56498 3.05682ZM4.61708 3.05682L4.53819 3.12802L4.61708 3.05682ZM4.66993 3.05682L4.59103 3.12802L4.66993 3.05682ZM4.72277 3.05682L4.64388 3.12802L4.72277 3.05682ZM4.77562 3.05682L4.69747 3.12802L4.77562 3.05682ZM4.82846 3.05682L4.74957 3.12802L4.82846 3.05682ZM4.88131 3.05682L4.80167 3.12802L4.88131 3.05682ZM4.93341 3.05682L4.85377 3.12802L4.93341 3.05682ZM4.98774 3.05682L4.9081 3.12802L4.98774 3.05682ZM5.03984 3.05682L4.96095 3.12802L5.03984 3.05682ZM4.82846 3.05682L4.74957 3.12802L4.82846 3.05682ZM5.09195 3.05682L5.01305 3.12802L5.09195 3.05682ZM5.14479 3.05682L5.0659 3.12802L5.14479 3.05682ZM5.19764 3.05682L5.11874 3.12802L5.19764 3.05682ZM5.25048 3.05682L5.17159 3.12802L5.25048 3.05682ZM5.17159 3.05682L5.25048 3.12802L5.17159 3.05682ZM5.11874 3.05682L5.19764 3.12802L5.11874 3.05682ZM5.0659 3.05682L5.14479 3.12802L5.0659 3.05682ZM5.01305 3.05682L5.09195 3.12802L5.01305 3.05682ZM4.9602 3.05682L5.0391 3.12802L4.9602 3.05682ZM4.90736 3.05682L4.987 3.12802L4.90736 3.05682ZM4.85377 3.05682L4.93341 3.12802L4.85377 3.05682ZM4.80167 3.05682L4.88056 3.12802L4.80167 3.05682ZM4.74957 3.05682L4.82846 3.12802L4.74957 3.05682ZM4.69672 3.05682L4.77562 3.12802L4.69672 3.05682ZM4.64388 3.05682L4.72277 3.12802L4.64388 3.05682ZM4.59103 3.05682L4.66993 3.12802L4.59103 3.05682ZM4.80241 3.05682L4.88131 3.12802L4.80241 3.05682ZM4.53893 3.05682L4.61708 3.12802L4.53893 3.05682ZM4.48534 3.05682L4.56498 3.12802L4.48534 3.05682ZM4.4325 3.05682L4.51214 3.12802L4.4325 3.05682ZM4.38039 3.05682L4.45929 3.12802L4.38039 3.05682Z" fill="white"/>
<path d="M4.45929 2.65625L4.37965 2.72678M4.51214 2.65625L4.4325 2.72678M4.56424 2.65625L4.48534 2.72678M4.61708 2.65625L4.53819 2.72678M4.66993 2.65625L4.59103 2.72678M4.72277 2.65625L4.64388 2.72678M4.77562 2.65625L4.69672 2.72678M4.82846 2.65625L4.74957 2.72678L4.82772 2.65625M4.88131 2.65625L4.80167 2.72678M4.93415 2.65625L4.85377 2.72678M4.98551 2.65625L4.90661 2.72678M5.03836 2.65625L4.95946 2.72678M5.09195 2.65625L5.01305 2.72678M5.14479 2.65625L5.0659 2.72678M5.19764 2.65625L5.11874 2.72678M5.25048 2.65625L5.17159 2.72678M5.17159 2.65625L5.25048 2.72678M5.11874 2.65625L5.19764 2.72678M5.0659 2.65625L5.14479 2.72678M5.01305 2.65625L5.09195 2.72678M4.9602 2.65625L5.0391 2.72678M4.90736 2.65625L4.98626 2.72678M4.85451 2.65625L4.93415 2.72678M4.80167 2.65625L4.88056 2.72678M4.74808 2.65625L4.82772 2.72678M4.69598 2.65625L4.77487 2.72678M4.64313 2.65625L4.72203 2.72678M4.59029 2.65625L4.66918 2.72678M4.53819 2.65625L4.61634 2.72678M4.4846 2.65625L4.56424 2.72678M4.43175 2.65625L4.51139 2.72678M4.37891 2.65625L4.45929 2.72678M4.45929 3.05682L4.38039 3.12802M4.51139 3.05682L4.43175 3.12802M4.56498 3.05682L4.48534 3.12802M4.61708 3.05682L4.53819 3.12802M4.66993 3.05682L4.59103 3.12802M4.72277 3.05682L4.64388 3.12802M4.77562 3.05682L4.69747 3.12802M4.82846 3.05682L4.74957 3.12802M4.88131 3.05682L4.80167 3.12802M4.93341 3.05682L4.85377 3.12802M4.98774 3.05682L4.9081 3.12802M5.03984 3.05682L4.96095 3.12802M5.09195 3.05682L5.01305 3.12802M5.14479 3.05682L5.0659 3.12802M5.19764 3.05682L5.11874 3.12802M5.25048 3.05682L5.17159 3.12802M5.17159 3.05682L5.25048 3.12802M5.11874 3.05682L5.19764 3.12802M5.0659 3.05682L5.14479 3.12802M5.01305 3.05682L5.09195 3.12802M4.9602 3.05682L5.0391 3.12802M4.90736 3.05682L4.987 3.12802M4.85377 3.05682L4.93341 3.12802M4.80167 3.05682L4.88056 3.12802M4.74957 3.05682L4.82846 3.12802M4.69672 3.05682L4.77562 3.12802M4.64388 3.05682L4.72277 3.12802M4.59103 3.05682L4.66993 3.12802M4.80241 3.05682L4.88131 3.12802M4.53893 3.05682L4.61708 3.12802M4.48534 3.05682L4.56498 3.12802M4.4325 3.05682L4.51214 3.12802M4.38039 3.05682L4.45929 3.12802" stroke="#EF2D28" stroke-width="0.0304956"/>
<path d="M1.78827 2.58594H0.927856C0.881405 2.58594 0.84375 2.62109 0.84375 2.66445V3.07301C0.84375 3.11637 0.881405 3.15153 0.927856 3.15153H1.78827C1.83472 3.15153 1.87237 3.11637 1.87237 3.07301V2.66445C1.87237 2.62109 1.83472 2.58594 1.78827 2.58594Z" fill="white" stroke="#EF2D28" stroke-width="0.0328414"/>
<path d="M1.76723 2.60938H0.950734C0.90675 2.60938 0.871094 2.64185 0.871094 2.6819V3.05586C0.871094 3.09592 0.90675 3.12839 0.950734 3.12839H1.76723C1.81121 3.12839 1.84687 3.09592 1.84687 3.05586V2.6819C1.84687 2.64185 1.81121 2.60938 1.76723 2.60938Z" fill="white" stroke="#EF2D28" stroke-width="0.0304956"/>
<path fill-rule="evenodd" clip-rule="evenodd" d="M1.32324 2.75L1.37241 2.75195L1.37444 2.77453L1.41499 2.79517L1.44642 2.76908L1.48444 2.78972L1.44896 2.8123L1.45757 2.84345L1.50218 2.84151V2.88239L1.4667 2.88084L1.44845 2.90654L1.489 2.93574L1.45757 2.95988L1.42361 2.93418L1.37444 2.94431L1.37697 2.98208L1.32324 2.98597L1.31614 2.94937L1.27153 2.93068L1.24669 2.95638L1.20867 2.9373L1.23098 2.90809L1.20411 2.8894H1.16609L1.16406 2.83606L1.20208 2.83956L1.22895 2.80841L1.19752 2.78427L1.23807 2.75701L1.26697 2.7792L1.31614 2.7722L1.32324 2.75Z" fill="white" stroke="#EF2D28" stroke-width="0.0192526"/>
<path d="M1.33953 2.91283C1.36957 2.91283 1.39391 2.89212 1.39391 2.86657C1.39391 2.84102 1.36957 2.82031 1.33953 2.82031C1.3095 2.82031 1.28516 2.84102 1.28516 2.86657C1.28516 2.89212 1.3095 2.91283 1.33953 2.91283Z" fill="white" stroke="#EF2D28" stroke-width="0.0207327"/>
<path fill-rule="evenodd" clip-rule="evenodd" d="M1.00226 2.63281L0.922619 2.70334L1.00226 2.63281ZM1.0551 2.63281L0.975465 2.70334L1.0551 2.63281ZM1.10721 2.63281L1.02831 2.70334L1.10721 2.63281ZM1.16005 2.63281L1.08116 2.70334L1.16005 2.63281ZM1.2129 2.63281L1.134 2.70334L1.2129 2.63281ZM1.26574 2.63281L1.18685 2.70334L1.26574 2.63281ZM1.31859 2.63281L1.23969 2.70334L1.31859 2.63281ZM1.37143 2.63281L1.29254 2.70334L1.37143 2.63281ZM1.42428 2.63281L1.34464 2.70334L1.42428 2.63281ZM1.47712 2.63281L1.39674 2.70334L1.47712 2.63281ZM1.52848 2.63281L1.44958 2.70334L1.52848 2.63281ZM1.58132 2.63281L1.50243 2.70334L1.58132 2.63281ZM1.37069 2.63281L1.29254 2.70334L1.37069 2.63281ZM1.63491 2.63281L1.55602 2.70334L1.63491 2.63281ZM1.68776 2.63281L1.60886 2.70334L1.68776 2.63281ZM1.74061 2.63281L1.66171 2.70334L1.74061 2.63281ZM1.79345 2.63281L1.71455 2.70334L1.79345 2.63281ZM1.71455 2.63281L1.79345 2.70334L1.71455 2.63281ZM1.66171 2.63281L1.74061 2.70334L1.66171 2.63281ZM1.60886 2.63281L1.68776 2.70334L1.60886 2.63281ZM1.55602 2.63281L1.63491 2.70334L1.55602 2.63281ZM1.50317 2.63281L1.58207 2.70334L1.50317 2.63281ZM1.45033 2.63281L1.52922 2.70334L1.45033 2.63281ZM1.39748 2.63281L1.47712 2.70334L1.39748 2.63281ZM1.34464 2.63281L1.42353 2.70334L1.34464 2.63281ZM1.29105 2.63281L1.37069 2.70334L1.29105 2.63281ZM1.23895 2.63281L1.31784 2.70334L1.23895 2.63281ZM1.1861 2.63281L1.265 2.70334L1.1861 2.63281ZM1.13326 2.63281L1.21215 2.70334L1.13326 2.63281ZM1.34464 2.63281L1.42353 2.70334L1.34464 2.63281ZM1.08116 2.63281L1.15931 2.70334L1.08116 2.63281ZM1.02757 2.63281L1.10721 2.70334L1.02757 2.63281ZM0.97472 2.63281L1.05436 2.70334L0.97472 2.63281ZM0.921875 2.63281L1.00226 2.70334L0.921875 2.63281ZM1.00226 3.03338L0.923364 3.10458L1.00226 3.03338ZM1.05436 3.03338L0.97472 3.10458L1.05436 3.03338ZM1.10795 3.03338L1.02831 3.10458L1.10795 3.03338ZM1.16005 3.03338L1.08116 3.10458L1.16005 3.03338ZM1.2129 3.03338L1.134 3.10458L1.2129 3.03338ZM1.26574 3.03338L1.18685 3.10458L1.26574 3.03338ZM1.31859 3.03338L1.24044 3.10458L1.31859 3.03338ZM1.37143 3.03338L1.29254 3.10458L1.37143 3.03338ZM1.42428 3.03338L1.34464 3.10458L1.42428 3.03338ZM1.47638 3.03338L1.39674 3.10458L1.47638 3.03338ZM1.53071 3.03338L1.45107 3.10458L1.53071 3.03338ZM1.58281 3.03338L1.50392 3.10458L1.58281 3.03338ZM1.37143 3.03338L1.29254 3.10458L1.37143 3.03338ZM1.63491 3.03338L1.55602 3.10458L1.63491 3.03338ZM1.68776 3.03338L1.60886 3.10458L1.68776 3.03338ZM1.74061 3.03338L1.66171 3.10458L1.74061 3.03338ZM1.79345 3.03338L1.71455 3.10458L1.79345 3.03338ZM1.71455 3.03338L1.79345 3.10458L1.71455 3.03338ZM1.66171 3.03338L1.74061 3.10458L1.66171 3.03338ZM1.60886 3.03338L1.68776 3.10458L1.60886 3.03338ZM1.55602 3.03338L1.63491 3.10458L1.55602 3.03338ZM1.50317 3.03338L1.58207 3.10458L1.50317 3.03338ZM1.45033 3.03338L1.52997 3.10458L1.45033 3.03338ZM1.39674 3.03338L1.47638 3.10458L1.39674 3.03338ZM1.34464 3.03338L1.42353 3.10458L1.34464 3.03338ZM1.29254 3.03338L1.37143 3.10458L1.29254 3.03338ZM1.23969 3.03338L1.31859 3.10458L1.23969 3.03338ZM1.18685 3.03338L1.26574 3.10458L1.18685 3.03338ZM1.134 3.03338L1.2129 3.10458L1.134 3.03338ZM1.34538 3.03338L1.42428 3.10458L1.34538 3.03338ZM1.0819 3.03338L1.16005 3.10458L1.0819 3.03338ZM1.02831 3.03338L1.10795 3.10458L1.02831 3.03338ZM0.975465 3.03338L1.0551 3.10458L0.975465 3.03338ZM0.923364 3.03338L1.00226 3.10458L0.923364 3.03338Z" fill="white"/>
<path d="M1.00226 2.63281L0.922619 2.70334M1.0551 2.63281L0.975465 2.70334M1.10721 2.63281L1.02831 2.70334M1.16005 2.63281L1.08116 2.70334M1.2129 2.63281L1.134 2.70334M1.26574 2.63281L1.18685 2.70334M1.31859 2.63281L1.23969 2.70334M1.37143 2.63281L1.29254 2.70334L1.37069 2.63281M1.42428 2.63281L1.34464 2.70334M1.47712 2.63281L1.39674 2.70334M1.52848 2.63281L1.44958 2.70334M1.58132 2.63281L1.50243 2.70334M1.63491 2.63281L1.55602 2.70334M1.68776 2.63281L1.60886 2.70334M1.74061 2.63281L1.66171 2.70334M1.79345 2.63281L1.71455 2.70334M1.71455 2.63281L1.79345 2.70334M1.66171 2.63281L1.74061 2.70334M1.60886 2.63281L1.68776 2.70334M1.55602 2.63281L1.63491 2.70334M1.50317 2.63281L1.58207 2.70334M1.45033 2.63281L1.52922 2.70334M1.39748 2.63281L1.47712 2.70334M1.34464 2.63281L1.42353 2.70334M1.29105 2.63281L1.37069 2.70334M1.23895 2.63281L1.31784 2.70334M1.1861 2.63281L1.265 2.70334M1.13326 2.63281L1.21215 2.70334M1.08116 2.63281L1.15931 2.70334M1.02757 2.63281L1.10721 2.70334M0.97472 2.63281L1.05436 2.70334M0.921875 2.63281L1.00226 2.70334M1.00226 3.03338L0.923364 3.10458M1.05436 3.03338L0.97472 3.10458M1.10795 3.03338L1.02831 3.10458M1.16005 3.03338L1.08116 3.10458M1.2129 3.03338L1.134 3.10458M1.26574 3.03338L1.18685 3.10458M1.31859 3.03338L1.24044 3.10458M1.37143 3.03338L1.29254 3.10458M1.42428 3.03338L1.34464 3.10458M1.47638 3.03338L1.39674 3.10458M1.53071 3.03338L1.45107 3.10458M1.58281 3.03338L1.50392 3.10458M1.63491 3.03338L1.55602 3.10458M1.68776 3.03338L1.60886 3.10458M1.74061 3.03338L1.66171 3.10458M1.79345 3.03338L1.71455 3.10458M1.71455 3.03338L1.79345 3.10458M1.66171 3.03338L1.74061 3.10458M1.60886 3.03338L1.68776 3.10458M1.55602 3.03338L1.63491 3.10458M1.50317 3.03338L1.58207 3.10458M1.45033 3.03338L1.52997 3.10458M1.39674 3.03338L1.47638 3.10458M1.34464 3.03338L1.42353 3.10458M1.29254 3.03338L1.37143 3.10458M1.23969 3.03338L1.31859 3.10458M1.18685 3.03338L1.26574 3.10458M1.134 3.03338L1.2129 3.10458M1.34538 3.03338L1.42428 3.10458M1.0819 3.03338L1.16005 3.10458M1.02831 3.03338L1.10795 3.10458M0.975465 3.03338L1.0551 3.10458M0.923364 3.03338L1.00226 3.10458" stroke="#EF2D28" stroke-width="0.0304956"/>
<path fill-rule="evenodd" clip-rule="evenodd" d="M2.46068 3.77005C1.18082 5.02527 0.634848 5.18383 0.891535 5.28514C1.14822 5.38646 1.97217 4.73849 2.82939 3.87859C3.68661 3.0187 4.21169 2.25277 3.955 2.15146C3.69832 2.05014 3.82232 2.43616 2.46068 3.77005Z" fill="white" stroke="#EF2D28" stroke-width="0.0510375"/>
<path fill-rule="evenodd" clip-rule="evenodd" d="M1.38322 4.6875L1.83203 4.80528C1.41001 5.20651 0.93515 5.37087 0.803409 5.30033C0.671668 5.2298 1.04084 5.06478 1.38396 4.68817L1.38322 4.6875Z" fill="white" stroke="#EF2D28" stroke-width="0.0281498"/>
<path fill-rule="evenodd" clip-rule="evenodd" d="M1.38414 4.73438L1.75391 4.82843C1.34282 5.21424 0.936078 5.32365 0.83095 5.27631C0.725096 5.2296 1.05063 5.09716 1.38414 4.73438Z" fill="white" stroke="#EF2D28" stroke-width="0.0295141"/>
<path d="M2.75781 3.71875C2.75676 3.7248 2.75362 3.7518 2.751 3.76251C2.751 3.77741 2.74943 3.78858 2.74785 3.80022C2.74366 3.81046 2.74418 3.81977 2.7316 3.82349C2.72576 3.83278 2.71651 3.84001 2.70539 3.84398C2.69531 3.85114 2.68421 3.85709 2.67237 3.86167C2.65994 3.86632 2.64616 3.8673 2.63306 3.86446C2.62223 3.85701 2.61244 3.85018 2.60371 3.84398C2.60161 3.83467 2.59951 3.82117 2.59689 3.81186C2.60096 3.82427 2.60325 3.8371 2.60371 3.85003C2.60266 3.86399 2.59689 3.87051 2.5906 3.88168" stroke="#EF2D28" stroke-width="0.0296388"/>
<path d="M2.63971 3.91064L2.63657 3.90785C2.64443 3.91483 2.64128 3.91157 2.62346 3.9018C2.61123 3.89683 2.59708 3.89311 2.581 3.89062H2.53488C2.51705 3.89062 2.505 3.89295 2.49242 3.89621C2.48298 3.90459 2.46935 3.90925 2.4594 3.91669C2.45054 3.92263 2.44381 3.93072 2.44 3.93997C2.43109 3.94788 2.42532 3.95999 2.41694 3.96604C2.41327 3.97954 2.40593 3.97907 2.40069 3.98932C2.41641 3.99025 2.42847 3.99211 2.43686 4.00095C2.45048 4.00701 2.42532 3.9949 2.42008 3.98932C2.4096 3.98652 2.40698 3.98373 2.39073 3.98373C2.37605 3.97907 2.36662 3.98699 2.35142 3.98932C2.3425 3.99397 2.33988 3.99537 2.32835 3.99537" stroke="#EF2D28" stroke-width="0.0296388"/>
<path d="M2.46484 4.06124C2.45803 4.06124 2.42763 4.06636 2.41557 4.06124C2.40194 4.05798 2.3946 4.05193 2.38622 4.04076C2.38202 4.03284 2.38622 4.05472 2.38622 4.06403C2.38464 4.08126 2.37888 4.08126 2.36944 4.09289C2.36001 4.09848 2.35005 4.10593 2.34009 4.11058C2.33135 4.11691 2.32141 4.1218 2.31074 4.12502C2.29955 4.12905 2.28977 4.13386 2.28138 4.13945C2.27037 4.14643 2.2709 4.15481 2.26461 4.16598C2.26618 4.17995 2.2688 4.18833 2.27771 4.19484C2.28191 4.20462 2.29029 4.2144 2.29763 4.22091C2.30549 4.23488 2.31493 4.24093 2.29449 4.24419C2.28296 4.24885 2.27667 4.24512 2.26461 4.24419" stroke="#EF2D28" stroke-width="0.0296388"/>
<path d="M2.25391 4.26443C2.24552 4.26257 2.21721 4.25419 2.20463 4.25H2.15851C2.14121 4.2514 2.13754 4.25605 2.12286 4.26164C2.1129 4.27048 2.10661 4.27654 2.09298 4.28212C2.08617 4.29004 2.07202 4.304 2.06678 4.31424C2.0625 4.32629 2.06038 4.33886 2.06049 4.35148C2.06049 4.36871 2.06573 4.37197 2.06678 4.38686C2.0704 4.39968 2.0772 4.41161 2.08669 4.42178C2.08774 4.42488 2.08984 4.42674 2.09298 4.42737" stroke="#EF2D28" stroke-width="0.0296388"/>
<path d="M2.10156 4.46477C2.10007 4.46477 2.0971 4.47212 2.09226 4.47837C2.08147 4.48939 2.08035 4.49013 2.06435 4.49013C2.04946 4.48939 2.05132 4.48425 2.0409 4.48094C2.03606 4.47359 2.03011 4.46771 2.02453 4.45779C2.02081 4.45191 2.01746 4.44272 2.01336 4.43721C2.0089 4.43023 2.00369 4.42509 1.99922 4.41884C1.99476 4.417 1.99327 4.41516 1.98731 4.41406C2.00071 4.41627 2.0022 4.42104 2.01076 4.42803L2.02229 4.4486C2.02378 4.45853 2.02676 4.46624 2.02713 4.47837C2.02713 4.49123 2.02713 4.50005 2.02229 4.51071C2.01671 4.51622 2.01299 4.5221 2.00592 4.52687C2.00004 4.53252 1.99469 4.53866 1.98992 4.54525L1.9687 4.55884C1.96201 4.56288 1.95419 4.56693 1.9434 4.56803C1.92963 4.56693 1.92554 4.56325 1.91549 4.55884C1.90656 4.5526 1.89986 4.54855 1.89204 4.54267C1.88563 4.53745 1.8801 4.53125 1.87567 4.5243C1.86339 4.52136 1.8552 4.52246 1.84776 4.52908C1.84147 4.53346 1.83605 4.53894 1.83175 4.54525C1.82803 4.54708 1.82133 4.5526 1.81761 4.55443" stroke="#EF2D28" stroke-width="0.0283512"/>
<path d="M1.8447 4.5625C1.84841 4.56388 1.86229 4.57351 1.86784 4.57672C1.87154 4.5891 1.87755 4.59552 1.87941 4.60882C1.88218 4.62105 1.88326 4.63435 1.88264 4.64871C1.87941 4.66339 1.87339 4.67394 1.86784 4.6854C1.85859 4.69182 1.85396 4.69641 1.84193 4.70283C1.83082 4.70497 1.81833 4.70604 1.80445 4.70604C1.7952 4.70879 1.77854 4.71017 1.76975 4.70604C1.7568 4.7042 1.74708 4.69916 1.73783 4.69457C1.72719 4.68861 1.72071 4.68265 1.70914 4.67715C1.70266 4.6692 1.69495 4.66064 1.68601 4.65147C1.6786 4.64184 1.67352 4.63633 1.66843 4.62579C1.67367 4.6374 1.67845 4.64887 1.68277 4.66018C1.68971 4.6721 1.69341 4.67669 1.69434 4.69136C1.69896 4.70329 1.69757 4.71796 1.69757 4.73172C1.69619 4.74089 1.69572 4.75832 1.69156 4.76611V4.77483" stroke="#EF2D28" stroke-width="0.029173"/>
<path d="M1.4152 4.81368V4.81834C1.41421 4.80681 1.41595 4.81235 1.42041 4.83498C1.4286 4.84429 1.45019 4.84695 1.46656 4.84296C1.48145 4.83165 1.48145 4.823 1.50824 4.81834C1.53504 4.81967 1.54546 4.82633 1.56034 4.83498C1.57601 4.84048 1.58913 4.85056 1.59756 4.86359C1.60277 4.87756 1.60575 4.88754 1.58788 4.89287C1.57235 4.90223 1.55443 4.90795 1.53578 4.9095C1.51494 4.9095 1.49931 4.90751 1.48963 4.91815C1.47475 4.93146 1.47624 4.93944 1.47624 4.9634C1.47103 4.97072 1.47028 4.99268 1.46656 5.00133C1.4537 5.00723 1.43932 5.00999 1.42488 5.00931C1.41967 4.996 1.41446 4.97338 1.41074 4.95941C1.40702 4.94477 1.40627 4.92347 1.3966 4.91349C1.38801 4.90208 1.37716 4.89215 1.36459 4.88422C1.35706 4.87659 1.34725 4.87104 1.33631 4.86825C1.35492 4.87623 1.35715 4.88555 1.35938 4.90551C1.34375 4.91216 1.33929 4.91749 1.31324 4.91815C1.28718 4.91616 1.28123 4.91017 1.27155 4.89686C1.26932 4.91815 1.26188 4.92481 1.25667 4.94344C1.24774 4.95541 1.24402 4.96806 1.23434 4.98469C1.23806 5.00465 1.24699 5.00532 1.24774 5.02994C1.25369 5.04657 1.25369 5.06188 1.26634 5.07186C1.2723 5.07851 1.27676 5.07918 1.29016 5.07984C1.26337 5.07984 1.24699 5.07718 1.22913 5.06787L1.19191 5.04258C1.17512 5.03128 1.15622 5.02272 1.13609 5.0173C1.11451 5.0173 1.09888 5.0153 1.08995 5.02595C1.07704 5.03482 1.06762 5.04879 1.06166 5.06787C1.05794 5.08916 1.05571 5.1038 1.06687 5.11777C1.07431 5.13374 1.07655 5.13973 1.06687 5.15903C1.05571 5.17233 1.04008 5.17433 1.01477 5.17965C0.996908 5.17877 0.981525 5.1761 0.968624 5.17167" stroke="#EF2D28" stroke-width="0.0281498"/>
<path fill-rule="evenodd" clip-rule="evenodd" d="M3.92055 2.63991C4.48814 1.65746 4.86457 0.82029 4.76194 0.7729C4.65824 0.725022 4.11357 1.48451 3.54598 2.46696L3.92055 2.63991Z" fill="white" stroke="#EF2D28" stroke-width="0.0387692"/>
<path fill-rule="evenodd" clip-rule="evenodd" d="M3.88263 2.62395C4.43019 1.67617 4.80728 0.874982 4.72517 0.83707C4.64221 0.798766 4.13053 1.53781 3.58298 2.48559" fill="white"/>
<path d="M3.88263 2.62395C4.43019 1.67617 4.80728 0.874982 4.72517 0.83707C4.64221 0.798766 4.13053 1.53781 3.58298 2.48559" stroke="#EF2D28" stroke-width="0.0340592"/>
<path fill-rule="evenodd" clip-rule="evenodd" d="M3.7884 2.13425C3.72173 2.24501 3.6511 2.37192 3.58279 2.49016L3.88329 2.62891C3.9516 2.51067 4.02647 2.38572 4.0889 2.273L3.7884 2.13425Z" fill="white" stroke="#EF2D28" stroke-width="0.0386549"/>
<path fill-rule="evenodd" clip-rule="evenodd" d="M3.81381 2.16943C3.74679 2.28078 3.70075 2.36512 3.6321 2.48395L3.85642 2.58752C3.92473 2.46928 3.97568 2.38572 4.03812 2.273L3.81381 2.16943Z" fill="white" stroke="#EF2D28" stroke-width="0.0386549"/>
<path fill-rule="evenodd" clip-rule="evenodd" d="M3.97861 2.29794L3.82836 2.22857L3.69516 2.45914L3.84541 2.52851L3.97861 2.29794ZM3.97861 2.29794L3.69516 2.45914L3.97861 2.29794ZM3.84541 2.52851L3.82836 2.22857L3.84541 2.52851ZM4.65625 1.125L4.506 1.05562L4.65625 1.125Z" fill="white"/>
<path d="M3.97861 2.29794L3.82836 2.22857M3.97861 2.29794L3.84541 2.52851M3.97861 2.29794L3.69516 2.45914M3.82836 2.22857L3.69516 2.45914M3.82836 2.22857L3.84541 2.52851M3.69516 2.45914L3.84541 2.52851M4.65625 1.125L4.506 1.05562" stroke="#EF2D28" stroke-width="0.0386549"/>
<path d="M4.65676 1.01379C4.63367 1.01962 4.61073 1.00789 4.60552 0.987589C4.60031 0.967283 4.6148 0.946091 4.63789 0.940255C4.66097 0.934419 4.68391 0.946148 4.68912 0.966454C4.69433 0.986759 4.67984 1.00795 4.65676 1.01379Z" fill="#EF0000" stroke="#EF2D28" stroke-width="0.0500864"/>
<path fill-rule="evenodd" clip-rule="evenodd" d="M3.69947 3.74661C4.97933 5.00183 5.52531 5.16039 5.26862 5.2617C5.01194 5.36302 4.18799 4.71505 3.33077 3.85516C2.47355 2.99526 1.94847 2.22933 2.20515 2.12802C2.46184 2.02671 2.33783 2.41272 3.69947 3.74661Z" fill="white" stroke="#EF2D28" stroke-width="0.0510375"/>
<path fill-rule="evenodd" clip-rule="evenodd" d="M4.77303 4.66406L4.32422 4.78184C4.74624 5.18307 5.2211 5.34743 5.35284 5.2769C5.48458 5.20636 5.11541 5.04134 4.77229 4.66473L4.77303 4.66406Z" fill="white" stroke="#EF2D28" stroke-width="0.0281498"/>
<path fill-rule="evenodd" clip-rule="evenodd" d="M4.77601 4.70312L4.40625 4.79718C4.81734 5.18299 5.22408 5.2924 5.32921 5.24506C5.43506 5.19835 5.10952 5.06591 4.77601 4.70312Z" fill="white" stroke="#EF2D28" stroke-width="0.0295141"/>
<path d="M3.40234 3.69531C3.40339 3.70136 3.40654 3.72836 3.40916 3.73907C3.40916 3.75397 3.41073 3.76514 3.4123 3.77678C3.4165 3.78702 3.41597 3.79633 3.42855 3.80006C3.4344 3.80934 3.44365 3.81657 3.45476 3.82054C3.46484 3.8277 3.47595 3.83365 3.48778 3.83823C3.50021 3.84288 3.51399 3.84386 3.5271 3.84102C3.53793 3.83357 3.54771 3.82675 3.55645 3.82054C3.55855 3.81123 3.56064 3.79773 3.56327 3.78842C3.55919 3.80084 3.5569 3.81366 3.55645 3.82659C3.5575 3.84056 3.56327 3.84707 3.56956 3.85825" stroke="#EF2D28" stroke-width="0.0296388"/>
<path d="M3.52044 3.88721L3.52359 3.88441C3.51573 3.89139 3.51887 3.88814 3.53669 3.87836C3.54892 3.87339 3.56308 3.86967 3.57915 3.86719H3.62528C3.6431 3.86719 3.65516 3.86951 3.66774 3.87277C3.67717 3.88115 3.6908 3.88581 3.70076 3.89326C3.70961 3.8992 3.71635 3.90728 3.72016 3.91653C3.72907 3.92445 3.73483 3.93655 3.74322 3.9426C3.74689 3.9561 3.75423 3.95564 3.75947 3.96588C3.74374 3.96681 3.73169 3.96867 3.7233 3.97752C3.70967 3.98357 3.73483 3.97146 3.74007 3.96588C3.75056 3.96309 3.75318 3.96029 3.76943 3.96029C3.7841 3.95564 3.79354 3.96355 3.80874 3.96588C3.81765 3.97053 3.82027 3.97193 3.8318 3.97193" stroke="#EF2D28" stroke-width="0.0296388"/>
<path d="M3.69531 4.0378C3.70213 4.0378 3.73253 4.04292 3.74458 4.0378C3.75821 4.03454 3.76555 4.02849 3.77394 4.01732C3.77813 4.0094 3.77394 4.03128 3.77394 4.04059C3.77551 4.05782 3.78128 4.05782 3.79071 4.06946C3.80015 4.07504 3.81011 4.08249 3.82007 4.08715C3.8288 4.09348 3.83874 4.09836 3.84942 4.10158C3.8606 4.10561 3.87039 4.11042 3.87877 4.11601C3.88978 4.12299 3.88926 4.13137 3.89555 4.14254C3.89397 4.15651 3.89135 4.16489 3.88244 4.17141C3.87825 4.18118 3.86986 4.19096 3.86252 4.19748C3.85466 4.21144 3.84523 4.21749 3.86567 4.22075C3.8772 4.22541 3.88349 4.22168 3.89555 4.22075" stroke="#EF2D28" stroke-width="0.0296388"/>
<path d="M3.90234 4.24099C3.91073 4.23913 3.93904 4.23075 3.95162 4.22656H3.99774C4.01504 4.22796 4.01871 4.23261 4.03339 4.2382C4.04335 4.24705 4.04964 4.2531 4.06327 4.25868C4.07008 4.2666 4.08423 4.28056 4.08947 4.29081C4.09375 4.30285 4.09587 4.31542 4.09576 4.32805C4.09576 4.34527 4.09052 4.34853 4.08947 4.36343C4.08585 4.37624 4.07905 4.38817 4.06956 4.39834C4.06851 4.40144 4.06641 4.40331 4.06327 4.40393" stroke="#EF2D28" stroke-width="0.0296388"/>
<path d="M4.0625 4.44133C4.06399 4.44133 4.06697 4.44868 4.0718 4.45493C4.0826 4.46595 4.08371 4.46669 4.09972 4.46669C4.1146 4.46595 4.11274 4.46081 4.12316 4.4575C4.128 4.45015 4.13395 4.44427 4.13954 4.43435C4.14326 4.42847 4.14661 4.41929 4.1507 4.41378C4.15517 4.40679 4.16038 4.40165 4.16484 4.3954C4.16931 4.39356 4.1708 4.39173 4.17675 4.39062C4.16335 4.39283 4.16186 4.39761 4.1533 4.40459L4.14177 4.42517C4.14028 4.43509 4.1373 4.4428 4.13693 4.45493C4.13693 4.46779 4.13693 4.47661 4.14177 4.48727C4.14735 4.49278 4.15107 4.49866 4.15814 4.50344C4.16402 4.50908 4.16938 4.51523 4.17415 4.52181L4.19536 4.53541C4.20206 4.53945 4.20987 4.54349 4.22066 4.54459C4.23443 4.54349 4.23853 4.53981 4.24858 4.53541C4.25751 4.52916 4.26421 4.52512 4.27202 4.51924C4.27843 4.51401 4.28396 4.50781 4.2884 4.50086C4.30068 4.49792 4.30886 4.49903 4.31631 4.50564C4.32259 4.51002 4.32801 4.5155 4.33231 4.52181C4.33603 4.52365 4.34273 4.52916 4.34645 4.531" stroke="#EF2D28" stroke-width="0.0283512"/>
<path d="M4.31545 4.53125C4.31175 4.53263 4.29787 4.54226 4.29232 4.54547C4.28862 4.55785 4.2826 4.56427 4.28075 4.57757C4.27797 4.5898 4.2769 4.6031 4.27751 4.61746C4.28075 4.63214 4.28677 4.64269 4.29232 4.65415C4.30157 4.66057 4.3062 4.66516 4.31823 4.67158C4.32933 4.67372 4.34182 4.67479 4.3557 4.67479C4.36496 4.67754 4.38161 4.67892 4.3904 4.67479C4.40336 4.67295 4.41308 4.66791 4.42233 4.66332C4.43297 4.65736 4.43945 4.6514 4.45101 4.6459C4.45749 4.63795 4.4652 4.62939 4.47415 4.62022C4.48155 4.61059 4.48664 4.60508 4.49173 4.59454C4.48649 4.60615 4.48171 4.61762 4.47739 4.62893C4.47045 4.64085 4.46675 4.64544 4.46582 4.66011C4.46119 4.67204 4.46258 4.68671 4.46258 4.70047C4.46397 4.70964 4.46443 4.72707 4.4686 4.73486V4.74358" stroke="#EF2D28" stroke-width="0.029173"/>
<path d="M4.74105 4.79025V4.7949C4.74204 4.78337 4.7403 4.78892 4.73584 4.81154C4.72765 4.82085 4.70606 4.82352 4.68969 4.81952C4.6748 4.80821 4.6748 4.79956 4.64801 4.7949C4.62121 4.79623 4.61079 4.80289 4.59591 4.81154C4.58024 4.81704 4.56712 4.82713 4.55869 4.84015C4.55348 4.85412 4.5505 4.86411 4.56837 4.86943C4.5839 4.87879 4.60182 4.88451 4.62047 4.88606C4.64131 4.88606 4.65694 4.88407 4.66662 4.89471C4.6815 4.90802 4.68001 4.91601 4.68001 4.93996C4.68522 4.94728 4.68597 4.96924 4.68969 4.97789C4.70255 4.98379 4.71693 4.98655 4.73137 4.98587C4.73658 4.97257 4.74179 4.94994 4.74551 4.93597C4.74923 4.92133 4.74998 4.90004 4.75965 4.89006C4.76824 4.87864 4.77909 4.86872 4.79166 4.86078C4.79919 4.85315 4.809 4.84761 4.81994 4.84481C4.80133 4.85279 4.7991 4.86211 4.79687 4.88207C4.8125 4.88873 4.81696 4.89405 4.84301 4.89471C4.86907 4.89272 4.87502 4.88673 4.8847 4.87342C4.88693 4.89471 4.89437 4.90137 4.89958 4.92C4.90851 4.93198 4.91223 4.94462 4.92191 4.96125C4.91819 4.98122 4.90926 4.98188 4.90851 5.0065C4.90256 5.02314 4.90256 5.03844 4.88991 5.04842C4.88395 5.05508 4.87949 5.05574 4.86609 5.05641C4.89288 5.05641 4.90926 5.05374 4.92712 5.04443L4.96434 5.01914C4.98113 5.00784 5.00003 4.99928 5.02016 4.99386C5.04174 4.99386 5.05737 4.99186 5.0663 5.00251C5.07921 5.01138 5.08863 5.02535 5.09459 5.04443C5.09831 5.06572 5.10054 5.08036 5.08938 5.09433C5.08194 5.1103 5.0797 5.11629 5.08938 5.13559C5.10054 5.1489 5.11617 5.15089 5.14148 5.15622C5.15934 5.15533 5.17472 5.15267 5.18763 5.14823" stroke="#EF2D28" stroke-width="0.0281498"/>
<path fill-rule="evenodd" clip-rule="evenodd" d="M2.2357 2.61647C1.66811 1.63403 1.29168 0.796853 1.39431 0.749463C1.49801 0.701584 2.04268 1.46108 2.61027 2.44352L2.2357 2.61647Z" fill="white" stroke="#EF2D28" stroke-width="0.0387692"/>
<path fill-rule="evenodd" clip-rule="evenodd" d="M2.27362 2.60051C1.72606 1.65274 1.34897 0.851545 1.43108 0.813632C1.51404 0.775329 2.02572 1.51438 2.57327 2.46215" fill="white"/>
<path d="M2.27362 2.60051C1.72606 1.65274 1.34897 0.851545 1.43108 0.813632C1.51404 0.775329 2.02572 1.51438 2.57327 2.46215" stroke="#EF2D28" stroke-width="0.0340592"/>
<path fill-rule="evenodd" clip-rule="evenodd" d="M2.36785 2.11082C2.43452 2.22158 2.50515 2.34848 2.57346 2.46672L2.27296 2.60547C2.20465 2.48723 2.12978 2.36228 2.06735 2.24957L2.36785 2.11082Z" fill="white" stroke="#EF2D28" stroke-width="0.0386549"/>
<path fill-rule="evenodd" clip-rule="evenodd" d="M2.34244 2.14599C2.40946 2.25734 2.4555 2.34168 2.52415 2.46051L2.29983 2.56408C2.23152 2.44584 2.18057 2.36228 2.11813 2.24957L2.34244 2.14599Z" fill="white" stroke="#EF2D28" stroke-width="0.0386549"/>
<path fill-rule="evenodd" clip-rule="evenodd" d="M2.17764 2.27451L2.32789 2.20513L2.46109 2.4357L2.31084 2.50507L2.17764 2.27451ZM2.17764 2.27451L2.46109 2.4357L2.17764 2.27451ZM2.31084 2.50507L2.32789 2.20513L2.31084 2.50507ZM1.5 1.10156L1.65025 1.03219L1.5 1.10156Z" fill="white"/>
<path d="M2.17764 2.27451L2.32789 2.20513M2.17764 2.27451L2.31084 2.50507M2.17764 2.27451L2.46109 2.4357M2.32789 2.20513L2.46109 2.4357M2.32789 2.20513L2.31084 2.50507M2.46109 2.4357L2.31084 2.50507M1.5 1.10156L1.65025 1.03219" stroke="#EF2D28" stroke-width="0.0386549"/>
<path d="M1.49949 0.99035C1.52258 0.996186 1.54552 0.984457 1.55073 0.964151C1.55594 0.943846 1.54145 0.922654 1.51836 0.916817C1.49528 0.910981 1.47234 0.922711 1.46713 0.943016C1.46192 0.963322 1.47641 0.984514 1.49949 0.99035Z" fill="#EF0000" stroke="#EF2D28" stroke-width="0.0500864"/>
<path fill-rule="evenodd" clip-rule="evenodd" d="M2.69039 2.11719C2.69039 2.94228 2.69536 3.25303 2.63482 3.29561C2.57726 3.34152 0.976562 3.29561 0.976562 3.53116C0.976562 3.76671 2.29444 4.0036 2.69039 4.0036C3.21834 4.0036 3.48198 3.7676 3.48132 3.29561V2.11785H2.69039V2.11719Z" fill="white" stroke="#EF2D28" stroke-width="0.0352129"/>
<path fill-rule="evenodd" clip-rule="evenodd" d="M2.69141 2.35156V2.46934C2.95306 2.50857 3.2202 2.50857 3.48185 2.46934V2.35156C3.2202 2.3908 2.95306 2.3908 2.69141 2.35156Z" fill="white" stroke="#EF2D28" stroke-width="0.0304956"/>
<path fill-rule="evenodd" clip-rule="evenodd" d="M2.69141 2.11719V2.23496C2.95306 2.2742 3.2202 2.2742 3.48185 2.23496V2.11719C3.2202 2.15642 2.95306 2.15642 2.69141 2.11719Z" fill="white" stroke="#EF2D28" stroke-width="0.0304956"/>
<path fill-rule="evenodd" clip-rule="evenodd" d="M2.69141 2.23438V2.35215C2.95306 2.39138 3.2202 2.39138 3.48185 2.35215V2.23438C3.2202 2.27361 2.95306 2.27361 2.69141 2.23438Z" fill="white" stroke="#EF2D28" stroke-width="0.0304956"/>
<path fill-rule="evenodd" clip-rule="evenodd" d="M2.69141 2.46875V2.58652C2.95306 2.62576 3.2202 2.62576 3.48185 2.58652V2.46875C3.2202 2.50798 2.95306 2.50798 2.69141 2.46875Z" fill="white" stroke="#EF2D28" stroke-width="0.0304956"/>
<path d="M2.72754 2.32435C2.74749 2.32435 2.76367 2.31295 2.76367 2.29889C2.76367 2.28484 2.74749 2.27344 2.72754 2.27344C2.70758 2.27344 2.69141 2.28484 2.69141 2.29889C2.69141 2.31295 2.70758 2.32435 2.72754 2.32435Z" fill="white" stroke="#EF2D28" stroke-width="0.0289101"/>
<path d="M2.87207 2.33998C2.89202 2.33998 2.9082 2.32858 2.9082 2.31452C2.9082 2.30046 2.89202 2.28906 2.87207 2.28906C2.85211 2.28906 2.83594 2.30046 2.83594 2.31452C2.83594 2.32858 2.85211 2.33998 2.87207 2.33998Z" fill="white" stroke="#EF2D28" stroke-width="0.0289101"/>
<path d="M3.01269 2.3556C3.03265 2.3556 3.04883 2.3442 3.04883 2.33014C3.04883 2.31609 3.03265 2.30469 3.01269 2.30469C2.99274 2.30469 2.97656 2.31609 2.97656 2.33014C2.97656 2.3442 2.99274 2.3556 3.01269 2.3556Z" fill="white" stroke="#EF2D28" stroke-width="0.0289101"/>
<path d="M3.15723 2.3556C3.17718 2.3556 3.19336 2.3442 3.19336 2.33014C3.19336 2.31609 3.17718 2.30469 3.15723 2.30469C3.13727 2.30469 3.12109 2.31609 3.12109 2.33014C3.12109 2.3442 3.13727 2.3556 3.15723 2.3556Z" fill="white" stroke="#EF2D28" stroke-width="0.0289101"/>
<path d="M3.30176 2.33998C3.32171 2.33998 3.33789 2.32858 3.33789 2.31452C3.33789 2.30046 3.32171 2.28906 3.30176 2.28906C3.2818 2.28906 3.26562 2.30046 3.26562 2.31452C3.26562 2.32858 3.2818 2.33998 3.30176 2.33998Z" fill="white" stroke="#EF2D28" stroke-width="0.0289101"/>
<path d="M3.44629 2.32435C3.46624 2.32435 3.48242 2.31295 3.48242 2.29889C3.48242 2.28484 3.46624 2.27344 3.44629 2.27344C3.42633 2.27344 3.41016 2.28484 3.41016 2.29889C3.41016 2.31295 3.42633 2.32435 3.44629 2.32435Z" fill="white" stroke="#EF2D28" stroke-width="0.0289101"/>
<path fill-rule="evenodd" clip-rule="evenodd" d="M2.68976 2.71094L3.48021 3.34773L2.68976 2.71094ZM2.76866 2.71094L3.48095 3.27653L2.76866 2.71094ZM2.8736 2.73489L3.48095 3.20666L2.8736 2.73489ZM2.9525 2.73423L3.48095 3.13546L2.9525 2.73423ZM3.03214 2.73489L3.48021 3.06493L3.03214 2.73489ZM3.11103 2.73489L3.48021 2.9944L3.11103 2.73489ZM3.18993 2.73489L3.48021 2.9232L3.18993 2.73489ZM3.27031 2.73489L3.48169 2.87596L3.27031 2.73489ZM3.34846 2.73489L3.48095 2.82938L3.34846 2.73489ZM3.4281 2.73489L3.48021 2.78147L3.4281 2.73489ZM2.68976 2.78147L3.48021 3.41892L2.68976 2.78147ZM3.48021 2.7116L2.60938 3.41826L3.48021 2.7116ZM3.40057 2.71094L2.63617 3.32444L3.40057 2.71094ZM3.29562 2.73489L2.68902 3.206L3.29562 2.73489ZM3.21598 2.73489L2.68902 3.13546L3.21598 2.73489ZM3.13783 2.73489L2.68976 3.06493L3.13783 2.73489ZM3.05893 2.73489L2.68976 2.9944L3.05893 2.73489ZM2.98004 2.73489L2.68976 2.9232L2.98004 2.73489ZM2.89965 2.73489L2.68902 2.87596L2.89965 2.73489ZM2.82076 2.73489L2.68902 2.82938L2.82076 2.73489ZM2.74112 2.73489L2.68902 2.78147L2.74112 2.73489ZM3.48021 2.78147L2.60938 3.49012L3.48021 2.78147ZM3.48021 2.85333L2.60938 3.55999L3.48021 2.85333ZM3.48021 2.9232L2.60938 3.63052L3.48021 2.9232ZM3.48021 2.99373L2.60938 3.70238L3.48021 2.99373ZM3.48021 3.0656L2.60938 3.77225L3.48021 3.0656ZM3.48021 3.13546L2.60938 3.84278L3.48021 3.13546ZM3.48021 3.206L2.60938 3.91332L3.48021 3.206ZM3.48021 3.27719L2.60938 3.98451L3.48021 3.27719ZM3.48021 3.34773L2.66222 4.0078L3.48021 3.34773ZM3.48021 3.41826L2.74186 4.0078L3.48021 3.41826ZM3.45341 3.51274L2.87286 3.98451L3.45341 3.51274ZM3.4281 3.60657L2.95324 3.98385L3.4281 3.60657ZM3.37526 3.72434L3.13708 3.91265L3.37526 3.72434ZM2.68976 2.852L3.45416 3.46484L2.68976 2.852ZM2.68976 2.92253L3.45416 3.53603L2.68976 2.92253ZM2.68976 2.9944L3.4281 3.58328L2.68976 2.9944ZM2.68976 3.06426L3.4281 3.65447L2.68976 3.06426ZM2.68976 3.13546L3.40131 3.70105L2.68976 3.13546ZM2.66296 3.18271L3.37526 3.7483L2.66296 3.18271ZM2.66296 3.2539L3.32241 3.77292L2.66296 3.2539ZM2.63691 3.30048L3.29636 3.81949L2.63691 3.30048ZM2.60938 3.34706L3.24203 3.84212L2.60938 3.34706ZM2.60938 3.41759L3.21598 3.88936L2.60938 3.41759ZM2.60938 3.48879L3.13783 3.91265L2.60938 3.48879Z" fill="white"/>
<path d="M2.68976 2.71094L3.48021 3.34773L2.66222 4.0078M2.76866 2.71094L3.48095 3.27653M2.8736 2.73489L3.48095 3.20666M2.9525 2.73423L3.48095 3.13546M3.03214 2.73489L3.48021 3.06493M3.11103 2.73489L3.48021 2.9944M3.18993 2.73489L3.48021 2.9232L2.60938 3.63052M3.27031 2.73489L3.48169 2.87596M3.34846 2.73489L3.48095 2.82938M3.4281 2.73489L3.48021 2.78147L2.60938 3.49012M2.68976 2.78147L3.48021 3.41892M3.48021 2.7116L2.60938 3.41826M3.40057 2.71094L2.63617 3.32444M3.29562 2.73489L2.68902 3.206M3.21598 2.73489L2.68902 3.13546M3.13783 2.73489L2.68976 3.06493M3.05893 2.73489L2.68976 2.9944L3.4281 3.58328M2.98004 2.73489L2.68976 2.9232M2.89965 2.73489L2.68902 2.87596M2.82076 2.73489L2.68902 2.82938M2.74112 2.73489L2.68902 2.78147M3.48021 2.85333L2.60938 3.55999M3.48021 2.99373L2.60938 3.70238M3.48021 3.0656L2.60938 3.77225M3.48021 3.13546L2.60938 3.84278M3.48021 3.206L2.60938 3.91332M3.48021 3.27719L2.60938 3.98451M3.48021 3.41826L2.74186 4.0078M3.45341 3.51274L2.87286 3.98451M3.4281 3.60657L2.95324 3.98385M3.37526 3.72434L3.13708 3.91265M2.68976 2.852L3.45416 3.46484M2.68976 2.92253L3.45416 3.53603M2.68976 3.06426L3.4281 3.65447M2.68976 3.13546L3.40131 3.70105M2.66296 3.18271L3.37526 3.7483M2.66296 3.2539L3.32241 3.77292M2.63691 3.30048L3.29636 3.81949M2.60938 3.34706L3.24203 3.84212M2.60938 3.41759L3.21598 3.88936M2.60938 3.48879L3.13783 3.91265" stroke="#EF2D28" stroke-width="0.0304956"/>
<path fill-rule="evenodd" clip-rule="evenodd" d="M2.69141 2.59375V2.71152C2.95306 2.75076 3.2202 2.75076 3.48185 2.71152V2.59375C3.2202 2.63298 2.95306 2.63298 2.69141 2.59375Z" fill="white" stroke="#EF2D28" stroke-width="0.0304956"/>
<path fill-rule="evenodd" clip-rule="evenodd" d="M2.61012 3.55469L3.08498 3.93197L2.61012 3.55469ZM2.61012 3.62589L3.03214 3.95526L2.61012 3.62589ZM2.61012 3.69575L2.97929 3.97921L2.61012 3.69575ZM2.61012 3.76628L2.87435 3.97921L2.61012 3.76628ZM2.60938 3.83748L2.82076 4.0025L2.60938 3.83748ZM2.60938 3.90801L2.74112 4.0025L2.60938 3.90801Z" fill="white"/>
<path d="M2.61012 3.55469L3.08498 3.93197M2.61012 3.62589L3.03214 3.95526M2.61012 3.69575L2.97929 3.97921M2.61012 3.76628L2.87435 3.97921M2.60938 3.83748L2.82076 4.0025M2.60938 3.90801L2.74112 4.0025" stroke="#EF2D28" stroke-width="0.0304956"/>
<path d="M2.72754 2.68373C2.74749 2.68373 2.76367 2.67233 2.76367 2.65827C2.76367 2.64421 2.74749 2.63281 2.72754 2.63281C2.70758 2.63281 2.69141 2.64421 2.69141 2.65827C2.69141 2.67233 2.70758 2.68373 2.72754 2.68373Z" fill="white" stroke="#EF2D28" stroke-width="0.0289101"/>
<path d="M2.87207 2.69154C2.89202 2.69154 2.9082 2.68014 2.9082 2.66608C2.9082 2.65202 2.89202 2.64062 2.87207 2.64062C2.85211 2.64062 2.83594 2.65202 2.83594 2.66608C2.83594 2.68014 2.85211 2.69154 2.87207 2.69154Z" fill="white" stroke="#EF2D28" stroke-width="0.0289101"/>
<path d="M3.01269 2.70716C3.03265 2.70716 3.04883 2.69577 3.04883 2.68171C3.04883 2.66765 3.03265 2.65625 3.01269 2.65625C2.99274 2.65625 2.97656 2.66765 2.97656 2.68171C2.97656 2.69577 2.99274 2.70716 3.01269 2.70716Z" fill="white" stroke="#EF2D28" stroke-width="0.0289101"/>
<path d="M3.15723 2.70716C3.17718 2.70716 3.19336 2.69577 3.19336 2.68171C3.19336 2.66765 3.17718 2.65625 3.15723 2.65625C3.13727 2.65625 3.12109 2.66765 3.12109 2.68171C3.12109 2.69577 3.13727 2.70716 3.15723 2.70716Z" fill="white" stroke="#EF2D28" stroke-width="0.0289101"/>
<path d="M3.30176 2.69154C3.32171 2.69154 3.33789 2.68014 3.33789 2.66608C3.33789 2.65202 3.32171 2.64062 3.30176 2.64062C3.2818 2.64062 3.26562 2.65202 3.26562 2.66608C3.26562 2.68014 3.2818 2.69154 3.30176 2.69154Z" fill="white" stroke="#EF2D28" stroke-width="0.0289101"/>
<path d="M3.44629 2.68373C3.46624 2.68373 3.48242 2.67233 3.48242 2.65827C3.48242 2.64421 3.46624 2.63281 3.44629 2.63281C3.42633 2.63281 3.41016 2.64421 3.41016 2.65827C3.41016 2.67233 3.42633 2.68373 3.44629 2.68373Z" fill="white" stroke="#EF2D28" stroke-width="0.0289101"/>
<path fill-rule="evenodd" clip-rule="evenodd" d="M1.55772 3.81537L2.5067 3.32031L1.55772 3.81537ZM1.50487 3.79142L2.40175 3.32031L1.50487 3.79142ZM1.47882 3.74417L2.29606 3.32031L1.47882 3.74417ZM1.45203 3.69759L2.16432 3.32031L1.45203 3.69759ZM1.39844 3.65035L2.05789 3.32031L1.39844 3.65035ZM1.42523 3.57982L1.8733 3.3436L1.42523 3.57982ZM1.39844 3.53191L1.74082 3.3436L1.39844 3.53191ZM1.39844 3.46138L1.63661 3.3436L1.39844 3.46138ZM1.63661 3.83866L2.53275 3.36689L1.63661 3.83866ZM1.71625 3.86195L2.55955 3.41413L1.71625 3.86195ZM1.79515 3.8859L2.58634 3.46138L1.79515 3.8859ZM1.87405 3.90919L2.5335 3.55586L1.87405 3.90919ZM1.97899 3.90919L2.55955 3.60311L1.97899 3.90919ZM2.05789 3.93315L2.5588 3.67364L2.05789 3.93315ZM2.13678 3.95644L2.53275 3.74417L2.13678 3.95644ZM2.24247 3.9571L2.5588 3.79142L2.24247 3.9571ZM2.34816 3.98039L2.55955 3.86195L2.34816 3.98039ZM2.45534 3.98039L2.58708 3.90986L2.45534 3.98039Z" fill="white"/>
<path d="M1.55772 3.81537L2.5067 3.32031M1.50487 3.79142L2.40175 3.32031M1.47882 3.74417L2.29606 3.32031M1.45203 3.69759L2.16432 3.32031M1.39844 3.65035L2.05789 3.32031M1.42523 3.57982L1.8733 3.3436M1.39844 3.53191L1.74082 3.3436M1.39844 3.46138L1.63661 3.3436M1.63661 3.83866L2.53275 3.36689M1.71625 3.86195L2.55955 3.41413M1.79515 3.8859L2.58634 3.46138M1.87405 3.90919L2.5335 3.55586M1.97899 3.90919L2.55955 3.60311M2.05789 3.93315L2.5588 3.67364M2.13678 3.95644L2.53275 3.74417M2.24247 3.9571L2.5588 3.79142M2.34816 3.98039L2.55955 3.86195M2.45534 3.98039L2.58708 3.90986" stroke="#EF2D28" stroke-width="0.0304956"/>
<path fill-rule="evenodd" clip-rule="evenodd" d="M2.63672 3.29688H2.50498C2.46109 3.53079 2.46109 3.76961 2.50498 4.00353H2.63672C2.59283 3.76961 2.59283 3.53079 2.63672 3.29688Z" fill="white" stroke="#EF2D28" stroke-width="0.0304956"/>
<path fill-rule="evenodd" clip-rule="evenodd" d="M1.08203 3.62618L1.39836 3.39062L1.08203 3.62618ZM1.08203 3.46116L1.39836 3.74395L1.08203 3.46116Z" fill="white"/>
<path d="M1.08203 3.62618L1.39836 3.39062M1.08203 3.46116L1.39836 3.74395" stroke="#EF2D28" stroke-width="0.0304956"/>
<path fill-rule="evenodd" clip-rule="evenodd" d="M1.55469 3.34375L1.3963 3.36735C1.36117 3.51695 1.36117 3.64254 1.3963 3.79214L1.55469 3.83892C1.51956 3.68973 1.51956 3.49335 1.55469 3.34375Z" fill="white" stroke="#EF2D28" stroke-width="0.0217069"/>
<path fill-rule="evenodd" clip-rule="evenodd" d="M3.48207 2.16642V2.04731C3.36275 2.04865 3.28357 1.97745 3.28357 1.90625L2.88879 1.90692C2.88879 1.97745 2.81073 2.04865 2.69141 2.04865V2.16642H3.48207Z" fill="white" stroke="#EF2D28" stroke-width="0.0373282"/>
<path fill-rule="evenodd" clip-rule="evenodd" d="M2.91406 1.76179H3.25346V1.90352H2.91406V1.76179ZM2.94309 1.62006H3.22518V1.76179H2.94235L2.94309 1.62006ZM2.94309 1.47899H3.22518V1.62006H2.94235L2.94309 1.47899ZM2.97137 1.29002H3.1969V1.47899H2.97137V1.29002ZM2.9617 1.125H3.20732V1.29002H2.9617V1.125Z" fill="white"/>
<path d="M3.22518 1.62006H2.94309L2.94235 1.76179H3.22518V1.62006ZM3.22518 1.62006V1.47899H2.94309L2.94235 1.62006H3.22518ZM2.91406 1.76179H3.25346V1.90352H2.91406V1.76179ZM2.97137 1.29002H3.1969V1.47899H2.97137V1.29002ZM2.9617 1.125H3.20732V1.29002H2.9617V1.125Z" stroke="#EF2D28" stroke-width="0.0328414"/>
<path d="M3.1003 1.19848C3.28082 1.19848 3.42716 1.09808 3.42716 0.97424C3.42716 0.850396 3.28082 0.75 3.1003 0.75C2.91978 0.75 2.77344 0.850396 2.77344 0.97424C2.77344 1.09808 2.91978 1.19848 3.1003 1.19848Z" fill="white" stroke="#EF2D28" stroke-width="0.0309992"/>
<path fill-rule="evenodd" clip-rule="evenodd" d="M3.26072 0.961597C3.26072 1.02348 3.34224 1.12662 3.34224 1.12662C3.28302 1.16787 3.18688 1.19781 3.0969 1.19781C3.00692 1.19781 2.89463 1.18051 2.85156 1.12662C2.85156 1.12662 2.93309 1.02414 2.93309 0.962263C2.93309 0.90038 2.85156 0.820532 2.85156 0.820532C2.92304 0.775314 3.00912 0.750644 3.09767 0.75C3.18688 0.75 3.28225 0.779943 3.34224 0.820532C3.34224 0.820532 3.26072 0.90038 3.26072 0.962263V0.961597Z" fill="white" stroke="#EF2D28" stroke-width="0.0309992"/>
<path fill-rule="evenodd" clip-rule="evenodd" d="M3.20619 0.961597C3.20619 1.02348 3.28772 1.15057 3.28772 1.15057C3.2285 1.19049 3.18774 1.19715 3.09698 1.19715C3.00623 1.19715 2.94932 1.20447 2.90625 1.15057C2.90625 1.15057 2.98777 1.02414 2.98777 0.961597C2.98777 0.89905 2.90625 0.796578 2.90625 0.796578C2.96547 0.756654 3.00623 0.75 3.09698 0.75C3.18697 0.75 3.2285 0.756654 3.28772 0.796578C3.28772 0.796578 3.20619 0.899715 3.20619 0.961597Z" fill="white" stroke="#EF2D28" stroke-width="0.0309992"/>
<path d="M2.77293 1.05513C2.81795 1.05513 2.85445 1.02355 2.85445 0.984595C2.85445 0.945641 2.81795 0.914062 2.77293 0.914062C2.72791 0.914062 2.69141 0.945641 2.69141 0.984595C2.69141 1.02355 2.72791 1.05513 2.77293 1.05513Z" fill="white" stroke="#EF2D28" stroke-width="0.0309992"/>
<path d="M3.42527 1.05513C3.4703 1.05513 3.5068 1.02355 3.5068 0.984595C3.5068 0.945641 3.4703 0.914062 3.42527 0.914062C3.38025 0.914062 3.34375 0.945641 3.34375 0.984595C3.34375 1.02355 3.38025 1.05513 3.42527 1.05513Z" fill="white" stroke="#EF2D28" stroke-width="0.0309992"/>
<path d="M3.10105 1.05513C3.14608 1.05513 3.18258 1.02355 3.18258 0.984595C3.18258 0.945641 3.14608 0.914062 3.10105 0.914062C3.05603 0.914062 3.01953 0.945641 3.01953 0.984595C3.01953 1.02355 3.05603 1.05513 3.10105 1.05513Z" fill="white" stroke="#EF2D28" stroke-width="0.0309992"/>
<path d="M3.10105 0.820752C3.14608 0.820752 3.18258 0.789174 3.18258 0.75022C3.18258 0.711266 3.14608 0.679688 3.10105 0.679688C3.05603 0.679688 3.01953 0.711266 3.01953 0.75022C3.01953 0.789174 3.05603 0.820752 3.10105 0.820752Z" fill="white" stroke="#EF2D28" stroke-width="0.0309992"/>
<path d="M2.86178 2.1645C2.90841 2.1645 2.94621 2.13292 2.94621 2.09397C2.94621 2.05502 2.90841 2.02344 2.86178 2.02344C2.81515 2.02344 2.77734 2.05502 2.77734 2.09397C2.77734 2.13292 2.81515 2.1645 2.86178 2.1645Z" fill="white" stroke="#EF2D28" stroke-width="0.0315479"/>
<path d="M3.311 2.1645C3.35763 2.1645 3.39543 2.13292 3.39543 2.09397C3.39543 2.05502 3.35763 2.02344 3.311 2.02344C3.26436 2.02344 3.22656 2.05502 3.22656 2.09397C3.22656 2.13292 3.26436 2.1645 3.311 2.1645Z" fill="white" stroke="#EF2D28" stroke-width="0.0315479"/>
<path fill-rule="evenodd" clip-rule="evenodd" d="M2.88672 1.90625H3.28181L3.08426 2.11851L2.88672 1.90625Z" fill="white" stroke="#EF2D28" stroke-width="0.0315479"/>
<path d="M3.08524 2.16464C3.14742 2.16464 3.19782 2.12254 3.19782 2.0706C3.19782 2.01867 3.14742 1.97656 3.08524 1.97656C3.02306 1.97656 2.97266 2.01867 2.97266 2.0706C2.97266 2.12254 3.02306 2.16464 3.08524 2.16464Z" fill="white" stroke="#EF2D28" stroke-width="0.0420643"/>
<path d="M3.23085 2.77344H2.68825C2.67058 2.77344 2.65625 2.78446 2.65625 2.79806V2.89055C2.65625 2.90414 2.67058 2.91517 2.68825 2.91517H3.23085C3.24853 2.91517 3.26285 2.90414 3.26285 2.89055V2.79806C3.26285 2.78446 3.24853 2.77344 3.23085 2.77344Z" fill="white" stroke="#EF2D28" stroke-width="0.0281498"/>
<path fill-rule="evenodd" clip-rule="evenodd" d="M3.4462 2.65677C3.37326 2.65677 3.31446 2.712 3.31446 2.77987V2.887C3.31396 2.90283 3.31699 2.91861 3.32336 2.93339C3.32973 2.94818 3.33932 2.96169 3.35158 2.97314C3.36383 2.98459 3.3785 2.99375 3.39475 3.00009C3.41099 3.00644 3.42848 3.00984 3.4462 3.01009C3.46392 3.00984 3.48141 3.00644 3.49765 3.00009C3.5139 2.99375 3.52857 2.98459 3.54082 2.97314C3.55308 2.96169 3.56267 2.94818 3.56904 2.93339C3.57541 2.91861 3.57844 2.90283 3.57794 2.887V2.78053C3.57854 2.76464 3.57558 2.74879 3.56926 2.73393C3.56293 2.71907 3.55336 2.70548 3.54109 2.69396C3.52883 2.68244 3.51412 2.67321 3.49783 2.66683C3.48154 2.66044 3.46399 2.65702 3.4462 2.65677ZM3.4462 2.70334C3.40229 2.70334 3.3673 2.74793 3.3673 2.80249V2.86437C3.3673 2.91893 3.40229 2.96285 3.4462 2.96285C3.49011 2.96285 3.5251 2.91893 3.5251 2.86437V2.80249C3.5251 2.74793 3.49011 2.70401 3.4462 2.70401V2.70334ZM2.7607 2.68006C2.71604 2.68006 2.6818 2.72397 2.6818 2.7792V2.88833C2.6818 2.94289 2.71679 2.98681 2.7607 2.98681C2.80461 2.98681 2.8396 2.94289 2.8396 2.88833V2.77854C2.8396 2.72331 2.80461 2.67939 2.7607 2.67939V2.68006ZM2.7607 2.63348C2.74298 2.63374 2.72549 2.63714 2.70925 2.64348C2.693 2.64982 2.67833 2.65898 2.66608 2.67043C2.65382 2.68188 2.64423 2.69539 2.63786 2.71018C2.63149 2.72497 2.62846 2.74074 2.62896 2.75658V2.91095C2.62846 2.92679 2.63149 2.94256 2.63786 2.95735C2.64423 2.97213 2.65382 2.98564 2.66608 2.99709C2.67833 3.00854 2.693 3.0177 2.70925 3.02405C2.72549 3.03039 2.74298 3.03379 2.7607 3.03405C2.83364 3.03405 2.89244 2.97882 2.89244 2.91095V2.75658C2.89304 2.74068 2.89008 2.72484 2.88376 2.70998C2.87743 2.69511 2.86786 2.68152 2.85559 2.67C2.84333 2.65848 2.82862 2.64926 2.81233 2.64287C2.79604 2.63649 2.77849 2.63307 2.7607 2.63281V2.63348Z" fill="white" stroke="#EF2D28" stroke-width="0.0281498"/>
<path fill-rule="evenodd" clip-rule="evenodd" d="M2.54976 2.72693C2.50585 2.72693 2.47087 2.77085 2.47087 2.82541V2.85136C2.47087 2.90592 2.50585 2.94984 2.54976 2.94984C2.59442 2.94984 2.6294 2.90592 2.6294 2.85136V2.82541C2.6294 2.77085 2.59368 2.72693 2.54976 2.72693ZM2.54976 2.68035C2.53204 2.68061 2.51455 2.68401 2.49831 2.69035C2.48207 2.6967 2.46739 2.70586 2.45514 2.71731C2.44289 2.72876 2.4333 2.74227 2.42692 2.75706C2.42055 2.77184 2.41753 2.78761 2.41802 2.80345V2.87398C2.41753 2.88982 2.42055 2.90559 2.42692 2.92038C2.4333 2.93517 2.44289 2.94868 2.45514 2.96013C2.46739 2.97158 2.48207 2.98074 2.49831 2.98708C2.51455 2.99343 2.53204 2.99683 2.54976 2.99708C2.6227 2.99708 2.68225 2.94186 2.68225 2.87398V2.80345C2.68284 2.7875 2.67987 2.77161 2.6735 2.7567C2.66712 2.74179 2.65748 2.72817 2.64514 2.71664C2.6328 2.70511 2.618 2.6959 2.60162 2.68956C2.58524 2.68321 2.56761 2.67986 2.54976 2.67969V2.68035Z" fill="white" stroke="#EF2D28" stroke-width="0.0281498"/>
<path fill-rule="evenodd" clip-rule="evenodd" d="M2.2347 2.66217C2.15432 2.66217 2.09135 2.71126 2.09135 2.77223V2.89494C2.09135 2.95517 2.15566 3.005 2.2347 3.005C2.31375 3.005 2.37671 2.95592 2.37671 2.89419V2.77223C2.37671 2.71126 2.31241 2.66217 2.2347 2.66217ZM2.2347 2.61012C2.2028 2.61031 2.17129 2.61401 2.14199 2.62101C2.11269 2.62801 2.08618 2.63817 2.064 2.6509C2.04182 2.66362 2.02441 2.67867 2.01277 2.69516C2.00114 2.71164 1.99552 2.72925 1.99623 2.74695V2.91948C1.99516 2.93724 2.00047 2.95495 2.01186 2.97156C2.02324 2.98817 2.04048 3.00336 2.06255 3.01623C2.08463 3.02911 2.1111 3.03942 2.14043 3.04655C2.16975 3.05369 2.20135 3.05751 2.23336 3.0578C2.366 3.0578 2.47184 2.99607 2.47184 2.91948V2.74695C2.47273 2.72925 2.46728 2.71162 2.45581 2.6951C2.44434 2.67857 2.42708 2.66347 2.40502 2.65068C2.38297 2.63788 2.35656 2.62764 2.32732 2.62055C2.29808 2.61346 2.2666 2.60966 2.2347 2.60938V2.61012Z" fill="white" stroke="#EF2D28" stroke-width="0.0299444"/>
<path fill-rule="evenodd" clip-rule="evenodd" d="M3.94955 2.68561C3.86916 2.68561 3.80619 2.73469 3.80619 2.79567V2.91837C3.80619 2.97861 3.8705 3.02843 3.94955 3.02843C4.02859 3.02843 4.09156 2.97935 4.09156 2.91763V2.79567C4.09156 2.73469 4.02725 2.68561 3.94955 2.68561ZM3.94955 2.63356C3.91765 2.63375 3.88613 2.63745 3.85683 2.64445C3.82753 2.65145 3.80102 2.66161 3.77884 2.67434C3.75666 2.68706 3.73925 2.7021 3.72762 2.71859C3.71599 2.73508 3.71036 2.75269 3.71107 2.77039V2.94291C3.71 2.96068 3.71531 2.97838 3.7267 2.995C3.73809 3.01161 3.75532 3.02679 3.7774 3.03967C3.79947 3.05255 3.82594 3.06285 3.85527 3.06999C3.8846 3.07713 3.91619 3.08095 3.94821 3.08123C4.08084 3.08123 4.18668 3.01951 4.18668 2.94291V2.77039C4.18757 2.75269 4.18212 2.73506 4.17066 2.71854C4.15919 2.70201 4.14192 2.68691 4.11987 2.67411C4.09781 2.66132 4.0714 2.65108 4.04216 2.64399C4.01293 2.6369 3.98145 2.6331 3.94955 2.63281V2.63356Z" fill="white" stroke="#EF2D28" stroke-width="0.0299444"/>
<path d="M3.79921 2.77344H3.51712C3.50766 2.77344 3.5 2.78446 3.5 2.79806V2.89055C3.5 2.90414 3.50766 2.91517 3.51712 2.91517H3.79921C3.80866 2.91517 3.81633 2.90414 3.81633 2.89055V2.79806C3.81633 2.78446 3.80866 2.77344 3.79921 2.77344Z" fill="white" stroke="#EF2D28" stroke-width="0.0281498"/>
<path d="M3.38194 2.75H3.21671C3.21136 2.75 3.20703 2.7646 3.20703 2.7826V2.90637C3.20703 2.92438 3.21136 2.93897 3.21671 2.93897H3.38194C3.38729 2.93897 3.39162 2.92438 3.39162 2.90637V2.7826C3.39162 2.7646 3.38729 2.75 3.38194 2.75Z" fill="white" stroke="#EF2D28" stroke-width="0.0281498"/>
<path d="M2.51475 2.75H2.34952C2.34418 2.75 2.33984 2.7646 2.33984 2.7826V2.90637C2.33984 2.92438 2.34418 2.93897 2.34952 2.93897H2.51475C2.5201 2.93897 2.52443 2.92438 2.52443 2.90637V2.7826C2.52443 2.7646 2.5201 2.75 2.51475 2.75Z" fill="white" stroke="#EF2D28" stroke-width="0.0281498"/>
<path d="M2.10763 2.72656H1.77716C1.76648 2.72656 1.75781 2.74474 1.75781 2.76715V2.92152C1.75781 2.94394 1.76648 2.96211 1.77716 2.96211H2.10763C2.11832 2.96211 2.12699 2.94394 2.12699 2.92152V2.76715C2.12699 2.74474 2.11832 2.72656 2.10763 2.72656Z" fill="white" stroke="#EF2D28" stroke-width="0.0281498"/>
<path d="M4.3753 2.75H4.06939C4.05911 2.75 4.05078 2.76817 4.05078 2.79059V2.94496C4.05078 2.96738 4.05911 2.98555 4.06939 2.98555H4.3753C4.38557 2.98555 4.3939 2.96738 4.3939 2.94496V2.79059C4.3939 2.76817 4.38557 2.75 4.3753 2.75Z" fill="white" stroke="#EF2D28" stroke-width="0.0281498"/>
</g>
</g>
<defs>
<clipPath id="clip0_2146_57024">
<rect width="24" height="18" fill="white"/>
</clipPath>
</defs>
</svg>
