<svg width="300" height="246" viewBox="0 0 300 246" fill="none" xmlns="http://www.w3.org/2000/svg">
<path d="M266.352 165.12H157.902C155.964 165.12 154.386 163.542 154.386 161.604V3.63612C154.386 1.69812 155.964 0.120117 157.902 0.120117H266.352C268.29 0.120117 269.868 1.69812 269.868 3.63612V161.604C269.868 163.542 268.29 165.12 266.352 165.12ZM157.902 0.270117C156.048 0.270117 154.536 1.78212 154.536 3.63612V161.604C154.536 163.458 156.048 164.97 157.902 164.97H266.352C268.206 164.97 269.718 163.458 269.718 161.604V3.63612C269.718 1.78212 268.206 0.270117 266.352 0.270117H157.902Z" fill="#E0E0E0"/>
<path d="M141.294 165.12H32.85C30.912 165.12 29.334 163.542 29.334 161.604V3.63612C29.334 1.69812 30.912 0.120117 32.85 0.120117H141.294C143.232 0.120117 144.81 1.69812 144.81 3.63612V161.604C144.81 163.542 143.232 165.12 141.294 165.12ZM32.85 0.270117C30.996 0.270117 29.484 1.78212 29.484 3.63612V161.604C29.484 163.458 30.996 164.97 32.85 164.97H141.294C143.148 164.97 144.66 163.458 144.66 161.604V3.63612C144.66 1.78212 143.148 0.270117 141.294 0.270117H32.85Z" fill="#E0E0E0"/>
<path d="M300 201.762H0V201.912H300V201.762Z" fill="#E0E0E0"/>
<path d="M40.638 210.318H31.002V210.468H40.638V210.318Z" fill="#E0E0E0"/>
<path d="M134.328 208.692H102.21V208.842H134.328V208.692Z" fill="#E0E0E0"/>
<path d="M62.988 215.892H41.238V216.042H62.988V215.892Z" fill="#E0E0E0"/>
<path d="M252.924 208.614H227.01V208.764H252.924V208.614Z" fill="#E0E0E0"/>
<path d="M262.068 208.614H258.27V208.764H262.068V208.614Z" fill="#E0E0E0"/>
<path d="M222.06 212.352H189.726V212.502H222.06V212.352Z" fill="#E0E0E0"/>
<path d="M42.048 182.304C42.042 182.094 41.34 161.358 37.968 158.082C34.686 154.896 30.924 157.962 30.762 158.094L30.426 157.686C30.468 157.65 34.716 154.182 38.334 157.698C41.856 161.124 42.546 181.422 42.576 182.28L42.048 182.298V182.304Z" fill="#E0E0E0"/>
<path d="M42.336 186.384C42.312 186.138 40.032 161.49 49.032 151.164L49.428 151.512C40.578 161.67 42.834 186.09 42.858 186.336L42.33 186.39L42.336 186.384Z" fill="#E0E0E0"/>
<path d="M42.006 183.774L41.478 183.738C41.496 183.456 43.242 155.724 36.636 149.652L36.996 149.262C43.782 155.502 42.084 182.622 42.006 183.774Z" fill="#E0E0E0"/>
<path d="M42.864 183.762H42.336C42.342 182.994 42.552 165.024 47.658 162.096C48.792 161.442 49.902 161.334 50.958 161.772C54.042 163.05 55.572 168.54 55.638 168.774L55.128 168.912C55.116 168.858 53.604 163.434 50.754 162.258C49.854 161.886 48.9 161.988 47.916 162.552C43.074 165.33 42.858 183.576 42.858 183.762H42.864Z" fill="#E0E0E0"/>
<path d="M40.878 183.774L40.35 183.744C40.356 183.6 41.118 169.542 37.326 164.586C36.408 163.386 35.406 162.816 34.356 162.888C31.872 163.062 29.784 166.698 29.766 166.734L29.304 166.476C29.394 166.314 31.548 162.552 34.32 162.36C35.562 162.27 36.714 162.912 37.746 164.262C41.658 169.368 40.914 183.18 40.878 183.768V183.774Z" fill="#E0E0E0"/>
<path d="M41.712 185.682C41.61 184.32 39.234 152.214 43.416 146.556L43.842 146.868C39.774 152.37 42.216 185.304 42.24 185.64L41.712 185.682Z" fill="#E0E0E0"/>
<path d="M52.098 165.024C52.098 165.024 49.59 165.948 50.334 168.132C51.078 170.316 59.016 173.91 59.016 173.91C59.016 173.91 62.34 170.862 59.286 165.912C56.232 160.956 52.164 163.464 52.098 165.024Z" fill="#EBEBEB"/>
<path d="M41.19 160.866C41.19 160.866 43.86 160.752 44.016 163.056C44.166 165.36 38.226 171.732 38.226 171.732C38.226 171.732 33.984 170.202 34.896 164.454C35.808 158.706 40.524 159.45 41.19 160.866Z" fill="#EBEBEB"/>
<path d="M38.928 149.844C38.928 149.844 40.71 149.652 40.566 148.566C40.422 147.48 33.642 144.69 29.64 149.202C29.64 149.202 32.202 153.6 35.904 153.66C39.606 153.72 38.928 149.838 38.928 149.838V149.844Z" fill="#EBEBEB"/>
<path d="M42.252 147.21C42.252 147.21 40.638 147.99 40.188 146.994C39.738 145.998 44.016 140.04 49.8 141.756C49.8 141.756 49.956 146.844 46.842 148.854C43.728 150.864 42.258 147.21 42.258 147.21H42.252Z" fill="#EBEBEB"/>
<path d="M33.816 164.148C33.816 164.148 35.046 163.158 33.72 162.672C32.394 162.186 25.884 162.324 25.812 168.774C25.812 168.774 33.396 170.034 34.332 167.58C35.268 165.126 33.816 164.154 33.816 164.154V164.148Z" fill="#EBEBEB"/>
<path d="M49.278 149.682C49.278 149.682 48.048 148.692 49.374 148.206C50.7 147.72 57.21 147.858 57.276 154.308C57.276 154.308 49.692 155.568 48.756 153.114C47.82 150.66 49.272 149.688 49.272 149.688L49.278 149.682Z" fill="#EBEBEB"/>
<path d="M45.27 154.878C45.27 154.878 45.162 153.672 46.134 154.146C47.106 154.62 50.502 158.28 46.986 161.754C46.986 161.754 42.252 158.244 43.104 156.42C43.956 154.596 45.27 154.878 45.27 154.878Z" fill="#EBEBEB"/>
<path d="M32.718 156.6C32.718 156.6 33.45 155.634 32.376 155.52C31.302 155.4 26.478 156.69 27.6 161.502C27.6 161.502 33.474 161.058 33.726 159.06C33.978 157.062 32.718 156.6 32.718 156.6Z" fill="#EBEBEB"/>
<path d="M53.082 201.636H32.916L30.744 179.556H55.254L53.082 201.636Z" fill="#F0F0F0"/>
<path d="M55.818 177.12H29.154V181.992H55.818V177.12Z" fill="#E6E6E6"/>
<path d="M276.096 78.4981H218.364V79.4701H276.096V78.4981Z" fill="#E0E0E0"/>
<path d="M254.97 97.9201C253.596 111.576 254.622 122.046 255.138 134.55C255.684 147.81 253.482 160.854 253.848 174.876C254.676 174.354 255.42 174.096 256.17 174.876C257.262 175.638 258.21 175.884 259.056 174.876C260.166 174.876 260.922 174.348 261.54 174.876C262.368 163.986 263.478 152.568 262.368 145.128C262.212 143.61 266.778 144.018 266.874 141.882C267.354 132.054 265.308 114.024 263.61 98.0281C263.61 97.9141 263.598 97.8001 263.568 97.6861L261.66 89.5621C261.564 89.1361 261.366 88.7401 261.096 88.4041L260.58 87.7561L259.752 83.6101V78.4981H259.272V83.5801L257.79 85.9441L253.176 90.0481L254.976 97.9261L254.97 97.9201Z" fill="#E0E0E0"/>
<path d="M224.406 89.5921L223.032 96.9661C223.032 97.0321 223.032 97.0921 223.032 97.1581L220.722 174.87C221.55 173.214 222.288 173.508 223.044 174.87C224.07 176.214 225.03 176.268 225.93 174.87C227.082 173.646 227.814 174 228.414 174.87L229.242 145.122L230.484 98.0221C230.502 97.9081 230.502 97.7941 230.484 97.6801L228.576 89.5561C228.48 89.1301 228.282 88.7341 228.012 88.3981L227.496 87.7501L226.668 83.6041V78.4921H226.188V83.5741L225.684 87.8521L224.952 88.6801C224.682 88.9261 224.496 89.2381 224.406 89.5921Z" fill="#E0E0E0"/>
<path d="M234.138 89.5921L232.764 96.9661C232.764 97.0321 232.764 97.0921 232.764 97.1581C230.706 121.296 230.106 147.426 230.454 174.87C231.282 173.214 232.014 173.508 232.764 174.87C233.79 176.214 234.75 176.268 235.656 174.87C236.802 173.646 237.528 174 238.14 174.87C238.968 163.98 240.09 152.562 238.968 145.122C238.14 136.644 242.28 117.504 240.21 98.0221C240.222 97.9081 240.222 97.7941 240.21 97.6801L238.296 89.5561C238.2 89.1301 238.002 88.7341 237.732 88.3981L237.216 87.7501L236.388 83.6041V78.4921H235.908V83.5741L235.32 87.8521L234.588 88.6801C234.354 88.9381 234.198 89.2501 234.132 89.5921H234.138Z" fill="#E0E0E0"/>
<path d="M265.512 89.5921L264.138 96.9661C264.138 97.0321 264.138 97.0921 264.138 97.1581C262.08 121.296 261.48 147.426 261.828 174.87C262.656 173.214 263.388 173.508 264.138 174.87C265.164 176.214 266.124 176.268 267.03 174.87C268.176 173.646 268.902 174 269.514 174.87C270.342 163.98 271.464 152.562 270.342 145.122C269.514 136.644 273.654 117.504 271.584 98.0221C271.596 97.9081 271.596 97.7941 271.584 97.6801L269.67 89.5561C269.568 89.1361 269.382 88.7401 269.112 88.3981L268.596 87.7501L267.768 83.6041V78.4921H267.288V83.5741L266.784 87.8521L266.052 88.6801C265.794 88.9321 265.602 89.2441 265.506 89.5921H265.512Z" fill="#E0E0E0"/>
<path d="M245.844 89.5921L244.434 96.9661V97.1581C240.798 109.5 242.91 122.094 243.426 134.55C243.966 147.81 241.77 160.854 242.136 174.876C242.964 174.354 243.702 174.096 244.446 174.876C245.538 175.638 246.486 175.884 247.332 174.876C248.442 174.876 249.198 174.348 249.816 174.876C250.644 163.986 251.754 152.568 250.644 145.128C250.488 143.61 255.054 144.018 255.15 141.882C255.63 132.054 253.584 114.024 251.886 98.0281C251.886 97.9141 251.874 97.8001 251.844 97.6861L249.936 89.5621C249.84 89.1361 249.642 88.7401 249.372 88.4041L248.856 87.7561L248.028 83.6101V78.4981H247.548V83.5801L247.044 87.8581L246.312 88.6861C246.072 88.9381 245.91 89.2561 245.838 89.5981L245.844 89.5921Z" fill="#E0E0E0"/>
<path d="M149.124 28.8661H105.114V84.9181H149.124V28.8661Z" fill="#E6E6E6"/>
<path d="M146.148 32.6521H108.084V81.1321H146.148V32.6521Z" fill="#FAFAFA"/>
<path d="M126.798 52.2061C129.068 52.2061 130.908 50.366 130.908 48.0961C130.908 45.8262 129.068 43.9861 126.798 43.9861C124.528 43.9861 122.688 45.8262 122.688 48.0961C122.688 50.366 124.528 52.2061 126.798 52.2061Z" fill="#E0E0E0"/>
<path d="M136.068 53.9101L127.122 69.4081L118.17 53.9101H136.068Z" fill="#E0E0E0"/>
<path d="M203.868 11.6461H160.746V66.5641H203.868V11.6461Z" fill="#E6E6E6"/>
<path d="M200.958 15.3541H163.656V62.8561H200.958V15.3541Z" fill="#FAFAFA"/>
<path d="M186.018 30.4861C186.018 32.7121 184.218 34.5121 181.992 34.5121C179.766 34.5121 177.966 32.7121 177.966 30.4861C177.966 28.2601 179.766 26.4601 181.992 26.4601C184.218 26.4601 186.018 28.2601 186.018 30.4861Z" fill="#E0E0E0"/>
<path d="M173.538 51.3721L182.304 36.1861L191.076 51.3721H173.538Z" fill="#E0E0E0"/>
<path d="M79.086 72.7141C80.0834 72.7141 80.892 71.9055 80.892 70.9081C80.892 69.9107 80.0834 69.1021 79.086 69.1021C78.0886 69.1021 77.28 69.9107 77.28 70.9081C77.28 71.9055 78.0886 72.7141 79.086 72.7141Z" fill="#E0E0E0"/>
<path d="M36.276 72.7141C37.2734 72.7141 38.082 71.9055 38.082 70.9081C38.082 69.9107 37.2734 69.1021 36.276 69.1021C35.2786 69.1021 34.47 69.9107 34.47 70.9081C34.47 71.9055 35.2786 72.7141 36.276 72.7141Z" fill="#E0E0E0"/>
<path d="M281.25 242.034C281.25 244.068 222.486 245.712 150 245.712C77.514 245.712 18.75 244.062 18.75 242.034C18.75 240.006 77.514 238.356 150 238.356C222.486 238.356 281.25 240.006 281.25 242.034Z" fill="#F5F5F5"/>
<path d="M282.846 55.2241H211.62V61.7401H282.846V55.2241Z" fill="#263238"/>
<path d="M222.834 44.2861L222.39 44.2081C222.696 42.4921 223.014 40.7221 223.692 39.0661C224.22 37.7641 225.222 35.9761 226.968 34.8781C229.554 33.2521 233.238 33.6421 235.728 35.8021C237.954 37.7341 239.172 40.9681 238.908 44.2441L238.458 44.2081C238.71 41.0701 237.552 37.9741 235.434 36.1381C233.13 34.1341 229.59 33.7561 227.208 35.2561C225.564 36.2941 224.616 37.9921 224.112 39.2341C223.458 40.8481 223.14 42.5941 222.84 44.2861H222.834Z" fill="#263238"/>
<path d="M240.966 47.7301C240.966 51.8701 236.472 55.2241 230.934 55.2241C225.396 55.2241 220.902 51.8701 220.902 47.7301C220.902 45.9001 221.388 43.8481 222.852 42.5461C224.694 40.9081 227.85 40.2361 230.934 40.2361C233.61 40.2361 236.736 40.7701 238.536 42.0481C240.456 43.4161 240.966 45.5881 240.966 47.7301Z" fill="#FBCF26"/>
<path d="M240.966 47.7301C240.966 51.8701 236.472 55.2241 230.934 55.2241C225.396 55.2241 220.902 51.8701 220.902 47.7301C220.902 45.9001 221.388 43.8481 222.852 42.5461C224.694 40.9081 227.85 40.2361 230.934 40.2361C233.61 40.2361 236.736 40.7701 238.536 42.0481C240.456 43.4161 240.966 45.5881 240.966 47.7301Z" fill="black"/>
<path d="M221.574 45.0361C221.574 45.0361 224.502 48.5581 230.94 48.6181C237.372 48.6781 240.306 45.0361 240.306 45.0361C240.306 45.0361 237.852 49.9021 230.412 49.9021C224.97 49.9021 221.574 45.0361 221.574 45.0361Z" fill="black"/>
<path d="M230.61 47.4721C231.057 47.4721 231.42 47.1095 231.42 46.6621C231.42 46.2148 231.057 45.8521 230.61 45.8521C230.163 45.8521 229.8 46.2148 229.8 46.6621C229.8 47.1095 230.163 47.4721 230.61 47.4721Z" fill="#263238"/>
<path d="M275.43 40.8901H253.374V54.9421H275.43V40.8901Z" fill="#FBCF26"/>
<path d="M276.822 39.3001H251.982V45.1801H276.822V39.3001Z" fill="#FBCF26"/>
<path d="M275.43 45.2341H253.374V46.6861H275.43V45.2341Z" fill="black"/>
<path d="M267.666 41.1601H261.144C260.614 41.1601 260.184 41.5899 260.184 42.1201V42.3301C260.184 42.8603 260.614 43.2901 261.144 43.2901H267.666C268.196 43.2901 268.626 42.8603 268.626 42.3301V42.1201C268.626 41.5899 268.196 41.1601 267.666 41.1601Z" fill="black"/>
<path d="M278.376 38.0281C277.494 37.5001 276.492 37.1041 275.424 36.8461C275.088 36.8881 271.716 37.2841 270.174 35.5321C268.554 33.6841 266.262 27.3301 262.554 27.7021C262.578 27.6601 262.608 27.6241 262.632 27.5821C262.608 27.6121 262.578 27.6361 262.554 27.6601C262.44 27.7921 262.356 27.9361 262.29 28.0861C262.098 28.8541 261.966 29.6281 261.9 30.4021C261.726 33.0481 261.846 36.5881 262.08 39.2281H262.866L262.968 33.3541C262.968 31.6621 264.804 33.6301 265.326 35.4361C265.848 37.2421 266.934 39.2221 271.83 39.2281C277.464 39.2521 279.834 39.0661 278.376 38.0281Z" fill="#263238"/>
<path d="M278.376 38.0281C277.494 37.5001 276.492 37.1041 275.424 36.8461C275.088 36.8881 271.716 37.2841 270.174 35.5321C268.554 33.6841 266.262 27.3301 262.554 27.7021C262.578 27.6601 262.608 27.6241 262.632 27.5821C262.608 27.6121 262.578 27.6361 262.554 27.6601C262.44 27.7921 262.356 27.9361 262.29 28.0861C262.098 28.8541 261.966 29.6281 261.9 30.4021C261.726 33.0481 261.846 36.5881 262.08 39.2281H262.866L262.968 33.3541C262.968 31.6621 264.804 33.6301 265.326 35.4361C265.848 37.2421 266.934 39.2221 271.83 39.2281C277.464 39.2521 279.834 39.0661 278.376 38.0281Z" fill="black"/>
<path d="M269.082 38.0281C268.2 37.5001 267.198 37.1041 266.13 36.8461C265.794 36.8881 262.422 37.2841 260.88 35.5321C259.26 33.6841 256.968 27.3301 253.26 27.7021C253.284 27.6601 253.314 27.6241 253.338 27.5821C253.314 27.6121 253.284 27.6361 253.26 27.6601C253.146 27.7921 253.062 27.9361 252.996 28.0861C252.804 28.8541 252.672 29.6281 252.606 30.4021C252.432 33.0481 252.552 36.5881 252.786 39.2281H253.572L253.674 33.3541C253.674 31.6621 255.51 33.6301 256.032 35.4361C256.554 37.2421 257.64 39.2221 262.536 39.2281C268.17 39.2521 270.54 39.0661 269.082 38.0281Z" fill="#263238"/>
<path d="M66.516 38.1601L66.066 38.1361C66.084 37.8121 66.096 37.4701 66.114 37.1161C66.21 34.8001 66.336 31.9141 67.578 29.9761C68.868 27.9661 71.052 26.7721 74.076 26.4181C76.806 26.1001 79.566 27.2581 81.114 29.3641C82.806 31.6621 82.932 34.7041 82.92 37.6261H82.47C82.482 34.7821 82.362 31.8181 80.754 29.6341C79.296 27.6541 76.698 26.5681 74.13 26.8681C71.25 27.2041 69.174 28.3321 67.956 30.2221C66.774 32.0581 66.66 34.8781 66.564 37.1401C66.552 37.4941 66.534 37.8421 66.516 38.1661V38.1601Z" fill="#263238"/>
<path d="M86.106 51.5101H62.88L65.274 36.4141H84.222L86.106 51.5101Z" fill="#FBCF26"/>
<path d="M65.274 36.4141C65.274 36.4141 68.13 43.9321 74.496 43.9621C80.862 43.9861 84.222 36.4141 84.222 36.4141C84.222 36.4141 81.102 45.4201 74.496 45.2881C67.89 45.1501 65.274 36.4141 65.274 36.4141Z" fill="black"/>
<path d="M76.47 41.2261H72.69V41.9581H76.47V41.2261Z" fill="#263238"/>
<path d="M52.902 48.3121H29.094C28.4909 48.3121 28.002 48.801 28.002 49.4041V50.3041C28.002 50.9072 28.4909 51.3961 29.094 51.3961H52.902C53.5051 51.3961 53.994 50.9072 53.994 50.3041V49.4041C53.994 48.801 53.5051 48.3121 52.902 48.3121Z" fill="#FBCF26"/>
<path d="M27.192 46.3261V47.2201C27.204 47.8381 27.714 48.3241 28.332 48.3121H53.016C53.634 48.3241 54.144 47.8321 54.156 47.2201V46.3261C54.144 45.7081 53.634 45.2161 53.016 45.2281H28.314C27.702 45.2281 27.204 45.7201 27.192 46.3261Z" fill="#FBCF26"/>
<path d="M27.192 46.3261V47.2201C27.204 47.8381 27.714 48.3241 28.332 48.3121H53.016C53.634 48.3241 54.144 47.8321 54.156 47.2201V46.3261C54.144 45.7081 53.634 45.2161 53.016 45.2281H28.314C27.702 45.2281 27.204 45.7201 27.192 46.3261Z" fill="black"/>
<path d="M27.27 44.1301C27.288 44.7541 27.804 45.2401 28.428 45.2221H53.562C54.186 45.2401 54.702 44.7481 54.72 44.1301V43.2361C54.708 42.6121 54.192 42.1201 53.568 42.1321H28.428C27.804 42.1141 27.288 42.6061 27.27 43.2241V44.1301Z" fill="#FBCF26"/>
<path d="M27.918 40.1461V41.0401C27.918 41.6461 28.41 42.1381 29.022 42.1381H52.896C53.502 42.1381 54 41.6461 54 41.0401V40.1461C54 39.5401 53.502 39.0541 52.896 39.0541H28.986C28.392 39.0721 27.924 39.5581 27.918 40.1461Z" fill="#FBCF26"/>
<path d="M27.918 40.1461V41.0401C27.918 41.6461 28.41 42.1381 29.022 42.1381H52.896C53.502 42.1381 54 41.6461 54 41.0401V40.1461C54 39.5401 53.502 39.0541 52.896 39.0541H28.986C28.392 39.0721 27.924 39.5581 27.918 40.1461Z" fill="black"/>
<path d="M29.304 37.9561C29.28 38.5261 29.718 39.0181 30.288 39.0481H51.618C52.194 39.0181 52.632 38.5261 52.602 37.9561V37.0621C52.632 36.4861 52.194 35.9941 51.618 35.9581H30.318C29.742 35.9761 29.286 36.4561 29.304 37.0381V37.9561Z" fill="#FBCF26"/>
<path d="M93.492 51.2821H22.266V57.7981H93.492V51.2821Z" fill="#263238"/>
<path d="M75.678 228.336H52.542V240.966H75.678V228.336Z" fill="#263238"/>
<path d="M75.678 228.336H52.542V240.966H75.678V228.336Z" fill="white"/>
<path d="M77.142 226.914H51.084V232.2H77.142V226.914Z" fill="#263238"/>
<path d="M77.142 226.914H51.084V232.2H77.142V226.914Z" fill="white"/>
<path d="M75.678 232.242H52.542V233.544H75.678V232.242Z" fill="black"/>
<path d="M66.372 230.496H62.388C61.86 230.496 61.428 230.07 61.428 229.536C61.428 229.008 61.854 228.576 62.388 228.576H66.372C66.9 228.576 67.332 229.002 67.332 229.536C67.332 230.064 66.906 230.496 66.372 230.496Z" fill="black"/>
<path d="M53.154 226.914H22.176V240.966H53.154V226.914Z" fill="#FBCF26"/>
<path d="M55.116 225.33H20.22V231.21H55.116V225.33Z" fill="#FBCF26"/>
<path d="M53.154 231.258H22.176V232.71H53.154V231.258Z" fill="black"/>
<path d="M41.022 227.19H35.04C34.5098 227.19 34.08 227.62 34.08 228.15V228.36C34.08 228.89 34.5098 229.32 35.04 229.32H41.022C41.5522 229.32 41.982 228.89 41.982 228.36V228.15C41.982 227.62 41.5522 227.19 41.022 227.19Z" fill="black"/>
<path d="M53.154 210.294H22.176V225.33H53.154V210.294Z" fill="#263238"/>
<path d="M55.116 208.596H20.22V214.89H55.116V208.596Z" fill="#263238"/>
<path d="M53.154 214.944H22.176V216.498H53.154V214.944Z" fill="black"/>
<path d="M41.022 210.588H35.04C34.5098 210.588 34.08 211.018 34.08 211.548V211.908C34.08 212.438 34.5098 212.868 35.04 212.868H41.022C41.5522 212.868 41.982 212.438 41.982 211.908V211.548C41.982 211.018 41.5522 210.588 41.022 210.588Z" fill="black"/>
<path d="M254.124 142.728H250.488V234.318H254.124V142.728Z" fill="#263238"/>
<path d="M254.124 142.728H250.488V234.318H254.124V142.728Z" fill="white"/>
<path d="M237.024 240.966L250.488 231.984L252.3 233.424L240.498 240.966H237.024Z" fill="#263238"/>
<path d="M237.024 240.966L250.488 231.984L252.3 233.424L240.498 240.966H237.024Z" fill="white"/>
<path d="M267.582 240.966L254.118 231.984L252.3 233.424L264.108 240.966H267.582Z" fill="#263238"/>
<path d="M267.582 240.966L254.118 231.984L252.3 233.424L264.108 240.966H267.582Z" fill="white"/>
<path d="M233.544 108.054C233.184 105.822 234.57 103.692 236.76 103.134C240.582 102.168 246.858 100.452 247.62 99.4381C248.724 97.9681 249.462 90.9721 249.462 90.9721L253.878 91.7101V153.726H236.394C236.394 153.726 236.58 149.676 238.05 144.522C239.52 139.368 242.1 134.034 242.1 134.034C242.1 134.034 234.918 116.484 233.55 108.054H233.544Z" fill="#FBCF26"/>
<path d="M271.74 108.054C272.1 105.822 270.714 103.692 268.524 103.134C264.702 102.168 258.426 100.452 257.664 99.4381C256.56 97.9681 255.822 90.9721 255.822 90.9721L251.406 91.7101V153.726H268.89C268.89 153.726 268.704 149.676 267.234 144.522C265.764 139.368 263.184 134.034 263.184 134.034C263.184 134.034 270.366 116.484 271.734 108.054H271.74Z" fill="#FBCF26"/>
<path d="M252.954 95.3341C255.525 95.3341 257.61 91.2644 257.61 86.2441C257.61 81.2238 255.525 77.1541 252.954 77.1541C250.383 77.1541 248.298 81.2238 248.298 86.2441C248.298 91.2644 250.383 95.3341 252.954 95.3341Z" fill="black"/>
<path d="M252.954 93.5521C257.732 93.5521 261.606 88.7732 261.606 82.8781C261.606 76.983 257.732 72.2041 252.954 72.2041C248.176 72.2041 244.302 76.983 244.302 82.8781C244.302 88.7732 248.176 93.5521 252.954 93.5521Z" fill="#FBCF26"/>
<path d="M236.172 117.93C236.172 117.93 242.958 109.35 252.954 117.93C252.954 117.93 263.04 108.582 268.794 118.908L264.012 134.34C264.012 134.34 272.292 154.638 271.8 170.49L273.828 216.558H266.91L264.498 179.616L262.884 216.558H234.948C234.948 216.558 234.42 158.484 237.522 146.544C239.934 137.262 241.398 134.34 241.398 134.34L236.172 117.93Z" fill="#263238"/>
<path d="M22.788 85.5901C22.374 85.5901 22.014 85.3201 21.9 84.9241C21.786 84.5221 21.948 84.1081 22.302 83.8861L37.422 74.4841L53.808 83.9341C54.162 84.1381 54.33 84.5401 54.222 84.9301C54.114 85.3261 53.772 85.5901 53.364 85.5901H22.788ZM22.614 84.3961C22.422 84.5161 22.458 84.7021 22.476 84.7561C22.494 84.8101 22.56 84.9901 22.788 84.9901H53.358C53.562 84.9901 53.622 84.8281 53.634 84.7741C53.646 84.7201 53.676 84.5521 53.502 84.4501L37.428 75.1801L22.614 84.3901V84.3961Z" fill="#263238"/>
<path d="M37.536 75.1381C37.506 75.1381 37.476 75.1381 37.446 75.1261C37.29 75.0721 37.2 74.9041 37.254 74.7481C37.602 73.6861 37.77 72.5821 37.758 71.4601C37.758 70.9801 37.704 70.3741 37.392 69.9481C37.182 69.6541 36.828 69.4621 36.42 69.4201C35.994 69.3721 35.58 69.4921 35.292 69.7441C34.704 70.2601 34.632 71.2981 35.142 71.9221C35.244 72.0481 35.226 72.2401 35.1 72.3421C34.974 72.4501 34.782 72.4261 34.68 72.3001C33.966 71.4301 34.068 70.0201 34.896 69.2941C35.31 68.9281 35.892 68.7601 36.486 68.8201C37.062 68.8861 37.566 69.1681 37.878 69.5941C38.286 70.1581 38.352 70.8841 38.358 71.4541C38.37 72.6361 38.196 73.8061 37.824 74.9341C37.782 75.0601 37.662 75.1441 37.536 75.1441V75.1381Z" fill="#263238"/>
<path d="M29.274 78.9361L37.734 90.6721L44.43 78.4021L53.892 83.8561L57.732 90.5461L52.242 93.3901L50.478 104.268L52.242 120.108C43.23 122.592 34.332 122.658 25.56 120.108L27.018 104.454L25.56 95.1901L18.384 92.5141L20.856 84.9421L29.268 78.9301L29.274 78.9361Z" fill="#FBCF26"/>
<path d="M25.56 95.1961L23.772 88.9921V94.5301L25.56 95.1961Z" fill="black"/>
<path d="M52.242 93.3901L52.944 87.2701L53.91 92.5261L52.242 93.3901Z" fill="black"/>
<path d="M33.18 111.888C33.18 111.888 43.104 106.584 45.582 101.304C45.582 101.304 43.23 111.948 33.18 111.888Z" fill="black"/>
<path d="M96.168 85.5901H65.598C65.184 85.5901 64.824 85.3201 64.71 84.9241C64.596 84.5221 64.758 84.1081 65.112 83.8861L80.232 74.4841L96.618 83.9341C96.972 84.1381 97.14 84.5401 97.032 84.9361C96.924 85.3321 96.582 85.5961 96.174 85.5961L96.168 85.5901ZM65.424 84.3961C65.232 84.5161 65.268 84.7021 65.286 84.7561C65.304 84.8101 65.37 84.9901 65.598 84.9901H96.168C96.372 84.9901 96.432 84.8281 96.444 84.7741C96.456 84.7201 96.486 84.5521 96.312 84.4501L80.238 75.1801L65.424 84.3901V84.3961Z" fill="#263238"/>
<path d="M80.346 75.1381C80.316 75.1381 80.286 75.1381 80.256 75.1261C80.1 75.0721 80.01 74.9041 80.064 74.7481C80.412 73.6861 80.58 72.5761 80.568 71.4601C80.568 70.9801 80.514 70.3741 80.202 69.9481C79.992 69.6541 79.638 69.4621 79.23 69.4201C78.804 69.3721 78.39 69.4921 78.102 69.7441C77.514 70.2601 77.442 71.2981 77.952 71.9221C78.054 72.0481 78.036 72.2401 77.91 72.3421C77.784 72.4501 77.592 72.4261 77.49 72.3001C76.776 71.4301 76.878 70.0201 77.706 69.2941C78.12 68.9281 78.702 68.7601 79.296 68.8201C79.872 68.8861 80.376 69.1681 80.688 69.5941C81.096 70.1581 81.162 70.8841 81.168 71.4541C81.18 72.6361 81.006 73.8061 80.634 74.9341C80.592 75.0601 80.478 75.1441 80.346 75.1441V75.1381Z" fill="#263238"/>
<path d="M72.168 79.3981L70.356 80.4721L71.676 91.3081L72.492 91.0861L72.168 79.3981Z" fill="#263238"/>
<path d="M88.896 79.4401L90.282 80.2321L87.582 90.8881L86.94 90.6541L88.764 79.6561L88.896 79.4401Z" fill="#263238"/>
<path d="M53.91 165.156C57.678 170.328 61.482 172.086 65.052 172.428C69.084 172.296 72.21 169.44 75.372 165.156C76.146 163.848 77.406 163.53 77.73 165.156L78.426 167.124C78.564 167.496 78.978 167.688 79.356 167.544C79.572 167.466 79.734 167.286 79.8 167.064L80.292 165.174C80.442 164.412 81.18 163.92 81.936 164.07C82.494 164.178 82.932 164.616 83.04 165.174L83.628 168.27C84.546 170.766 87.126 174.402 92.802 174.222C96.732 174.27 99.618 169.584 102.534 165.18L88.584 109.17L71.448 108.612L53.91 165.162V165.156Z" fill="#FEF1BD"/>
<path d="M82.458 164.334C82.092 164.028 81.6 163.938 81.15 164.082V132.228L82.458 164.334Z" fill="black"/>
<path d="M65.88 92.3161L70.896 89.9161C72.126 89.3221 73.572 89.3941 74.736 90.1021L80.052 93.3001L84.432 90.5701C86.016 89.5861 88.002 89.5321 89.64 90.4201L94.59 93.1081L89.31 111.66L86.37 112.896C85.608 113.214 84.744 113.154 84.03 112.734L80.826 110.58C80.142 110.124 79.248 110.142 78.582 110.622L76.476 112.146C75.636 112.752 74.568 112.95 73.566 112.698L70.38 111.876L65.886 92.3221L65.88 92.3161Z" fill="#FEF1BD"/>
<path d="M70.374 111.87L69.504 108.09C76.56 109.35 83.46 109.578 90.168 108.606L89.472 112.716C89.472 112.716 80.022 114.84 70.872 111.888" fill="#263238"/>
<path d="M71.646 102.84C72.918 103.56 74.43 103.842 75.882 103.638C77.328 103.434 78.702 102.744 79.734 101.7C79.542 103.32 78.012 104.574 76.392 104.772C74.772 104.97 73.146 104.274 71.892 103.224" fill="black"/>
<path d="M168.936 94.5301C167.04 94.3621 163.218 97.6861 162.198 98.7241C161.178 99.7621 153.108 103.266 153.108 103.266L144.144 92.7121L140.586 94.6381C140.586 94.6381 148.47 110.64 149.28 111.546C150.09 112.452 151.416 112.566 153.834 112.224C156.252 111.882 169.872 102.714 169.536 102.6C169.194 102.486 168.948 94.5301 168.948 94.5301H168.936Z" fill="#B97964"/>
<path d="M144.198 93.2581C144.198 93.2581 145.266 91.9141 145.086 90.5101C144.906 89.1001 145.14 87.9301 144.936 86.8921C144.732 85.8541 144.024 87.0961 143.784 87.8281C143.544 88.5661 143.262 89.3941 142.734 89.1241C142.212 88.8541 139.47 84.5881 138.702 84.2941C137.934 84.0001 138.162 84.8281 138.162 84.8281C138.162 84.8281 137.466 83.8081 136.992 83.9761C136.866 84.0181 136.65 84.3181 136.89 84.8341C137.436 85.9861 138.714 88.3561 138.714 88.3561C138.642 88.2181 136.86 85.4101 136.542 85.0261C136.122 84.5221 135.666 84.4981 135.384 84.7501C134.982 85.1101 137.07 88.6621 137.052 88.8781C137.052 88.8781 135.918 86.7901 135.216 86.7901C134.514 86.7901 135.162 88.1401 135.954 89.2261C136.68 90.2221 137.844 92.3641 138.684 93.3001C139.716 94.4581 140.67 95.0041 142.056 94.5721C143.442 94.1401 144.198 93.2581 144.198 93.2581Z" fill="#B97964"/>
<path d="M138.18 90.2161C138.132 90.2161 138.09 90.1921 138.06 90.1561C138.012 90.0901 138.024 89.9941 138.09 89.9461C139.014 89.2741 140.004 88.6861 141.042 88.2121C141.114 88.1761 141.204 88.2121 141.24 88.2841C141.276 88.3621 141.24 88.4461 141.168 88.4821C140.148 88.9501 139.17 89.5261 138.264 90.1861C138.24 90.2041 138.204 90.2161 138.174 90.2161H138.18Z" fill="black"/>
<path d="M141.39 92.4721C141.39 92.4721 141.372 92.4721 141.366 92.4721C141.282 92.4601 141.228 92.3821 141.24 92.2981C141.396 91.3381 141.984 90.4501 142.806 89.9221C142.878 89.8801 142.968 89.8981 143.016 89.9701C143.058 90.0421 143.04 90.1321 142.968 90.1801C142.218 90.6601 141.684 91.4701 141.54 92.3521C141.528 92.4241 141.462 92.4781 141.39 92.4781V92.4721Z" fill="black"/>
<path d="M171.84 71.3041L177.18 68.2441C174.222 65.6281 170.736 66.2521 168.474 68.3221C167.154 69.5341 167.436 70.6441 166.512 71.3161C165.444 72.0901 164.292 72.5101 163.434 73.5841C162.168 75.1741 162.942 77.8921 162.036 79.7941C161.484 80.9521 160.332 81.7621 160.224 83.0821C160.122 84.3421 161.058 85.4881 160.938 86.7481C160.872 87.4321 160.494 88.1401 160.746 88.7641C160.956 89.2921 161.514 89.4721 162 89.5741C165.486 90.2821 169.134 89.9041 172.458 88.4821C172.776 88.3441 173.124 88.1701 173.268 87.8041C173.37 87.5461 173.346 87.2401 173.316 86.9581C172.818 81.7441 172.326 76.5301 171.828 71.3101L171.84 71.3041Z" fill="#263238"/>
<path d="M178.446 71.5201L175.686 68.6641C177.372 67.5121 179.67 67.7521 181.158 69.2341C181.986 70.0561 182.568 71.2141 183.492 71.8801C184.56 72.6541 185.994 72.7201 186.846 73.8001C188.112 75.3901 187.338 78.1081 188.244 80.0101C188.796 81.1681 189.948 81.9781 190.056 83.2981C190.158 84.5581 189.222 85.7041 189.342 86.9641C189.408 87.6481 189.786 88.3561 189.534 88.9801C189.324 89.5081 188.766 89.6881 188.28 89.7901C184.794 90.4981 181.146 90.1201 177.822 88.6981C177.504 88.5601 177.156 88.3861 177.012 88.0201C176.91 87.7621 176.934 87.4561 176.964 87.1741C177.462 81.9601 177.954 76.7401 178.452 71.5261L178.446 71.5201Z" fill="#263238"/>
<path d="M181.65 93.9541C181.65 93.9541 179.55 94.9861 176.964 97.2181C176.424 97.6801 175.83 98.0821 175.2 98.4181C173.502 99.3181 171.96 99.8341 171.54 99.0181C171.444 98.8381 171.378 98.6461 171.324 98.4421C170.97 97.0741 171.114 95.1481 172.224 94.2661C173.472 93.2701 174.072 92.4241 173.85 91.0801C173.73 90.3181 173.454 89.5321 173.136 88.7641L174.576 87.9001L179.712 82.7161C179.124 85.8961 178.95 92.0761 181.656 93.9601L181.65 93.9541Z" fill="#B97964"/>
<path d="M173.886 91.3681C175.296 90.5281 176.85 89.0761 176.664 87.4141C176.58 86.7121 176.43 86.0521 176.262 85.6261L173.394 89.4241C173.628 90.0361 173.718 90.4441 173.886 91.3681Z" fill="black"/>
<path d="M180.696 76.8661C180.21 82.1461 180.12 84.3781 177.396 87.1501C173.298 91.3141 166.998 89.9101 165.912 84.6841C164.934 79.9741 165.888 72.1381 171.072 69.9181C176.178 67.7341 181.182 71.5921 180.696 76.8721V76.8661Z" fill="#B97964"/>
<path d="M173.862 78.5881C173.838 79.1461 173.532 79.6021 173.184 79.6141C172.836 79.6201 172.578 79.1761 172.602 78.6181C172.626 78.0601 172.932 77.6041 173.28 77.5921C173.628 77.5861 173.886 78.0301 173.862 78.5881Z" fill="#263238"/>
<path d="M168.66 78.5701C168.636 79.1101 168.33 79.5541 167.988 79.5601C167.64 79.5661 167.382 79.1341 167.412 78.5941C167.436 78.0541 167.742 77.6101 168.084 77.6041C168.432 77.5981 168.69 78.0301 168.66 78.5701Z" fill="#263238"/>
<path d="M174.966 76.6441C174.9 76.6501 174.828 76.6321 174.78 76.5841C173.97 75.8341 173.052 76.0981 173.04 76.0981C172.902 76.1401 172.77 76.0621 172.734 75.9241C172.704 75.7861 172.788 75.6421 172.926 75.6001C172.974 75.5881 174.12 75.2521 175.134 76.1881C175.236 76.2841 175.236 76.4461 175.134 76.5541C175.086 76.6081 175.026 76.6381 174.96 76.6441H174.966Z" fill="#263238"/>
<path d="M166.908 75.9241C166.854 75.9061 166.812 75.8641 166.788 75.8101C166.74 75.6901 166.8 75.5401 166.92 75.4741C168.126 74.7961 169.02 75.3121 169.056 75.3361C169.164 75.4021 169.188 75.5461 169.11 75.6721C169.038 75.7921 168.888 75.8401 168.786 75.7801C168.75 75.7621 168.054 75.3721 167.094 75.9121C167.034 75.9481 166.968 75.9541 166.908 75.9361V75.9241Z" fill="#263238"/>
<path d="M170.076 78.3121C170.076 78.3121 169.248 80.2861 168.318 81.5161C168.156 81.7321 168.258 82.0441 168.51 82.1401C169.164 82.3801 169.926 82.1641 169.926 82.1641L170.076 78.3121Z" fill="#A24E3F"/>
<path d="M173.478 77.6101L172.266 77.3221C172.266 77.3221 172.926 78.2281 173.478 77.6101Z" fill="#263238"/>
<path d="M168.204 77.6161L166.992 77.3281C166.992 77.3281 167.652 78.2341 168.204 77.6161Z" fill="#263238"/>
<path d="M178.866 78.6901C178.866 78.6901 176.142 74.5921 176.286 71.2741C176.286 71.2741 171.078 69.9181 166.92 75.4681C166.26 76.3501 165.864 77.8261 165.27 79.0981C165.27 79.0981 165.492 68.6101 174.402 67.7881C183.3 66.9661 188.358 80.8861 179.49 84.1261C179.49 84.1261 180.552 81.2521 178.866 78.6901Z" fill="#263238"/>
<path d="M182.292 81.1681C181.668 82.2481 180.654 82.9321 179.73 83.1601C178.332 83.5081 177.612 81.2641 178.086 79.8661C178.518 78.6061 179.886 77.7721 181.248 78.0481C182.586 78.3181 183.006 79.9321 182.292 81.1681Z" fill="#B97964"/>
<path d="M179.346 81.0361H179.334C179.25 81.0361 179.19 80.9581 179.196 80.8741C179.232 80.3341 179.484 79.8181 179.892 79.4581C180.3 79.0981 180.846 78.9181 181.386 78.9481C181.47 78.9481 181.53 79.0261 181.524 79.1101C181.524 79.1941 181.452 79.2601 181.368 79.2481C180.912 79.2181 180.438 79.3801 180.09 79.6861C179.742 79.9921 179.526 80.4361 179.49 80.8981C179.49 80.9761 179.418 81.0361 179.34 81.0361H179.346Z" fill="black"/>
<path d="M171.612 83.9101C171.462 83.9101 171.3 83.8921 171.126 83.8561C171.048 83.8381 170.994 83.7601 171.012 83.6821C171.03 83.6041 171.102 83.5441 171.192 83.5681C172.602 83.8561 173.076 82.6441 173.1 82.5961C173.13 82.5181 173.214 82.4821 173.292 82.5061C173.37 82.5361 173.412 82.6201 173.382 82.6981C173.382 82.7101 172.92 83.9161 171.618 83.9161L171.612 83.9101Z" fill="#263238"/>
<path d="M181.968 83.3341C181.968 83.9281 181.488 84.4081 180.894 84.4081C180.3 84.4081 179.82 83.9281 179.82 83.3341C179.82 82.7401 180.3 82.2601 180.894 82.2601C181.488 82.2601 181.968 82.7401 181.968 83.3341Z" fill="#FBCF26"/>
<path d="M217.314 172.386C213.03 171.42 208.572 171.9 204.234 172.572C196.002 173.85 187.794 175.854 180.27 179.556C171.15 180.816 158.46 180.846 156.084 184.434C179.628 194.478 207.468 183.744 218.136 176.958C219.012 176.4 219.978 175.608 219.924 174.534C219.858 173.292 218.484 172.644 217.32 172.38L217.314 172.386Z" fill="#FBCF26"/>
<path d="M217.314 172.386C213.03 171.42 208.572 171.9 204.234 172.572C196.002 173.85 187.794 175.854 180.27 179.556C171.15 180.816 158.46 180.846 156.084 184.434C179.628 194.478 207.468 183.744 218.136 176.958C219.012 176.4 219.978 175.608 219.924 174.534C219.858 173.292 218.484 172.644 217.32 172.38L217.314 172.386Z" fill="black"/>
<path d="M190.944 98.4721C190.944 98.4721 192.702 99.1561 194.04 102.93C194.964 105.534 199.68 120.39 199.908 122.856C200.262 126.708 198.264 148.332 198.264 148.332L194.37 147.912C194.37 147.912 192.984 124.602 192.93 124.356C192.876 124.116 186.186 106.284 186.186 106.284L190.944 98.4721Z" fill="#B97964"/>
<path d="M196.374 194.328C195.51 191.25 193.44 187.896 193.002 185.406C192.612 183.246 193.122 181.776 192.816 176.796C192.462 170.772 191.496 162.774 188.982 156.864C188.982 156.864 193.878 149.196 189 140.778L185.742 135.432L167.832 135.54L181.62 185.262L196.17 227.07L201.192 226.356C200.694 217.41 198.678 203.226 196.38 194.328H196.374Z" fill="#B97964"/>
<path d="M192.726 173.286L180.168 176.724L179.706 178.446L180.186 180.102L180.708 181.974C180.708 181.974 183.372 181.044 186.132 180.168C188.892 179.292 192.882 178.098 192.882 178.098L192.726 173.286Z" fill="black"/>
<path d="M194.37 239.904C194.838 239.214 195.438 238.578 196.134 238.026C196.134 238.026 197.688 235.2 196.452 229.374L199.26 227.37C200.232 226.704 201.48 226.53 202.392 226.938C202.518 226.998 202.632 227.07 202.728 227.16C203.13 227.652 203.49 228.174 203.802 228.72C204.834 230.592 205.716 232.536 206.442 234.546L205.866 234.816L204.024 231.24C203.448 230.004 202.776 232.068 203.01 233.568C203.244 235.068 203.13 236.88 199.554 238.554C195.45 240.492 193.65 241.164 194.364 239.91L194.37 239.904Z" fill="black"/>
<path d="M195.774 225.39C195.774 225.39 196.584 229.944 196.698 233.13C196.872 234.72 196.668 236.388 196.098 238.044C196.098 238.044 198.954 237.186 199.506 235.284C200.058 233.382 199.566 227.958 202.404 226.962C202.038 226.71 201.63 226.506 201.186 226.356L200.868 224.688C199.356 224.892 195.774 225.39 195.774 225.39Z" fill="#B97964"/>
<path d="M187.458 107.388L191.868 98.1781C189.882 95.2081 180.042 92.9281 180.042 92.9281L173.562 93.2821C173.562 93.2821 171.072 93.8401 168.936 94.5361C166.086 95.4661 164.55 96.2101 163.872 97.7941C163.872 97.7941 162.51 101.316 163.398 108.51C163.644 110.496 164.31 122.01 162.498 125.322L162.534 126.234C174.378 135.456 184.398 133.914 184.398 133.914C183.864 132.288 183.918 126.918 183.678 125.322C183.852 123.294 183.78 121.746 184.638 118.188C184.806 117.504 187.176 108.06 187.464 107.394L187.458 107.388Z" fill="#B97964"/>
<path d="M160.224 140.244L158.286 185.55L159.84 229.458L165.3 230.862C167.718 222.186 169.68 205.134 170.244 196.242C170.376 193.194 169.392 189.678 169.734 187.272C170.034 185.16 171.018 183.828 172.308 179.034C173.868 173.238 175.446 165.486 174.816 159.48C174.816 159.48 182.154 152.892 179.982 144.144L160.23 140.238L160.224 140.244Z" fill="#B97964"/>
<path d="M158.286 185.55C158.286 185.55 160.416 183.522 164.334 184.116C168.252 184.71 170.106 185.694 170.106 185.694L171.168 182.736L162.192 180.192L158.286 182.124V185.556V185.55Z" fill="black"/>
<path d="M152.964 239.784C153.678 239.358 154.494 239.034 155.358 238.83C155.358 238.83 157.968 236.934 159.312 231.126L162.708 230.502C163.872 230.31 165.078 230.682 165.726 231.438C165.816 231.546 165.888 231.66 165.936 231.78C166.092 232.398 166.194 233.022 166.248 233.646C166.386 235.776 166.362 237.912 166.17 240.042H165.534L165.384 236.022C165.384 234.654 163.902 236.244 163.482 237.702C163.062 239.16 162.186 240.75 158.238 240.75C153.696 240.768 151.782 240.612 152.964 239.772V239.784Z" fill="black"/>
<path d="M159.96 229.044C159.96 229.044 159.192 231.696 157.944 234.636C157.428 236.148 156.54 237.57 155.316 238.83C155.316 238.83 158.268 239.262 159.576 237.78C160.884 236.292 162.738 231.168 165.726 231.474C165.504 231.096 165.216 230.736 164.88 230.406C164.394 229.866 159.954 229.05 159.954 229.05L159.96 229.044Z" fill="#B97964"/>
<path d="M194.592 147.834C194.592 147.834 193.032 148.542 192.546 149.874C192.06 151.206 191.322 152.142 191.028 153.162C190.734 154.176 191.934 153.396 192.48 152.856C193.032 152.31 193.662 151.698 194.004 152.178C194.346 152.658 194.844 157.704 195.39 158.316C195.942 158.928 196.116 158.088 196.116 158.088C196.116 158.088 196.272 159.312 196.77 159.378C196.902 159.396 197.232 159.228 197.25 158.658C197.292 157.38 197.232 154.698 197.232 154.698C197.232 154.854 197.538 158.16 197.646 158.652C197.79 159.294 198.186 159.522 198.552 159.426C199.074 159.288 198.834 155.172 198.948 154.992C198.948 154.992 199.008 157.368 199.626 157.686C200.25 158.004 200.292 156.51 200.082 155.184C199.89 153.966 199.824 151.53 199.512 150.312C199.122 148.812 198.522 147.894 197.088 147.642C195.654 147.396 194.586 147.834 194.586 147.834H194.592Z" fill="#B97964"/>
<path d="M158.19 140.076C155.73 152.274 155.7 173.862 156.084 184.434C156.084 184.434 161.46 179.748 170.07 182.892C178.68 186.036 182.352 186.096 186.69 184.722C191.022 183.348 194.424 176.49 206.928 174.09C219.432 171.69 219.906 174.408 219.906 174.408C219.906 174.408 221.406 171.294 215.154 169.116C208.902 166.944 201.414 159.48 197.796 154.734C194.178 149.988 187.38 135.774 185.586 132.126C183.69 128.28 183.81 124.056 183.81 124.056L163.2 122.082C163.2 122.082 160.164 130.326 158.196 140.076H158.19Z" fill="#263238"/>
<path d="M181.968 93.4261L179.082 95.7421C175.956 98.2501 171.684 97.3621 169.236 94.1941C166.134 94.9801 164.652 95.4721 164.652 95.4721C164.652 95.4721 162.51 101.31 163.398 108.504C163.644 110.49 164.31 122.004 162.498 125.316L162.534 126.228C174.378 135.45 184.398 133.908 184.398 133.908C183.864 132.282 183.984 126.63 183.744 125.04C183.918 123.012 183.78 121.746 184.638 118.188C184.806 117.504 187.794 108.648 188.082 107.982L191.736 97.7701C189.03 95.0221 181.968 93.4321 181.968 93.4321V93.4261Z" fill="#263238"/>
<path d="M162.282 125.226L184.134 127.068L184.14 122.826L163.446 121.05L162.282 125.226Z" fill="#FBCF26"/>
<path d="M155.904 101.142L160.452 110.238L164.352 107.748L166.998 95.0881C166.998 95.0881 164.616 95.0701 162.678 96.5461C160.848 97.9381 155.904 101.142 155.904 101.142Z" fill="#263238"/>
<path d="M163.38 108.36C163.38 108.36 163.068 105.558 163.23 103.026L163.398 100.494C163.398 100.494 161.586 106.482 161.832 109.356L163.386 108.36H163.38Z" fill="black"/>
<path d="M186.378 107.97L188.406 115.134L196.956 109.842C196.956 109.842 193.98 97.8661 191.1 97.5061C188.22 97.1461 186.372 107.97 186.372 107.97H186.378Z" fill="#263238"/>
<path d="M187.134 110.634L188.808 104.622L187.938 113.46L187.134 110.634Z" fill="black"/>
<path d="M224.118 148.974H114.702V240.966H224.118V148.974Z" fill="#FDE793"/>
<path d="M224.118 148.974H114.702V240.966H224.118V148.974Z" fill="black"/>
<path d="M118.188 144.528L122.868 115.512H143.712L148.956 144.228L118.188 144.528Z" fill="#FDE793"/>
<path d="M118.188 144.528L122.868 115.512H143.712L148.956 144.228L118.188 144.528Z" fill="white"/>
<path d="M140.772 144.156L148.956 144.228L143.712 115.512L140.772 144.156Z" fill="black"/>
<path d="M129.198 117.576C129.198 118.098 128.772 118.524 128.25 118.524C127.728 118.524 127.302 118.098 127.302 117.576C127.302 117.054 127.728 116.628 128.25 116.628C128.772 116.628 129.198 117.054 129.198 117.576Z" fill="#263238"/>
<path d="M138.348 117.576C138.348 118.098 137.922 118.524 137.4 118.524C136.878 118.524 136.452 118.098 136.452 117.576C136.452 117.054 136.878 116.628 137.4 116.628C137.922 116.628 138.348 117.054 138.348 117.576Z" fill="#263238"/>
<path d="M128.412 117.27C128.412 115.692 128.418 114.03 129.264 112.638C130.11 111.246 131.634 110.664 133.224 110.664C134.814 110.664 136.236 111.246 136.836 112.788C137.436 114.33 137.082 115.944 137.094 117.51C137.094 117.798 137.544 117.798 137.544 117.51C137.532 116.07 137.802 114.594 137.436 113.178C137.142 112.056 136.458 111.072 135.372 110.598C133.08 109.608 130.002 110.346 128.772 112.59C127.992 114.018 127.968 115.674 127.968 117.264C127.968 117.552 128.418 117.552 128.418 117.264L128.412 117.27Z" fill="#263238"/>
<path d="M144.564 142.668L143.712 115.512L140.772 144.156L144.564 142.668Z" fill="black"/>
<path d="M136.62 129.834H125.568L126.006 127.2H137.058L136.62 129.834Z" fill="white"/>
<path d="M224.118 148.194H114.702V153.636H224.118V148.194Z" fill="black"/>
<path d="M227.694 143.592H109.65V149.682H227.694V143.592Z" fill="#FDE793"/>
<path d="M227.694 143.592H109.65V149.682H227.694V143.592Z" fill="black"/>
<path d="M177.828 181.332H156.294V195.048H177.828V181.332Z" fill="#263238"/>
<path d="M177.828 181.332H156.294V195.048H177.828V181.332Z" fill="white"/>
<path d="M179.184 179.784H154.932V185.526H179.184V179.784Z" fill="#263238"/>
<path d="M179.184 179.784H154.932V185.526H179.184V179.784Z" fill="white"/>
<path d="M177.828 185.574H156.294V186.99H177.828V185.574Z" fill="black"/>
<path d="M170.502 181.602H163.614C163.24 181.602 162.936 181.906 162.936 182.28V183.006C162.936 183.381 163.24 183.684 163.614 183.684H170.502C170.876 183.684 171.18 183.381 171.18 183.006V182.28C171.18 181.906 170.876 181.602 170.502 181.602Z" fill="black"/>
<path d="M184.344 194.97H89.85V240.966H184.344V194.97Z" fill="#263238"/>
<path d="M102.306 181.62L101.856 181.596C101.874 181.272 101.886 180.924 101.904 180.57C102 178.254 102.126 175.368 103.368 173.43C104.658 171.42 106.842 170.226 109.866 169.872C112.596 169.554 115.356 170.712 116.904 172.818C118.596 175.116 118.722 178.158 118.704 181.08H118.254C118.266 178.236 118.146 175.278 116.538 173.088C115.08 171.108 112.482 170.022 109.914 170.322C107.034 170.658 104.958 171.786 103.74 173.676C102.558 175.512 102.444 178.332 102.348 180.594C102.33 180.948 102.318 181.296 102.3 181.62H102.306Z" fill="#263238"/>
<path d="M121.896 194.97H98.67L101.058 179.874H120.006L121.896 194.97Z" fill="#FBCF26"/>
<path d="M101.058 179.874C101.058 179.874 103.914 187.392 110.28 187.422C116.646 187.452 120.006 179.874 120.006 179.874C120.006 179.874 116.886 188.88 110.28 188.748C103.674 188.61 101.058 179.874 101.058 179.874Z" fill="black"/>
<path d="M112.254 184.686H108.474V185.418H112.254V184.686Z" fill="#263238"/>
<path d="M151.362 193.71C150.57 193.236 149.67 192.876 148.704 192.648C148.404 192.69 145.368 193.044 143.982 191.466C142.524 189.804 140.46 184.086 137.124 184.422C137.148 184.386 137.172 184.35 137.196 184.314C137.172 184.338 137.148 184.362 137.124 184.386C137.022 184.506 136.944 184.632 136.89 184.77C136.716 185.46 136.602 186.156 136.542 186.852C136.386 189.234 136.494 192.42 136.704 194.796H137.412L137.508 189.51C137.508 187.986 139.158 189.756 139.632 191.382C140.1 193.008 141.078 194.79 145.482 194.796C150.552 194.82 152.682 194.652 151.374 193.716L151.362 193.71Z" fill="#FBCF26"/>
<path d="M151.362 193.71C150.57 193.236 149.67 192.876 148.704 192.648C148.404 192.69 145.368 193.044 143.982 191.466C142.524 189.804 140.46 184.086 137.124 184.422C137.148 184.386 137.172 184.35 137.196 184.314C137.172 184.338 137.148 184.362 137.124 184.386C137.022 184.506 136.944 184.632 136.89 184.77C136.716 185.46 136.602 186.156 136.542 186.852C136.386 189.234 136.494 192.42 136.704 194.796H137.412L137.508 189.51C137.508 187.986 139.158 189.756 139.632 191.382C140.1 193.008 141.078 194.79 145.482 194.796C150.552 194.82 152.682 194.652 151.374 193.716L151.362 193.71Z" fill="black"/>
<path d="M142.998 193.71C142.206 193.236 141.306 192.876 140.34 192.648C140.04 192.69 137.004 193.044 135.618 191.466C134.16 189.804 132.096 184.086 128.76 184.422C128.784 184.386 128.808 184.35 128.832 184.314C128.808 184.338 128.784 184.362 128.76 184.386C128.658 184.506 128.58 184.632 128.526 184.77C128.352 185.46 128.238 186.156 128.178 186.852C128.022 189.234 128.13 192.42 128.34 194.796H129.048L129.144 189.51C129.144 187.986 130.794 189.756 131.268 191.382C131.736 193.008 132.714 194.79 137.118 194.796C142.188 194.82 144.318 194.652 143.01 193.716L142.998 193.71Z" fill="#FBCF26"/>
</svg>
