<svg width="350" height="262" viewBox="0 0 350 262" fill="none" xmlns="http://www.w3.org/2000/svg">
<path d="M350 229.68H0V229.855H350V229.68Z" fill="#EBEBEB"/>
<path d="M314.93 240.943H291.746V241.118H314.93V240.943Z" fill="#EBEBEB"/>
<path d="M231.854 242.847H225.771V243.022H231.854V242.847Z" fill="#EBEBEB"/>
<path d="M291.046 234.447H277.613V234.622H291.046V234.447Z" fill="#EBEBEB"/>
<path d="M66.955 235.623H36.722V235.798H66.955V235.623Z" fill="#EBEBEB"/>
<path d="M77.623 235.623H73.192V235.798H77.623V235.623Z" fill="#EBEBEB"/>
<path d="M157.605 238.577H92.029V238.752H157.605V238.577Z" fill="#EBEBEB"/>
<path d="M165.9 198.46H30.737C29.6781 198.458 28.6633 198.036 27.9152 197.287C27.1671 196.537 26.747 195.522 26.747 194.463V4.462C26.7562 3.40922 27.1804 2.40259 27.9275 1.66075C28.6746 0.918921 29.6842 0.501803 30.737 0.5H165.9C166.96 0.5 167.977 0.921111 168.726 1.67069C169.476 2.42028 169.897 3.43693 169.897 4.497V194.463C169.897 195.523 169.476 196.54 168.726 197.289C167.977 198.039 166.96 198.46 165.9 198.46ZM30.737 0.640001C29.7246 0.641855 28.7542 1.04535 28.039 1.76191C27.3237 2.47847 26.922 3.44955 26.922 4.462V194.463C26.922 195.475 27.3237 196.447 28.039 197.163C28.7542 197.88 29.7246 198.283 30.737 198.285H165.9C166.913 198.283 167.884 197.88 168.601 197.164C169.317 196.447 169.72 195.476 169.722 194.463V4.462C169.72 3.44891 169.317 2.47784 168.601 1.76148C167.884 1.04512 166.913 0.641851 165.9 0.640001H30.737Z" fill="#EBEBEB"/>
<path d="M317.317 198.46H182.147C181.087 198.458 180.072 198.036 179.323 197.287C178.574 196.538 178.152 195.522 178.15 194.463V4.462C178.161 3.40858 178.587 2.40195 179.335 1.66031C180.083 0.918676 181.094 0.501784 182.147 0.5H317.317C318.369 0.503643 319.376 0.921574 320.122 1.66321C320.868 2.40484 321.291 3.41043 321.3 4.462V194.463C321.3 195.521 320.881 196.535 320.134 197.284C319.388 198.034 318.375 198.456 317.317 198.46ZM182.147 0.640001C181.134 0.641851 180.163 1.04512 179.446 1.76148C178.73 2.47784 178.327 3.44891 178.325 4.462V194.463C178.327 195.476 178.73 196.447 179.446 197.164C180.163 197.88 181.134 198.283 182.147 198.285H317.317C318.33 198.283 319.301 197.88 320.018 197.164C320.734 196.447 321.137 195.476 321.139 194.463V4.462C321.137 3.44891 320.734 2.47784 320.018 1.76148C319.301 1.04512 318.33 0.641851 317.317 0.640001H182.147Z" fill="#EBEBEB"/>
<path d="M233.863 228C233.354 228.002 232.866 228.205 232.506 228.566C232.147 228.927 231.945 229.416 231.945 229.925H251.237C251.237 229.414 251.034 228.925 250.673 228.564C250.312 228.203 249.823 228 249.312 228H243.908V195.1H248.108V151H243.908V137.7H117.348V151H114.45V195.1H117.348V228H111.944C111.433 228 110.944 228.203 110.583 228.564C110.222 228.925 110.019 229.414 110.019 229.925H129.311C129.311 229.417 129.11 228.929 128.752 228.569C128.394 228.208 127.908 228.004 127.4 228H121.989V195.1H239.274V228H233.863ZM121.982 151V142.18H239.274V151H121.982Z" fill="#E0E0E0"/>
<path d="M299.257 78.655H267.946V121.327H281.932V229.925H285.264V121.327H299.257V78.655Z" fill="#F0F0F0"/>
<path d="M127.155 28.43V64.011H58.135V28.43H62.391V17.832H64.652V28.43H120.638V17.832H122.899V28.43H127.155Z" fill="#F0F0F0"/>
<path d="M231.126 28.43V64.011H162.106V28.43H166.362V17.832H168.623V28.43H224.602V17.832H226.87V28.43H231.126Z" fill="#F0F0F0"/>
<path d="M173.6 228C173.089 228 172.6 228.203 172.239 228.564C171.878 228.925 171.675 229.414 171.675 229.925H190.96C190.96 229.416 190.758 228.927 190.399 228.566C190.039 228.205 189.551 228.002 189.042 228H183.631V195.1H187.831V151H183.631V137.7H57.071V151H54.173V195.1H57.071V228H51.667C51.4145 228 51.1646 228.05 50.9314 228.147C50.6982 228.243 50.4865 228.385 50.3083 228.564C50.1301 228.743 49.989 228.955 49.893 229.189C49.797 229.422 49.7481 229.673 49.749 229.925H69.041C69.041 229.414 68.8382 228.925 68.4772 228.564C68.1162 228.203 67.6265 228 67.116 228H61.712V195.1H178.997V228H173.6ZM61.712 151V142.18H178.997V151H61.712Z" fill="#EBEBEB"/>
<path d="M175 261.292C249.958 261.292 310.723 257.744 310.723 253.368C310.723 248.992 249.958 245.444 175 245.444C100.042 245.444 39.277 248.992 39.277 253.368C39.277 257.744 100.042 261.292 175 261.292Z" fill="#F5F5F5"/>
<path d="M286.209 235.098C286.209 235.098 287.196 227.839 291.844 227.041C296.492 226.243 295.085 222.736 296.296 221.378C297.507 220.02 300.664 224.031 297.962 227.916C295.26 231.801 297.465 230.576 296.296 234.216C295.127 237.856 285.782 241.118 286.209 235.098Z" fill="#263238"/>
<path d="M286.398 240.103C286.359 240.113 286.318 240.113 286.279 240.103C286.244 240.087 286.213 240.065 286.187 240.037C286.161 240.009 286.141 239.976 286.128 239.94C286.115 239.904 286.109 239.866 286.111 239.828C286.113 239.79 286.123 239.752 286.139 239.718C286.174 239.648 289.639 232.249 287.805 220.419C287.221 217.015 286.282 213.681 285.005 210.472C282.8 204.466 280.896 199.272 285.061 190.207C286.349 187.407 287.665 184.789 288.932 182.262C293.629 172.938 297.332 165.567 294.637 158.245C294.622 158.209 294.615 158.171 294.616 158.132C294.616 158.094 294.624 158.055 294.64 158.02C294.656 157.985 294.678 157.953 294.707 157.926C294.735 157.9 294.768 157.88 294.804 157.866C294.841 157.853 294.879 157.847 294.918 157.849C294.957 157.852 294.994 157.861 295.029 157.879C295.064 157.896 295.095 157.919 295.12 157.949C295.145 157.978 295.164 158.012 295.176 158.049C297.976 165.602 294.21 173.071 289.45 182.549C288.183 185.069 286.867 187.673 285.579 190.473C281.519 199.321 283.297 204.165 285.544 210.297C286.838 213.524 287.795 216.876 288.4 220.3C290.262 232.326 286.72 239.865 286.685 239.942C286.659 239.995 286.618 240.039 286.567 240.068C286.516 240.096 286.457 240.109 286.398 240.103Z" fill="#263238"/>
<path d="M289.1 238.367C289.1 238.367 292.103 233.838 287.77 231.514C283.437 229.19 282.569 231.059 279.888 229.414C277.207 227.769 275.177 223.688 274.722 226.278C274.267 228.868 277.361 230.352 276.269 231.535C275.177 232.718 283.535 240.404 289.1 238.367Z" fill="#263238"/>
<path d="M296.163 161.899C296.163 161.899 299.089 153.009 292.439 152.799C285.789 152.589 293.118 160.947 296.163 161.899Z" fill="#263238"/>
<path d="M290.388 168.731C290.388 168.731 288.407 160.646 283.682 162.354C278.957 164.062 285.677 168.878 290.388 168.731Z" fill="#263238"/>
<path d="M298.396 169.431C298.396 169.431 297.696 162.984 302.694 162.851C307.692 162.718 305.473 168.388 298.396 169.431Z" fill="#263238"/>
<path d="M295.064 182.591C295.064 182.591 301.784 176.592 304.206 181.058C306.628 185.524 299.131 186.448 295.064 182.591Z" fill="#263238"/>
<path d="M283.164 181.527C283.164 181.527 281.904 171.573 276.472 174.695C271.04 177.817 278.439 182.5 283.164 181.527Z" fill="#263238"/>
<path d="M278.39 195.8C278.39 195.8 282.394 185.741 274.946 186.875C267.498 188.009 273.133 193.336 278.39 195.8Z" fill="#263238"/>
<path d="M289.8 199.363C289.8 199.363 296.1 191.957 300.895 194.302C305.69 196.647 301.798 204.025 289.8 199.363Z" fill="#263238"/>
<path d="M284.109 215.785C284.109 215.785 278.747 203.885 273.98 207.896C269.213 211.907 277.025 217.906 284.109 215.785Z" fill="#263238"/>
<path d="M291.9 215.092C291.9 215.092 290.5 205.859 295.792 206.601C301.084 207.343 299.705 212.992 291.9 215.092Z" fill="#263238"/>
<path d="M296.163 161.899C296.163 161.899 299.089 153.009 292.439 152.799C285.789 152.589 293.118 160.947 296.163 161.899Z" fill="white"/>
<path d="M290.388 168.731C290.388 168.731 288.407 160.646 283.682 162.354C278.957 164.062 285.677 168.878 290.388 168.731Z" fill="white"/>
<path d="M298.396 169.431C298.396 169.431 297.696 162.984 302.694 162.851C307.692 162.718 305.473 168.388 298.396 169.431Z" fill="white"/>
<path d="M295.064 182.591C295.064 182.591 301.784 176.592 304.206 181.058C306.628 185.524 299.131 186.448 295.064 182.591Z" fill="white"/>
<path d="M283.164 181.527C283.164 181.527 281.904 171.573 276.472 174.695C271.04 177.817 278.439 182.5 283.164 181.527Z" fill="white"/>
<path d="M278.39 195.8C278.39 195.8 282.394 185.741 274.946 186.875C267.498 188.009 273.133 193.336 278.39 195.8Z" fill="white"/>
<path d="M289.8 199.363C289.8 199.363 296.1 191.957 300.895 194.302C305.69 196.647 301.798 204.025 289.8 199.363Z" fill="white"/>
<path d="M284.109 215.785C284.109 215.785 278.747 203.885 273.98 207.896C269.213 211.907 277.025 217.906 284.109 215.785Z" fill="white"/>
<path d="M291.9 215.092C291.9 215.092 290.5 205.859 295.792 206.601C301.084 207.343 299.705 212.992 291.9 215.092Z" fill="white"/>
<path d="M293.3 174.051H293.216C293.178 174.04 293.143 174.021 293.113 173.996C293.083 173.971 293.058 173.939 293.041 173.904C293.041 173.855 290.465 168.969 288.54 167.814C288.501 167.798 288.466 167.773 288.437 167.742C288.408 167.711 288.386 167.674 288.373 167.634C288.359 167.594 288.355 167.551 288.36 167.509C288.365 167.467 288.378 167.426 288.4 167.39C288.422 167.354 288.452 167.322 288.487 167.299C288.522 167.275 288.562 167.259 288.604 167.252C288.646 167.245 288.689 167.247 288.73 167.259C288.771 167.27 288.809 167.29 288.841 167.317C290.654 168.409 292.838 172.308 293.412 173.372C297.094 171.202 299.81 167.212 299.838 167.17C299.859 167.139 299.886 167.112 299.918 167.091C299.949 167.07 299.984 167.056 300.022 167.049C300.059 167.042 300.097 167.042 300.134 167.049C300.171 167.057 300.206 167.072 300.237 167.093C300.268 167.114 300.295 167.141 300.316 167.173C300.337 167.204 300.351 167.24 300.358 167.277C300.365 167.314 300.365 167.352 300.357 167.389C300.35 167.426 300.335 167.461 300.314 167.492C300.195 167.667 297.367 171.825 293.44 174.023C293.397 174.046 293.348 174.055 293.3 174.051Z" fill="#263238"/>
<path d="M287.189 186.399H287.133C287.093 186.393 287.054 186.377 287.02 186.354C286.986 186.331 286.958 186.301 286.937 186.266C286.937 186.21 283.731 180.876 279.65 178.475C279.584 178.437 279.536 178.374 279.516 178.301C279.497 178.227 279.507 178.149 279.545 178.083C279.584 178.017 279.648 177.968 279.723 177.949C279.798 177.929 279.877 177.94 279.944 177.978C283.661 180.169 286.552 184.551 287.273 185.678C293.006 181.478 300.16 181.695 300.23 181.688C300.268 181.689 300.306 181.697 300.341 181.713C300.376 181.729 300.407 181.751 300.433 181.779C300.46 181.807 300.48 181.84 300.493 181.876C300.506 181.912 300.512 181.951 300.51 181.989C300.509 182.027 300.501 182.064 300.485 182.098C300.47 182.133 300.448 182.164 300.421 182.19C300.394 182.216 300.362 182.236 300.326 182.25C300.291 182.263 300.254 182.27 300.216 182.269C300.146 182.269 292.971 182.094 287.364 186.329C287.314 186.37 287.253 186.395 287.189 186.399Z" fill="#263238"/>
<path d="M283.304 202.723C283.238 202.723 283.174 202.7 283.122 202.66C279.125 199.447 276.052 191.46 275.926 191.117C275.897 191.041 275.9 190.956 275.933 190.882C275.967 190.808 276.028 190.75 276.104 190.721C276.181 190.693 276.265 190.695 276.339 190.729C276.413 190.762 276.471 190.824 276.5 190.9C276.5 190.977 279.559 198.873 283.367 202.1C284.627 201.4 292.012 197.361 297.668 197.249C297.743 197.249 297.815 197.278 297.868 197.331C297.922 197.383 297.953 197.454 297.955 197.529C297.957 197.567 297.951 197.605 297.938 197.64C297.925 197.676 297.904 197.709 297.878 197.736C297.852 197.764 297.82 197.785 297.785 197.8C297.751 197.815 297.713 197.823 297.675 197.823C291.753 197.942 283.563 202.646 283.479 202.723C283.422 202.742 283.361 202.742 283.304 202.723Z" fill="#263238"/>
<path d="M288.043 219.6C287.998 219.6 287.953 219.59 287.913 219.569C287.873 219.548 287.838 219.518 287.812 219.481C285.515 216.705 282.426 214.696 278.957 213.72C278.884 213.699 278.822 213.649 278.785 213.582C278.748 213.515 278.74 213.436 278.761 213.363C278.782 213.29 278.832 213.228 278.899 213.191C278.966 213.154 279.045 213.146 279.118 213.167C282.619 214.143 285.75 216.139 288.113 218.9C291.032 216.975 294.882 209.513 294.917 209.436C294.958 209.378 295.018 209.337 295.087 209.32C295.156 209.303 295.229 209.311 295.292 209.344C295.355 209.376 295.404 209.43 295.43 209.496C295.457 209.562 295.458 209.635 295.435 209.702C295.267 210.031 291.277 217.766 288.19 219.502C288.152 219.549 288.101 219.583 288.043 219.6Z" fill="#263238"/>
<path d="M288.624 237.282C288.624 237.282 291.193 233.187 294.105 232.606C297.017 232.025 298.263 228.672 299.334 230.688C300.405 232.704 297.451 239.375 288.624 237.282Z" fill="#263238"/>
<path d="M301.98 253.368H273.875L271.992 236.029H303.856L301.98 253.368Z" fill="#FBCF26"/>
<path d="M304.514 239.312H271.334L270.914 235.644H304.941L304.514 239.312Z" fill="#FBCF26"/>
<path d="M304.514 239.312H271.334L270.914 235.644H304.941L304.514 239.312Z" fill="white"/>
<path d="M83.895 159.001C87.4955 167.15 89.6283 175.87 90.195 184.761C90.2298 185.442 90.0288 186.113 89.6258 186.663C89.2228 187.213 88.6426 187.606 87.983 187.778C87.726 187.852 87.4594 187.887 87.192 187.883H73.661V247.754H82.761C83.4903 247.763 84.1873 248.056 84.7037 248.571C85.2201 249.086 85.5151 249.783 85.526 250.512H57.799C57.81 249.777 58.1099 249.075 58.6338 248.559C59.1577 248.043 59.8636 247.754 60.599 247.754H69.699V187.883H56.14C55.8726 187.887 55.606 187.852 55.349 187.778C54.69 187.606 54.1106 187.212 53.7088 186.662C53.307 186.113 53.1075 185.441 53.144 184.761C53.711 175.87 55.8437 167.15 59.444 159.001C61.0424 155.31 61.7935 151.308 61.642 147.289C61.4906 143.269 60.4406 139.335 58.569 135.775C55.426 129.797 52.5 123.595 53.151 122.286C54.474 119.626 55.797 118.338 62.405 117.568C66.724 117.057 67.557 114.53 67.613 112.857C67.6254 112.442 67.5473 112.029 67.3841 111.647C67.2209 111.265 66.9765 110.923 66.668 110.645C60.599 105.122 60.27 92.445 70.511 90.842V90.667C70.854 90.667 71.211 90.667 71.498 90.702H71.827C72.156 90.702 72.485 90.667 72.821 90.667V90.842C83.069 92.473 82.733 105.122 76.671 110.645C76.3639 110.924 76.1206 111.266 75.9575 111.648C75.7945 112.03 75.7155 112.442 75.726 112.857C75.782 114.53 76.615 117.057 80.934 117.568C87.549 118.338 88.865 119.626 90.188 122.286C90.839 123.595 87.92 129.797 84.777 135.775C82.9043 139.335 81.8531 143.269 81.7004 147.288C81.5478 151.307 82.2977 155.31 83.895 159.001Z" fill="#263238"/>
<path d="M83.895 159.001C87.4955 167.15 89.6283 175.87 90.195 184.761C90.2298 185.442 90.0288 186.113 89.6258 186.663C89.2228 187.213 88.6426 187.606 87.983 187.778C87.726 187.852 87.4594 187.887 87.192 187.883H73.661V247.754H82.761C83.4903 247.763 84.1873 248.056 84.7037 248.571C85.2201 249.086 85.5151 249.783 85.526 250.512H57.799C57.81 249.777 58.1099 249.075 58.6338 248.559C59.1577 248.043 59.8636 247.754 60.599 247.754H69.699V187.883H56.14C55.8726 187.887 55.606 187.852 55.349 187.778C54.69 187.606 54.1106 187.212 53.7088 186.662C53.307 186.113 53.1075 185.441 53.144 184.761C53.711 175.87 55.8437 167.15 59.444 159.001C61.0424 155.31 61.7935 151.308 61.642 147.289C61.4906 143.269 60.4406 139.335 58.569 135.775C55.426 129.797 52.5 123.595 53.151 122.286C54.474 119.626 55.797 118.338 62.405 117.568C66.724 117.057 67.557 114.53 67.613 112.857C67.6254 112.442 67.5473 112.029 67.3841 111.647C67.2209 111.265 66.9765 110.923 66.668 110.645C60.599 105.122 60.27 92.445 70.511 90.842V90.667C70.854 90.667 71.211 90.667 71.498 90.702H71.827C72.156 90.702 72.485 90.667 72.821 90.667V90.842C83.069 92.473 82.733 105.122 76.671 110.645C76.3639 110.924 76.1206 111.266 75.9575 111.648C75.7945 112.03 75.7155 112.442 75.726 112.857C75.782 114.53 76.615 117.057 80.934 117.568C87.549 118.338 88.865 119.626 90.188 122.286C90.839 123.595 87.92 129.797 84.777 135.775C82.9043 139.335 81.8531 143.269 81.7004 147.288C81.5478 151.307 82.2977 155.31 83.895 159.001Z" fill="white"/>
<path d="M83.895 159.001C87.4955 167.15 89.6283 175.87 90.195 184.761C90.2298 185.442 90.0288 186.113 89.6258 186.663C89.2228 187.213 88.6426 187.606 87.983 187.778H55.349C54.69 187.606 54.1106 187.212 53.7088 186.662C53.307 186.113 53.1075 185.441 53.144 184.761C53.711 175.87 55.8437 167.15 59.444 159.001C61.0424 155.31 61.7935 151.308 61.642 147.289C61.4906 143.269 60.4406 139.335 58.569 135.775C55.426 129.797 52.5 123.595 53.151 122.286C54.474 119.626 55.797 118.338 62.405 117.568C66.724 117.057 67.557 114.53 67.613 112.857C67.6254 112.442 67.5473 112.029 67.3841 111.647C67.2209 111.265 66.9765 110.923 66.668 110.645C60.599 105.122 60.27 92.445 70.511 90.842V90.667C70.854 90.667 71.211 90.667 71.498 90.702H71.827C72.156 90.702 72.485 90.667 72.821 90.667V90.842C83.069 92.473 82.733 105.122 76.671 110.645C76.3639 110.924 76.1206 111.266 75.9575 111.648C75.7945 112.03 75.7155 112.442 75.726 112.857C75.782 114.53 76.615 117.057 80.934 117.568C87.549 118.338 88.865 119.626 90.188 122.286C90.839 123.595 87.92 129.797 84.777 135.775C82.9043 139.335 81.8531 143.269 81.7004 147.288C81.5478 151.307 82.2977 155.31 83.895 159.001Z" fill="#FBCF26"/>
<path d="M83.895 159.001C87.4955 167.15 89.6283 175.87 90.195 184.761C90.2298 185.442 90.0288 186.113 89.6258 186.663C89.2228 187.213 88.6426 187.606 87.983 187.778H55.349C54.69 187.606 54.1106 187.212 53.7088 186.662C53.307 186.113 53.1075 185.441 53.144 184.761C53.711 175.87 55.8437 167.15 59.444 159.001C61.0424 155.31 61.7935 151.308 61.642 147.289C61.4906 143.269 60.4406 139.335 58.569 135.775C55.426 129.797 52.5 123.595 53.151 122.286C54.474 119.626 55.797 118.338 62.405 117.568C66.724 117.057 67.557 114.53 67.613 112.857C67.6254 112.442 67.5473 112.029 67.3841 111.647C67.2209 111.265 66.9765 110.923 66.668 110.645C60.599 105.122 60.27 92.445 70.511 90.842V90.667C70.854 90.667 71.211 90.667 71.498 90.702H71.827C72.156 90.702 72.485 90.667 72.821 90.667V90.842C83.069 92.473 82.733 105.122 76.671 110.645C76.3639 110.924 76.1206 111.266 75.9575 111.648C75.7945 112.03 75.7155 112.442 75.726 112.857C75.782 114.53 76.615 117.057 80.934 117.568C87.549 118.338 88.865 119.626 90.188 122.286C90.839 123.595 87.92 129.797 84.777 135.775C82.9043 139.335 81.8531 143.269 81.7004 147.288C81.5478 151.307 82.2977 155.31 83.895 159.001Z" fill="white"/>
<path d="M230.244 8.844H198.94C197.527 8.844 196.128 9.12229 194.823 9.66298C193.517 10.2037 192.331 10.9962 191.332 11.9952C190.333 12.9943 189.541 14.1804 189 15.4857C188.459 16.7911 188.181 18.1901 188.181 19.603V50.025C188.181 51.4379 188.459 52.837 189 54.1423C189.541 55.4476 190.333 56.6337 191.332 57.6328C192.331 58.6318 193.517 59.4243 194.823 59.965C196.128 60.5057 197.527 60.784 198.94 60.784H201.096L201.292 68.771L208.334 60.784H230.244C231.657 60.784 233.056 60.5057 234.361 59.965C235.667 59.4243 236.853 58.6318 237.852 57.6328C238.851 56.6337 239.643 55.4476 240.184 54.1423C240.725 52.837 241.003 51.4379 241.003 50.025V19.603C241.003 16.7495 239.869 14.0129 237.852 11.9952C235.834 9.97753 233.097 8.844 230.244 8.844Z" fill="#FBCF26"/>
<path d="M226.009 49.395H203.175L204.869 28.892L204.022 24.818H225.162L224.315 28.892L226.009 49.395Z" fill="white"/>
<path d="M220.857 26.169C220.675 21.969 217.938 18.658 214.592 18.658C211.246 18.658 208.502 21.99 208.327 26.169C208.258 26.2152 208.2 26.2775 208.16 26.3507C208.12 26.4238 208.098 26.5056 208.096 26.589C208.096 26.7301 208.152 26.8654 208.252 26.9652C208.352 27.065 208.487 27.121 208.628 27.121C208.769 27.121 208.904 27.065 209.004 26.9652C209.104 26.8654 209.16 26.7301 209.16 26.589C209.158 26.5115 209.139 26.4355 209.104 26.3664C209.069 26.2974 209.019 26.2371 208.957 26.19C209.125 22.347 211.582 19.288 214.592 19.288C217.602 19.288 220.059 22.347 220.192 26.19C220.133 26.2387 220.085 26.2995 220.051 26.3684C220.017 26.4372 219.998 26.5124 219.996 26.589C219.996 26.7301 220.052 26.8654 220.152 26.9652C220.252 27.065 220.387 27.121 220.528 27.121C220.669 27.121 220.804 27.065 220.904 26.9652C221.004 26.8654 221.06 26.7301 221.06 26.589C221.061 26.508 221.044 26.4278 221.008 26.3549C220.973 26.2819 220.921 26.2183 220.857 26.169Z" fill="white"/>
<path d="M233.709 37.11C233.709 38.248 233.372 39.3605 232.739 40.3068C232.107 41.253 231.208 41.9905 230.157 42.426C229.106 42.8615 227.949 42.9755 226.832 42.7534C225.716 42.5314 224.691 41.9834 223.886 41.1787C223.082 40.374 222.534 39.3487 222.312 38.2325C222.09 37.1164 222.204 35.9594 222.639 34.908C223.075 33.8566 223.812 32.958 224.758 32.3257C225.704 31.6935 226.817 31.356 227.955 31.356C229.481 31.356 230.945 31.9622 232.024 33.0413C233.103 34.1204 233.709 35.5839 233.709 37.11Z" fill="#263238"/>
<path d="M227.346 39.385C227.251 39.3848 227.161 39.347 227.094 39.28L224.434 36.62C224.37 36.5546 224.334 36.4666 224.334 36.375C224.334 36.2834 224.37 36.1954 224.434 36.13C224.467 36.0972 224.505 36.0712 224.548 36.0534C224.591 36.0356 224.636 36.0265 224.683 36.0265C224.729 36.0265 224.774 36.0356 224.817 36.0534C224.86 36.0712 224.898 36.0972 224.931 36.13L227.346 38.538L230.979 34.933C231.044 34.8689 231.132 34.833 231.224 34.833C231.316 34.833 231.404 34.8689 231.469 34.933C231.502 34.9655 231.528 35.0042 231.546 35.0469C231.563 35.0896 231.573 35.1353 231.573 35.1815C231.573 35.2277 231.563 35.2734 231.546 35.3161C231.528 35.3588 231.502 35.3975 231.469 35.43L227.591 39.28C227.526 39.3459 227.438 39.3837 227.346 39.385Z" fill="white"/>
<path d="M198.226 84.654L195.335 95.791L200.508 96.407L201.747 86.243L198.226 84.654Z" fill="#E4897B"/>
<path d="M158.557 246.536L159.383 247.236L160.482 246.417L162.162 249.973L169.092 255.86C169.092 255.86 171.136 255.692 168.588 252.003C168.462 251.824 168.357 251.631 168.273 251.429C167.216 249.105 167.076 244.191 167.076 244.191L163.275 240.957C163.01 241.035 162.75 241.13 162.498 241.244C161.371 241.727 159.159 242.875 158.557 246.536Z" fill="#FBCF26"/>
<path d="M158.557 246.536L159.383 247.236L160.482 246.417L162.162 249.973L169.092 255.86C169.092 255.86 171.136 255.692 168.588 252.003C168.462 251.824 168.357 251.631 168.273 251.429C167.216 249.105 167.076 244.191 167.076 244.191L163.275 240.957C163.01 241.035 162.75 241.13 162.498 241.244C161.371 241.727 159.159 242.875 158.557 246.536Z" fill="black"/>
<path d="M162.498 241.244C163.478 241.111 163.674 245.514 164.64 247.775C165.501 249.784 166.901 251.541 168.287 251.422C167.23 249.098 167.524 243.141 167.524 243.141L164.465 240.544C164.465 240.544 162.981 241.034 162.498 241.244Z" fill="#E4897B"/>
<path d="M162.498 241.244C163.478 241.111 163.674 245.514 164.64 247.775C165.501 249.784 166.901 251.541 168.287 251.422C167.23 249.098 167.524 243.141 167.524 243.141L164.465 240.544C164.465 240.544 162.981 241.034 162.498 241.244Z" fill="black"/>
<path d="M158.354 257.197H159.439L159.74 255.86L163.331 257.477H172.431C172.431 257.477 173.873 256.021 169.547 254.866C169.333 254.81 169.127 254.73 168.931 254.628C166.621 253.55 163.331 249.889 163.331 249.889H158.34C158.188 250.114 158.05 250.348 157.927 250.589C157.381 251.709 156.443 254.012 158.354 257.197Z" fill="#FBCF26"/>
<path d="M157.927 250.61C158.585 249.875 161.588 253.102 163.779 254.201C165.746 255.181 167.944 255.601 168.924 254.614C166.614 253.536 162.981 248.804 162.981 248.804H158.97C158.97 248.804 158.2 250.141 157.927 250.61Z" fill="#E4897B"/>
<path d="M200.641 87.3L208.194 85.536L204.442 80.461C204.442 80.461 197.512 81.924 198.226 84.661L200.641 87.3Z" fill="#E4897B"/>
<path d="M202.125 87.741C202.125 87.741 201.838 113.263 196.168 113.263C193.025 113.263 189.462 111.219 186.431 108.902C183.887 106.924 181.526 104.722 179.375 102.322V102.238L177.422 90.387C183.022 90.247 192.738 103.029 192.738 103.029L197.4 86.838L202.125 87.741Z" fill="#FBCF26"/>
<path d="M186.431 108.902C183.887 106.924 181.526 104.722 179.375 102.322V102.238L181.195 98.171C184.237 100.955 186.108 104.791 186.431 108.902Z" fill="black"/>
<path d="M154.504 62.1C154.504 62.1 156.275 59.034 161.35 58.516C166.425 57.998 173.152 60.7 174.181 68.449C175.21 76.198 177.408 80.447 177.408 80.447C177.408 80.447 161.063 84.717 156.471 83.177C151.879 81.637 144.774 64.305 154.504 62.1Z" fill="#263238"/>
<path d="M188.398 197.823C186.109 202.387 183.806 207.301 181.594 212.208C178.689 218.69 175.959 225.179 173.635 230.989C171.976 235.133 169.813 240.362 168.679 243.526C166.223 243.332 163.896 242.35 162.043 240.726C162.897 235.035 165.172 220.251 169.47 207.245C171.724 200.399 174.545 193.644 178.017 188.149C161.784 146.296 164.927 130.315 164.927 130.315L182.147 128.992C182.147 128.992 185.248 144.7 187.852 160.8C189.21 169.242 190.428 177.796 190.988 184.271V184.334C191.386 188.983 190.49 193.652 188.398 197.823Z" fill="#263238"/>
<path d="M173.467 175.675C171.059 168.549 169.267 162.375 168.007 157.062C168.973 152.862 170.429 149.222 172.487 147.003C172.487 147.003 175.917 158.546 173.467 175.675Z" fill="black"/>
<path d="M173.635 230.989C171.976 235.133 169.813 240.362 168.679 243.526C166.223 243.332 163.896 242.35 162.043 240.726C162.897 235.035 165.172 220.251 169.47 207.245C170.947 214.196 172.641 223.009 173.635 230.989Z" fill="black"/>
<path d="M175.203 127.298C175.203 127.298 170.184 166.155 167.307 184.852C164.283 204.487 163.898 236.001 164.654 248.839C163.555 249.476 159.544 250.239 157.381 249.574C157.381 249.574 147.14 209.856 153.937 186.791C147.749 141.354 156.737 130.224 156.737 130.224L175.203 127.298Z" fill="#263238"/>
<path d="M173.53 102.833C168.482 98.2826 162.886 94.3813 156.87 91.22C157.416 91.157 157.983 91.101 158.543 91.052C162.362 90.6481 166.206 90.5194 170.044 90.667C170.996 90.723 171.976 90.8 172.935 90.877C175.315 96.337 173.53 102.833 173.53 102.833Z" fill="white"/>
<path d="M156.87 127.298L182 125.604C182 125.604 182.749 133.143 182.574 133.038C182.399 132.933 155.701 133.976 155.701 133.976L156.87 127.298Z" fill="#263238"/>
<path d="M157.101 127.711L181.944 126.339V128.698L156.87 130.028L157.101 127.711Z" fill="black"/>
<path d="M171.08 129.692C170.901 129.692 170.729 129.624 170.599 129.502C170.469 129.38 170.391 129.212 170.38 129.034L170.268 127.634C170.259 127.54 170.27 127.446 170.298 127.356C170.327 127.267 170.374 127.184 170.435 127.113C170.496 127.042 170.572 126.983 170.656 126.942C170.74 126.9 170.832 126.876 170.926 126.871L173.649 126.654C173.747 126.646 173.846 126.658 173.939 126.691C174.032 126.724 174.117 126.775 174.188 126.843C174.261 126.909 174.32 126.99 174.36 127.081C174.4 127.171 174.42 127.269 174.419 127.368V128.824C174.419 129.01 174.345 129.188 174.214 129.319C174.083 129.45 173.905 129.524 173.719 129.524L171.108 129.664L171.08 129.692ZM173.698 127.151L170.975 127.361C170.944 127.364 170.913 127.372 170.885 127.387C170.857 127.401 170.833 127.421 170.813 127.445C170.792 127.469 170.777 127.497 170.768 127.527C170.758 127.557 170.755 127.589 170.758 127.62L170.863 129.02C170.87 129.082 170.9 129.139 170.946 129.18C170.993 129.222 171.053 129.244 171.115 129.244L173.726 129.104C173.788 129.102 173.847 129.076 173.89 129.032C173.933 128.987 173.957 128.928 173.957 128.866V127.41C173.957 127.377 173.951 127.344 173.937 127.314C173.924 127.284 173.905 127.257 173.88 127.235C173.858 127.208 173.83 127.187 173.799 127.172C173.767 127.158 173.733 127.15 173.698 127.151Z" fill="white"/>
<path d="M156.87 127.298C156.345 121.404 154.238 110.603 150.605 99.256C149.422 95.567 151.424 91.402 151.424 91.402C151.424 91.402 156.373 91.276 156.87 91.22C157.367 91.164 157.983 91.101 158.543 91.052C162.362 90.6481 166.206 90.5194 170.044 90.667C170.996 90.723 171.976 90.8 172.935 90.877C173.243 90.877 176.722 90.94 177.023 90.975C177.023 90.975 181.839 96.477 182.133 100.936C182.486 104.368 182.617 107.819 182.525 111.268C182.525 115.314 181.937 126.339 181.937 126.339C181.167 130.602 172.48 126.703 172.48 126.703C159.943 132.912 156.87 127.298 156.87 127.298Z" fill="#FBCF26"/>
<path d="M156.87 127.298C156.345 121.404 154.238 110.603 150.605 99.256C149.422 95.567 151.424 91.402 151.424 91.402C151.424 91.402 156.373 91.276 156.87 91.22C157.367 91.164 157.983 91.101 158.543 91.052C162.362 90.6481 166.206 90.5194 170.044 90.667C170.996 90.723 171.976 90.8 172.935 90.877C173.243 90.877 176.722 90.94 177.023 90.975C177.023 90.975 181.839 96.477 182.133 100.936C182.486 104.368 182.617 107.819 182.525 111.268C182.525 115.314 181.937 126.339 181.937 126.339C181.167 130.602 172.48 126.703 172.48 126.703C159.943 132.912 156.87 127.298 156.87 127.298Z" fill="white"/>
<path d="M170.926 101.825C170.926 101.903 170.903 101.978 170.86 102.043C170.817 102.107 170.756 102.157 170.684 102.187C170.612 102.217 170.534 102.225 170.458 102.209C170.381 102.194 170.312 102.157 170.257 102.102C170.202 102.047 170.165 101.978 170.15 101.901C170.134 101.825 170.142 101.747 170.172 101.675C170.202 101.603 170.252 101.542 170.316 101.499C170.381 101.456 170.456 101.433 170.534 101.433C170.638 101.433 170.738 101.474 170.811 101.548C170.885 101.621 170.926 101.721 170.926 101.825Z" fill="black"/>
<path d="M172.354 110.106C172.354 110.184 172.331 110.259 172.288 110.324C172.245 110.388 172.184 110.438 172.112 110.468C172.04 110.498 171.962 110.506 171.886 110.49C171.809 110.475 171.74 110.438 171.685 110.383C171.63 110.328 171.593 110.259 171.578 110.182C171.562 110.106 171.57 110.028 171.6 109.956C171.63 109.884 171.68 109.823 171.744 109.78C171.809 109.737 171.884 109.714 171.962 109.714C172.066 109.714 172.166 109.755 172.239 109.829C172.313 109.902 172.354 110.002 172.354 110.106Z" fill="black"/>
<path d="M172.354 118.394C172.57 118.394 172.746 118.218 172.746 118.002C172.746 117.785 172.57 117.61 172.354 117.61C172.138 117.61 171.962 117.785 171.962 118.002C171.962 118.218 172.138 118.394 172.354 118.394Z" fill="black"/>
<path d="M172.746 125.996C172.962 125.996 173.138 125.821 173.138 125.604C173.138 125.388 172.962 125.212 172.746 125.212C172.53 125.212 172.354 125.388 172.354 125.604C172.354 125.821 172.53 125.996 172.746 125.996Z" fill="black"/>
<path d="M158.9 144.546L150.22 142.978L155.274 124.309C155.274 124.309 154 119.675 152.6 114.362C151.9 111.772 151.2 109.028 150.577 106.585C149.886 104.158 149.339 101.692 148.939 99.2C148.778 96.225 151.431 91.409 151.431 91.409L155.288 90.779C155.288 90.779 163.408 96.701 163.779 108.783C164.15 120.865 158.9 144.546 158.9 144.546Z" fill="#FBCF26"/>
<path d="M174.888 90.387C174.888 90.387 177.443 99.9 178.696 106.9C179.949 113.9 183.4 143.706 183.4 143.706L185.283 142.768L182.7 124.981C182.7 124.981 183.645 104.366 182.91 100.131C182.175 95.896 177.436 90.387 177.436 90.387H174.888Z" fill="#FBCF26"/>
<path d="M171.535 92.291C172.746 96.708 170.135 100.621 170.135 100.621C162.386 98.171 159.18 91.031 159.18 91.031C161.497 88.483 160.034 81.742 158.907 78.074L162.008 80.398L166.628 83.849C166.541 84.7999 166.617 85.7586 166.852 86.684C167.202 88.154 167.825 89.533 168.518 89.827L171.535 92.291Z" fill="#E4897B"/>
<path d="M166.852 86.684C165.011 86.271 162.596 84.367 162.211 82.484C162.062 81.7942 161.994 81.0895 162.008 80.384L166.628 83.835C166.539 84.7905 166.615 85.7541 166.852 86.684Z" fill="black"/>
<path d="M155.498 70.752C156.821 76.688 157.255 79.229 160.769 81.952C166.047 86.089 173.012 83.569 173.481 77.451C173.901 71.949 171.661 63.164 165.431 61.4C164.105 60.9733 162.688 60.91 161.329 61.2168C159.97 61.5235 158.718 62.1891 157.704 63.1441C156.69 64.0991 155.95 65.3087 155.562 66.6468C155.174 67.9848 155.152 69.4025 155.498 70.752Z" fill="#E4897B"/>
<path d="M163.163 71.487C163.254 71.991 163.59 72.369 163.912 72.334C164.234 72.299 164.423 71.865 164.332 71.361C164.241 70.857 163.905 70.479 163.583 70.514C163.261 70.549 163.1 70.983 163.163 71.487Z" fill="#263238"/>
<path d="M169.4 70.612C169.491 71.116 169.827 71.494 170.149 71.466C170.471 71.438 170.66 70.99 170.576 70.486C170.492 69.982 170.149 69.604 169.827 69.639C169.505 69.674 169.344 70.108 169.4 70.612Z" fill="#263238"/>
<path d="M169.715 69.681L170.842 69.205C170.842 69.205 170.401 70.22 169.715 69.681Z" fill="#263238"/>
<path d="M167.706 71.9C168.352 73.0042 169.138 74.0205 170.044 74.924C169.818 75.1341 169.548 75.2905 169.254 75.3814C168.959 75.4723 168.648 75.4954 168.343 75.449L167.706 71.9Z" fill="#DE5753"/>
<path d="M161.7 68.435C161.739 68.435 161.778 68.4262 161.813 68.4092C161.848 68.3923 161.879 68.3676 161.903 68.337C162.129 68.0545 162.423 67.8329 162.757 67.6924C163.09 67.5518 163.454 67.4967 163.814 67.532C163.851 67.5379 163.889 67.5362 163.926 67.527C163.963 67.5177 163.997 67.5012 164.027 67.4783C164.057 67.4554 164.083 67.4266 164.101 67.3938C164.12 67.3609 164.132 67.3246 164.136 67.287C164.141 67.2063 164.115 67.1267 164.065 67.0634C164.015 67.0001 163.943 66.9576 163.863 66.944C163.408 66.8941 162.949 66.959 162.525 67.1326C162.102 67.3063 161.73 67.5832 161.441 67.938C161.394 68.001 161.373 68.0797 161.382 68.1577C161.391 68.2358 161.43 68.3075 161.49 68.358C161.55 68.406 161.623 68.433 161.7 68.435Z" fill="#263238"/>
<path d="M171.416 67C171.491 67.0096 171.566 66.9895 171.626 66.944C171.654 66.9166 171.676 66.8839 171.691 66.8479C171.706 66.8118 171.714 66.7731 171.714 66.734C171.714 66.6949 171.706 66.6562 171.691 66.6201C171.676 66.584 171.654 66.5514 171.626 66.524C171.333 66.1441 170.957 65.8371 170.526 65.627C170.094 65.4169 169.621 65.3094 169.141 65.313C169.103 65.3155 169.066 65.3258 169.032 65.3433C168.999 65.3609 168.969 65.3852 168.945 65.4149C168.922 65.4445 168.904 65.4788 168.895 65.5155C168.885 65.5522 168.883 65.5905 168.889 65.628C168.901 65.7071 168.942 65.7789 169.004 65.8294C169.066 65.8799 169.145 65.9054 169.225 65.901C169.605 65.9076 169.978 65.9998 170.318 66.1706C170.657 66.3415 170.954 66.5867 171.185 66.888C171.213 66.9225 171.248 66.9505 171.288 66.9699C171.328 66.9892 171.372 66.9995 171.416 67Z" fill="#263238"/>
<path d="M163.45 70.556L164.57 70.08C164.57 70.08 164.129 71.088 163.45 70.556Z" fill="#263238"/>
<path d="M158.543 74.189C158.543 74.189 161.462 69.94 159.243 63.647C159.243 63.647 165.844 60.441 170.849 65.327C170.849 65.327 166.194 57.172 156.478 61.078C146.762 64.984 154.091 74.315 155.295 75.078C156.499 75.841 158.543 74.189 158.543 74.189Z" fill="#263238"/>
<path d="M154.308 75.883C155.089 76.9159 156.246 77.5979 157.528 77.78C159.166 77.976 159.628 76.317 158.928 74.791C158.228 73.391 156.583 71.669 155.078 72.18C153.573 72.691 153.3 74.581 154.308 75.883Z" fill="#E4897B"/>
<path d="M168.7 76.856C168.38 77.62 168.116 78.406 167.909 79.208C167.762 79.208 167.615 79.208 167.475 79.166C165.501 78.97 164.675 78.221 164.311 77.458C164.153 77.0821 164.086 76.6745 164.115 76.268C164.124 76.0299 164.166 75.7942 164.241 75.568C165.228 76.303 167.041 76.632 168.028 76.765C168.427 76.842 168.7 76.856 168.7 76.856Z" fill="#263238"/>
<path d="M168 76.8L167.748 77.5C165.893 77.304 164.612 76.919 164.087 76.303C164.096 76.0649 164.138 75.8292 164.213 75.603C165.2 76.317 167.034 76.646 168 76.8Z" fill="white"/>
<path d="M167.461 79.166C165.487 78.97 164.661 78.221 164.297 77.458C165.044 77.5486 165.77 77.7714 166.439 78.116C166.881 78.3506 167.238 78.7178 167.461 79.166Z" fill="#DE5753"/>
<path d="M153.713 112.92C153.497 113.512 153.094 114.018 152.565 114.362C151.865 111.772 151.165 109.028 150.542 106.585C152.145 104.646 153.496 103.029 153.496 103.029C153.496 103.029 155.344 108.769 153.713 112.92Z" fill="black"/>
<path d="M151.424 91.402C147.994 91.815 137.48 117.932 138.124 122.055C138.768 126.178 161.371 124.309 161.371 124.309V118.009L148.169 115.349L152.74 106.389C153.549 103.786 153.886 101.06 153.734 98.339C153.443 95.8938 152.657 93.5335 151.424 91.402Z" fill="#FBCF26"/>
<path d="M148.071 133.969C148.034 133.978 147.996 133.978 147.959 133.969C147.903 133.938 147.861 133.886 147.843 133.825C147.824 133.763 147.831 133.697 147.861 133.64C147.924 133.514 154.462 120.97 151.984 117.022C151.699 116.607 151.303 116.28 150.842 116.078C150.38 115.877 149.871 115.808 149.373 115.881C140.35 116.196 136.073 129.279 136.031 129.412C136.005 129.465 135.961 129.507 135.907 129.53C135.853 129.553 135.793 129.556 135.736 129.538C135.68 129.52 135.633 129.483 135.602 129.433C135.571 129.383 135.559 129.323 135.569 129.265C135.611 129.125 139.986 115.72 149.352 115.391C149.939 115.318 150.534 115.41 151.071 115.658C151.607 115.905 152.064 116.298 152.39 116.791C155.022 120.991 148.568 133.367 148.288 133.892C148.261 133.922 148.227 133.945 148.189 133.958C148.151 133.972 148.111 133.976 148.071 133.969Z" fill="#FBCF26"/>
<path d="M148.071 133.969C148.034 133.978 147.996 133.978 147.959 133.969C147.903 133.938 147.861 133.886 147.843 133.825C147.824 133.763 147.831 133.697 147.861 133.64C147.924 133.514 154.462 120.97 151.984 117.022C151.699 116.607 151.303 116.28 150.842 116.078C150.38 115.877 149.871 115.808 149.373 115.881C140.35 116.196 136.073 129.279 136.031 129.412C136.005 129.465 135.961 129.507 135.907 129.53C135.853 129.553 135.793 129.556 135.736 129.538C135.68 129.52 135.633 129.483 135.602 129.433C135.571 129.383 135.559 129.323 135.569 129.265C135.611 129.125 139.986 115.72 149.352 115.391C149.939 115.318 150.534 115.41 151.071 115.658C151.607 115.905 152.064 116.298 152.39 116.791C155.022 120.991 148.568 133.367 148.288 133.892C148.261 133.922 148.227 133.945 148.189 133.958C148.151 133.972 148.111 133.976 148.071 133.969Z" fill="white"/>
<path d="M132.083 126.465L117.915 156.075L120.099 164.979L144.949 173.47L156.73 137.889L153.475 134.578L153.167 132.639L132.083 126.465Z" fill="#263238"/>
<path d="M132.083 126.465L117.915 156.075L120.099 164.979L144.949 173.47L156.73 137.889L135.576 132.835L135.779 130.287L132.083 126.465Z" fill="white"/>
<path d="M135.576 132.828L135.779 130.287L132.09 126.465L153.16 132.639L153.475 134.578L156.73 137.889L135.576 132.828Z" fill="white"/>
<path d="M135.576 132.835L120.099 164.979L144.949 173.47L156.73 137.889L135.576 132.835Z" fill="white"/>
<path d="M135.779 130.287L121.562 156.6L117.915 156.075L120.099 164.979L121.961 157.111L135.779 130.287Z" fill="white"/>
<path d="M149.8 115.258C149.203 114.947 148.538 114.791 147.865 114.804C147.192 114.818 146.534 115 145.95 115.335C140.7 118.317 138.908 132.933 138.698 134.809C138.589 134.852 138.499 134.932 138.444 135.035C138.388 135.137 138.37 135.256 138.394 135.371C138.417 135.485 138.48 135.588 138.572 135.66C138.663 135.733 138.777 135.771 138.894 135.768C139.026 135.768 139.152 135.716 139.245 135.622C139.339 135.529 139.391 135.403 139.391 135.271C139.389 135.193 139.37 135.116 139.333 135.047C139.297 134.977 139.245 134.918 139.181 134.872C139.377 133.15 141.204 118.59 146.181 115.762C146.697 115.462 147.281 115.298 147.877 115.287C148.474 115.276 149.064 115.418 149.59 115.699C156.982 119.129 151.767 135.355 150.822 138.099C150.725 138.106 150.633 138.141 150.555 138.2C150.478 138.259 150.42 138.339 150.388 138.43C150.356 138.522 150.351 138.621 150.375 138.715C150.398 138.809 150.449 138.895 150.52 138.96C150.592 139.026 150.681 139.069 150.777 139.085C150.872 139.101 150.971 139.088 151.059 139.049C151.148 139.009 151.223 138.945 151.275 138.863C151.328 138.781 151.355 138.686 151.354 138.589C151.353 138.493 151.321 138.4 151.263 138.323C152.25 135.6 157.731 118.933 149.8 115.258Z" fill="#FBCF26"/>
<path d="M149.8 115.258C149.203 114.947 148.538 114.791 147.865 114.804C147.192 114.818 146.534 115 145.95 115.335C140.7 118.317 138.908 132.933 138.698 134.809C138.589 134.852 138.499 134.932 138.444 135.035C138.388 135.137 138.37 135.256 138.394 135.371C138.417 135.485 138.48 135.588 138.572 135.66C138.663 135.733 138.777 135.771 138.894 135.768C139.026 135.768 139.152 135.716 139.245 135.622C139.339 135.529 139.391 135.403 139.391 135.271C139.389 135.193 139.37 135.116 139.333 135.047C139.297 134.977 139.245 134.918 139.181 134.872C139.377 133.15 141.204 118.59 146.181 115.762C146.697 115.462 147.281 115.298 147.877 115.287C148.474 115.276 149.064 115.418 149.59 115.699C156.982 119.129 151.767 135.355 150.822 138.099C150.725 138.106 150.633 138.141 150.555 138.2C150.478 138.259 150.42 138.339 150.388 138.43C150.356 138.522 150.351 138.621 150.375 138.715C150.398 138.809 150.449 138.895 150.52 138.96C150.592 139.026 150.681 139.069 150.777 139.085C150.872 139.101 150.971 139.088 151.059 139.049C151.148 139.009 151.223 138.945 151.275 138.863C151.328 138.781 151.355 138.686 151.354 138.589C151.353 138.493 151.321 138.4 151.263 138.323C152.25 135.6 157.731 118.933 149.8 115.258Z" fill="white"/>
<path d="M154.98 133.073H154.945C154.883 133.064 154.827 133.031 154.789 132.982C154.751 132.932 154.734 132.869 154.742 132.807C154.742 132.674 156.513 119.136 152.782 116.063C152.363 115.739 151.863 115.535 151.337 115.472C150.81 115.409 150.277 115.49 149.793 115.706C141.26 118.611 142.177 132.009 142.184 132.142C142.188 132.173 142.185 132.205 142.176 132.235C142.167 132.265 142.152 132.292 142.132 132.316C142.111 132.34 142.086 132.359 142.058 132.373C142.029 132.386 141.998 132.393 141.967 132.394C141.905 132.398 141.844 132.377 141.797 132.337C141.75 132.296 141.72 132.239 141.715 132.177C141.715 132.037 140.756 118.282 149.639 115.258C150.2 115.016 150.815 114.93 151.421 115.007C152.027 115.085 152.601 115.324 153.083 115.699C157.017 118.933 155.288 132.303 155.183 132.87C155.177 132.922 155.154 132.97 155.117 133.007C155.08 133.044 155.032 133.067 154.98 133.073Z" fill="#263238"/>
<path d="M137.571 130.511L128.289 167.303L132.958 175.192L159.201 176.13L164.465 134.326L160.391 132.093L159.537 130.329L137.571 130.511Z" fill="#FBCF26"/>
<path d="M137.571 130.511L128.289 167.303L132.958 175.192L159.201 176.13L164.465 134.326L142.758 135.6L142.212 133.101L137.571 130.511Z" fill="white"/>
<path d="M142.751 135.6L142.212 133.101L137.571 130.511L159.53 130.322L160.391 132.093L164.465 134.326L142.751 135.6Z" fill="white"/>
<path d="M142.758 135.6L132.958 175.192L159.201 176.13L164.465 134.326L142.758 135.6Z" fill="white"/>
<path d="M146.601 136.958C146.546 136.959 146.493 136.94 146.451 136.906C146.409 136.871 146.38 136.823 146.37 136.769C146.244 136.125 143.395 121.005 147.679 116.504C148.15 116.007 148.739 115.636 149.391 115.426C150.043 115.215 150.737 115.172 151.41 115.3C160.622 116.609 159.411 135.873 159.355 136.692C159.353 136.723 159.345 136.753 159.332 136.781C159.318 136.809 159.299 136.834 159.275 136.854C159.252 136.874 159.224 136.89 159.195 136.899C159.165 136.908 159.134 136.912 159.103 136.909C159.072 136.908 159.041 136.901 159.012 136.888C158.984 136.874 158.959 136.855 158.938 136.831C158.918 136.807 158.903 136.78 158.894 136.75C158.885 136.72 158.882 136.688 158.886 136.657C158.886 136.461 160.125 117.015 151.34 115.769C150.743 115.65 150.125 115.684 149.545 115.869C148.964 116.054 148.44 116.383 148.022 116.826C143.899 121.159 146.804 136.524 146.832 136.678C146.842 136.74 146.829 136.804 146.793 136.856C146.758 136.908 146.704 136.945 146.643 136.958H146.601Z" fill="#263238"/>
<path d="M142.212 133.101L131.936 166.743L128.289 167.303L132.958 175.192L132.468 167.121L142.212 133.101Z" fill="white"/>
<path d="M147.119 136.825C147.138 136.887 147.145 136.952 147.139 137.017C147.133 137.082 147.114 137.145 147.083 137.202C147.053 137.259 147.011 137.31 146.961 137.351C146.91 137.392 146.852 137.423 146.79 137.441C146.696 137.47 146.595 137.471 146.501 137.443C146.406 137.415 146.322 137.359 146.259 137.283C146.197 137.207 146.158 137.114 146.148 137.016C146.138 136.918 146.158 136.819 146.204 136.732C146.251 136.645 146.322 136.574 146.409 136.528C146.496 136.481 146.595 136.462 146.693 136.472C146.791 136.482 146.884 136.521 146.96 136.584C147.035 136.646 147.091 136.731 147.119 136.825Z" fill="#263238"/>
<path d="M159.544 136.545C159.573 136.639 159.574 136.74 159.546 136.834C159.518 136.929 159.462 137.013 159.386 137.076C159.31 137.138 159.217 137.177 159.119 137.187C159.021 137.197 158.922 137.177 158.835 137.131C158.748 137.084 158.677 137.013 158.631 136.926C158.584 136.839 158.565 136.74 158.575 136.642C158.585 136.544 158.624 136.451 158.687 136.375C158.749 136.3 158.833 136.244 158.928 136.216C158.99 136.197 159.055 136.19 159.12 136.196C159.185 136.202 159.248 136.221 159.305 136.252C159.362 136.282 159.413 136.324 159.454 136.374C159.495 136.425 159.526 136.483 159.544 136.545Z" fill="#263238"/>
<path d="M196.336 99.417C196.279 99.4174 196.224 99.397 196.182 99.3595C196.139 99.3221 196.112 99.2703 196.105 99.214C196.105 99.074 194.068 84.899 202.356 80.538C202.848 80.2204 203.418 80.0444 204.003 80.0296C204.589 80.0148 205.167 80.1616 205.674 80.454C209.874 83.093 209.566 97.254 209.545 97.835C209.543 97.8969 209.517 97.9557 209.473 97.9988C209.428 98.0419 209.369 98.066 209.307 98.066C209.275 98.0661 209.244 98.0597 209.215 98.0472C209.186 98.0347 209.16 98.0164 209.139 97.9935C209.117 97.9705 209.1 97.9434 209.089 97.9137C209.079 97.884 209.074 97.8525 209.076 97.821C209.076 97.681 209.426 83.352 205.422 80.86C204.986 80.6098 204.489 80.4863 203.987 80.5036C203.485 80.521 202.997 80.6783 202.58 80.958C194.586 85.158 196.553 99.004 196.574 99.158C196.579 99.1889 196.578 99.2205 196.57 99.2508C196.562 99.2812 196.548 99.3096 196.53 99.3345C196.511 99.3594 196.487 99.3801 196.459 99.3955C196.432 99.4109 196.402 99.4206 196.371 99.424L196.336 99.417Z" fill="#263238"/>
<path d="M191.758 98.227L188.293 136.013L194.124 143.083L220.199 139.947L218.918 97.828L214.55 96.253L213.423 94.643L191.758 98.227Z" fill="#263238"/>
<path d="M191.758 98.227L188.293 136.013L194.124 143.083L220.199 139.947L218.918 97.828L197.666 102.455L196.742 100.068L191.758 98.227Z" fill="white"/>
<path d="M197.666 102.455L196.742 100.068L191.758 98.227L213.423 94.643L214.55 96.253L218.918 97.828L197.666 102.455Z" fill="white"/>
<path d="M197.666 102.455L194.124 143.083L220.199 139.947L218.918 97.828L197.666 102.455Z" fill="white"/>
<path d="M201.642 103.204C201.593 103.205 201.545 103.191 201.505 103.163C201.465 103.136 201.434 103.096 201.418 103.05C201.208 102.483 196.406 89.05 199.808 83.107C200.188 82.4142 200.721 81.8172 201.366 81.3611C202.011 80.905 202.752 80.602 203.532 80.475C204.267 80.3314 205.024 80.3517 205.75 80.5344C206.476 80.7171 207.153 81.0577 207.732 81.532C213.199 85.795 214.179 100.348 214.214 100.964C214.216 101.026 214.195 101.086 214.155 101.132C214.115 101.179 214.058 101.209 213.997 101.216C213.966 101.218 213.934 101.214 213.905 101.203C213.875 101.193 213.848 101.177 213.824 101.156C213.801 101.136 213.782 101.11 213.768 101.082C213.755 101.054 213.747 101.023 213.745 100.992C213.745 100.845 212.744 86.033 207.445 81.903C206.914 81.469 206.293 81.1575 205.628 80.9905C204.962 80.8235 204.268 80.8053 203.595 80.937C202.884 81.0533 202.209 81.3299 201.621 81.7459C201.032 82.1619 200.547 82.7064 200.2 83.338C196.903 89.092 201.789 102.749 201.838 102.889C201.849 102.918 201.854 102.949 201.853 102.98C201.852 103.011 201.845 103.041 201.832 103.069C201.819 103.097 201.8 103.122 201.777 103.143C201.754 103.164 201.727 103.18 201.698 103.19L201.642 103.204Z" fill="#263238"/>
<path d="M196.742 100.068L191.807 134.9L188.293 136.013L194.124 143.083L192.388 135.187L196.742 100.068Z" fill="white"/>
<path d="M202.167 102.987C202.208 103.074 202.223 103.172 202.209 103.268C202.195 103.363 202.153 103.453 202.088 103.524C202.023 103.596 201.939 103.647 201.845 103.671C201.751 103.695 201.653 103.691 201.562 103.659C201.47 103.627 201.391 103.568 201.333 103.491C201.274 103.414 201.24 103.321 201.235 103.225C201.229 103.128 201.252 103.032 201.301 102.949C201.35 102.866 201.422 102.798 201.509 102.756C201.567 102.728 201.631 102.711 201.695 102.707C201.76 102.703 201.825 102.713 201.886 102.734C201.947 102.755 202.004 102.789 202.052 102.832C202.1 102.876 202.139 102.928 202.167 102.987Z" fill="#263238"/>
<path d="M214.403 100.782C214.442 100.87 214.454 100.967 214.439 101.062C214.424 101.157 214.381 101.246 214.317 101.317C214.252 101.388 214.168 101.439 214.075 101.464C213.982 101.488 213.884 101.485 213.793 101.455C213.701 101.425 213.621 101.369 213.561 101.294C213.501 101.219 213.463 101.128 213.454 101.032C213.444 100.937 213.463 100.84 213.507 100.755C213.551 100.669 213.619 100.599 213.703 100.551C213.763 100.517 213.83 100.495 213.899 100.489C213.969 100.482 214.038 100.489 214.104 100.511C214.17 100.533 214.231 100.568 214.282 100.615C214.334 100.662 214.375 100.718 214.403 100.782Z" fill="#263238"/>
<path d="M172.9 113.9L173.047 112.689L173.152 112.577C173.698 111.877 173.593 110.666 173.446 109.721C173.299 108.776 172.802 107.502 171.906 107.159C172.037 106.904 172.07 106.61 171.997 106.333C171.942 106.149 171.841 105.983 171.703 105.85C172.354 105.15 172.326 103.862 172.102 102.931C171.878 102 171.5 100.831 170.702 100.404C170.654 100.38 170.605 100.359 170.555 100.341L169.96 99.291L169.204 99.445L169.148 100.32C167.818 100.733 166.474 101.783 166.817 103.477C166.814 103.5 166.814 103.524 166.817 103.547C167.188 105.192 169.015 106.074 170.681 106.214C170.885 106.26 171.098 106.24 171.29 106.158C171.389 106.239 171.46 106.349 171.493 106.473C171.534 106.668 171.496 106.872 171.388 107.04C171.204 107.069 171.027 107.135 170.87 107.236C169.4 108.006 168.07 109.518 168.35 111.184C168.35 111.184 168.35 111.233 168.35 111.254C168.693 112.948 170.275 113.403 171.717 113.263L172.116 114.061L172.9 113.9ZM170.716 105.724C169.316 105.598 167.615 104.835 167.3 103.428C166.985 102.021 168.182 101.083 169.4 100.733C169.569 100.675 169.748 100.652 169.927 100.667C170.105 100.681 170.278 100.732 170.436 100.817C171.059 101.181 171.381 102.217 171.584 103.036L171.626 103.211C171.759 103.911 171.822 105.017 171.29 105.528C171.059 105.752 171.059 105.752 170.695 105.724H170.716ZM171.836 112.759C171.22 112.843 169.155 112.934 168.84 111.093C168.595 109.693 169.841 108.293 171.122 107.649C171.43 107.495 171.43 107.495 171.731 107.649C172.431 107.915 172.795 108.965 172.935 109.658C172.935 109.714 172.935 109.777 172.935 109.826C173.068 110.687 173.173 111.744 172.732 112.325C172.617 112.456 172.476 112.563 172.319 112.637C172.161 112.712 171.989 112.753 171.815 112.759H171.836Z" fill="#263238"/>
<path d="M171.85 113.004C170.45 113.186 168.875 112.773 168.581 111.135C168.287 109.497 169.61 108.16 170.975 107.446C171.374 107.236 171.388 107.222 171.801 107.383C172.641 107.712 173.061 108.979 173.201 109.756C173.418 111.261 173.439 112.801 171.85 113.004Z" fill="#FBCF26"/>
<path d="M169.337 100.502C167.937 100.887 166.684 101.902 167.048 103.484C167.412 105.066 169.148 105.836 170.674 105.962C171.122 106.004 171.143 106.011 171.458 105.703C172.109 105.073 172.011 103.743 171.822 102.98C171.458 101.496 170.877 100.068 169.337 100.502Z" fill="#FBCF26"/>
<path d="M172.256 113.319C171.262 109.329 170.023 104.919 169.68 104.541C169.11 104.307 168.52 104.129 167.916 104.009L168.014 103.547C168.675 103.676 169.32 103.875 169.939 104.142C170.464 104.443 171.899 109.952 172.739 113.207L172.256 113.319Z" fill="#263238"/>
<path d="M171.85 113.004C170.45 113.186 168.875 112.773 168.581 111.135C168.287 109.497 169.61 108.16 170.975 107.446C171.374 107.236 171.388 107.222 171.801 107.383C172.641 107.712 173.061 108.979 173.201 109.756C173.418 111.261 173.439 112.801 171.85 113.004Z" fill="white"/>
<path d="M169.337 100.502C167.937 100.887 166.684 101.902 167.048 103.484C167.412 105.066 169.148 105.836 170.674 105.962C171.122 106.004 171.143 106.011 171.458 105.703C172.109 105.073 172.011 103.743 171.822 102.98C171.458 101.496 170.877 100.068 169.337 100.502Z" fill="white"/>
<path d="M201.6 100.264C201.552 100.263 201.505 100.248 201.465 100.221C201.425 100.194 201.394 100.155 201.376 100.11C201.103 99.466 194.761 84.143 203.364 80.258C203.871 80.0153 204.428 79.8952 204.989 79.9074C205.551 79.9195 206.102 80.0636 206.598 80.328C211.498 82.806 214.165 95.504 214.298 96.043C214.305 96.0738 214.306 96.1058 214.301 96.137C214.296 96.1682 214.284 96.198 214.267 96.2247C214.25 96.2514 214.228 96.2745 214.202 96.2926C214.176 96.3107 214.147 96.3234 214.116 96.33C214.053 96.3447 213.987 96.3338 213.931 96.2997C213.876 96.2656 213.837 96.211 213.822 96.148C213.822 96.015 211.064 83.135 206.395 80.748C205.966 80.5175 205.489 80.3922 205.002 80.3825C204.515 80.3727 204.033 80.4788 203.595 80.692C195.426 84.381 201.796 99.753 201.859 99.907C201.873 99.9363 201.88 99.9681 201.882 100C201.883 100.033 201.877 100.065 201.865 100.095C201.854 100.125 201.836 100.153 201.813 100.176C201.79 100.199 201.763 100.217 201.733 100.229C201.693 100.253 201.647 100.265 201.6 100.264Z" fill="#263238"/>
<path d="M201.6 100.264C201.552 100.263 201.505 100.248 201.465 100.221C201.425 100.194 201.394 100.155 201.376 100.11C201.103 99.466 194.761 84.143 203.364 80.258C203.871 80.0153 204.428 79.8952 204.989 79.9074C205.551 79.9195 206.102 80.0636 206.598 80.328C211.498 82.806 214.165 95.504 214.298 96.043C214.305 96.0738 214.306 96.1058 214.301 96.137C214.296 96.1682 214.284 96.198 214.267 96.2247C214.25 96.2514 214.228 96.2745 214.202 96.2926C214.176 96.3107 214.147 96.3234 214.116 96.33C214.053 96.3447 213.987 96.3338 213.931 96.2997C213.876 96.2656 213.837 96.211 213.822 96.148C213.822 96.015 211.064 83.135 206.395 80.748C205.966 80.5175 205.489 80.3922 205.002 80.3825C204.515 80.3727 204.033 80.4788 203.595 80.692C195.426 84.381 201.796 99.753 201.859 99.907C201.873 99.9363 201.88 99.9681 201.882 100C201.883 100.033 201.877 100.065 201.865 100.095C201.854 100.125 201.836 100.153 201.813 100.176C201.79 100.199 201.763 100.217 201.733 100.229C201.693 100.253 201.647 100.265 201.6 100.264Z" fill="white"/>
<path d="M196.938 100.005L203.609 132.156L210.742 137.917L235.655 129.608L223.468 94.167L218.869 93.502L217.448 92.144L196.938 100.005Z" fill="#FBCF26"/>
<path d="M196.938 100.005L203.609 132.156L210.742 137.917L235.655 129.608L223.468 94.167L203.574 102.959L202.188 100.81L196.938 100.005Z" fill="white"/>
<path d="M203.567 102.959L202.188 100.81L196.938 100.005L217.441 92.144L218.869 93.502L223.461 94.167L203.567 102.959Z" fill="white"/>
<path d="M203.574 102.959L210.742 137.917L235.655 129.608L223.468 94.167L203.574 102.959Z" fill="white"/>
<path d="M202.188 100.81L206.829 130.357L203.609 132.156L210.742 137.917L207.459 130.525L202.188 100.81Z" fill="white"/>
<path d="M219.632 97.968C219.57 97.896 219.49 97.8407 219.401 97.807C218.491 95.007 212.583 78.088 204.057 79.971C203.4 80.0835 202.781 80.3599 202.259 80.7747C201.736 81.1894 201.327 81.7291 201.068 82.344C198.674 87.944 206.283 100.992 207.263 102.644C207.217 102.729 207.196 102.826 207.203 102.923C207.211 103.02 207.246 103.113 207.305 103.19C207.344 103.243 207.394 103.287 207.451 103.321C207.507 103.354 207.57 103.376 207.636 103.384C207.701 103.393 207.767 103.388 207.831 103.37C207.894 103.353 207.954 103.322 208.005 103.281C208.058 103.242 208.102 103.192 208.136 103.136C208.169 103.079 208.191 103.017 208.2 102.951C208.209 102.886 208.205 102.82 208.189 102.756C208.172 102.693 208.143 102.633 208.103 102.581C208.056 102.519 207.994 102.47 207.923 102.437C207.853 102.404 207.775 102.388 207.697 102.392C206.801 100.88 199.248 87.86 201.523 82.533C201.751 81.9881 202.113 81.5098 202.576 81.1426C203.039 80.7755 203.587 80.5313 204.169 80.433C212.128 78.683 217.98 95.077 218.925 97.933C218.83 98.0134 218.77 98.1268 218.755 98.2503C218.741 98.3738 218.774 98.4981 218.848 98.598C218.93 98.7014 219.048 98.7693 219.178 98.7875C219.309 98.8058 219.441 98.773 219.548 98.696C219.603 98.6549 219.649 98.603 219.683 98.5436C219.717 98.4841 219.739 98.4183 219.747 98.3501C219.755 98.2819 219.749 98.2129 219.729 98.1472C219.709 98.0815 219.676 98.0205 219.632 97.968Z" fill="#263238"/>
<path d="M219.632 97.968C219.57 97.896 219.49 97.8407 219.401 97.807C218.491 95.007 212.583 78.088 204.057 79.971C203.4 80.0835 202.781 80.3599 202.259 80.7747C201.736 81.1894 201.327 81.7291 201.068 82.344C198.674 87.944 206.283 100.992 207.263 102.644C207.217 102.729 207.196 102.826 207.203 102.923C207.211 103.02 207.246 103.113 207.305 103.19C207.344 103.243 207.394 103.287 207.451 103.321C207.507 103.354 207.57 103.376 207.636 103.384C207.701 103.393 207.767 103.388 207.831 103.37C207.894 103.353 207.954 103.322 208.005 103.281C208.058 103.242 208.102 103.192 208.136 103.136C208.169 103.079 208.191 103.017 208.2 102.951C208.209 102.886 208.205 102.82 208.189 102.756C208.172 102.693 208.143 102.633 208.103 102.581C208.056 102.519 207.994 102.47 207.923 102.437C207.853 102.404 207.775 102.388 207.697 102.392C206.801 100.88 199.248 87.86 201.523 82.533C201.751 81.9881 202.113 81.5098 202.576 81.1426C203.039 80.7755 203.587 80.5313 204.169 80.433C212.128 78.683 217.98 95.077 218.925 97.933C218.83 98.0134 218.77 98.1268 218.755 98.2503C218.741 98.3738 218.774 98.4981 218.848 98.598C218.93 98.7014 219.048 98.7693 219.178 98.7875C219.309 98.8058 219.441 98.773 219.548 98.696C219.603 98.6549 219.649 98.603 219.683 98.5436C219.717 98.4841 219.739 98.4183 219.747 98.3501C219.755 98.2819 219.749 98.2129 219.729 98.1472C219.709 98.0815 219.676 98.0205 219.632 97.968Z" fill="white"/>
<path d="M210.742 79.712L205.464 78.067L202.468 82.778L208.194 85.536L210.742 79.712Z" fill="#E4897B"/>
<path d="M166.187 117.253L161 118.73L159.922 122.153C160.419 124.953 165.76 123.742 165.76 123.742L166.852 124.442C167.058 124.571 167.291 124.647 167.533 124.664C167.775 124.681 168.017 124.639 168.239 124.541C168.461 124.443 168.655 124.292 168.805 124.101C168.955 123.911 169.056 123.687 169.099 123.448L169.666 120.214C169.707 119.953 169.677 119.685 169.58 119.439C169.483 119.193 169.322 118.977 169.113 118.814L167.482 117.54C167.303 117.395 167.093 117.293 166.869 117.243C166.644 117.193 166.41 117.197 166.187 117.253Z" fill="#E4897B"/>
<path d="M140.91 111.275C139.097 116.238 137.879 120.571 138.11 122.055C138.74 126.185 161.357 124.309 161.357 124.309V118.009L148.155 115.349L140.91 111.275Z" fill="#FBCF26"/>
<path d="M136.948 126.703C136.913 126.71 136.878 126.71 136.843 126.703C136.814 126.69 136.788 126.67 136.767 126.647C136.746 126.623 136.73 126.596 136.719 126.566C136.709 126.536 136.704 126.504 136.706 126.472C136.708 126.44 136.717 126.409 136.731 126.381C138.579 122.377 142.688 115.622 149.331 115.384C149.395 115.384 149.458 115.409 149.504 115.453C149.551 115.497 149.579 115.558 149.583 115.622C149.585 115.686 149.562 115.748 149.519 115.795C149.476 115.842 149.416 115.87 149.352 115.874C142.947 116.098 138.957 122.678 137.151 126.584C137.13 126.619 137.1 126.649 137.065 126.669C137.029 126.69 136.989 126.702 136.948 126.703Z" fill="#FBCF26"/>
<path d="M136.948 126.703C136.913 126.71 136.878 126.71 136.843 126.703C136.814 126.69 136.788 126.67 136.767 126.647C136.746 126.623 136.73 126.596 136.719 126.566C136.709 126.536 136.704 126.504 136.706 126.472C136.708 126.44 136.717 126.409 136.731 126.381C138.579 122.377 142.688 115.622 149.331 115.384C149.395 115.384 149.458 115.409 149.504 115.453C149.551 115.497 149.579 115.558 149.583 115.622C149.585 115.686 149.562 115.748 149.519 115.795C149.476 115.842 149.416 115.87 149.352 115.874C142.947 116.098 138.957 122.678 137.151 126.584C137.13 126.619 137.1 126.649 137.065 126.669C137.029 126.69 136.989 126.702 136.948 126.703Z" fill="white"/>
<path d="M139.853 129.454H139.804C139.741 129.44 139.685 129.403 139.649 129.35C139.612 129.296 139.598 129.231 139.608 129.167C140.686 123.777 142.695 116.987 146.146 115.237C146.714 114.947 147.342 114.796 147.98 114.796C148.618 114.796 149.246 114.947 149.814 115.237C149.847 115.247 149.878 115.264 149.905 115.288C149.931 115.311 149.952 115.339 149.966 115.371C149.98 115.403 149.988 115.438 149.988 115.473C149.987 115.508 149.98 115.542 149.965 115.574C149.951 115.606 149.929 115.634 149.903 115.657C149.876 115.68 149.845 115.697 149.812 115.706C149.778 115.716 149.743 115.719 149.708 115.714C149.674 115.709 149.64 115.697 149.611 115.678C149.111 115.417 148.555 115.28 147.99 115.28C147.426 115.28 146.87 115.417 146.37 115.678C143.094 117.337 141.141 123.987 140.07 129.265C140.058 129.315 140.031 129.361 139.992 129.395C139.953 129.429 139.904 129.449 139.853 129.454Z" fill="#FBCF26"/>
<path d="M139.853 129.454H139.804C139.741 129.44 139.685 129.403 139.649 129.35C139.612 129.296 139.598 129.231 139.608 129.167C140.686 123.777 142.695 116.987 146.146 115.237C146.714 114.947 147.342 114.796 147.98 114.796C148.618 114.796 149.246 114.947 149.814 115.237C149.847 115.247 149.878 115.264 149.905 115.288C149.931 115.311 149.952 115.339 149.966 115.371C149.98 115.403 149.988 115.438 149.988 115.473C149.987 115.508 149.98 115.542 149.965 115.574C149.951 115.606 149.929 115.634 149.903 115.657C149.876 115.68 149.845 115.697 149.812 115.706C149.778 115.716 149.743 115.719 149.708 115.714C149.674 115.709 149.64 115.697 149.611 115.678C149.111 115.417 148.555 115.28 147.99 115.28C147.426 115.28 146.87 115.417 146.37 115.678C143.094 117.337 141.141 123.987 140.07 129.265C140.058 129.315 140.031 129.361 139.992 129.395C139.953 129.429 139.904 129.449 139.853 129.454Z" fill="white"/>
<path d="M142.037 128.404C142.006 128.401 141.975 128.393 141.947 128.378C141.919 128.364 141.895 128.344 141.875 128.32C141.854 128.296 141.839 128.268 141.83 128.238C141.82 128.208 141.817 128.176 141.82 128.145C142.184 124.204 143.682 117.295 149.66 115.258C149.689 115.247 149.721 115.242 149.752 115.244C149.783 115.245 149.814 115.253 149.842 115.267C149.87 115.281 149.895 115.3 149.916 115.324C149.936 115.347 149.952 115.375 149.961 115.405C149.981 115.464 149.977 115.529 149.949 115.586C149.922 115.642 149.873 115.685 149.814 115.706C144.375 117.554 142.723 123.518 142.289 128.194C142.286 128.224 142.278 128.254 142.264 128.281C142.25 128.308 142.23 128.332 142.207 128.351C142.183 128.371 142.156 128.386 142.127 128.395C142.098 128.404 142.067 128.407 142.037 128.404Z" fill="#263238"/>
<path d="M146.601 136.958C146.546 136.959 146.493 136.94 146.451 136.906C146.409 136.871 146.38 136.823 146.37 136.769C146.244 136.125 143.395 121.005 147.679 116.504C148.15 116.007 148.739 115.636 149.391 115.426C150.043 115.215 150.737 115.172 151.41 115.3C151.471 115.31 151.526 115.344 151.564 115.393C151.602 115.442 151.619 115.504 151.613 115.566C151.603 115.629 151.568 115.685 151.517 115.723C151.467 115.76 151.403 115.777 151.34 115.769C150.743 115.65 150.125 115.684 149.545 115.869C148.964 116.054 148.44 116.383 148.022 116.826C143.899 121.159 146.804 136.524 146.832 136.678C146.842 136.74 146.829 136.804 146.793 136.856C146.758 136.908 146.704 136.945 146.643 136.958H146.601Z" fill="#263238"/>
</svg>
