<svg width="24" height="24" viewBox="0 0 24 24" fill="none" xmlns="http://www.w3.org/2000/svg">
<rect x="-0.5" y="0.5" width="23" height="23" rx="11.5" transform="matrix(-1 0 0 1 23 0)" fill="#397EDD"/>
<rect x="-0.5" y="0.5" width="23" height="23" rx="11.5" transform="matrix(-1 0 0 1 23 0)" stroke="#86B3EE"/>
<path d="M12.4354 5.01445C13.0261 5.12656 13.5018 5.37539 13.912 5.78828C14.3933 6.26953 14.6612 6.84648 14.6968 7.47812L14.7132 7.75976H15.4159C16.2253 7.75976 16.3183 7.77617 16.5425 7.95937C16.7147 8.09883 16.8186 8.24375 16.8788 8.42969C16.9089 8.52812 17.0101 9.66836 17.237 12.5176C17.5925 16.9773 17.5952 16.991 17.4448 17.4258C17.3108 17.8223 17.1851 18.0219 16.8788 18.3281C16.6546 18.5523 16.5616 18.6262 16.3593 18.7301C16.2226 18.7984 16.0202 18.8859 15.9081 18.9215L15.703 18.9844H11.9979H8.29286L8.08778 18.9215C7.97568 18.8859 7.7706 18.7984 7.63661 18.7301C7.43427 18.6262 7.3413 18.5523 7.11708 18.3281C6.81083 18.0219 6.68505 17.8223 6.55107 17.4258C6.40068 16.991 6.40341 16.9773 6.75888 12.5148C6.9913 9.59727 7.08427 8.52812 7.11982 8.42969C7.20732 8.16719 7.38778 7.96211 7.64755 7.83633C7.76786 7.77617 7.80888 7.77344 8.52802 7.76523L9.28271 7.75703L9.29911 7.47812C9.362 6.38164 10.1468 5.42187 11.2569 5.08828C11.4593 5.02812 11.5522 5.01719 11.9296 5.00898C12.1702 5.00625 12.3972 5.00898 12.4354 5.01445ZM11.4018 5.93594C11.1093 6.03711 10.9179 6.16016 10.6854 6.39258C10.3491 6.73164 10.1714 7.10351 10.144 7.53281L10.1304 7.75976H11.9952H13.8573V7.60117C13.8546 6.98047 13.4143 6.31601 12.8018 6.02344C12.5065 5.87851 12.337 5.8457 11.9433 5.85664C11.6589 5.86211 11.5686 5.87578 11.4018 5.93594ZM14.6995 9.18164L14.6913 9.7832L14.5874 9.88437C14.489 9.98555 14.478 9.98828 14.2948 9.98828C14.1116 9.98828 14.1007 9.98281 14.005 9.88984C13.8765 9.76133 13.8601 9.66836 13.8573 9.06406V8.58008H11.9979H10.1386V9.06406C10.1358 9.66836 10.1194 9.76133 9.99091 9.88984C9.89521 9.98281 9.88427 9.98828 9.70107 9.98828C9.51786 9.98828 9.50693 9.98555 9.40849 9.88437L9.30458 9.7832L9.29638 9.17891L9.28818 8.57734L8.64833 8.58555C8.08778 8.59375 8.00302 8.59922 7.962 8.64023C7.92099 8.68125 7.87177 9.21992 7.60653 12.5641C7.437 14.6969 7.29755 16.5508 7.29755 16.6875C7.29755 16.8215 7.30849 16.9883 7.32489 17.0566C7.43153 17.5242 7.83896 17.9535 8.32021 18.1039L8.51161 18.1641H11.9979H15.4843L15.6757 18.1039C16.0503 17.9863 16.4003 17.6855 16.5616 17.3492C16.6683 17.1277 16.6983 16.9828 16.7011 16.7148C16.7011 16.4687 16.1104 8.8918 16.0776 8.74414C16.0448 8.59101 15.9983 8.58008 15.3147 8.58008H14.7077L14.6995 9.18164Z" fill="white"/>
<path d="M10.5386 11.8329C10.5878 11.8438 10.6616 11.8766 10.7026 11.9094C10.7464 11.9395 11.1812 12.3661 11.6706 12.8555L12.5565 13.7442L12.9448 13.3641C13.3605 12.9567 13.4069 12.9294 13.6448 12.9622C13.7241 12.9731 13.7843 13.0059 13.8526 13.0743C13.9374 13.1591 13.9511 13.1891 13.962 13.3341C13.9702 13.4653 13.962 13.5145 13.9183 13.5884C13.8882 13.6376 13.623 13.9137 13.3331 14.2009C12.7644 14.7669 12.6933 14.8134 12.4718 14.7751C12.3788 14.7559 12.2366 14.6247 11.2085 13.5966L10.0491 12.4399L10.0355 12.2813C10.0245 12.1637 10.0355 12.1009 10.071 12.0325C10.1558 11.8766 10.3554 11.7919 10.5386 11.8329Z" fill="white"/>
</svg>
