<svg width="24" height="24" viewBox="0 0 24 24" fill="none" xmlns="http://www.w3.org/2000/svg">
<path d="M6.03277 3.04319C3.28589 4.04632 1.79058 4.6135 1.71558 4.68382C1.64996 4.74475 1.57964 4.84788 1.54683 4.91819C1.50933 5.01194 1.49996 6.05256 1.51402 8.701C1.52808 12.2635 1.53277 12.3666 1.63589 12.9338C1.86089 14.1666 2.19371 15.1744 2.74214 16.2901C3.89058 18.6244 5.79371 20.5323 8.13277 21.6854C8.88277 22.0557 9.60464 22.3369 10.1625 22.4823C10.5046 22.5713 10.5046 22.5713 10.9078 22.4635C11.4328 22.3276 12.4593 21.9151 12.6 21.7838C12.8484 21.5541 12.9187 21.151 12.7687 20.8323C12.6656 20.6119 12.3609 20.4385 12.089 20.4385C11.8687 20.4432 11.8312 20.4573 11.0765 20.7619C10.8093 20.8651 10.5515 20.9541 10.5 20.9541C10.3359 20.9541 9.52964 20.6354 8.88277 20.3213C6.00464 18.9151 3.93746 16.2619 3.25777 13.1073C3.04214 12.1088 3.02808 11.7807 3.02339 8.701V5.79475L6.72652 4.44944C8.76558 3.70413 10.4625 3.09944 10.5 3.09944C10.5375 3.09944 12.239 3.70413 14.2734 4.44944L17.9765 5.79944L18 8.67757C18.0234 11.3541 18.0281 11.5698 18.1078 11.6869C18.2437 11.8979 18.4593 12.001 18.75 12.001C19.0546 12.001 19.2656 11.8885 19.4062 11.6635C19.4953 11.5135 19.5 11.4198 19.5 8.251C19.5 5.10569 19.4953 4.9885 19.4062 4.84319C19.3593 4.75882 19.2703 4.66038 19.2093 4.62288C19.1484 4.58538 17.2125 3.86819 14.9062 3.02444C11.3953 1.74944 10.6734 1.501 10.4765 1.50569C10.289 1.50569 9.36089 1.82913 6.03277 3.04319Z" fill="#151515"/>
<path d="M9.92813 6.00135C9.12188 6.14666 8.31563 6.61541 7.85156 7.21072C7.34531 7.85291 7.11094 8.5326 7.11094 9.35291C7.11094 10.0935 7.29375 10.6982 7.6875 11.2748L7.81875 11.467L7.50938 11.6263C7.06875 11.8513 6.59063 12.3482 6.3375 12.831C6.06094 13.3607 6 13.6654 6 14.5326C6 15.1748 6.00938 15.2779 6.09375 15.4138C6.37031 15.8685 7.125 15.8732 7.40156 15.4232C7.46719 15.3107 7.49063 15.1467 7.51406 14.6357C7.52813 14.2842 7.56563 13.9138 7.59375 13.8201C7.72031 13.3935 8.14688 12.9717 8.59219 12.8357C8.7375 12.7888 9.2625 12.7748 10.5469 12.7748H12.3047L12.5625 12.8967C12.7031 12.9623 12.9375 13.1263 13.0781 13.2576C13.3547 13.5201 13.5094 13.5763 13.8469 13.5388C14.4047 13.4732 14.6578 12.831 14.325 12.3295C14.1844 12.1138 13.7766 11.781 13.425 11.5935L13.1766 11.4623L13.3781 11.1482C13.6828 10.6701 13.8375 10.1638 13.8656 9.52635C13.8891 8.93572 13.8375 8.57478 13.6547 8.11072C13.2656 7.13103 12.4875 6.41853 11.4609 6.09978C11.0906 5.9826 10.2938 5.93103 9.92813 6.00135ZM11.3016 7.72166C11.6766 7.90447 12.0047 8.24197 12.1781 8.61697C12.2906 8.85135 12.3047 8.94041 12.3047 9.37635C12.3047 9.81228 12.2906 9.90135 12.1781 10.1357C11.5219 11.542 9.52969 11.5701 8.84531 10.1779C8.70469 9.89197 8.69531 9.84041 8.69531 9.37635C8.69531 8.94041 8.70938 8.85135 8.82188 8.61697C9.04219 8.14822 9.46406 7.77322 9.95156 7.61385C10.0734 7.57635 10.3125 7.55291 10.5703 7.56228C10.9406 7.57166 11.0344 7.59041 11.3016 7.72166Z" fill="#151515"/>
<path d="M17.0625 13.5746C15.3891 13.9496 14.1094 15.1543 13.6313 16.8137C13.5375 17.1371 13.5234 17.2871 13.5234 18.0043C13.5234 18.7215 13.5375 18.8715 13.6313 19.1949C14.0813 20.7512 15.2438 21.9184 16.7859 22.3684C17.3156 22.5184 18.3891 22.5465 18.9703 22.4199C20.6156 22.0543 21.8906 20.8449 22.3688 19.1949C22.4625 18.8715 22.4766 18.7215 22.4766 18.0043C22.4766 17.2871 22.4625 17.1371 22.3688 16.8137C21.9188 15.2527 20.7656 14.0949 19.2141 13.6402C18.7594 13.509 17.5312 13.4715 17.0625 13.5746ZM18.9375 15.1918C19.8 15.4824 20.5359 16.2184 20.8172 17.0715C20.9156 17.3715 20.9297 17.5027 20.9297 18.0512C20.925 18.6512 20.9203 18.7027 20.775 19.059C20.4188 19.9496 19.6359 20.6481 18.7219 20.8871C18.3609 20.9809 17.6625 20.9809 17.2875 20.8871C16.2234 20.6106 15.3938 19.7762 15.1172 18.7074C15 18.2481 15.0375 17.484 15.2016 17.0246C15.7453 15.5012 17.4188 14.6809 18.9375 15.1918Z" fill="#151515"/>
<path d="M19.0563 16.477C19.0328 16.4863 18.9484 16.5051 18.8688 16.5238C18.775 16.5426 18.5453 16.7395 18.1797 17.1004L17.6266 17.6441L17.4766 17.4988C17.2609 17.2973 17.1297 17.241 16.8766 17.241C16.4219 17.241 16.1172 17.5457 16.1172 18.0004C16.1172 18.3098 16.1922 18.427 16.7453 18.966C17.2938 19.5098 17.4672 19.5941 17.8281 19.4957C17.9922 19.4535 18.1609 19.3082 18.8828 18.5957C19.3563 18.127 19.7734 17.6816 19.8156 17.6066C19.9609 17.3301 19.8813 16.8801 19.6609 16.6832C19.5016 16.5426 19.1875 16.4395 19.0563 16.477Z" fill="#151515"/>
</svg>
