<svg width="60" height="60" viewBox="0 0 60 60" fill="none" xmlns="http://www.w3.org/2000/svg">
<path d="M4.6875 29.0625C4.68748 29.1039 4.69022 29.1453 4.6957 29.1865L8.22879 55.6842C8.32061 56.359 8.65343 56.9778 9.16581 57.4264C9.67819 57.875 10.3355 58.1231 11.0166 58.125H50.625C51.3707 58.1241 52.0855 57.8275 52.6128 57.3003C53.1401 56.773 53.4367 56.0581 53.4375 55.3125V51.6246L57.1793 23.5615C57.1793 23.5573 57.1793 23.5534 57.1802 23.5497C57.1825 23.5307 57.1836 23.5115 57.1848 23.4922C57.1856 23.4781 57.1867 23.4642 57.1869 23.4501V19.6875C57.1869 19.4388 57.0881 19.2004 56.9123 19.0246C56.7365 18.8487 56.4981 18.75 56.2494 18.75H37.5C37.2514 18.75 37.0129 18.8487 36.8371 19.0246C36.6613 19.2004 36.5625 19.4388 36.5625 19.6875V23.4492C36.5625 23.4632 36.5638 23.4772 36.5646 23.4913C36.5658 23.5106 36.567 23.5298 36.5692 23.5488C36.5692 23.5528 36.5692 23.5568 36.5701 23.5605L38.2985 36.5232C36.4137 36.38 35.831 35.8699 35.6604 35.6307C35.5996 35.5447 35.559 35.4462 35.5415 35.3423C35.5241 35.2385 35.5302 35.1321 35.5595 35.0309C35.6228 34.8921 35.6496 34.7393 35.6373 34.5872C35.625 34.4351 35.574 34.2886 35.4892 34.1618C35.4011 34.0311 35.2815 33.9248 35.1413 33.8528C35.0011 33.7808 34.845 33.7454 34.6875 33.75C32.8222 33.75 31.3846 34.1132 30.2004 34.653L30.9293 29.1865C30.9348 29.1453 30.9375 29.1039 30.9375 29.0625C30.9357 26.8161 30.3138 24.6138 29.1402 22.6983C27.9667 20.7829 26.2871 19.2286 24.2865 18.2068C24.3665 18.0358 24.3929 17.8446 24.3622 17.6584L23.4247 12.0334C23.3882 11.8145 23.2753 11.6156 23.106 11.4721C22.9366 11.3287 22.7219 11.25 22.5 11.25H21.5625V7.49997H28.125C28.3736 7.49997 28.6121 7.40119 28.7879 7.22538C28.9637 7.04956 29.0625 6.81111 29.0625 6.56247V2.81247C29.0625 2.6841 29.0361 2.55711 28.985 2.43935C28.9339 2.32159 28.8592 2.21558 28.7655 2.12789C28.6717 2.04019 28.561 1.97268 28.4401 1.92954C28.3192 1.8864 28.1907 1.86854 28.0627 1.87708L14.0002 2.81458C13.8145 2.82696 13.6367 2.89433 13.4894 3.00811C13.3421 3.12189 13.232 3.27693 13.1732 3.45348L12.2357 6.26598C12.1887 6.4069 12.1759 6.55697 12.1983 6.70382C12.2207 6.85067 12.2776 6.99009 12.3645 7.1106C12.4513 7.23111 12.5656 7.32926 12.6978 7.39696C12.83 7.46465 12.9765 7.49996 13.125 7.49997H14.0625V11.25H13.125C12.9031 11.25 12.6884 11.3287 12.519 11.4721C12.3497 11.6156 12.2368 11.8145 12.2003 12.0334L11.2628 17.6584C11.2321 17.8446 11.2585 18.0358 11.3385 18.2068C9.33793 19.2286 7.65833 20.7829 6.48477 22.6983C5.31122 24.6138 4.68928 26.8161 4.6875 29.0625ZM43.125 56.25H20.5039C20.2875 56.2497 20.0799 56.1637 19.9269 56.0106C19.7738 55.8575 19.6877 55.65 19.6875 55.4335V45.8164C19.6877 45.5999 19.7738 45.3924 19.9269 45.2393C20.0799 45.0863 20.2875 45.0002 20.5039 45H43.2461C43.4625 45.0002 43.6701 45.0863 43.8231 45.2393C43.9762 45.3924 44.0623 45.5999 44.0625 45.8164V55.4335C44.0623 55.65 43.9762 55.8575 43.8231 56.0106C43.6701 56.1637 43.4625 56.2497 43.2461 56.25H43.125ZM22.5 41.25H41.25V43.125H22.5V41.25ZM51.5625 55.3125C51.5622 55.561 51.4634 55.7993 51.2876 55.9751C51.1119 56.1508 50.8736 56.2497 50.625 56.25H45.8106C45.8948 55.986 45.9376 55.7106 45.9375 55.4335V52.5H51.5625V55.3125ZM51.6797 50.625H45.9375V45.8164C45.9367 45.1028 45.6529 44.4187 45.1483 43.9142C44.6437 43.4096 43.9596 43.1258 43.2461 43.125H43.125V40.3125C43.125 40.2862 43.1232 40.2604 43.1211 40.2346C43.1211 40.231 43.1202 40.2243 43.1196 40.2185V40.2153C43.0491 39.6009 42.8633 39.0052 42.572 38.4596C42.3371 38.0011 42.0029 37.6008 41.5938 37.2877C41.1847 36.9746 40.711 36.7566 40.207 36.6497L38.5707 24.375H55.1793L51.6797 50.625ZM38.4375 20.625H55.3125V22.5H38.4375V20.625ZM34.092 36.6589C34.8847 37.8391 36.6621 38.4375 39.375 38.4375C40.0781 38.4375 40.5625 38.7151 40.9008 39.3113C40.9125 39.3325 40.9242 39.3538 40.935 39.375H26.8384C27.2385 39.0684 27.6195 38.7465 27.9971 38.4269C29.5236 37.1352 30.9744 35.9074 33.6932 35.6673C33.7535 36.0226 33.8895 36.3608 34.092 36.6589ZM14.7529 4.64352L27.1875 3.81454V5.62497H14.4258L14.7529 4.64352ZM15.9375 7.49997H19.6875V11.25H15.9375V7.49997ZM13.2942 16.875L13.9192 13.125H21.7058L22.3308 16.875H13.2942ZM16.875 18.75H18.75C21.4736 18.753 24.0856 19.8321 26.0172 21.7523C27.9488 23.6724 29.0433 26.278 29.0625 29.0015L28.1433 35.8945C27.6608 36.2556 27.2163 36.6311 26.7859 36.9954C25.2773 38.2723 23.9741 39.375 21.5625 39.375C21.3139 39.375 21.0754 39.4737 20.8996 39.6496C20.7238 39.8254 20.625 40.0638 20.625 40.3125V43.125H20.5039C19.7904 43.1258 19.1063 43.4096 18.6017 43.9142C18.0971 44.4187 17.8133 45.1028 17.8125 45.8164V55.4335C17.8124 55.7106 17.8552 55.986 17.9394 56.25H11.0166C10.7896 56.2493 10.5704 56.1666 10.3996 56.0171C10.2288 55.8675 10.1179 55.6613 10.0873 55.4363L6.5625 29.0015C6.58167 26.278 7.67624 23.6724 9.6078 21.7523C11.5394 19.8321 14.1514 18.753 16.875 18.75Z" fill="#9D64CB"/>
<path d="M31.875 46.875C31.1333 46.875 30.4083 47.0949 29.7916 47.507C29.1749 47.919 28.6943 48.5047 28.4105 49.1899C28.1266 49.8752 28.0524 50.6292 28.1971 51.3566C28.3417 52.084 28.6989 52.7522 29.2234 53.2766C29.7478 53.8011 30.416 54.1583 31.1434 54.3029C31.8708 54.4476 32.6248 54.3734 33.3101 54.0895C33.9953 53.8057 34.581 53.3251 34.993 52.7084C35.4051 52.0917 35.625 51.3667 35.625 50.625C35.6239 49.6308 35.2284 48.6776 34.5254 47.9746C33.8224 47.2716 32.8692 46.8761 31.875 46.875ZM31.875 52.5C31.5042 52.5 31.1416 52.39 30.8333 52.184C30.525 51.978 30.2846 51.6851 30.1427 51.3425C30.0008 50.9999 29.9637 50.6229 30.036 50.2592C30.1084 49.8955 30.2869 49.5614 30.5492 49.2992C30.8114 49.0369 31.1455 48.8584 31.5092 48.786C31.8729 48.7137 32.2499 48.7508 32.5925 48.8927C32.9351 49.0346 33.228 49.275 33.434 49.5833C33.64 49.8916 33.75 50.2542 33.75 50.625C33.7494 51.1221 33.5517 51.5987 33.2002 51.9502C32.8487 52.3017 32.3721 52.4994 31.875 52.5ZM46.875 33.75C49.5469 33.75 51.5625 32.541 51.5625 30.9375C51.5625 29.334 49.5469 28.125 46.875 28.125C44.2031 28.125 42.1875 29.334 42.1875 30.9375C42.1875 32.541 44.2031 33.75 46.875 33.75ZM46.875 30C48.69 30 49.6875 30.7042 49.6875 30.9375C49.6875 31.1708 48.69 31.875 46.875 31.875C45.06 31.875 44.0625 31.1708 44.0625 30.9375C44.0625 30.7042 45.06 30 46.875 30ZM12.1875 32.8125H23.4375C23.6861 32.8125 23.9246 32.7137 24.1004 32.5379C24.2762 32.3621 24.375 32.1236 24.375 31.875V26.25C24.375 26.0014 24.2762 25.7629 24.1004 25.5871C23.9246 25.4113 23.6861 25.3125 23.4375 25.3125H12.1875C11.9389 25.3125 11.7004 25.4113 11.5246 25.5871C11.3488 25.7629 11.25 26.0014 11.25 26.25V31.875C11.25 32.1236 11.3488 32.3621 11.5246 32.5379C11.7004 32.7137 11.9389 32.8125 12.1875 32.8125ZM13.125 27.1875H22.5V30.9375H13.125V27.1875Z" fill="#9D64CB"/>
</svg>
