<svg width="21" height="24" viewBox="0 0 21 24" fill="none" xmlns="http://www.w3.org/2000/svg">
<path d="M11.1398 11.5609C9.55155 11.5609 8.17643 10.9912 7.05251 9.86731C5.92897 8.74362 5.35916 7.36869 5.35916 5.78029C5.35916 4.19235 5.92878 2.81728 7.0527 1.69317C8.17662 0.569624 9.55174 0 11.1398 0C12.7282 0 14.1032 0.569624 15.2269 1.69336C16.3506 2.81709 16.9204 4.19221 16.9204 5.78029C16.9204 7.36869 16.3506 8.74381 15.2268 9.86754C14.1028 10.9911 12.7277 11.5609 11.1398 11.5609H11.1398ZM14.2322 2.68781C13.37 1.82554 12.3585 1.40643 11.1398 1.40643C9.92121 1.40643 8.90956 1.82554 8.04715 2.68781C7.18489 3.55021 6.76559 4.56187 6.76559 5.78024C6.76559 6.99899 7.18489 8.0105 8.04715 8.8729C8.90956 9.73536 9.92121 10.1545 11.1398 10.1545C12.3582 10.1545 13.3696 9.73517 14.2322 8.8729C15.0947 8.01069 15.514 6.99903 15.514 5.78029C15.514 4.56187 15.0947 3.55021 14.2322 2.68781ZM1.02524 18.4548C1.05768 17.9872 1.12321 17.477 1.21973 16.9383C1.31713 16.3956 1.44252 15.8825 1.59271 15.4136C1.74796 14.9289 1.95871 14.4503 2.21966 13.9916C2.49013 13.5155 2.80794 13.101 3.16466 12.7599C3.53764 12.403 3.9943 12.1161 4.52239 11.9067C5.04861 11.6986 5.63183 11.5931 6.25564 11.5931C6.50065 11.5931 6.73756 11.6936 7.19515 11.9916C7.52042 12.2034 7.84666 12.4137 8.17385 12.6225C8.48824 12.8229 8.91415 13.0106 9.44023 13.1805C9.95346 13.3466 10.4746 13.4308 10.9891 13.4308C11.5032 13.4308 12.0244 13.3466 12.538 13.1805C13.0635 13.0107 13.4896 12.8231 13.8034 12.6227C14.1677 12.39 14.4972 12.1776 14.783 11.9914C15.2402 11.6935 15.4772 11.5929 15.7222 11.5929C16.3462 11.5929 16.9292 11.6986 17.4553 11.907C17.983 12.1159 18.4398 12.4028 18.8132 12.7601C19.1699 13.1013 19.4877 13.5157 19.758 13.9916C20.0185 14.4503 20.2295 14.9287 20.3848 15.4138C20.5348 15.8827 20.6602 16.3956 20.7576 16.9383C20.8543 17.4763 20.9196 17.9866 20.952 18.4554C20.9839 18.9137 21 19.3906 21 19.8726C21 21.1254 20.6018 22.1396 19.8164 22.8876C19.0408 23.6257 18.0146 24 16.7664 24H5.21028C3.96247 24 2.93633 23.6257 2.16051 22.8876C1.37498 22.1401 0.976727 21.1256 0.976727 19.8724C0.976915 19.3888 0.993181 18.9118 1.02524 18.4548ZM3.13021 21.8686C3.64274 22.3564 4.32317 22.5935 5.21052 22.5935H16.7664C17.6539 22.5935 18.3343 22.3564 18.8467 21.8688C19.3493 21.3903 19.5935 20.7372 19.5935 19.8726C19.5935 19.4229 19.5787 18.9789 19.549 18.5526C19.5201 18.1344 19.461 17.6749 19.3732 17.1868C19.2866 16.7047 19.1764 16.2522 19.0453 15.8426C18.9195 15.4498 18.7479 15.061 18.5352 14.6863C18.3321 14.3292 18.0985 14.0229 17.8407 13.7761C17.5995 13.5452 17.2955 13.3563 16.9374 13.2146C16.6062 13.0834 16.2339 13.0116 15.8298 13.0008C15.7806 13.0271 15.6928 13.077 15.5507 13.1696C15.2616 13.3581 14.9284 13.5731 14.56 13.8083C14.1446 14.0731 13.6097 14.3122 12.9704 14.5186C12.3169 14.7299 11.6504 14.8372 10.9889 14.8372C10.3273 14.8372 9.66063 14.7299 9.00748 14.5188C8.36773 14.312 7.83289 14.0731 7.41701 13.8079C7.04 13.567 6.71609 13.3583 6.42701 13.1696C6.28489 13.0772 6.19719 13.027 6.14792 13.0008C5.74362 13.0116 5.37139 13.0834 5.03999 13.2145C4.682 13.3563 4.37802 13.5454 4.13689 13.7761C3.87908 14.0227 3.64546 14.3291 3.44239 14.6865C3.22944 15.061 3.05764 15.4501 2.93207 15.8425C2.80077 16.2526 2.69038 16.7049 2.60394 17.1866C2.51643 17.6757 2.45708 18.1353 2.42816 18.5528V18.5531C2.3983 18.9777 2.3833 19.4216 2.38311 19.8726C2.3833 20.7374 2.62757 21.3904 3.13016 21.8686H3.13021Z" fill="#263238"/>
</svg>
