<svg width="25" height="24" viewBox="0 0 25 24" fill="none" xmlns="http://www.w3.org/2000/svg">
<path d="M4.50234 2.03906C3.53672 2.25 2.74453 3.04688 2.53828 4.01719C2.43516 4.49531 2.43516 19.5047 2.53828 19.9828C2.74453 20.9625 3.53672 21.7547 4.52578 21.9656C4.77891 22.0172 5.71641 22.0312 9.71484 22.0312C12.9727 22.0312 14.6836 22.0125 14.8711 21.9797C15.0211 21.9516 15.3258 21.8484 15.5367 21.7453C16.1977 21.4266 16.6617 20.8734 16.8914 20.1328C16.9711 19.8656 16.9758 19.4906 16.9758 12C16.9758 4.50937 16.9711 4.13437 16.8914 3.86719C16.6617 3.12656 16.1977 2.57344 15.5367 2.25469C15.3258 2.15156 15.0211 2.04844 14.8711 2.02031C14.4305 1.94062 4.87266 1.95937 4.50234 2.03906ZM14.9461 3.57656C15.218 3.73594 15.3914 3.95625 15.4805 4.24687C15.5789 4.57969 15.5789 19.4203 15.4805 19.7531C15.3914 20.0437 15.218 20.2641 14.9461 20.4234L14.7258 20.5547L9.80391 20.5687C5.32266 20.5781 4.86328 20.5734 4.67578 20.5031C4.39453 20.3953 4.16016 20.175 4.03359 19.8984L3.92109 19.6641V12C3.92109 4.39219 3.92578 4.33594 4.01953 4.125C4.14609 3.84375 4.31953 3.66562 4.60078 3.53437L4.83516 3.42188L9.78047 3.43594L14.7258 3.44531L14.9461 3.57656Z" fill="#151515"/>
<path d="M9.09687 10.2845C8.79688 10.4157 8.79688 10.4204 8.79688 12.0048C8.79688 13.3829 8.80156 13.4438 8.89531 13.561C8.94687 13.6313 9.07344 13.711 9.17187 13.7391C9.32656 13.786 9.37812 13.7813 9.53281 13.7063C9.80469 13.5704 11.375 12.4173 11.4594 12.2907C11.5437 12.1641 11.5484 11.8735 11.4734 11.7282C11.4172 11.6251 9.82812 10.4485 9.54687 10.3032C9.35469 10.2048 9.28906 10.2001 9.09687 10.2845Z" fill="#151515"/>
<path d="M18.5 12V18.75H19.2266H19.9531V12V5.25H19.2266H18.5V12Z" fill="#151515"/>
<path d="M21.0781 12V16.7344H21.8047H22.5312V12V7.26562H21.8047H21.0781V12Z" fill="#151515"/>
</svg>
