<svg width="24" height="24" viewBox="0 0 24 24" fill="none" xmlns="http://www.w3.org/2000/svg">
<g clip-path="url(#clip0_2139_47930)">
<path d="M8.42339 1.12695C8.64155 1.18387 8.836 1.29769 9.00199 1.47317C9.30552 1.78618 9.30078 1.74824 9.30078 4.26184C9.30078 6.77545 9.30552 6.73751 9.00199 7.05052C8.70795 7.35879 8.5467 7.41096 7.7689 7.42993C6.95791 7.45364 7.02905 7.37776 7.14287 8.10339C7.18081 8.35001 7.21401 8.62034 7.21401 8.7057C7.21401 8.90015 7.01956 9.1278 6.80614 9.18945C6.48839 9.27956 6.39353 9.20842 5.56831 8.29784L4.79526 7.44416L2.81758 7.42993C0.887321 7.4157 0.830409 7.41096 0.645446 7.31137C0.398829 7.17857 0.171181 6.94144 0.0810709 6.71853C-0.032753 6.45295 -0.032753 2.07074 0.0810709 1.80515C0.171181 1.58225 0.398829 1.34512 0.645446 1.21232C0.835152 1.10798 0.839894 1.10798 4.55813 1.0985C6.60695 1.09375 8.34276 1.10798 8.42339 1.12695ZM1.02486 1.93795C0.773498 2.0328 0.764012 2.13714 0.764012 4.26184C0.764012 6.27273 0.77824 6.45295 0.958461 6.56677C0.996402 6.59048 1.95916 6.61894 3.10214 6.63317L5.17942 6.65688L5.40232 6.89401C5.52563 7.02206 5.77699 7.30188 5.96195 7.50581L6.29868 7.88048L6.26074 7.64809C6.18486 7.17383 6.20383 6.97938 6.35559 6.81339L6.49313 6.65688L7.40372 6.63317C8.29059 6.60945 8.31431 6.60471 8.40442 6.49563C8.48978 6.39129 8.49453 6.28221 8.49453 4.27607C8.49453 2.87699 8.47556 2.13714 8.44236 2.07548C8.4139 2.02331 8.3475 1.96166 8.29059 1.93795C8.14357 1.88103 1.18137 1.87629 1.02486 1.93795Z" fill="#151515"/>
<path d="M7.23339 3.26562C7.76931 3.43636 8.0681 4.00548 7.91159 4.55088C7.77406 5.0204 7.42784 5.27651 6.92512 5.28125C6.65953 5.28125 6.57891 5.26228 6.38446 5.13897C5.54027 4.61728 5.85328 3.31779 6.83975 3.24191C6.98203 3.22768 7.15751 3.24191 7.23339 3.26562ZM6.7781 4.10507C6.66902 4.20467 6.66902 4.31849 6.78284 4.42283C6.97729 4.59831 7.24288 4.35643 7.09586 4.13827C7.01049 4.00548 6.90141 3.99125 6.7781 4.10507Z" fill="#151515"/>
<path d="M4.94789 3.26088C5.19925 3.34151 5.41266 3.51224 5.54546 3.7304C5.73042 4.04816 5.73042 4.475 5.54072 4.79276C5.35101 5.12 5.05697 5.28125 4.65384 5.28125C4.40248 5.28125 4.30289 5.25754 4.12266 5.14846C3.46818 4.7643 3.45869 3.7636 4.10844 3.38419C4.33608 3.24665 4.72972 3.19449 4.94789 3.26088ZM4.50208 4.10507C4.39774 4.19993 4.393 4.29952 4.49733 4.41335C4.59219 4.51768 4.69178 4.52243 4.80561 4.41809C4.90994 4.32324 4.91469 4.22364 4.81035 4.10982C4.7155 4.00548 4.6159 4.00074 4.50208 4.10507Z" fill="#151515"/>
<path d="M2.71401 3.27985C3.00331 3.38893 3.17404 3.5407 3.30684 3.81103C3.46809 4.14301 3.45386 4.475 3.26415 4.7975C3.07445 5.12 2.77566 5.28125 2.37728 5.28125C1.95044 5.27651 1.63743 5.0868 1.43823 4.71213C1.33864 4.52243 1.33864 4.00074 1.43823 3.81103C1.53309 3.62607 1.74176 3.41739 1.91724 3.32728C2.11169 3.22768 2.51007 3.20397 2.71401 3.27985ZM2.21129 4.13827C2.06426 4.35643 2.32985 4.59831 2.5243 4.42283C2.63338 4.32324 2.63812 4.22364 2.53379 4.10982C2.42945 3.99125 2.29665 4.00074 2.21129 4.13827Z" fill="#151515"/>
<path d="M16.6042 6.49211C18.2736 6.80039 19.6347 7.51653 20.8251 8.71642C22.0013 9.90682 22.7269 11.3296 23.002 13.0085L23.0779 13.478L23.2723 13.5349C23.6992 13.6583 24.1213 14.0803 24.2446 14.5072C24.2778 14.6115 24.2872 15.1949 24.2778 16.096C24.2635 17.4713 24.2588 17.5235 24.1545 17.7227C23.8794 18.2397 23.4431 18.5005 22.8075 18.529L22.3902 18.5479V18.9605C22.3902 19.4348 22.2764 19.7383 22.006 19.9944C21.7025 20.2837 21.4938 20.3406 20.7587 20.3406H20.0995L19.6205 20.8054C18.7052 21.697 17.7282 22.2187 16.4951 22.4796C15.8121 22.6266 14.6929 22.6266 14.0099 22.4796C12.056 22.067 10.4624 20.8054 9.60876 18.9985L9.3906 18.5432L8.33773 18.529C7.35126 18.5147 7.27063 18.51 7.0667 18.4056C6.78688 18.2681 6.48335 17.9646 6.35056 17.6895C6.24622 17.4808 6.24148 17.4144 6.22725 16.096C6.21777 15.138 6.23199 14.659 6.26993 14.5167C6.38376 14.0993 6.78214 13.6915 7.21372 13.5444C7.41766 13.478 7.42714 13.4638 7.46508 13.2456C7.56468 12.6433 7.70696 12.041 7.83975 11.6663C8.75034 9.05789 10.9462 7.12289 13.6542 6.5348C14.3372 6.38778 15.9117 6.36406 16.6042 6.49211ZM14.138 7.27939C13.1563 7.42642 11.9991 7.90068 11.1359 8.51722C10.396 9.0484 9.59927 9.93528 9.13449 10.7605C8.74085 11.4529 8.38041 12.5058 8.2903 13.2362L8.2571 13.4638H8.66023H9.05861L9.08707 13.2836C9.47596 10.9312 11.0837 9.03892 13.3223 8.29906C14.4652 7.91965 15.9734 7.91017 17.1306 8.27535C18.34 8.65476 19.4735 9.45627 20.237 10.4712C20.7824 11.1968 21.2425 12.2544 21.399 13.1555L21.4511 13.4638H21.8495C22.3048 13.4638 22.2811 13.5065 22.172 12.9374C21.6978 10.438 19.943 8.40814 17.5242 7.5687C16.4429 7.18928 15.3616 7.09917 14.138 7.27939ZM13.972 8.95829C12.9381 9.21914 12.1129 9.70289 11.3541 10.4902C10.7517 11.1162 10.3391 11.8039 10.0925 12.5864C9.96446 12.999 9.85063 13.5539 9.88857 13.5919C9.89806 13.6061 10.0261 13.5539 10.1636 13.4828C10.5668 13.2646 11.1643 12.6244 11.6481 11.8892C11.8805 11.5288 12.1176 11.2205 12.1698 11.2063C12.3358 11.1494 12.5397 11.1778 12.6203 11.268C12.663 11.3154 12.7484 11.4814 12.8053 11.6379C12.9571 12.041 13.1468 12.3208 13.5214 12.6765C14.4415 13.5444 16.0303 14.0614 18.1076 14.1705C18.7905 14.2084 20.2607 14.1657 20.5548 14.0993L20.6923 14.0709L20.6591 13.7531C20.4552 11.7849 19.3027 10.1487 17.529 9.30925C16.4619 8.80178 15.1197 8.66899 13.972 8.95829ZM11.9374 12.9089C11.411 13.6298 10.7517 14.1705 10.1067 14.4123L9.81269 14.5214L9.8364 15.8304C9.85538 17.035 9.8696 17.1773 9.97868 17.6136C10.2063 18.5052 10.5763 19.2309 11.1501 19.8996C12.4828 21.4694 14.636 22.1428 16.6184 21.6212C17.3488 21.4267 18.2119 20.9762 18.7858 20.4829L18.9518 20.3454L18.3779 20.3406H17.7993L17.7424 20.4829C17.6618 20.6821 17.3108 20.9856 17.0927 21.052C16.9836 21.0852 16.6516 21.0995 16.2153 21.09C15.5323 21.0758 15.5181 21.0758 15.3189 20.9335C14.5885 20.4213 14.6549 19.3115 15.4375 18.9084C15.594 18.8277 15.741 18.804 16.1868 18.7851C17.0263 18.7519 17.4246 18.8989 17.6807 19.3305L17.7993 19.5344H18.7336H19.6679L19.8908 19.1645C20.4931 18.159 20.6828 17.367 20.6828 15.7972C20.6828 14.9435 20.6781 14.8819 20.5975 14.9056C20.5548 14.9198 20.1374 14.953 19.6727 14.9815C16.4097 15.1759 13.6068 14.308 12.4781 12.7572C12.3642 12.6006 12.2552 12.4868 12.2362 12.5058C12.222 12.5248 12.0844 12.705 11.9374 12.9089ZM21.4891 15.5126C21.4843 16.6272 21.4511 17.201 21.3658 17.5994L21.3373 17.7322H22.1673C22.9451 17.7322 23.002 17.7274 23.149 17.6231C23.2391 17.5662 23.3529 17.4429 23.4051 17.3528C23.5 17.1963 23.5047 17.1109 23.5047 16.0011C23.5047 14.8913 23.5 14.806 23.4051 14.6495C23.3529 14.5594 23.2391 14.436 23.149 14.3791C23.002 14.2795 22.9403 14.2701 22.2432 14.2701H21.4891V15.5126ZM7.36549 14.3649C7.28012 14.4171 7.17104 14.5262 7.11887 14.6115C7.02876 14.7585 7.02402 14.8534 7.02402 16.0011C7.02402 17.1488 7.02876 17.2437 7.11887 17.3907C7.30857 17.699 7.42714 17.7322 8.34721 17.7322H9.16769L9.13924 17.5662C9.04913 17.1014 9.01593 16.5086 9.01593 15.4415V14.2701H8.26659C7.60736 14.2701 7.50302 14.2795 7.36549 14.3649ZM21.0575 18.6665C21.0338 18.7376 20.9247 18.9605 20.8251 19.1645L20.6354 19.5344H20.9627C21.2662 19.5344 21.3041 19.5249 21.4369 19.3874C21.5745 19.2498 21.5839 19.2214 21.5839 18.8894V18.5384H21.3468C21.1286 18.5384 21.1049 18.5527 21.0575 18.6665ZM15.8027 19.653C15.5703 19.7715 15.5371 20.0229 15.7315 20.2031C15.8311 20.298 15.9117 20.3169 16.2105 20.3359C16.4097 20.3454 16.6516 20.3264 16.7512 20.298C17.0832 20.1984 17.1543 19.8474 16.8792 19.6577C16.737 19.5581 15.9924 19.5534 15.8027 19.653Z" fill="#151515"/>
</g>
<defs>
<clipPath id="clip0_2139_47930">
<rect width="24" height="24" fill="white" transform="matrix(-1 0 0 1 24 0)"/>
</clipPath>
</defs>
</svg>
