<svg width="24" height="24" viewBox="0 0 24 24" fill="none" xmlns="http://www.w3.org/2000/svg">
<path d="M10.9464 0.987217C5.07301 1.61065 0.74176 6.54659 0.952697 12.3778C0.98551 13.2825 1.07457 13.8966 1.28551 14.7403C2.27457 18.6357 5.34488 21.7107 9.25426 22.7138C10.2808 22.9763 10.8105 23.0372 12.0011 23.0372C13.1824 23.0372 13.7121 22.9763 14.7433 22.7138C15.9293 22.4138 17.0964 21.8935 18.123 21.2138L18.7183 20.8107L19.7543 21.8372C20.6964 22.77 20.8136 22.8732 21.0714 22.9716C21.7839 23.2341 22.5949 22.9107 22.9324 22.2263C23.0168 22.0528 23.0402 21.931 23.0402 21.6122C23.0402 21.0028 22.9886 20.9185 21.8121 19.7325L20.8089 18.72L21.2121 18.1247C21.8918 17.0982 22.4121 15.931 22.7121 14.745C22.9746 13.7185 23.0355 13.1841 23.0355 12.0028C23.0402 10.8169 22.9793 10.306 22.7168 9.26534C21.7277 5.37003 18.6386 2.27628 14.7386 1.28722C14.4058 1.20284 13.9089 1.09972 13.6371 1.05753C13.0699 0.968468 11.4902 0.926279 10.9464 0.987217ZM13.098 3.94503C16.1214 4.3294 18.8214 6.60284 19.7543 9.55597C20.4668 11.8107 20.1339 14.37 18.873 16.3341L18.6949 16.606L17.7011 15.6216C17.1058 15.031 16.6277 14.595 16.5011 14.5294C16.323 14.4357 16.2199 14.4169 15.8449 14.4169C15.4746 14.4169 15.3668 14.4357 15.2027 14.5247C14.9074 14.6794 14.7058 14.8716 14.5511 15.1528C14.4293 15.3778 14.4152 15.4435 14.4152 15.8466C14.4152 16.2216 14.4339 16.3247 14.5277 16.5028C14.5933 16.6294 15.0293 17.1075 15.6199 17.7028L16.6043 18.6966L16.3324 18.8747C14.3027 20.1778 11.6214 20.4872 9.3527 19.6857C6.27301 18.6028 4.12145 15.7997 3.89645 12.5935C3.73238 10.2122 4.57145 7.95753 6.26364 6.26534C8.06832 4.45128 10.5246 3.62159 13.098 3.94503Z" fill="#151515"/>
</svg>
