<svg width="24" height="24" viewBox="0 0 24 24" fill="none" xmlns="http://www.w3.org/2000/svg">
<g clip-path="url(#clip0_669_18324)">
<path d="M21.7557 20.5773L16.7815 15.6032C18.137 13.9453 18.8035 11.8299 18.643 9.69445C18.4826 7.55901 17.5075 5.56693 15.9195 4.13025C14.3314 2.69358 12.252 1.92223 10.1112 1.97576C7.97039 2.02928 5.93207 2.90359 4.41783 4.41783C2.90359 5.93207 2.02928 7.97039 1.97576 10.1112C1.92223 12.252 2.69358 14.3314 4.13025 15.9195C5.56693 17.5075 7.55901 18.4826 9.69445 18.643C11.8299 18.8035 13.9453 18.137 15.6032 16.7815L20.5773 21.7557C20.7345 21.9075 20.945 21.9914 21.1635 21.9895C21.382 21.9876 21.591 21.9 21.7455 21.7455C21.9 21.591 21.9876 21.382 21.9895 21.1635C21.9914 20.945 21.9075 20.7345 21.7557 20.5773ZM10.3332 16.9998C9.01461 16.9998 7.72568 16.6088 6.62935 15.8763C5.53302 15.1437 4.67854 14.1025 4.17395 12.8844C3.66937 11.6662 3.53735 10.3258 3.79458 9.03255C4.05182 7.73934 4.68676 6.55146 5.61911 5.61911C6.55146 4.68676 7.73934 4.05182 9.03255 3.79458C10.3258 3.53735 11.6662 3.66937 12.8844 4.17395C14.1025 4.67854 15.1437 5.53302 15.8763 6.62935C16.6088 7.72568 16.9998 9.01461 16.9998 10.3332C16.9978 12.1007 16.2948 13.7952 15.045 15.045C13.7952 16.2948 12.1007 16.9978 10.3332 16.9998Z" fill="#0C1A30"/>
</g>
<defs>
<clipPath id="clip0_669_18324">
<rect width="20" height="20" fill="white" transform="translate(2 2)"/>
</clipPath>
</defs>
</svg>
