<svg width="40" height="40" viewBox="0 0 40 40" fill="none" xmlns="http://www.w3.org/2000/svg">
<rect width="40" height="40" rx="20" transform="matrix(-1 0 0 1 40 0)" fill="white"/>
<path d="M14.2766 8.04975C15.4391 8.27944 16.4891 9.09038 17.0375 10.1779C17.3094 10.7216 17.3844 11.0544 17.4078 11.7951C17.4266 12.3998 17.4172 12.5216 17.3187 12.9107L17.2062 13.3466L17.4875 13.5248C18.7109 14.2935 23.5578 17.2794 23.5812 17.2794C23.5953 17.2794 23.7641 17.1529 23.9516 17.0029C24.7531 16.3466 25.5406 16.0607 26.5437 16.0607C28.1422 16.0607 29.5578 17.0029 30.1672 18.4748C30.3781 18.981 30.4531 19.3701 30.4531 19.9982C30.4531 20.6216 30.3781 21.0154 30.1719 21.5169C29.5531 22.9982 28.1562 23.931 26.5531 23.9357C25.5453 23.9357 24.7578 23.6498 23.9516 22.9935C23.7641 22.8435 23.5953 22.7169 23.5812 22.7169C23.5578 22.7169 18.7109 25.7029 17.4875 26.4716L17.2062 26.6498L17.3187 27.0857C17.4172 27.4748 17.4266 27.5966 17.4078 28.2013C17.3937 28.7357 17.3656 28.9513 17.2812 29.2091C16.8687 30.4935 15.9172 31.4451 14.6328 31.8576C14.1312 32.0169 13.1375 32.0451 12.5703 31.9091C11.1875 31.581 10.0859 30.5169 9.67812 29.1107C9.5375 28.6232 9.52812 27.5544 9.65937 27.0763C10.0437 25.6841 11.1312 24.6013 12.5234 24.2357C12.9734 24.1138 14.0328 24.1138 14.4687 24.2357C15.1156 24.4138 15.7016 24.7326 16.1797 25.1685L16.4187 25.3794L19.6016 23.4107C21.3547 22.3232 22.7937 21.4326 22.8031 21.4279C22.8078 21.4232 22.7656 21.2498 22.7094 21.0482C22.6203 20.7388 22.6016 20.5654 22.6016 19.9982C22.6016 19.431 22.6203 19.2576 22.7094 18.9482C22.7656 18.7466 22.8078 18.5732 22.8031 18.5685C22.7937 18.5638 21.3547 17.6732 19.6016 16.5857L16.4141 14.6123L16.25 14.7669C15.7953 15.1982 15.1484 15.5638 14.5297 15.7419C14.0375 15.8826 13.0156 15.8919 12.5234 15.7607C11.3562 15.4513 10.4 14.6498 9.89375 13.5576C9.67344 13.0748 9.59375 12.7326 9.56094 12.1232C9.54219 11.7107 9.55156 11.4904 9.6125 11.1857C9.92656 9.6435 11.0562 8.45288 12.5469 8.09194C12.9734 7.9935 13.8687 7.97006 14.2766 8.04975ZM12.6875 9.60131C12.3078 9.74194 11.8953 10.0091 11.675 10.2669C10.7797 11.2982 10.8359 12.7794 11.8016 13.7029C12.7859 14.6357 14.2859 14.6123 15.2422 13.6419C15.5891 13.2951 15.8047 12.8826 15.9078 12.3716C16.0156 11.856 15.95 11.3779 15.7062 10.8669C15.3875 10.2013 14.6797 9.6435 13.9766 9.50288C13.6203 9.43256 13.0344 9.47475 12.6875 9.60131ZM26.0328 17.5841C24.8984 17.8232 24.0687 18.8404 24.0687 19.9982C24.0687 21.2216 24.9875 22.2716 26.2109 22.4451C27.4953 22.6279 28.7562 21.6716 28.9625 20.3591C29.1547 19.1029 28.2922 17.8607 27.0312 17.5888C26.6375 17.4998 26.4219 17.4998 26.0328 17.5841ZM12.7812 25.7169C12.2422 25.8763 11.7547 26.2466 11.4172 26.7669C10.7094 27.8451 11.0281 29.3873 12.1109 30.1044C13.1187 30.7701 14.375 30.6482 15.2234 29.7998C15.8187 29.2044 16.0719 28.4029 15.9078 27.6248C15.7672 26.9404 15.4203 26.406 14.8906 26.0498C14.2297 25.6091 13.5312 25.5013 12.7812 25.7169Z" fill="#966BC1"/>
</svg>
