<svg width="12" height="12" viewBox="0 0 12 12" fill="none" xmlns="http://www.w3.org/2000/svg">
<g clip-path="url(#clip0_669_7019)">
<path d="M0.860519 10.5962C0.375363 10.6056 -0.00666867 10.1767 0.00270633 9.70322C-0.00198117 6.85557 0.000362579 4.05947 0.00270633 1.69932C0.00270633 1.16729 0.370675 0.796973 0.898019 0.794629C2.20583 0.789941 3.76208 0.787598 5.00427 0.796973C6.83005 0.771191 8.49646 2.22432 8.72614 4.029C8.83161 5.16338 8.75427 6.41025 8.77536 7.54463V7.91963C8.80349 9.0376 7.17224 9.15244 7.06208 8.06494C7.01755 6.86494 7.0738 5.679 7.03864 4.47666C7.01521 3.52041 6.22536 2.65791 5.27849 2.55479C4.12771 2.47744 2.88083 2.54072 1.73005 2.52197C1.73005 4.8376 1.73005 7.38994 1.72536 9.6915C1.73239 10.2024 1.35036 10.5962 0.860519 10.5962Z" fill="#FE3A30"/>
<path d="M8.77139 11.2078C8.1878 11.2078 7.60655 11.2055 7.02296 11.2031C5.18546 11.2453 3.45342 9.74766 3.27061 7.94766C3.17686 6.85078 3.22842 5.73984 3.21671 4.64766L3.21905 4.07578C3.21436 3.55547 3.59405 3.16875 4.08858 3.16875C5.10811 3.20391 4.94405 4.25625 4.94639 4.97578C4.94874 5.82422 4.93467 6.67031 4.95577 7.52578C4.97921 8.48203 5.76905 9.34453 6.71827 9.44766C7.1378 9.49219 7.49874 9.47578 7.89952 9.47578C8.56514 9.48281 9.58936 9.47344 10.2644 9.47812C10.2667 7.18359 10.2644 4.575 10.2667 2.29688C10.2667 1.8 10.644 1.40859 11.1245 1.40625C11.6214 1.40625 11.9917 1.79766 11.9917 2.31328V9.74531C12.0362 10.4578 11.9636 11.1914 11.0823 11.2078C10.33 11.2055 9.51905 11.2102 8.77139 11.2078Z" fill="#FE3A30"/>
</g>
<defs>
<clipPath id="clip0_669_7019">
<rect width="12" height="12" fill="white"/>
</clipPath>
</defs>
</svg>
