<svg width="25" height="24" viewBox="0 0 25 24" fill="none" xmlns="http://www.w3.org/2000/svg">
<path d="M18.8295 1.57031C20.4935 1.91719 21.8435 3.1875 22.2748 4.80938C22.317 4.96406 22.3685 5.30625 22.3967 5.57813C22.4763 6.39844 22.8701 17.55 22.8467 18.2109C22.8279 18.6797 22.7951 18.9141 22.6967 19.2375C22.2373 20.8031 21.056 21.9516 19.4623 22.3875C19.1482 22.4719 18.881 22.4766 12.4076 22.4766H5.68103L5.28259 22.3406C4.5654 22.1016 4.09665 21.8203 3.56227 21.3094C3.11228 20.8875 2.79821 20.4563 2.5404 19.9125C2.2404 19.2797 2.14196 18.8203 2.14196 18.0563C2.14196 17.4375 2.53102 6.64219 2.58728 5.75156C2.70915 3.79219 3.9279 2.25 5.83103 1.65469L6.24353 1.52344L12.3842 1.51406C17.367 1.50938 18.581 1.51875 18.8295 1.57031ZM6.33728 3.08906C6.20603 3.12188 5.90602 3.24375 5.67165 3.35625C4.86071 3.74531 4.29353 4.48594 4.11071 5.39063C4.08728 5.50781 3.96071 8.38594 3.82946 11.7891C3.6279 16.9453 3.59978 18.0328 3.64665 18.3281C3.79665 19.3172 4.4529 20.2547 5.28728 20.6766C5.92478 20.9953 5.47009 20.9766 12.4545 20.9766C18.4123 20.9766 18.7779 20.9719 19.0592 20.8922C20.381 20.5172 21.3138 19.3406 21.3138 18.0469C21.3138 17.2219 20.892 5.98594 20.8451 5.625C20.667 4.27031 19.5982 3.21094 18.2295 3.04688C18.056 3.02813 15.3607 3.01406 12.2435 3.01875C7.86071 3.02813 6.52009 3.04219 6.33728 3.08906Z" fill="#151515"/>
<path d="M17.41 4.575C17.4944 4.61719 17.6116 4.725 17.6631 4.81406C17.7569 4.96406 17.7616 5.02031 17.7381 5.59219C17.6819 6.85312 17.2084 7.96875 16.3319 8.89219C16.1491 9.08437 15.8631 9.34687 15.6944 9.47344C15.2725 9.79219 14.4522 10.1906 13.885 10.3453C13.4491 10.4672 13.3553 10.4766 12.5022 10.4766C11.6491 10.4766 11.5553 10.4672 11.1194 10.3453C10.5522 10.1906 9.73188 9.79219 9.31 9.47344C9.14125 9.34687 8.85531 9.08437 8.6725 8.89219C7.79594 7.96875 7.31781 6.84844 7.27094 5.60156C7.24281 4.90312 7.28969 4.74375 7.585 4.58437C7.78188 4.47656 8.18969 4.47187 8.40531 4.575C8.66313 4.69687 8.73813 4.875 8.79438 5.49375C8.87406 6.30937 9.05688 6.83437 9.47875 7.42969C9.98031 8.1375 10.7256 8.63906 11.6069 8.86406C12.0944 8.99062 12.91 8.99062 13.3975 8.86406C15.0006 8.45156 16.06 7.19062 16.21 5.51719C16.2616 4.91719 16.3413 4.71562 16.5803 4.58437C16.7819 4.47656 17.2038 4.47187 17.41 4.575Z" fill="#151515"/>
</svg>
