<svg width="22" height="22" viewBox="0 0 22 22" fill="none" xmlns="http://www.w3.org/2000/svg">
<path d="M12.7157 1.91903C14.1293 2.2837 15.1495 3.33263 15.5224 4.79949L15.5675 4.97568H16.3583C17.0261 4.97568 17.1941 4.98797 17.4031 5.05353C17.9972 5.23791 18.4807 5.7255 18.6692 6.32781C18.7552 6.59824 20.2344 16.096 20.2344 16.3746C20.2344 17.6571 19.4477 18.8289 18.2594 19.3206C17.653 19.5705 17.7473 19.5665 13.2197 19.5542C9.10999 19.5419 9.0936 19.5419 8.97887 19.4558C8.57323 19.1526 8.57323 18.62 8.97887 18.3168C9.0936 18.2307 9.11408 18.2307 13.2606 18.2102C16.1288 18.1938 17.4645 18.1733 17.5506 18.1447C18.0259 17.9685 18.4356 17.6325 18.6446 17.2432C18.7757 16.9974 18.8822 16.6204 18.8822 16.3869C18.8822 16.2967 18.5422 14.0801 18.1283 11.4577C17.5998 8.11837 17.3539 6.6638 17.3088 6.59004C17.2679 6.53268 17.1818 6.45073 17.1081 6.40976C16.9811 6.33191 16.8581 6.32781 11.7815 6.32781C6.9015 6.32781 6.57371 6.33191 6.45898 6.39747C6.20904 6.54907 6.21723 6.51219 5.6518 10.1179C5.29123 12.4042 5.09455 13.5638 5.04538 13.6621C4.84051 14.0596 4.28737 14.1415 3.97187 13.8178C3.71783 13.5597 3.70554 13.7236 4.31605 9.86385C4.84871 6.47941 4.87329 6.3401 5.0126 6.04919C5.20108 5.64765 5.50429 5.34854 5.92222 5.14777L6.24182 4.99616L7.12685 4.98387L8.00779 4.97158L8.05696 4.73803C8.19217 4.09884 8.63879 3.33263 9.15506 2.84913C9.68772 2.35335 10.3105 2.02147 10.9825 1.88625C11.4701 1.78382 12.2568 1.80021 12.7157 1.91903ZM11.0358 3.27526C10.4089 3.48833 9.8762 3.94723 9.58938 4.52906C9.49514 4.72164 9.41729 4.89783 9.41729 4.92651C9.41729 4.96338 9.95814 4.97568 11.7938 4.97568H14.1703L14.0842 4.76671C13.9449 4.41024 13.7974 4.18898 13.4983 3.88577C13.2115 3.59896 12.8591 3.3777 12.478 3.25887C12.097 3.13185 11.4373 3.14005 11.0358 3.27526Z" fill="white"/>
<path d="M15.2158 7.53148C15.3674 7.59703 15.5559 7.8101 15.5887 7.95351C15.6051 8.01087 15.6051 8.23623 15.5928 8.45339C15.5231 9.56788 14.8921 10.6742 13.9498 11.3216C13.667 11.5182 13.1262 11.7641 12.7574 11.8665C12.2739 11.9976 11.3028 11.9976 10.8194 11.8665C9.20088 11.4281 8.07001 10.0555 7.95938 8.40012C7.93889 8.06004 7.94299 8.01087 8.03313 7.84288C8.2298 7.47411 8.7092 7.37168 9.03699 7.62162C9.21727 7.76093 9.27873 7.90844 9.30742 8.29359C9.41395 9.60475 10.4916 10.625 11.7781 10.6291C12.1551 10.6291 12.6386 10.5021 12.9787 10.3136C13.7039 9.91206 14.253 9.02292 14.253 8.24852C14.253 7.69127 14.7446 7.32661 15.2158 7.53148Z" fill="white"/>
<path d="M5.52578 15.1013C5.58314 15.1258 5.67328 15.1832 5.72245 15.2324C5.91913 15.4127 5.93552 15.4987 5.93552 16.2444V16.941H6.60339C7.2139 16.941 7.28765 16.9492 7.45155 17.0311C7.70968 17.1622 7.82031 17.3466 7.82031 17.6334C7.82031 17.8096 7.79573 17.8998 7.72198 18.0104C7.54989 18.2603 7.43106 18.2931 6.63617 18.2931H5.93552V18.9938C5.93552 19.7887 5.90274 19.9075 5.6528 20.0796C5.45203 20.2148 5.10375 20.2189 4.91117 20.0878C4.62026 19.887 4.60387 19.8419 4.59158 19.0265L4.57519 18.2931H3.87044C3.20256 18.2931 3.15339 18.289 3.02638 18.1989C2.8338 18.0719 2.73546 17.9243 2.71088 17.7277C2.6781 17.4695 2.78873 17.2073 2.99769 17.0721C3.15749 16.9656 3.18208 16.9615 3.87453 16.9492L4.58338 16.9328V16.269C4.58338 15.6544 4.59158 15.5888 4.67762 15.4208C4.82922 15.1258 5.22257 14.9824 5.52578 15.1013Z" fill="white"/>
</svg>
