<svg width="24" height="24" viewBox="0 0 24 24" fill="none" xmlns="http://www.w3.org/2000/svg">
<path d="M11.6435 4.00958C11.6387 4.01431 11.5471 4.02851 11.441 4.0427C10.9202 4.10895 10.491 4.23199 10.1535 4.40709C10.1053 4.43075 10.0474 4.44968 10.0185 4.44968C9.98956 4.44968 9.87865 4.50646 9.76293 4.57745C9.65202 4.64843 9.54594 4.70049 9.52665 4.69576C9.50254 4.69102 9.48807 4.70522 9.48807 4.73361C9.48807 4.75727 9.46879 4.78094 9.44468 4.78094C9.41574 4.78094 9.33859 4.83299 9.26626 4.89924C9.19393 4.96549 9.10714 5.01755 9.07338 5.01755C9.03481 5.01755 9.00588 5.03175 9.00588 5.05068C9.00588 5.07434 8.92872 5.14059 8.83711 5.20211C8.74549 5.26363 8.6828 5.33461 8.70209 5.363C8.71656 5.38667 8.70691 5.39613 8.6828 5.38193C8.65387 5.363 8.60565 5.38193 8.5719 5.41979C8.53814 5.45765 8.52368 5.49078 8.54297 5.49078C8.55743 5.49078 8.53332 5.53337 8.48992 5.58069C8.33562 5.74159 8.19096 5.91668 8.21507 5.91668C8.22471 5.91668 8.19096 5.95927 8.13792 6.01132C8.02701 6.12017 7.76663 6.65491 7.73287 6.83947C7.71841 6.90099 7.69912 6.97671 7.67983 7.00037C7.65572 7.04296 7.63643 7.166 7.57857 7.69128C7.53999 8.03673 7.55928 8.89327 7.6075 9.01631C7.64608 9.12042 7.68465 9.8066 7.66054 10.0858C7.65572 10.1473 7.61232 10.1615 7.4532 10.1521C7.33747 10.1426 7.2121 10.1284 7.17352 10.1142C7.13495 10.1 6.99511 10.0716 6.86009 10.0527C6.11269 9.94857 5.67871 10.1095 5.64978 10.5022C5.64013 10.6489 5.66424 10.7199 5.75104 10.8098C5.81372 10.8761 5.88605 10.9329 5.91498 10.9329C5.93909 10.9329 5.96803 10.9471 5.97767 10.9707C5.98731 10.9897 6.2043 11.1127 6.46469 11.2405C6.72026 11.373 6.99029 11.5291 7.06262 11.5954C7.13495 11.6616 7.2121 11.709 7.23621 11.6995C7.26032 11.6948 7.26514 11.709 7.25067 11.7326C7.23621 11.7563 7.2555 11.7989 7.29407 11.832C7.33265 11.8651 7.35676 11.9077 7.34229 11.9267C7.32783 11.9503 7.33747 11.9787 7.36158 11.9929C7.47249 12.0639 7.34229 12.6223 7.09155 13.157C7.04815 13.247 7.01922 13.3321 7.02404 13.3416C7.03368 13.3511 7.0144 13.3747 6.99029 13.3889C6.96135 13.4031 6.93242 13.4504 6.92278 13.4836C6.91314 13.5214 6.86974 13.5924 6.82152 13.6397C6.7733 13.6871 6.74919 13.7486 6.76365 13.7675C6.77812 13.7912 6.72026 13.8669 6.63828 13.9331C6.55631 13.9994 6.50327 14.0562 6.51291 14.0562C6.5322 14.0562 6.16573 14.4111 6.00178 14.5531C5.91016 14.6335 5.58227 14.8133 5.52923 14.8133C5.50512 14.8133 5.40385 14.8465 5.30259 14.8938C5.20615 14.9364 5.10971 14.9648 5.09043 14.9648C5.06632 14.96 5.05185 14.979 5.05185 15.0074C5.05185 15.031 5.03738 15.0452 5.01327 15.0358C4.99399 15.0216 4.85897 15.0547 4.71431 15.102C4.56965 15.1541 4.41053 15.2061 4.36713 15.2203C4.31891 15.2392 4.28033 15.2676 4.28033 15.2913C4.28033 15.315 4.22247 15.3575 4.15496 15.3859C4.08263 15.4096 4.03923 15.4427 4.05852 15.4617C4.07299 15.4759 4.06334 15.5184 4.03923 15.5468C3.90422 15.7077 4.13567 16.039 4.45875 16.1478C4.58412 16.1952 4.74324 16.2425 4.81075 16.2519C4.87826 16.2661 4.9747 16.2851 5.02774 16.304C5.08078 16.3182 5.24473 16.3561 5.38939 16.3844C5.67389 16.446 5.97767 16.6873 6.0066 16.8719C6.01625 16.9239 6.04518 17.0517 6.06929 17.1511C6.13197 17.3782 6.42129 17.6716 6.55149 17.6385C6.59971 17.6243 6.65275 17.629 6.66721 17.648C6.69132 17.6906 7.19281 17.6243 7.31336 17.5628C7.35676 17.5391 7.41944 17.5344 7.4532 17.5439C7.48213 17.558 7.51106 17.5486 7.51106 17.5249C7.51106 17.4776 7.58821 17.4681 8.22471 17.4445C8.47546 17.435 8.74549 17.4445 8.82746 17.4681C9.00105 17.5155 9.62791 17.9177 9.71953 18.0407C9.75328 18.0881 9.81115 18.1259 9.84008 18.1259C9.87383 18.1259 9.95098 18.1922 10.0137 18.2679C10.0764 18.3483 10.1535 18.4099 10.1921 18.4099C10.2307 18.4099 10.2596 18.4288 10.2596 18.4524C10.2596 18.4761 10.2982 18.5092 10.3512 18.5282C10.3994 18.5424 10.491 18.5944 10.5489 18.6465C10.6116 18.6985 10.6984 18.7411 10.7466 18.7411C10.79 18.7411 10.8382 18.7648 10.8479 18.7884C10.8575 18.8168 10.9057 18.8452 10.9588 18.8594C11.0118 18.8689 11.1517 18.902 11.2722 18.9304C11.7689 19.0534 12.6899 19.0061 12.9937 18.8452C13.0467 18.8168 13.1046 18.8026 13.1142 18.8168C13.1287 18.8263 13.1672 18.8074 13.201 18.7648C13.2348 18.7269 13.2878 18.6938 13.3216 18.6938C13.3505 18.6938 13.418 18.6512 13.4662 18.5991C13.5144 18.5471 13.5723 18.5045 13.6012 18.5045C13.6253 18.5045 13.7459 18.4241 13.8713 18.3247C14.175 18.0739 14.5849 17.7947 14.6476 17.7947C14.6765 17.7947 14.7537 17.7615 14.8164 17.7189C14.8839 17.6764 14.9369 17.6527 14.9369 17.6669C14.9369 17.6811 15.0478 17.6622 15.1828 17.629C15.342 17.5864 15.7229 17.5628 16.234 17.5628C17.1695 17.558 17.2032 17.558 17.2032 17.5013C17.2032 17.4776 17.2225 17.4681 17.2418 17.4823C17.2611 17.4918 17.3238 17.4681 17.3768 17.4255C17.4926 17.3356 17.7578 16.8955 17.6999 16.8955C17.6806 16.8955 17.6999 16.8719 17.7481 16.8435C17.7915 16.8198 17.8301 16.763 17.8301 16.7299C17.8301 16.692 17.8542 16.6589 17.8783 16.6589C17.9024 16.6589 17.9699 16.6163 18.023 16.5643C18.076 16.5122 18.1194 16.4791 18.1194 16.4886C18.1194 16.498 18.2207 16.4744 18.3509 16.4365C18.4763 16.3986 18.6836 16.3608 18.809 16.3513C18.9392 16.3371 19.0645 16.3182 19.0886 16.2993C19.1128 16.2851 19.2044 16.2661 19.2863 16.2519C19.3683 16.2425 19.4551 16.2094 19.4744 16.181C19.4937 16.1526 19.5323 16.1431 19.5612 16.1573C19.5901 16.1762 19.6287 16.1573 19.6432 16.1194C19.6576 16.0768 19.701 16.0437 19.7348 16.0437C19.8312 16.0437 20 15.8118 20 15.6841C20 15.6226 19.9807 15.5705 19.9566 15.5705C19.9325 15.5705 19.8987 15.5326 19.8795 15.4806C19.8602 15.4143 19.2912 15.0783 19.1851 15.0736C19.1658 15.0689 19.1128 15.0452 19.0597 15.0168C19.0067 14.9884 18.8909 14.9506 18.7993 14.9316C18.7077 14.9127 18.6016 14.8654 18.563 14.8323C18.5293 14.7944 18.4763 14.7755 18.4521 14.7897C18.428 14.8086 18.4087 14.7944 18.4087 14.766C18.4087 14.7376 18.3895 14.7234 18.3653 14.7424C18.3412 14.7565 18.2834 14.7187 18.2448 14.6619C18.2014 14.6051 18.1676 14.572 18.1676 14.5909C18.1676 14.6619 17.4781 14.0041 17.2081 13.6776C17.1116 13.5593 17.02 13.4552 17.0055 13.441C16.9863 13.4268 16.9236 13.3227 16.8609 13.2044C16.7982 13.0861 16.7307 12.9772 16.7066 12.963C16.6825 12.9488 16.668 12.9157 16.668 12.892C16.6728 12.8684 16.6487 12.7832 16.6198 12.7075C16.4896 12.3762 16.5426 11.9172 16.7211 11.8083C16.75 11.7894 16.7596 11.7563 16.7452 11.7326C16.7259 11.709 16.7452 11.69 16.7837 11.69C16.8223 11.69 16.8705 11.6569 16.885 11.6143C16.8995 11.5765 16.9332 11.5528 16.9573 11.567C16.9814 11.5859 17.0345 11.567 17.0731 11.5291C17.1116 11.4913 17.237 11.4345 17.3527 11.4061C17.4685 11.373 17.589 11.3351 17.6131 11.3209C17.642 11.302 17.6854 11.2878 17.7192 11.2831C17.753 11.2783 17.8398 11.231 17.9169 11.1742C17.9941 11.1222 18.0664 11.089 18.0809 11.0985C18.0953 11.1127 18.158 11.0607 18.2255 10.9897C18.3557 10.843 18.4425 10.6016 18.3653 10.6016C18.3364 10.6016 18.3268 10.5732 18.3364 10.5401C18.3509 10.5117 18.3075 10.4218 18.2448 10.3413C18.1387 10.2136 18.1098 10.2041 17.8253 10.2041C17.319 10.2088 16.9622 10.2372 16.938 10.2656C16.9139 10.3035 16.4414 10.294 16.398 10.2562C16.3835 10.2372 16.3739 10.0054 16.3787 9.73562C16.4221 7.51618 16.3883 7.18019 16.0267 6.51295C15.9351 6.34258 15.8724 6.20061 15.8917 6.20061C15.911 6.20061 15.9013 6.18169 15.8724 6.16276C15.8434 6.14383 15.7374 6.00186 15.6361 5.8457C15.4432 5.56176 14.6524 4.74781 14.5897 4.77147C14.5656 4.7762 14.5512 4.75727 14.5512 4.73361C14.5512 4.70522 14.4644 4.6437 14.3583 4.59638C14.2522 4.54906 14.1799 4.497 14.1992 4.4828C14.2136 4.46387 14.1847 4.44968 14.1316 4.44968C14.0786 4.44968 14.0063 4.42128 13.9773 4.38343C13.9243 4.32191 13.6977 4.23673 13.6253 4.25092C13.6012 4.25566 13.5868 4.23673 13.5868 4.20833C13.5868 4.18467 13.5675 4.17521 13.5385 4.1894C13.5144 4.2036 13.4276 4.18467 13.3457 4.14208C13.2685 4.10422 13.1865 4.0711 13.1672 4.07583C13.1431 4.07583 13.0322 4.06163 12.9117 4.0427C12.7284 4.00958 11.6676 3.98592 11.6435 4.00958Z" fill="#ECC115"/>
</svg>
