<svg width="81" height="80" viewBox="0 0 81 80" fill="none" xmlns="http://www.w3.org/2000/svg">
<path d="M19.226 70.2891C18.2709 70.2859 17.3279 70.0746 16.4627 69.67C15.5975 69.2654 14.8308 68.6773 14.2159 67.9464C13.6011 67.2155 13.1528 66.3595 12.9022 65.4379C12.6516 64.5162 12.6048 63.551 12.765 62.6094L15.265 48.0407C15.3936 47.2918 15.3381 46.5229 15.1035 45.8003C14.8689 45.0776 14.4621 44.4228 13.9182 43.8922L3.33223 33.5797C2.45581 32.725 1.83593 31.6422 1.54266 30.4536C1.24938 29.2651 1.29441 28.0182 1.67265 26.8539C2.05089 25.6896 2.74726 24.6543 3.68305 23.865C4.61885 23.0758 5.75675 22.564 6.96817 22.3875L21.5947 20.2579C22.3466 20.1484 23.0606 19.8578 23.6752 19.4112C24.2898 18.9645 24.7866 18.3751 25.1229 17.6938L25.2604 17.4188C25.3126 17.3046 25.3872 17.2021 25.4797 17.1173C25.5723 17.0326 25.681 16.9672 25.7993 16.9252C25.9176 16.8832 26.0431 16.8654 26.1684 16.8728C26.2937 16.8803 26.4162 16.9128 26.5288 16.9684C26.6413 17.0241 26.7414 17.1018 26.8234 17.197C26.9053 17.2921 26.9672 17.4027 27.0056 17.5222C27.044 17.6417 27.0579 17.7678 27.0467 17.8928C27.0354 18.0178 26.9991 18.1393 26.94 18.25L26.8041 18.525C26.3339 19.4796 25.6386 20.3055 24.7782 20.9316C23.9177 21.5576 22.918 21.9651 21.865 22.1188L7.23692 24.2438C6.37197 24.3699 5.55952 24.7354 4.89133 25.299C4.22314 25.8625 3.72583 26.6016 3.45557 27.4329C3.18531 28.2642 3.15286 29.1544 3.36188 30.0032C3.57091 30.8519 4.01309 31.6253 4.63848 32.236L15.2244 42.5485C15.9862 43.2911 16.5561 44.2077 16.8849 45.2195C17.2137 46.2312 17.2916 47.3077 17.1119 48.3563L14.6119 62.925C14.4643 63.7868 14.5606 64.6726 14.89 65.4825C15.2193 66.2924 15.7686 66.994 16.4758 67.5081C17.183 68.0222 18.0199 68.3283 18.8918 68.3917C19.7638 68.4552 20.6362 68.2735 21.4104 67.8672L34.4947 60.9922C35.4365 60.4971 36.4846 60.2383 37.5486 60.2383C38.6127 60.2383 39.6607 60.4971 40.6025 60.9922L49.7791 65.8172C49.7241 65.294 49.6965 64.7683 49.6963 64.2422C49.6872 61.3824 50.5007 58.5803 52.04 56.1701C53.5792 53.7598 55.7792 51.8431 58.3775 50.6485L57.9854 48.361C57.8055 47.3117 57.8837 46.2344 58.213 45.222C58.5424 44.2097 59.1131 43.2926 59.876 42.55L70.4604 32.2375C71.0857 31.627 71.5279 30.8537 71.737 30.0051C71.9461 29.1565 71.9138 28.2663 71.6437 27.435C71.3736 26.6038 70.8765 25.8647 70.2085 25.301C69.5406 24.7374 68.7283 24.3717 67.8635 24.2454L53.2338 22.1204C52.1806 21.9669 51.1805 21.5596 50.3198 20.9335C49.4591 20.3074 48.7635 19.4814 48.2932 18.5266L41.751 5.26723C41.3727 4.4769 40.7763 3.8112 40.0322 3.3486C39.288 2.886 38.4271 2.64579 37.551 2.65629C36.6747 2.64607 35.8137 2.88637 35.0694 3.34892C34.325 3.81147 33.7283 4.47701 33.3494 5.26723L30.551 10.9375C30.4965 11.048 30.4208 11.1467 30.3282 11.228C30.2356 11.3092 30.1279 11.3714 30.0112 11.411C29.8945 11.4506 29.7712 11.4669 29.6483 11.4588C29.5254 11.4508 29.4052 11.4186 29.2947 11.3641C29.1842 11.3096 29.0856 11.2339 29.0043 11.1413C28.9231 11.0487 28.8609 10.941 28.8213 10.8243C28.7817 10.7077 28.7654 10.5844 28.7735 10.4614C28.7815 10.3385 28.8137 10.2184 28.8682 10.1079L31.665 4.43911C32.2035 3.3384 33.041 2.41154 34.0816 1.76465C35.1223 1.11776 36.3241 0.776966 37.5494 0.781295C38.7744 0.776749 39.9759 1.11729 41.0163 1.76392C42.0567 2.41056 42.894 3.33714 43.4322 4.43754L49.9744 17.6938C50.3107 18.3751 50.8075 18.9645 51.4221 19.4112C52.0367 19.8578 52.7507 20.1484 53.5025 20.2579L68.1322 22.3829C69.3435 22.5595 70.4812 23.0715 71.4168 23.8609C72.3524 24.6502 73.0486 25.6856 73.4266 26.8498C73.8047 28.0141 73.8496 29.2609 73.5562 30.4493C73.2629 31.6377 72.643 32.7204 71.7666 33.575L61.1822 43.8875C60.6378 44.4181 60.2306 45.0731 59.9957 45.7961C59.7608 46.519 59.7052 47.2883 59.8338 48.0375L60.351 51.0485C60.3872 51.2596 60.3501 51.4767 60.2458 51.6638C60.1414 51.8508 59.9762 51.9965 59.7775 52.0766C56.8635 53.2549 54.469 55.4398 53.0296 58.2341C51.5901 61.0284 51.2013 64.2464 51.9338 67.3032C51.9759 67.4784 51.9666 67.6621 51.907 67.8322C51.8473 68.0023 51.74 68.1516 51.5977 68.2622C51.4554 68.3729 51.2842 68.4401 51.1047 68.456C50.9251 68.4718 50.7448 68.4356 50.5854 68.3516L39.7307 62.6563C39.0582 62.3029 38.3099 62.1183 37.5502 62.1183C36.7905 62.1183 36.0422 62.3029 35.3697 62.6563L22.2854 69.5313C21.3423 70.0287 20.2922 70.2888 19.226 70.2891Z" fill="#A572D1"/>
<path d="M27.555 15.8185C27.3955 15.8186 27.2386 15.7779 27.0992 15.7004C26.9598 15.623 26.8425 15.5112 26.7583 15.3757C26.6742 15.2403 26.626 15.0856 26.6183 14.9263C26.6106 14.767 26.6436 14.6083 26.7144 14.4654L27.4081 13.0591C27.5181 12.8358 27.7124 12.6653 27.9481 12.5851C28.1839 12.505 28.4418 12.5218 28.6651 12.6318C28.8885 12.7418 29.059 12.9361 29.1391 13.1718C29.2193 13.4075 29.2025 13.6655 29.0925 13.8888L28.3987 15.2951C28.3212 15.4526 28.201 15.5851 28.0518 15.6777C27.9027 15.7702 27.7305 15.819 27.555 15.8185ZM64.6768 79.2185C61.7141 79.2185 58.818 78.34 56.3546 76.694C53.8912 75.048 51.9712 72.7085 50.8374 69.9713C49.7036 67.2341 49.407 64.2222 49.985 61.3164C50.563 58.4107 51.9897 55.7415 54.0846 53.6466C56.1796 51.5516 58.8487 50.125 61.7545 49.547C64.6602 48.969 67.6721 49.2656 70.4093 50.3994C73.1465 51.5332 75.486 53.4532 77.132 55.9165C78.778 58.3799 79.6565 61.2761 79.6565 64.2388C79.6512 68.21 78.0712 72.017 75.2632 74.8251C72.4551 77.6332 68.6481 79.2131 64.6768 79.2185ZM64.6768 51.1341C62.085 51.1341 59.5513 51.9027 57.3963 53.3427C55.2412 54.7826 53.5616 56.8293 52.5697 59.2239C51.5778 61.6184 51.3183 64.2534 51.824 66.7954C52.3296 69.3375 53.5777 71.6725 55.4104 73.5052C57.2432 75.338 59.5782 76.5861 62.1203 77.0917C64.6623 77.5974 67.2972 77.3378 69.6918 76.346C72.0864 75.3541 74.133 73.6744 75.573 71.5194C77.013 69.3643 77.7815 66.8307 77.7815 64.2388C77.7762 60.7649 76.3938 57.4348 73.9373 54.9783C71.4809 52.5219 68.1508 51.1395 64.6768 51.1341Z" fill="#A572D1"/>
<path d="M68.8143 71.8072C68.3637 71.808 67.9173 71.7198 67.5009 71.5476C67.0845 71.3755 66.7062 71.1228 66.3877 70.8041L64.6783 69.0931L62.9674 70.8041C62.6556 71.1523 62.2761 71.4333 61.852 71.6299C61.4279 71.8265 60.9681 71.9346 60.5009 71.9474C60.0336 71.9603 59.5686 71.8777 59.1344 71.7048C58.7001 71.5318 58.3057 71.2721 57.9752 70.9415C57.6447 70.6109 57.3851 70.2164 57.2123 69.7821C57.0395 69.3478 56.9571 68.8828 56.9701 68.4155C56.9831 67.9482 57.0913 67.4885 57.288 67.0645C57.4847 66.6405 57.7659 66.261 58.1143 65.9494L59.8236 64.24L58.1143 62.5306C57.7659 62.2189 57.4847 61.8395 57.288 61.4155C57.0913 60.9914 56.9831 60.5317 56.9701 60.0645C56.9571 59.5972 57.0395 59.1322 57.2123 58.6979C57.3851 58.2636 57.6447 57.869 57.9752 57.5385C58.3057 57.2079 58.7001 56.9482 59.1344 56.7752C59.5686 56.6023 60.0336 56.5197 60.5009 56.5326C60.9681 56.5454 61.4279 56.6535 61.852 56.85C62.2761 57.0466 62.6556 57.3277 62.9674 57.6759L64.6783 59.3853L66.3877 57.6759C67.0421 57.0868 67.8976 56.7712 68.7778 56.7943C69.658 56.8173 70.4958 57.1773 71.1184 57.7999C71.741 58.4225 72.101 59.2603 72.1241 60.1405C72.1471 61.0207 71.8315 61.8762 71.2424 62.5306L69.5314 64.24L71.2408 65.9494C71.7178 66.4304 72.042 67.0416 72.1727 67.7063C72.3035 68.371 72.2349 69.0594 71.9756 69.6853C71.7164 70.3111 71.278 70.8464 70.7156 71.2239C70.1531 71.6014 69.4916 71.8043 68.8143 71.8072ZM64.6783 66.8306C64.9269 66.8308 65.1652 66.9298 65.3408 67.1056L67.7143 69.4775C67.8536 69.6431 68.0259 69.778 68.2202 69.8736C68.4144 69.9691 68.6264 70.0233 68.8427 70.0326C69.059 70.0418 69.2749 70.0061 69.4766 69.9276C69.6784 69.849 69.8616 69.7294 70.0147 69.5763C70.1677 69.4233 70.2874 69.24 70.3659 69.0383C70.4444 68.8366 70.4802 68.6207 70.4709 68.4044C70.4616 68.1881 70.4074 67.9761 70.3119 67.7819C70.2163 67.5876 70.0815 67.4153 69.9158 67.2759L67.5424 64.9025C67.3668 64.7267 67.2682 64.4884 67.2682 64.24C67.2682 63.9916 67.3668 63.7533 67.5424 63.5775L69.9158 61.2041C70.0815 61.0647 70.2163 60.8924 70.3119 60.6981C70.4074 60.5039 70.4616 60.2919 70.4709 60.0756C70.4802 59.8593 70.4444 59.6434 70.3659 59.4417C70.2874 59.2399 70.1677 59.0567 70.0147 58.9036C69.8616 58.7506 69.6784 58.631 69.4766 58.5524C69.2749 58.4739 69.059 58.4381 68.8427 58.4474C68.6264 58.4567 68.4144 58.5109 68.2202 58.6064C68.0259 58.702 67.8536 58.8368 67.7143 59.0025L65.3439 61.3744C65.2569 61.4615 65.1535 61.5307 65.0397 61.5779C64.9259 61.625 64.8039 61.6493 64.6807 61.6493C64.5575 61.6493 64.4355 61.625 64.3217 61.5779C64.2078 61.5307 64.1044 61.4615 64.0174 61.3744L61.6455 59.0025C61.5058 58.8378 61.3336 58.7039 61.1395 58.6091C60.9455 58.5143 60.7339 58.4608 60.5182 58.4519C60.3024 58.443 60.0872 58.479 59.886 58.5574C59.6848 58.6359 59.5021 58.7552 59.3494 58.9079C59.1966 59.0605 59.0772 59.2431 58.9986 59.4442C58.92 59.6454 58.8839 59.8606 58.8926 60.0763C58.9014 60.2921 58.9547 60.5037 59.0493 60.6978C59.144 60.8919 59.2778 61.0643 59.4424 61.2041L61.8158 63.5775C61.9914 63.7533 62.09 63.9916 62.09 64.24C62.09 64.4884 61.9914 64.7267 61.8158 64.9025L59.4424 67.2759C59.2778 67.4157 59.144 67.5881 59.0493 67.7822C58.9547 67.9763 58.9014 68.1879 58.8926 68.4036C58.8839 68.6194 58.92 68.8346 58.9986 69.0357C59.0772 69.2368 59.1966 69.4195 59.3494 69.5721C59.5021 69.7248 59.6848 69.8441 59.886 69.9225C60.0872 70.001 60.3024 70.0369 60.5182 70.028C60.7339 70.0192 60.9455 69.9656 61.1395 69.8709C61.3336 69.7761 61.5058 69.6422 61.6455 69.4775L64.0174 67.1056C64.1926 66.9301 64.4303 66.8312 64.6783 66.8306Z" fill="#A572D1"/>
</svg>
