<svg width="36" height="12" viewBox="0 0 36 12" fill="none" xmlns="http://www.w3.org/2000/svg">
<path d="M23.3477 8.52362V2.93244H24.2958V3.38076C24.5844 3.02004 25.0121 2.82422 25.5429 2.82422C26.6354 2.82422 27.4187 3.6951 27.4187 4.94217C27.4187 6.18924 26.6302 7.07558 25.5429 7.07558C25.007 7.07558 24.5844 6.86945 24.2958 6.50873V8.52362H23.3477ZM24.2958 4.42685V5.45749C24.4968 5.87489 24.8575 6.17893 25.378 6.17893C26.0067 6.17893 26.4292 5.70999 26.4292 4.93702C26.4292 4.17435 26.0067 3.71056 25.378 3.71056C24.8575 3.71572 24.4968 3.99914 24.2958 4.42685Z" fill="#02AA7C"/>
<path d="M28.0352 5.81031C28.0352 5.13009 28.4577 4.656 29.1585 4.56839L30.7715 4.36227V4.16129C30.7715 3.91909 30.6478 3.79027 30.4211 3.79027H28.3959V2.92969H30.4571C31.2765 2.92969 31.7248 3.33163 31.7248 4.04277V6.95431H30.7663V6.46476C30.4881 6.8564 30.0294 7.07799 29.4368 7.07799C28.602 7.07799 28.0352 6.56782 28.0352 5.81031ZM29.6687 6.30501C30.1531 6.30501 30.6014 6.03189 30.7663 5.62994V5.12494L29.5347 5.29499C29.1946 5.34137 29.004 5.52173 29.004 5.81546C29.004 6.1298 29.2462 6.30501 29.6687 6.30501Z" fill="#02AA7C"/>
<path d="M32.4147 7.66544H33.1053C33.3681 7.66544 33.4866 7.55723 33.5742 7.30988L33.6979 6.95431L32.2344 2.92969H33.2238L34.1359 5.73301H34.1565L35.0274 2.92969H36.0013L34.3987 7.55207C34.1823 8.18591 33.8937 8.52602 33.1877 8.52602H32.4147V7.66544Z" fill="#02AA7C"/>
<path d="M3.47839 11.2916C4.58116 11.2916 5.48812 10.9464 6.08589 10.3692C6.53421 9.92604 6.79702 9.32827 6.79702 8.63775C6.79702 8.01422 6.56513 7.45252 6.13742 7.02481C5.7097 6.5971 5.09648 6.28275 4.3235 6.13331L3.05583 5.88596C2.5302 5.78805 2.23132 5.52524 2.23132 5.15937C2.23132 4.68012 2.6951 4.35032 3.43716 4.35032C3.90094 4.35032 4.29774 4.49976 4.56055 4.76257C4.72545 4.94293 4.83882 5.17483 4.87489 5.43764L6.70427 5.02538C6.65273 4.49976 6.40538 4.03598 6.0292 3.65464C5.42628 3.06203 4.50387 2.68585 3.41655 2.68585C2.41168 2.68585 1.57171 3.01565 0.989407 3.54127C0.494704 4.00506 0.216433 4.62859 0.216433 5.32427C0.216433 5.93234 0.412253 6.44766 0.809047 6.8393C1.20584 7.23609 1.78299 7.52982 2.54051 7.71533L3.79273 8.01422C4.42141 8.16366 4.69969 8.39555 4.69969 8.80781C4.69969 9.31797 4.2359 9.61685 3.47839 9.61685C2.93215 9.61685 2.48898 9.43649 2.21071 9.13761C2.01489 8.94179 1.89636 8.67382 1.8809 8.38009L0 8.79235C0.0515316 9.35404 0.314343 9.84875 0.711137 10.2455C1.33467 10.9 2.34469 11.2916 3.47839 11.2916ZM17.4022 11.2916C18.6235 11.2916 19.5614 10.8485 20.2056 10.2198C20.7157 9.72507 21.0301 9.14791 21.195 8.5553L19.2677 7.91115C19.1852 8.21004 19.0203 8.52438 18.7575 8.76658C18.4432 9.06546 18.0155 9.27674 17.4022 9.27674C16.8405 9.27674 16.3149 9.06031 15.9336 8.68413C15.5522 8.28733 15.3204 7.71018 15.3204 6.98358C15.3204 6.24153 15.5522 5.67983 15.9336 5.28304C16.3098 4.90171 16.8251 4.70589 17.3868 4.70589C17.9794 4.70589 18.3916 4.90171 18.6905 5.20059C18.9379 5.44794 19.0873 5.76229 19.1852 6.07663L21.1486 5.41702C20.9991 4.83987 20.6848 4.26271 20.2262 3.78347C19.5666 3.13933 18.6081 2.68069 17.3404 2.68069C16.1706 2.68069 15.1142 3.12387 14.3567 3.88653C13.5992 4.65951 13.1354 5.73652 13.1354 6.98874C13.1354 8.24096 13.6147 9.31282 14.3876 10.0909C15.14 10.8485 16.2119 11.2916 17.4022 11.2916ZM10.7392 11.2916C11.5946 11.2916 12.2078 11.0288 12.4707 10.7969V9.01393C12.2697 9.16337 11.878 9.34373 11.3627 9.34373C10.9969 9.34373 10.734 9.26128 10.5382 9.08092C10.3733 8.91602 10.2909 8.6326 10.2909 8.25642V0.707031H8.11108V2.9332H12.4655V5.046H8.11108V8.79235C8.11108 9.54986 8.34297 10.1631 8.75523 10.5908C9.21901 11.0443 9.89923 11.2916 10.7392 11.2916Z" fill="#502C84"/>
</svg>
