<svg width="36" height="16" viewBox="0 0 36 16" fill="none" xmlns="http://www.w3.org/2000/svg">
<path d="M2.78804 15.1719H33.212C34.75 15.1719 36 13.9219 36 12.38V3.62007C36 2.08204 34.75 0.832031 33.212 0.832031H2.78804C1.24623 0.832031 0 2.08204 0 3.62007V12.3805C0 13.9219 1.25001 15.1719 2.78804 15.1719Z" fill="url(#paint0_linear_2151_18736)"/>
<path d="M4.84238 5.38281L6.76587 12.7348L6.77344 12.7495H5.27087L3.3403 5.38281H4.84238Z" fill="#292929"/>
<path d="M28.6686 9.56208C28.8668 9.6666 29.1369 9.72761 29.3927 9.72761C29.9328 9.72761 30.2393 9.64106 30.2715 9.20547V9.17662C30.2715 9.15865 30.2753 9.14068 30.2753 9.12271V7.85473L30.2715 7.70339V6.80667H30.2753V6.425L30.2715 6.27366V5.40863L31.6113 5.58504C30.7037 5.40863 30.1849 4.69164 30.1849 3.97843V3.53906H31.6908V5.59592L31.7773 5.62099V9.43202C31.7267 10.5018 31.0211 11.1394 29.8647 11.1394C29.4542 11.1394 29.004 11.0457 28.6582 10.8906L28.6511 10.8868V9.55026L28.6686 9.56208Z" fill="#292929"/>
<path d="M28.4309 5.10547L32.6562 5.75719V6.82701L28.4309 6.17528V5.10547Z" fill="#292929"/>
<path d="M28.4309 6.67188L32.6562 7.3236V8.34659L28.4309 7.69487V6.67188Z" fill="#292929"/>
<path d="M23.6921 7.16417C23.7531 5.97565 24.4952 5.26953 25.7059 5.26953C26.4011 5.26953 26.9777 5.53958 27.3664 6.04753C27.7557 6.55548 27.9609 7.30085 27.9609 8.20513C27.9609 9.10941 27.7557 9.85856 27.3664 10.3627C26.9772 10.8707 26.4011 11.1407 25.7059 11.1407C24.4956 11.1407 23.7498 10.4313 23.6921 9.23522V11.0291H22.1862V5.39155L23.6921 5.62188M23.6131 8.20513C23.6131 9.26075 24.1679 9.94133 25.0216 9.94133C25.9041 9.94133 26.43 9.29291 26.43 8.20513C26.43 7.11356 25.9041 6.45805 25.0216 6.45805C24.5931 6.45805 24.2327 6.62359 23.9839 6.94094C23.7427 7.2545 23.6131 7.69009 23.6131 8.20513Z" fill="#292929"/>
<path d="M17.7967 5.27018C19.0108 5.27018 19.7528 5.9763 19.8105 7.1686V3.75391L21.3164 3.98423V11.0302H19.8105V9.23634C19.7528 10.4324 19.0075 11.1419 17.7967 11.1419C16.3774 11.1419 15.5308 10.0432 15.5308 8.20626C15.5308 6.36932 16.3779 5.27018 17.7967 5.27018ZM18.4815 9.94198C19.339 9.94198 19.89 9.26141 19.89 8.20578C19.89 7.69074 19.7604 7.25468 19.5192 6.9449C19.2704 6.62802 18.9105 6.46202 18.4815 6.46202C17.599 6.46202 17.0731 7.11421 17.0731 8.20909C17.0731 9.29357 17.599 9.94198 18.4815 9.94198Z" fill="#292929"/>
<path d="M11.4373 5.27018C12.6514 5.27018 13.3935 5.9763 13.4512 7.1686V3.75391L14.957 3.98423V11.0302H13.4512V9.23634C13.3935 10.4324 12.6481 11.1419 11.4373 11.1419C10.018 11.1419 9.17143 10.0432 9.17143 8.20626C9.17143 6.36932 10.018 5.27018 11.4373 5.27018ZM12.1184 9.94198C12.9758 9.94198 13.5268 9.26141 13.5268 8.20578C13.5268 7.69074 13.3972 7.25468 13.156 6.9449C12.9073 6.62802 12.5474 6.46202 12.1184 6.46202C11.2359 6.46202 10.7099 7.11421 10.7099 8.20909C10.7099 9.29357 11.2359 9.94198 12.1184 9.94198Z" fill="#292929"/>
<path d="M9.16797 5.38281H7.56136L6.25365 11.0237H7.69473L9.16797 5.38281Z" fill="#292929"/>
<defs>
<linearGradient id="paint0_linear_2151_18736" x1="35.9999" y1="8.00195" x2="8.22381e-05" y2="8.00195" gradientUnits="userSpaceOnUse">
<stop stop-color="#3BFF9D"/>
<stop offset="1" stop-color="#3BFFC8"/>
</linearGradient>
</defs>
</svg>
