<svg width="24" height="24" viewBox="0 0 24 24" fill="none" xmlns="http://www.w3.org/2000/svg">
<path d="M13.3798 2.06691C13.5298 2.15129 13.5861 2.25441 13.5908 2.43723C13.5908 2.62473 13.5439 2.69973 13.3001 2.89191L13.1267 3.02785L13.5017 3.0841C13.708 3.11691 14.1345 3.21066 14.4486 3.29973C17.3173 4.08254 19.6142 6.27629 20.5705 9.13098C20.7486 9.66535 20.7533 9.76379 20.5798 9.93722C20.4345 10.0825 20.2798 10.106 20.0923 10.0216C19.9517 9.96066 19.9189 9.89504 19.7314 9.34191C18.8267 6.63254 16.5017 4.57941 13.6611 3.97473C13.4267 3.92785 13.183 3.88566 13.108 3.88566H12.9814L13.1689 4.12473C13.4361 4.46223 13.4314 4.75754 13.1595 4.89816C12.8689 5.04816 12.7564 4.97785 12.2033 4.29348C11.6267 3.58566 11.5423 3.4216 11.622 3.22473C11.6736 3.10754 12.522 2.3716 12.9345 2.09504C13.0705 2.00129 13.2439 1.98723 13.3798 2.06691Z" fill="#151515"/>
<path d="M10.0078 3.40037C10.0875 3.47537 10.125 3.56443 10.125 3.67693C10.125 3.93474 9.975 4.05662 9.46875 4.22068C6.61406 5.14412 4.4625 7.67537 3.96094 10.7129L3.92812 10.9004L4.11562 10.7222C4.36406 10.4832 4.57031 10.4504 4.77187 10.6191C4.88906 10.7176 4.92188 10.7832 4.92188 10.9097C4.92188 10.9988 4.90312 11.1066 4.87969 11.1535C4.85625 11.1957 4.56094 11.491 4.22344 11.8051C3.39375 12.5785 3.44531 12.5785 2.66719 11.7863C2.01562 11.1301 1.94531 11.0269 1.9875 10.8066C2.025 10.6144 2.14687 10.5066 2.35781 10.4691C2.5125 10.4457 2.55 10.4644 2.80312 10.7082L3.07969 10.9707L3.1125 10.6613C3.15937 10.1926 3.43594 9.18474 3.67969 8.58006C4.65 6.17068 6.65625 4.26756 9.10312 3.44256C9.67969 3.25037 9.85312 3.24099 10.0078 3.40037Z" fill="#151515"/>
<path d="M12.2324 6.43594C12.2746 6.46875 12.4011 6.61875 12.523 6.77344C13.0433 7.45313 13.6293 7.94063 14.3699 8.30156C14.8668 8.54531 15.6824 8.77969 16.2214 8.83594C16.6246 8.87813 16.8121 8.93906 16.8964 9.06094C16.9808 9.18281 16.9949 10.3406 16.9199 11.0625C16.648 13.6688 15.2652 15.9844 13.3058 17.1188C12.8839 17.3625 12.2089 17.625 11.998 17.625C11.7871 17.625 11.1121 17.3625 10.6902 17.1188C9.56988 16.4672 8.59488 15.3938 7.94801 14.0859C7.46519 13.1203 7.18863 12.1594 7.07613 11.0625C7.01519 10.4578 7.01519 9.20625 7.08082 9.08438C7.14176 8.97188 7.39488 8.85938 7.59644 8.85938C7.82144 8.85938 8.65582 8.68125 9.04488 8.54531C10.0011 8.21719 10.8355 7.6125 11.4683 6.78281C11.7496 6.41719 11.7964 6.37969 11.998 6.37969C12.0871 6.37969 12.1949 6.40313 12.2324 6.43594ZM12.4199 9.79688V11.5781L14.2105 11.5688L16.0058 11.5547L16.0433 11.3203C16.0621 11.1891 16.0855 10.7719 16.0902 10.3875L16.0996 9.68906L15.7246 9.62344C14.5808 9.43125 13.5449 8.95781 12.7199 8.25469C12.5699 8.12344 12.4386 8.01563 12.4293 8.01563C12.4246 8.01563 12.4199 8.81719 12.4199 9.79688ZM11.2621 8.25469C10.5074 8.91563 9.50894 9.38438 8.41207 9.59063C8.17769 9.63281 7.96207 9.67969 7.92457 9.68906C7.86832 9.70313 7.86363 9.825 7.89176 10.4203C7.91051 10.8141 7.93863 11.2266 7.95738 11.3438L7.99019 11.5547L9.78082 11.5688L11.5761 11.5781V9.79688C11.5761 8.81719 11.5668 8.01563 11.5574 8.01563C11.5433 8.01563 11.4121 8.12344 11.2621 8.25469ZM12.4199 14.5078C12.4199 15.6563 12.4339 16.5938 12.448 16.5938C12.5324 16.5938 13.0574 16.275 13.4089 16.0078C14.323 15.3234 15.1058 14.2594 15.5652 13.0828C15.6589 12.8344 15.7527 12.5859 15.7714 12.525L15.7996 12.4219H14.1121H12.4199V14.5078ZM8.22457 12.525C8.24332 12.5859 8.33707 12.8344 8.43082 13.0828C8.89019 14.2594 9.67301 15.3234 10.5871 16.0078C10.9386 16.275 11.4636 16.5938 11.548 16.5938C11.5621 16.5938 11.5761 15.6563 11.5761 14.5078V12.4219H9.88394H8.19644L8.22457 12.525Z" fill="#151515"/>
<path d="M20.8199 11.6173C20.9418 11.6923 21.7855 12.6158 21.9496 12.8455C22.0715 13.0189 22.048 13.2064 21.8934 13.3658C21.6637 13.5908 21.4293 13.5439 21.134 13.2064L20.9652 13.0142L20.909 13.3892C20.3793 16.6892 18.0449 19.4501 14.8855 20.5095C14.3324 20.6923 14.2105 20.6923 14.023 20.5236C13.8965 20.4017 13.8824 20.1205 13.9996 19.9751C14.0465 19.9189 14.2949 19.8064 14.5762 19.708C16.5684 19.0236 18.1527 17.7017 19.1652 15.8689C19.5777 15.1283 19.9715 13.9798 20.084 13.197L20.1168 12.9673L19.9012 13.1642C19.723 13.3283 19.6574 13.3611 19.498 13.3611C19.1699 13.3611 18.9684 13.0376 19.1184 12.7564C19.1887 12.6251 20.3184 11.6314 20.4543 11.5798C20.6277 11.5142 20.6746 11.5189 20.8199 11.6173Z" fill="#151515"/>
<path d="M4.02187 13.9531C4.07344 14 4.19531 14.2672 4.28906 14.5531C5.19375 17.2625 7.61719 19.4094 10.3594 19.9391C10.5797 19.9813 10.8094 20.0281 10.8703 20.0422C10.9781 20.0656 10.9734 20.0516 10.8141 19.8781C10.6266 19.6719 10.5703 19.5125 10.6125 19.3344C10.6781 19.0813 10.9734 18.9547 11.2031 19.0766C11.2547 19.1047 11.55 19.4 11.8594 19.7375C12.3937 20.3234 12.4219 20.3609 12.4219 20.5531C12.4219 20.75 12.4078 20.7688 11.8922 21.2422C11.0016 22.0672 10.9312 22.1047 10.6453 21.8609C10.5281 21.7625 10.5 21.7063 10.5 21.5516C10.5 21.3781 10.5281 21.3359 10.7437 21.1344L10.9828 20.9141L10.7531 20.8813C9.64219 20.7266 8.42344 20.2953 7.43906 19.7141C5.52187 18.5844 4.07344 16.7563 3.41719 14.6469C3.3 14.2672 3.30469 14.1266 3.44531 13.9906C3.58594 13.85 3.87656 13.8313 4.02187 13.9531Z" fill="#151515"/>
</svg>
