<svg width="27" height="28" viewBox="0 0 27 28" fill="none" xmlns="http://www.w3.org/2000/svg">
<rect y="0.5" width="27" height="27" rx="13.5" fill="#F9F9F9"/>
<path d="M13 8C13.5508 8 14.082 8.07031 14.5938 8.21094C15.1055 8.35156 15.582 8.55469 16.0234 8.82031C16.4648 9.08594 16.8691 9.39844 17.2363 9.75781C17.6035 10.1172 17.918 10.5215 18.1797 10.9707C18.4414 11.4199 18.6426 11.8984 18.7832 12.4062C18.9238 12.9141 18.9961 13.4453 19 14C19 14.5508 18.9297 15.082 18.7891 15.5938C18.6484 16.1055 18.4453 16.582 18.1797 17.0234C17.9141 17.4648 17.6016 17.8691 17.2422 18.2363C16.8828 18.6035 16.4785 18.918 16.0293 19.1797C15.5801 19.4414 15.1016 19.6426 14.5938 19.7832C14.0859 19.9238 13.5547 19.9961 13 20C12.4492 20 11.918 19.9297 11.4062 19.7891C10.8945 19.6484 10.418 19.4453 9.97656 19.1797C9.53516 18.9141 9.13086 18.6016 8.76367 18.2422C8.39648 17.8828 8.08203 17.4785 7.82031 17.0293C7.55859 16.5801 7.35742 16.1016 7.2168 15.5938C7.07617 15.0859 7.00391 14.5547 7 14C7 13.4492 7.07031 12.918 7.21094 12.4062C7.35156 11.8945 7.55469 11.418 7.82031 10.9766C8.08594 10.5352 8.39844 10.1309 8.75781 9.76367C9.11719 9.39648 9.52148 9.08203 9.9707 8.82031C10.4199 8.55859 10.8984 8.35742 11.4062 8.2168C11.9141 8.07617 12.4453 8.00391 13 8ZM13 17.1289C13.3008 17.1289 13.5918 17.0879 13.873 17.0059C14.1543 16.9238 14.4199 16.8027 14.6699 16.6426C14.9199 16.4824 15.1426 16.2949 15.3379 16.0801C15.5332 15.8652 15.6973 15.6191 15.8301 15.3418L14.916 14.9082C14.8262 15.0918 14.7148 15.2578 14.582 15.4062C14.4492 15.5547 14.2988 15.6816 14.1309 15.7871C13.9629 15.8926 13.7832 15.9746 13.5918 16.0332C13.4004 16.0918 13.2031 16.1211 13 16.1211C12.7188 16.1211 12.4512 16.0664 12.1973 15.957C11.9434 15.8477 11.7148 15.6953 11.5117 15.5H12.25V14.75H10V17H10.75V16.168C11.043 16.4727 11.3848 16.709 11.7754 16.877C12.166 17.0449 12.5742 17.1289 13 17.1289ZM16 13.25V11H15.25V11.832C14.957 11.5273 14.6152 11.291 14.2246 11.123C13.834 10.9551 13.4258 10.8711 13 10.8711C12.6992 10.8711 12.4082 10.9121 12.127 10.9941C11.8457 11.0762 11.5801 11.1973 11.3301 11.3574C11.0801 11.5176 10.8574 11.7051 10.6621 11.9199C10.4668 12.1348 10.3027 12.3809 10.1699 12.6582L11.084 13.0918C11.1699 12.9082 11.2793 12.7422 11.4121 12.5938C11.5449 12.4453 11.6973 12.3184 11.8691 12.2129C12.041 12.1074 12.2207 12.0254 12.4082 11.9668C12.5957 11.9082 12.793 11.8789 13 11.8789C13.2812 11.8789 13.5488 11.9336 13.8027 12.043C14.0566 12.1523 14.2852 12.3047 14.4883 12.5H13.75V13.25H16Z" fill="black"/>
<path d="M13 8C13.5508 8 14.082 8.07031 14.5938 8.21094C15.1055 8.35156 15.582 8.55469 16.0234 8.82031C16.4648 9.08594 16.8691 9.39844 17.2363 9.75781C17.6035 10.1172 17.918 10.5215 18.1797 10.9707C18.4414 11.4199 18.6426 11.8984 18.7832 12.4062C18.9238 12.9141 18.9961 13.4453 19 14C19 14.5508 18.9297 15.082 18.7891 15.5938C18.6484 16.1055 18.4453 16.582 18.1797 17.0234C17.9141 17.4648 17.6016 17.8691 17.2422 18.2363C16.8828 18.6035 16.4785 18.918 16.0293 19.1797C15.5801 19.4414 15.1016 19.6426 14.5938 19.7832C14.0859 19.9238 13.5547 19.9961 13 20C12.4492 20 11.918 19.9297 11.4062 19.7891C10.8945 19.6484 10.418 19.4453 9.97656 19.1797C9.53516 18.9141 9.13086 18.6016 8.76367 18.2422C8.39648 17.8828 8.08203 17.4785 7.82031 17.0293C7.55859 16.5801 7.35742 16.1016 7.2168 15.5938C7.07617 15.0859 7.00391 14.5547 7 14C7 13.4492 7.07031 12.918 7.21094 12.4062C7.35156 11.8945 7.55469 11.418 7.82031 10.9766C8.08594 10.5352 8.39844 10.1309 8.75781 9.76367C9.11719 9.39648 9.52148 9.08203 9.9707 8.82031C10.4199 8.55859 10.8984 8.35742 11.4062 8.2168C11.9141 8.07617 12.4453 8.00391 13 8ZM13 17.1289C13.3008 17.1289 13.5918 17.0879 13.873 17.0059C14.1543 16.9238 14.4199 16.8027 14.6699 16.6426C14.9199 16.4824 15.1426 16.2949 15.3379 16.0801C15.5332 15.8652 15.6973 15.6191 15.8301 15.3418L14.916 14.9082C14.8262 15.0918 14.7148 15.2578 14.582 15.4062C14.4492 15.5547 14.2988 15.6816 14.1309 15.7871C13.9629 15.8926 13.7832 15.9746 13.5918 16.0332C13.4004 16.0918 13.2031 16.1211 13 16.1211C12.7188 16.1211 12.4512 16.0664 12.1973 15.957C11.9434 15.8477 11.7148 15.6953 11.5117 15.5H12.25V14.75H10V17H10.75V16.168C11.043 16.4727 11.3848 16.709 11.7754 16.877C12.166 17.0449 12.5742 17.1289 13 17.1289ZM16 13.25V11H15.25V11.832C14.957 11.5273 14.6152 11.291 14.2246 11.123C13.834 10.9551 13.4258 10.8711 13 10.8711C12.6992 10.8711 12.4082 10.9121 12.127 10.9941C11.8457 11.0762 11.5801 11.1973 11.3301 11.3574C11.0801 11.5176 10.8574 11.7051 10.6621 11.9199C10.4668 12.1348 10.3027 12.3809 10.1699 12.6582L11.084 13.0918C11.1699 12.9082 11.2793 12.7422 11.4121 12.5938C11.5449 12.4453 11.6973 12.3184 11.8691 12.2129C12.041 12.1074 12.2207 12.0254 12.4082 11.9668C12.5957 11.9082 12.793 11.8789 13 11.8789C13.2812 11.8789 13.5488 11.9336 13.8027 12.043C14.0566 12.1523 14.2852 12.3047 14.4883 12.5H13.75V13.25H16Z" fill="#4A5568"/>
</svg>
