<svg width="27" height="28" viewBox="0 0 27 28" fill="none" xmlns="http://www.w3.org/2000/svg">
<rect y="0.5" width="27" height="27" rx="13.5" fill="#F9F9F9"/>
<path d="M12.9987 9.33594C13.6175 9.33594 14.211 9.58177 14.6486 10.0194C15.0862 10.4569 15.332 11.0504 15.332 11.6693C15.332 12.2881 15.0862 12.8816 14.6486 13.3192C14.211 13.7568 13.6175 14.0026 12.9987 14.0026C12.3799 14.0026 11.7864 13.7568 11.3488 13.3192C10.9112 12.8816 10.6654 12.2881 10.6654 11.6693C10.6654 11.0504 10.9112 10.4569 11.3488 10.0194C11.7864 9.58177 12.3799 9.33594 12.9987 9.33594ZM12.9987 15.1693C15.577 15.1693 17.6654 16.2134 17.6654 17.5026V18.6693H8.33203V17.5026C8.33203 16.2134 10.4204 15.1693 12.9987 15.1693Z" fill="#4A5568"/>
</svg>
