<svg width="27" height="28" viewBox="0 0 27 28" fill="none" xmlns="http://www.w3.org/2000/svg">
<rect y="0.5" width="27" height="27" rx="13.5" fill="#F9F9F9"/>
<path d="M17.7188 15.4766C17.7188 14.7776 17.1521 14.2109 16.4531 14.2109H10.5469C9.84789 14.2109 9.28125 14.7776 9.28125 15.4766V15.8984C9.28125 17.5618 10.8502 19.2734 13.5 19.2734C16.1498 19.2734 17.7188 17.5618 17.7188 15.8984V15.4766Z" fill="#4A5568"/>
<path d="M15.8203 11.0469C15.8203 9.7654 14.7815 8.72656 13.5 8.72656C12.6855 8.72656 11.9689 9.14629 11.5549 9.78125H10.125C9.89201 9.78125 9.70312 9.97013 9.70312 10.2031V11.8906C9.70312 11.9038 9.70372 11.9168 9.70491 11.9296H9.70312V12.7344C9.70312 13.4334 10.2698 14 10.9688 14H11.2911L11.295 14C11.5808 14 11.8126 13.7685 11.8126 13.483C11.8126 13.1974 11.5808 12.966 11.295 12.966C11.1359 12.966 10.9936 13.0377 10.8986 13.1504C10.699 13.1171 10.5469 12.9435 10.5469 12.7344V12.3125H10.7574C11.0083 12.3125 11.2422 12.2395 11.4389 12.1136C11.8251 12.8583 12.6031 13.3672 13.5 13.3672C14.7815 13.3672 15.8203 12.3283 15.8203 11.0469ZM11.1793 11.0469C11.1793 11.2799 10.9904 11.4688 10.7574 11.4688H10.5469V10.625H11.1793V11.0469Z" fill="#4A5568"/>
</svg>
