<svg width="27" height="28" viewBox="0 0 27 28" fill="none" xmlns="http://www.w3.org/2000/svg">
<rect y="0.5" width="27" height="27" rx="13.5" fill="#F9F9F9"/>
<path fill-rule="evenodd" clip-rule="evenodd" d="M17.2773 9.05473C17.668 9.4454 17.668 10.0734 17.668 11.3307V17.3307C17.668 18.5881 17.668 19.2161 17.2773 19.6067C16.8866 19.9974 16.2586 19.9974 15.0013 19.9974H11.0013C9.74397 19.9974 9.11597 19.9974 8.7253 19.6067C8.33464 19.2161 8.33464 18.5881 8.33464 17.3307V11.3307C8.33464 10.0734 8.33464 9.4454 8.7253 9.05473C9.11597 8.66406 9.74397 8.66406 11.0013 8.66406H15.0013C16.2586 8.66406 16.8866 8.66406 17.2773 9.05473ZM15.0013 11.3307C15.1781 11.3307 15.3477 11.401 15.4727 11.526C15.5977 11.651 15.668 11.8206 15.668 11.9974C15.668 12.1742 15.5977 12.3438 15.4727 12.4688C15.3477 12.5938 15.1781 12.6641 15.0013 12.6641H11.0013C10.8245 12.6641 10.6549 12.5938 10.5299 12.4688C10.4049 12.3438 10.3346 12.1742 10.3346 11.9974C10.3346 11.8206 10.4049 11.651 10.5299 11.526C10.6549 11.401 10.8245 11.3307 11.0013 11.3307H15.0013ZM15.0013 13.9974C15.1781 13.9974 15.3477 14.0676 15.4727 14.1927C15.5977 14.3177 15.668 14.4873 15.668 14.6641C15.668 14.8409 15.5977 15.0104 15.4727 15.1355C15.3477 15.2605 15.1781 15.3307 15.0013 15.3307H11.0013C10.8245 15.3307 10.6549 15.2605 10.5299 15.1355C10.4049 15.0104 10.3346 14.8409 10.3346 14.6641C10.3346 14.4873 10.4049 14.3177 10.5299 14.1927C10.6549 14.0676 10.8245 13.9974 11.0013 13.9974H15.0013ZM15.0013 16.6641C15.1781 16.6641 15.3477 16.7343 15.4727 16.8593C15.5977 16.9843 15.668 17.1539 15.668 17.3307C15.668 17.5075 15.5977 17.6771 15.4727 17.8021C15.3477 17.9272 15.1781 17.9974 15.0013 17.9974H12.3346C12.1578 17.9974 11.9883 17.9272 11.8632 17.8021C11.7382 17.6771 11.668 17.5075 11.668 17.3307C11.668 17.1539 11.7382 16.9843 11.8632 16.8593C11.9883 16.7343 12.1578 16.6641 12.3346 16.6641H15.0013Z" fill="#4A5568"/>
</svg>
