<svg width="27" height="28" viewBox="0 0 27 28" fill="none" xmlns="http://www.w3.org/2000/svg">
<rect y="0.5" width="27" height="27" rx="13.5" fill="#F9F9F9"/>
<path d="M17.0013 20.6693C17.3549 20.6693 17.6941 20.5288 17.9441 20.2787C18.1942 20.0287 18.3346 19.6896 18.3346 19.3359V11.3359L14.3346 7.33594H9.0013C8.64768 7.33594 8.30854 7.47641 8.05849 7.72646C7.80844 7.97651 7.66797 8.31565 7.66797 8.66927V19.3359C7.66797 19.6896 7.80844 20.0287 8.05849 20.2787C8.30854 20.5288 8.64768 20.6693 9.0013 20.6693H17.0013ZM13.668 8.66927L17.0013 12.0026H13.668V8.66927ZM9.66797 11.3359H11.668V12.6693H9.66797V11.3359ZM9.66797 14.0026H16.3346V15.3359H9.66797V14.0026ZM9.66797 16.6693H16.3346V18.0026H9.66797V16.6693Z" fill="#4A5568"/>
</svg>
