<svg width="24" height="24" viewBox="0 0 24 24" fill="none" xmlns="http://www.w3.org/2000/svg">
<path d="M22.5984 2.01746C22.3969 2.0784 22.3781 2.08777 8.0625 7.56746C6.39844 8.20496 4.55625 8.91277 3.96094 9.13777C0.435938 10.4878 0.515625 10.4503 0.192188 10.8018C0.028125 10.98 0 11.0409 0 11.2237C0 11.3971 0.028125 11.4628 0.164062 11.6175C0.253125 11.7159 0.435938 11.8425 0.5625 11.8987C0.689063 11.955 1.73906 12.2925 2.89219 12.6534C4.05 13.0096 5.29219 13.3987 5.65313 13.5112L6.31875 13.7175L8.91094 12.0909C17.3906 6.78465 19.0219 5.76746 19.1719 5.69246C19.3594 5.59871 19.6594 5.57527 19.7391 5.65496C19.7672 5.68308 19.7766 5.74871 19.7625 5.79558C19.7484 5.84246 19.3922 6.18933 18.975 6.55965C18.5578 6.93465 17.7938 7.61902 17.2734 8.08308C15.9188 9.30652 14.2125 10.8346 12.8438 12.0675C9.35156 15.1987 9.375 15.1753 9.375 15.3393C9.375 15.4237 9.29063 16.6612 9.1875 18.0909C9.08438 19.5206 9 20.7065 9 20.7253C9 20.7956 9.40313 20.7581 9.6 20.669C9.70781 20.6221 10.0125 20.3737 10.2797 20.1206C10.5422 19.8675 11.2172 19.2206 11.775 18.6815L12.7922 17.7065L13.7438 18.4096C18.5438 21.93 18.4406 21.8643 18.8906 21.9815C19.2844 22.0846 19.7203 21.9487 19.9641 21.644C20.1797 21.3768 20.3016 20.9409 20.7422 18.8784C21.1734 16.8487 21.7406 14.1815 23.25 7.11277C23.8594 4.26746 24 3.53621 24 3.23621C24 2.66433 23.8359 2.31277 23.475 2.10652C23.2641 1.98933 22.8375 1.94246 22.5984 2.01746Z" fill="#1596EC"/>
</svg>
