<svg width="60" height="60" viewBox="0 0 60 60" fill="none" xmlns="http://www.w3.org/2000/svg">
<path d="M25 27.5C25 26.837 24.7366 26.2011 24.2678 25.7322C23.7989 25.2634 23.163 25 22.5 25C21.837 25 21.2011 25.2634 20.7322 25.7322C20.2634 26.2011 20 26.837 20 27.5V32.5C20 33.163 20.2634 33.7989 20.7322 34.2678C21.2011 34.7366 21.837 35 22.5 35C23.163 35 23.7989 34.7366 24.2678 34.2678C24.7366 33.7989 25 33.163 25 32.5V27.5Z" stroke="#9D64CB" stroke-width="1.5"/>
<path d="M24.9661 42.5L23.0911 42.505V42.5H24.9661ZM24.9661 17.5H23.0911V17.495L24.9661 17.5ZM23.1061 47.5125L23.0911 42.505L26.8411 42.495L26.8561 47.5025L23.1061 47.5125ZM22.4611 41.875C22.1086 41.875 21.8286 42.16 21.8286 42.5H18.0786C18.0786 40.08 20.0461 38.125 22.4611 38.125V41.875ZM22.4611 38.125C24.8761 38.125 26.8411 40.08 26.8411 42.5H23.0911C23.0911 42.16 22.8136 41.875 22.4611 41.875V38.125ZM35.0136 11.875H26.2386V8.125H35.0136V11.875ZM27.4811 48.125H35.0136V51.875H27.4811V48.125ZM35.0136 48.125C39.7911 48.125 43.1886 48.12 45.7636 47.775C48.2886 47.4375 49.7411 46.8025 50.8036 45.7425L53.4511 48.4C51.5761 50.27 49.1961 51.1 46.2611 51.495C43.3761 51.8825 39.6861 51.8775 35.0111 51.8775L35.0136 48.125ZM35.0136 8.125C39.6886 8.125 43.3786 8.12 46.2636 8.5075C49.1986 8.9025 51.5761 9.7325 53.4511 11.6025L50.8011 14.2575C49.7411 13.1975 48.2861 12.5625 45.7636 12.225C43.1886 11.88 39.7911 11.875 35.0136 11.875V8.125ZM53.5336 27.2725C52.5686 27.81 51.9261 28.8325 51.9261 30H48.1761C48.1763 28.7763 48.5031 27.5748 49.1228 26.5196C49.7425 25.4645 50.6325 24.5938 51.7011 23.9975L53.5336 27.2725ZM53.1011 22.55C52.9061 17.91 52.2736 15.7225 50.8011 14.2575L53.4511 11.6025C56.0261 14.1725 56.6511 17.7 56.8511 22.395L53.1011 22.55ZM51.9261 30C51.9261 31.1675 52.5686 32.19 53.5336 32.73L51.7036 36.005C50.6342 35.4088 49.7434 34.5379 49.1232 33.4822C48.5031 32.4265 48.1761 31.2244 48.1761 30H51.9261ZM56.8486 37.605C56.6486 42.295 56.0236 45.83 53.4511 48.3975L50.8011 45.7425C52.2736 44.2775 52.9061 42.0875 53.1011 37.4475L56.8486 37.605ZM8.07613 30C8.07613 28.8325 7.43363 27.81 6.46863 27.2725L8.29863 23.9975C9.36769 24.5935 10.2583 25.464 10.8784 26.5192C11.4985 27.5744 11.8257 28.7761 11.8261 30H8.07613ZM3.15363 22.395C3.35363 17.705 3.97863 14.17 6.55113 11.6025L9.20113 14.2575C7.73113 15.7225 7.09613 17.9125 6.90113 22.5525L3.15363 22.395ZM6.46863 32.73C6.95556 32.4595 7.36135 32.0638 7.64398 31.5838C7.92661 31.1038 8.07581 30.557 8.07613 30H11.8261C11.8261 32.585 10.3986 34.83 8.29863 36.0025L6.46863 32.73ZM6.90113 37.4475C7.09613 42.0875 7.72863 44.2775 9.20113 45.7425L6.55113 48.3975C3.97613 45.83 3.35113 42.2975 3.15363 37.605L6.90113 37.4475ZM8.29863 36.0025C7.58863 36.4 7.12363 36.66 6.81113 36.8575C6.65613 36.955 6.58613 37.0075 6.56613 37.0225C6.53113 37.0525 6.65863 36.9625 6.77863 36.7475L3.50363 34.915C3.67667 34.615 3.90485 34.3503 4.17613 34.135C4.37783 33.9714 4.58995 33.8211 4.81113 33.685C5.22863 33.42 5.80113 33.1025 6.46863 32.7275L8.29863 36.0025ZM3.15363 37.605C3.13613 37.1775 3.11613 36.735 3.13113 36.365C3.14154 35.8591 3.26995 35.3625 3.50613 34.915L6.77863 36.745C6.90363 36.52 6.88613 36.365 6.87863 36.53C6.8753 36.5967 6.8753 36.7083 6.87863 36.865L6.90113 37.4475L3.15363 37.605ZM6.46863 27.2725C5.80113 26.8975 5.22863 26.58 4.81113 26.315C4.59182 26.1761 4.37987 26.0259 4.17613 25.865C3.90574 25.6494 3.67844 25.3848 3.50613 25.085L6.77863 23.255C6.65863 23.0375 6.53113 22.9475 6.56863 22.9775C6.64617 23.0372 6.72714 23.0923 6.81113 23.1425C7.12363 23.3425 7.58613 23.6 8.29863 23.9975L6.46863 27.2725ZM6.90113 22.5525L6.87863 23.1325C6.8753 23.2892 6.8753 23.4008 6.87863 23.4675C6.88613 23.6325 6.90363 23.4775 6.77863 23.2525L3.50363 25.0825C3.26831 24.6347 3.14077 24.1382 3.13113 23.6325C3.12237 23.219 3.1307 22.8053 3.15613 22.3925L6.90113 22.5525ZM53.5336 32.7275C54.2011 33.1025 54.7736 33.4175 55.1911 33.6825C55.4123 33.8186 55.6244 33.9689 55.8261 34.1325C56.0965 34.3481 56.3238 34.6152 56.4961 34.915L53.2236 36.7425C53.3436 36.96 53.4711 37.05 53.4361 37.02C53.4136 37.0025 53.3461 36.9525 53.1911 36.855C52.8786 36.655 52.4161 36.3975 51.7036 36L53.5336 32.7275ZM53.1011 37.445L53.1236 36.8625C53.1274 36.7509 53.1274 36.6391 53.1236 36.5275C53.1161 36.3625 53.0986 36.5175 53.2236 36.7425L56.4986 34.9125C56.7339 35.3603 56.8615 35.8568 56.8711 36.3625C56.8861 36.7325 56.8661 37.175 56.8461 37.6025L53.1011 37.445ZM51.7036 23.995C52.4136 23.5975 52.8786 23.3375 53.1911 23.14C53.276 23.0899 53.3578 23.0348 53.4361 22.975C53.4711 22.945 53.3436 23.035 53.2236 23.25L56.4986 25.0825C56.2886 25.4525 56.0111 25.7075 55.8261 25.8625C55.6261 26.0275 55.4036 26.1775 55.1911 26.3125C54.7736 26.5775 54.2011 26.895 53.5336 27.27L51.7036 23.995ZM56.8511 22.395C56.8686 22.8225 56.8886 23.265 56.8736 23.635C56.8561 24.01 56.7986 24.5525 56.4986 25.085L53.2236 23.255C53.0986 23.48 53.1186 23.635 53.1261 23.47C53.1299 23.3584 53.1299 23.2466 53.1261 23.135L53.1036 22.5525L56.8511 22.395ZM23.0936 17.495L23.1136 11.24L26.8611 11.2525L26.8436 17.505L23.0936 17.495ZM22.4636 18.125C22.5461 18.1257 22.6279 18.11 22.7043 18.0789C22.7808 18.0478 22.8502 18.0018 22.9088 17.9437C22.9674 17.8856 23.0139 17.8165 23.0456 17.7403C23.0773 17.6642 23.0936 17.5825 23.0936 17.5H26.8436C26.8436 19.92 24.8786 21.875 22.4636 21.875V18.125ZM21.8261 17.5C21.8261 17.84 22.1061 18.125 22.4586 18.125V21.875C20.0436 21.875 18.0761 19.92 18.0761 17.5H21.8261ZM21.8261 11.29V17.5H18.0761V11.29H21.8261ZM18.7261 11.9225C13.2561 12.0625 10.8036 12.6525 9.19613 14.2575L6.54613 11.6025C9.32863 8.8275 13.2636 8.3125 18.6311 8.1725L18.7261 11.9225ZM18.0761 11.29C18.0761 11.64 18.3661 11.93 18.7261 11.9225L18.6311 8.1725C19.047 8.16216 19.4607 8.23516 19.848 8.38719C20.2352 8.53922 20.5881 8.76722 20.8858 9.05774C21.1836 9.34826 21.4201 9.69544 21.5816 10.0788C21.7431 10.4622 21.8263 10.874 21.8261 11.29H18.0761ZM26.2386 11.875C26.404 11.8743 26.5598 11.8082 26.6765 11.6911C26.7931 11.5739 26.8586 11.4153 26.8586 11.25L23.1086 11.24C23.1113 10.4129 23.4417 9.62065 24.0275 9.03676C24.6132 8.45287 25.4066 8.125 26.2336 8.125L26.2386 11.875ZM17.3386 51.785C12.6511 51.585 9.11613 50.96 6.54863 48.3975L9.20113 45.7425C10.6661 47.2075 12.8586 47.8425 17.4936 48.0375L17.3386 51.785ZM21.8261 42.5V47.4425H18.0761V42.5H21.8261ZM26.8536 47.5C26.8536 47.8025 26.8536 48.035 26.8611 48.2325C26.8661 48.4325 26.8761 48.5475 26.8861 48.62C26.8961 48.6925 26.8986 48.6675 26.8711 48.595C26.8226 48.4883 26.7558 48.391 26.6736 48.3075L24.0261 50.9625C23.5443 50.4644 23.2433 49.8192 23.1711 49.13C23.1036 48.6375 23.1086 48.0475 23.1061 47.5125L26.8536 47.5ZM27.4811 51.875C26.9461 51.875 26.3536 51.88 25.8611 51.8125C25.3136 51.7375 24.6161 51.55 24.0261 50.9625L26.6761 48.3075C26.5909 48.2257 26.4919 48.1597 26.3836 48.1125C26.3136 48.0825 26.2886 48.0875 26.3586 48.095C26.4883 48.1084 26.6184 48.1168 26.7486 48.12C26.9486 48.125 27.1811 48.125 27.4811 48.125V51.875ZM17.4936 48.0375C17.7936 48.05 18.0261 48.06 18.2236 48.0625C18.4211 48.065 18.5361 48.0625 18.6036 48.055C18.6711 48.0475 18.6411 48.0425 18.5661 48.0725C18.4736 48.1075 18.3661 48.1725 18.2686 48.2625L20.8636 50.97C20.2536 51.555 19.5411 51.73 18.9711 51.785C18.4661 51.835 17.8736 51.8075 17.3386 51.785L17.4936 48.0375ZM21.8261 47.4425C21.8261 47.9875 21.8311 48.5925 21.7611 49.1C21.6836 49.665 21.4811 50.3775 20.8636 50.97L18.2686 48.2625C18.1686 48.3575 18.1036 48.465 18.0636 48.555C18.0336 48.63 18.0386 48.655 18.0461 48.585C18.0597 48.4529 18.0681 48.3203 18.0711 48.1875C18.0761 47.9875 18.0761 47.75 18.0761 47.4425H21.8261Z" fill="#9D64CB"/>
</svg>
