<svg width="20" height="18" viewBox="0 0 20 18" fill="none" xmlns="http://www.w3.org/2000/svg">
<path d="M5.30371 0.5C2.66502 0.500162 0.5 2.70941 0.5 5.48145C0.50015 8.32144 1.93507 10.7725 4.50781 13.1895C5.71472 14.3238 7.15265 15.4205 8.2959 16.2373C8.86589 16.6445 9.35991 16.9802 9.71094 17.2139C9.82303 17.2885 9.92129 17.3526 10.002 17.4053C10.0861 17.3511 10.1888 17.2854 10.3066 17.208C10.6663 16.9717 11.1712 16.632 11.748 16.2227C12.9053 15.4014 14.3404 14.3075 15.4873 13.1953C17.7984 10.9541 19.4998 8.30424 19.5 5.48145C19.5 2.71786 17.3345 0.500162 14.6963 0.5C12.8555 0.5 11.2541 1.57794 10.4453 3.16992L10 4.04688L9.55469 3.16992C8.74593 1.57794 7.14448 0.5 5.30371 0.5Z" stroke="#7F7F7F"/>
</svg>
