<svg width="24" height="24" viewBox="0 0 24 24" fill="none" xmlns="http://www.w3.org/2000/svg">
<path d="M13.3605 0.445312C15.2355 0.721874 16.9277 1.45312 18.3246 2.59219C21.5871 5.25469 22.8246 9.62812 21.4605 13.6641C21.1465 14.6016 20.5558 15.6797 19.8855 16.5469C19.2012 17.4234 18.5027 18.075 16.548 19.6406C14.5512 21.2391 13.6793 22.0406 12.873 23.0156C12.4137 23.5687 12.334 23.625 12.0012 23.625C11.6683 23.625 11.5887 23.5687 11.134 23.0156C10.3324 22.0453 9.46991 21.2578 7.45428 19.6406C5.96366 18.4453 5.43397 17.9906 4.87616 17.4094C3.32928 15.8062 2.3871 13.8937 2.08241 11.7422C1.98866 11.0719 1.97928 9.7875 2.05897 9.14062C2.64022 4.6125 6.13241 1.06875 10.6324 0.449999C11.2699 0.360937 12.7746 0.356249 13.3605 0.445312ZM11.298 1.84687C10.1543 1.90781 8.71991 2.3625 7.6746 2.99531C5.85585 4.09219 4.54803 5.71406 3.89647 7.66875C3.05272 10.2047 3.41366 12.9 4.8996 15.1172C5.60272 16.1672 6.22147 16.7719 8.36835 18.4922C10.0324 19.8281 10.7355 20.4422 11.448 21.1828L11.9918 21.75L12.7371 21.0094C13.5902 20.1516 13.984 19.8094 15.7277 18.4172C17.7668 16.7812 18.4043 16.1578 19.1027 15.1172C20.5887 12.9 20.9496 10.2047 20.1058 7.66875C19.1355 4.75312 16.6746 2.58281 13.6418 1.96875C13.1777 1.875 12.1887 1.78594 11.884 1.81406C11.8043 1.81875 11.5418 1.83281 11.298 1.84687Z" fill="#151515"/>
<path d="M12.9844 2.71872C16.2703 3.16872 18.8531 5.5734 19.5516 8.84059C19.65 9.29059 19.6641 9.4734 19.6641 10.3828C19.6594 11.2687 19.6453 11.4843 19.5563 11.8875C19.3266 12.9375 18.8719 13.9922 18.2906 14.8125C17.9391 15.314 17.0484 16.2281 16.6078 16.5468C15.7781 17.1422 14.8781 17.5734 13.9641 17.8078C13.1625 18.014 12.7078 18.0609 11.7469 18.0375C10.8422 18.014 10.1813 17.8968 9.44531 17.639C8.91094 17.4515 8.025 16.9922 7.54688 16.65C6.975 16.2468 6.1125 15.3843 5.70938 14.8125C5.12813 13.9968 4.67344 12.9375 4.44375 11.8875C4.35469 11.475 4.34063 11.2781 4.34063 10.3593C4.34063 9.44528 4.35469 9.24372 4.44375 8.84059C5.1375 5.73278 7.41094 3.46403 10.4766 2.81247C11.0063 2.69997 12.45 2.6484 12.9844 2.71872ZM11.0578 4.19528C8.78906 4.53747 6.80625 6.20622 6.075 8.39528C5.84531 9.08903 5.78906 9.4734 5.78906 10.4062C5.78906 11.189 5.80313 11.3203 5.91563 11.7703C6.22031 12.9703 6.74531 13.9172 7.58906 14.7609C8.50313 15.6797 9.69375 16.3031 10.9453 16.5187C11.4891 16.6172 12.5109 16.6172 13.0547 16.5187C14.3016 16.3031 15.4922 15.6797 16.4063 14.7656C17.3391 13.8375 17.9484 12.6515 18.1641 11.3437C18.2813 10.6547 18.2391 9.58591 18.075 8.91559C17.4609 6.46403 15.4969 4.6359 13.0078 4.19997C12.5109 4.1109 11.6156 4.1109 11.0578 4.19528Z" fill="#151515"/>
<path d="M12.0148 5.3625C12.4601 5.52187 12.7273 5.90625 12.7226 6.39844C12.7226 7.02187 12.2726 7.45312 11.6398 7.45312C11.007 7.44844 10.5851 7.0125 10.5851 6.37031C10.5851 5.62969 11.3163 5.11406 12.0148 5.3625Z" fill="#151515"/>
<path d="M12.3771 8.11004C12.6209 8.1616 13.113 8.40066 13.5396 8.67254C13.8162 8.84598 13.8349 8.8741 13.8209 9.01473L13.8068 9.16473L13.3755 9.18816C12.9021 9.21629 12.7193 9.30066 12.6396 9.53035C12.6068 9.61941 12.6724 10.2475 12.8693 11.7757C13.0193 12.9429 13.1459 14.0304 13.1412 14.1944C13.1365 14.5929 12.963 14.9491 12.663 15.1647C12.1427 15.5444 11.4584 15.5022 10.6755 15.0475C10.174 14.7522 10.0334 14.635 10.0334 14.5132C10.0334 14.3397 10.1224 14.2975 10.5115 14.2975C11.0599 14.2975 11.2521 14.171 11.2521 13.8054C11.2521 13.7069 11.1349 12.7366 10.9943 11.6444C10.8537 10.5475 10.7365 9.5116 10.7365 9.33816C10.7365 8.97723 10.8724 8.63973 11.0927 8.42879C11.3834 8.15691 11.9318 8.02098 12.3771 8.11004Z" fill="#151515"/>
</svg>
