<svg width="36" height="36" viewBox="0 0 36 36" fill="none" xmlns="http://www.w3.org/2000/svg">
<rect width="36" height="36" rx="18" transform="matrix(-1 0 0 1 36 0)" fill="#F2EEFC"/>
<path d="M27 18H18V19.5H27V18ZM28.5 14.25H21V15.75H28.5V14.25Z" fill="#9D64CB"/>
<path d="M7.56123 18.4545L9.81123 13.2045C9.86905 13.0696 9.96517 12.9547 10.0877 12.8739C10.2102 12.7931 10.3537 12.75 10.5005 12.75H12.7505V11.25C12.7505 11.0511 12.8295 10.8603 12.9701 10.7197C13.1108 10.579 13.3016 10.5 13.5005 10.5H25.5005V12H14.2505V21.417C14.592 21.6157 14.891 21.8799 15.1301 22.1945C15.3692 22.509 15.5439 22.8678 15.644 23.25H20.357C20.5395 22.543 20.9737 21.9269 21.578 21.517C22.1823 21.1072 22.9154 20.9319 23.6397 21.0239C24.3641 21.1159 25.03 21.4689 25.5127 22.0168C25.9954 22.5647 26.2617 23.2698 26.2617 24C26.2617 24.7302 25.9954 25.4353 25.5127 25.9832C25.03 26.5311 24.3641 26.8841 23.6397 26.9761C22.9154 27.0681 22.1823 26.8928 21.578 26.483C20.9737 26.0731 20.5395 25.457 20.357 24.75H15.644C15.4808 25.3937 15.1077 25.9646 14.5836 26.3724C14.0596 26.7802 13.4145 27.0016 12.7505 27.0016C12.0864 27.0016 11.4414 26.7802 10.9173 26.3724C10.3933 25.9646 10.0201 25.3937 9.85698 24.75H8.25048C8.05157 24.75 7.8608 24.671 7.72015 24.5303C7.5795 24.3897 7.50048 24.1989 7.50048 24V18.75C7.50051 18.6484 7.52118 18.5479 7.56123 18.4545ZM23.2505 25.5C23.5472 25.5 23.8372 25.412 24.0838 25.2472C24.3305 25.0824 24.5228 24.8481 24.6363 24.574C24.7498 24.2999 24.7795 23.9983 24.7217 23.7074C24.6638 23.4164 24.5209 23.1491 24.3111 22.9393C24.1014 22.7296 23.8341 22.5867 23.5431 22.5288C23.2521 22.4709 22.9505 22.5006 22.6765 22.6142C22.4024 22.7277 22.1681 22.92 22.0033 23.1666C21.8385 23.4133 21.7505 23.7033 21.7505 24C21.7505 24.3978 21.9085 24.7794 22.1898 25.0607C22.4711 25.342 22.8527 25.5 23.2505 25.5ZM12.7505 14.25H10.9955L9.38748 18H12.7505V14.25ZM12.7505 25.5C13.0472 25.5 13.3372 25.412 13.5838 25.2472C13.8305 25.0824 14.0228 24.8481 14.1363 24.574C14.2498 24.2999 14.2795 23.9983 14.2217 23.7074C14.1638 23.4164 14.0209 23.1491 13.8111 22.9393C13.6014 22.7296 13.3341 22.5867 13.0431 22.5288C12.7521 22.4709 12.4505 22.5006 12.1765 22.6142C11.9024 22.7277 11.6681 22.92 11.5033 23.1666C11.3385 23.4133 11.2505 23.7033 11.2505 24C11.2505 24.3978 11.4085 24.7794 11.6898 25.0607C11.9711 25.342 12.3527 25.5 12.7505 25.5ZM9.00048 23.25H9.85698C10.0222 22.6076 10.3959 22.0381 10.9196 21.6309C11.4432 21.2238 12.0872 21.0018 12.7505 21V19.5H9.00048V23.25Z" fill="#9D64CB"/>
</svg>
