<svg width="141" height="140" viewBox="0 0 141 140" fill="none" xmlns="http://www.w3.org/2000/svg">
<path fill-rule="evenodd" clip-rule="evenodd" d="M56.457 18.6696C55.0364 19.8802 54.3261 20.4855 53.5675 20.9939C51.8286 22.1595 49.8756 22.9684 47.8219 23.3739C46.9259 23.5507 45.9957 23.625 44.1351 23.7734C39.4604 24.1465 37.123 24.333 35.1729 25.0218C30.6626 26.6149 27.1149 30.1626 25.5218 34.6729C24.833 36.623 24.6465 38.9604 24.2734 43.6351C24.125 45.4957 24.0507 46.4259 23.8739 47.3219C23.4684 49.3756 22.6595 51.3286 21.4939 53.0675C20.9855 53.8261 20.3802 54.5364 19.1696 55.957C16.1278 59.5263 14.6069 61.311 13.7151 63.1769C11.6523 67.4927 11.6523 72.5099 13.7151 76.8257C14.6069 78.6916 16.1278 80.4763 19.1696 84.0456C20.38 85.4661 20.9855 86.1766 21.4939 86.9351C22.6595 88.674 23.4684 90.627 23.8739 92.6807C24.0507 93.5767 24.125 94.5069 24.2734 96.3675C24.6465 101.042 24.833 103.38 25.5218 105.33C27.1149 109.84 30.6626 113.388 35.1729 114.981C37.123 115.67 39.4604 115.856 44.1351 116.229C45.9957 116.378 46.9259 116.452 47.8219 116.629C49.8756 117.034 51.8285 117.843 53.5675 119.009C54.3261 119.517 55.0364 120.122 56.457 121.333C60.0263 124.375 61.811 125.896 63.6769 126.788C67.9927 128.85 73.0099 128.85 77.3257 126.788C79.1916 125.896 80.9763 124.375 84.5456 121.333C85.9662 120.122 86.6765 119.517 87.4351 119.009C89.174 117.843 91.127 117.034 93.1807 116.629C94.0767 116.452 95.0069 116.378 96.8675 116.229C101.542 115.856 103.88 115.67 105.83 114.981C110.34 113.388 113.888 109.84 115.481 105.33C116.17 103.38 116.356 101.042 116.729 96.3675C116.878 94.5069 116.952 93.5767 117.129 92.6807C117.534 90.627 118.343 88.674 119.509 86.9351C120.017 86.1765 120.622 85.4662 121.833 84.0456C124.875 80.4763 126.396 78.6916 127.288 76.8257C129.35 72.5099 129.35 67.4927 127.288 63.1769C126.396 61.311 124.875 59.5263 121.833 55.957C120.622 54.5364 120.017 53.8261 119.509 53.0675C118.343 51.3285 117.534 49.3756 117.129 47.3219C116.952 46.4259 116.878 45.4957 116.729 43.6351C116.356 38.9604 116.17 36.623 115.481 34.6729C113.888 30.1626 110.34 26.6149 105.83 25.0218C103.88 24.333 101.542 24.1465 96.8675 23.7734C95.0069 23.625 94.0767 23.5507 93.1807 23.3739C91.127 22.9684 89.174 22.1595 87.4351 20.9939C86.6765 20.4855 85.9662 19.8802 84.5456 18.6696C80.9763 15.6278 79.1916 14.1069 77.3257 13.2151C73.0099 11.1523 67.9927 11.1523 63.6769 13.2151C61.811 14.1069 60.0263 15.6278 56.457 18.6696ZM96.0133 57.5363C97.8673 55.6822 97.8673 52.6763 96.0133 50.8223C94.1593 48.9682 91.1533 48.9682 89.2993 50.8223L61.0062 79.1154L51.7031 69.8123C49.8491 67.9583 46.8432 67.9583 44.9891 69.8123C43.1351 71.6663 43.1351 74.6723 44.9891 76.5263L57.6492 89.1864C59.5032 91.0404 62.5092 91.0404 64.3632 89.1864L96.0133 57.5363Z" fill="#9D64CB"/>
</svg>
