<svg width="44" height="20" viewBox="0 0 44 20" fill="none" xmlns="http://www.w3.org/2000/svg">
<g filter="url(#filter0_dd_2151_18097)">
<path d="M24.7717 6.91797H40V11.9911H24.7717V6.91797Z" fill="#84B740"/>
<path d="M24.7717 -0.00390625H40V5.07371H24.7717V-0.00390625Z" fill="#259BD6"/>
<path d="M9.54345 10.9607L9.61127 10.9742C9.84639 11.0195 9.9323 11.0375 10.1041 11.0375C10.502 11.0375 10.9722 10.8341 10.9722 9.87552C10.9722 9.38268 10.8909 8.72707 10.1493 8.72707H10.1448C10.0182 8.73611 9.87352 8.74967 9.60223 8.83106L9.54345 8.84914V10.9607ZM9.42137 6.18147L9.54345 6.20408V7.9765L9.65197 7.94485L9.68362 7.93581C9.8057 7.89964 10.086 7.81825 10.3573 7.81825C11.8404 7.81825 12.1523 8.93958 12.1523 9.88004C12.1523 11.1687 11.4289 11.9102 10.1674 11.9102C9.63388 11.9102 9.24051 11.8559 8.84262 11.7248C8.47638 11.6072 8.34526 11.44 8.34526 11.0828V5.99609C8.69793 6.05939 9.06417 6.1227 9.42137 6.18147Z" fill="#27292D"/>
<path d="M5.13677 10.9936L5.20007 11.0116L5.42615 11.0704C5.63866 11.1247 5.82856 11.1563 5.97325 11.1563C6.3214 11.1563 6.52939 10.9845 6.52939 10.6906C6.52939 10.5007 6.44348 10.1797 5.87377 10.1797H5.13677V10.9936ZM5.65674 7.79688C6.11341 7.79688 6.58365 7.87826 7.16692 8.05912L7.54672 8.17216L7.42012 9.03124L7.04936 8.90916C6.66051 8.78256 6.17671 8.70117 5.81499 8.70117C5.65222 8.70117 5.15486 8.70117 5.15486 9.23923V9.47434H5.84664C7.10814 9.47434 7.69141 9.87676 7.69141 10.7404C7.69141 11.4774 7.15335 11.9205 6.24906 11.9205C5.96873 11.9205 5.57988 11.8662 5.24529 11.7848L5.2272 11.7803L5.20912 11.7848L5.09608 11.8029C4.74341 11.8662 4.37716 11.9295 4.01997 11.9973V9.17593C4.01997 8.26259 4.57159 7.79688 5.65674 7.79688Z" fill="#27292D"/>
<path d="M13.9219 10.9936L13.9852 11.0116L14.2113 11.0704C14.4238 11.1247 14.6092 11.1563 14.7584 11.1563C15.1066 11.1563 15.3145 10.9845 15.3145 10.6906C15.3145 10.5007 15.2286 10.1797 14.6635 10.1797H13.9265V10.9936H13.9219ZM14.4374 7.79688C14.8986 7.79688 15.3643 7.87826 15.9476 8.05912L16.3274 8.17216L16.2008 9.03124L15.83 8.90916C15.4411 8.78256 14.9573 8.70117 14.5956 8.70117C14.4329 8.70117 13.9355 8.70117 13.9355 9.23923V9.47434H14.6273C15.8888 9.47434 16.4766 9.87676 16.4766 10.7404C16.4766 11.4774 15.9385 11.9205 15.0297 11.9205C14.7494 11.9205 14.3605 11.8662 14.0259 11.7848L14.0078 11.7803L13.9898 11.7848L13.8812 11.8029C13.524 11.8662 13.1623 11.9295 12.8051 12.0018V9.18045C12.8006 8.25807 13.3522 7.79688 14.4374 7.79688Z" fill="#27292D"/>
<path d="M18.6807 7.8053C19.255 7.8053 19.7297 7.9952 19.906 8.07659L19.9513 8.0992L19.992 8.06755C20.2361 7.89121 20.5933 7.80078 21.0907 7.80078C21.5293 7.80078 21.9407 7.86408 22.3883 7.9952C22.7727 8.11276 22.9219 8.29814 22.9219 8.6463V11.8701H21.7192V8.89046L21.6604 8.87237C21.4162 8.79098 21.2715 8.77742 21.1314 8.77742C20.7832 8.77742 20.6069 8.9628 20.6069 9.32452V11.8746H19.4223V9.27478C19.4223 9.12105 19.4539 9.03062 19.4584 9.01254L19.4991 8.93567L19.4177 8.8995C19.2369 8.81811 19.0379 8.77742 18.8299 8.77742C18.5903 8.77742 18.3054 8.87237 18.3054 9.32452V11.8746H17.1253V9.20696C17.1253 8.26197 17.6317 7.8053 18.6807 7.8053Z" fill="#27292D"/>
<path d="M6.02074 3.30582C6.19707 3.30582 6.49097 3.28773 6.72157 3.24252L6.78939 3.22895V1.48818C6.78939 1.34349 6.81651 1.25306 6.82104 1.2395L6.85721 1.16716L6.78034 1.13551C6.76226 1.12646 6.74417 1.12194 6.72157 1.1129L6.708 1.10386C6.68087 1.09481 6.65374 1.08577 6.62661 1.07673C6.61305 1.07221 6.604 1.06768 6.59496 1.06768C6.32819 0.995341 6.08404 1.00438 5.97552 0.99534H5.971C5.234 0.99534 5.14809 1.65095 5.14809 2.1438C5.15261 3.10235 5.62737 3.30582 6.02074 3.30582ZM6.02526 -0.00390625C6.0343 -0.00390625 6.04786 -0.00390625 6.05691 -0.00390625C6.74869 -0.00390625 7.45856 0.185997 7.71177 0.556758C7.84741 0.737617 7.92428 0.963691 7.9288 1.23046V3.02548C7.9288 3.17921 7.96045 3.23799 7.96497 3.25156L8.00566 3.32842H10.1895V2.0805H10.1941C10.2212 0.764745 10.9989 0.0413085 12.1247 0.0413085H12.2559H13.2234C13.2687 0.362333 13.3048 0.588408 13.35 0.909433H12.2559C11.6816 0.909433 11.3787 1.39775 11.3787 2.14832V3.40529L11.4555 3.36459C11.4691 3.36007 11.5641 3.32842 11.7133 3.32842H13.6033C13.6394 3.56806 13.6846 3.88004 13.7344 4.19203H7.92428C7.72533 4.15133 7.49474 4.11516 7.29579 4.08351C7.00189 4.2282 6.4548 4.30506 6.07952 4.30506C4.81802 4.30506 3.99964 3.45955 3.99964 2.15736C4.00416 0.86874 4.79541 0.0232226 6.02526 -0.00390625Z" fill="#27292D"/>
<path d="M16.212 4.72208H16.1577C14.8963 4.72208 14.3085 4.30611 14.3085 3.27973C14.3085 2.54273 14.8465 1.95494 15.7508 1.95494H16.9128C17.261 1.95494 17.469 1.75599 17.469 1.4214C17.469 1.19533 17.3831 0.914999 16.8134 0.914999H14.2723C14.218 0.584931 14.1909 0.376943 14.1412 0.046875H16.7817C18.0116 0.046875 18.631 0.562323 18.631 1.4214C18.631 2.27144 18.0929 2.71455 17.1886 2.71455H16.0266C15.6785 2.71455 15.4705 2.99036 15.4705 3.27973C15.4705 3.46963 15.5564 3.863 16.1216 3.863H16.316L20.0372 3.85396H20.7154C21.2896 3.85396 21.692 3.52841 21.692 2.77333V2.25336C21.692 1.46662 21.3801 0.978299 20.7154 0.978299H19.6122C19.5624 0.64371 19.5308 0.431201 19.4856 0.114697H20.8601H20.9912C22.1171 0.114697 22.8947 0.869785 22.9219 2.18553V2.23527V2.77333C22.8947 4.08908 22.1171 4.71756 20.9912 4.71756H20.8601H19.8925L17.8759 4.72208H16.6732H16.212Z" fill="#27292D"/>
</g>
<defs>
<filter id="filter0_dd_2151_18097" x="0" y="-0.00390625" width="44" height="20.0039" filterUnits="userSpaceOnUse" color-interpolation-filters="sRGB">
<feFlood flood-opacity="0" result="BackgroundImageFix"/>
<feColorMatrix in="SourceAlpha" type="matrix" values="0 0 0 0 0 0 0 0 0 0 0 0 0 0 0 0 0 0 127 0" result="hardAlpha"/>
<feOffset dy="4"/>
<feGaussianBlur stdDeviation="2"/>
<feComposite in2="hardAlpha" operator="out"/>
<feColorMatrix type="matrix" values="0 0 0 0 0 0 0 0 0 0 0 0 0 0 0 0 0 0 0.25 0"/>
<feBlend mode="normal" in2="BackgroundImageFix" result="effect1_dropShadow_2151_18097"/>
<feColorMatrix in="SourceAlpha" type="matrix" values="0 0 0 0 0 0 0 0 0 0 0 0 0 0 0 0 0 0 127 0" result="hardAlpha"/>
<feOffset dy="4"/>
<feGaussianBlur stdDeviation="2"/>
<feComposite in2="hardAlpha" operator="out"/>
<feColorMatrix type="matrix" values="0 0 0 0 0 0 0 0 0 0 0 0 0 0 0 0 0 0 0.25 0"/>
<feBlend mode="normal" in2="effect1_dropShadow_2151_18097" result="effect2_dropShadow_2151_18097"/>
<feBlend mode="normal" in="SourceGraphic" in2="effect2_dropShadow_2151_18097" result="shape"/>
</filter>
</defs>
</svg>
