<svg width="36" height="18" viewBox="0 0 36 18" fill="none" xmlns="http://www.w3.org/2000/svg">
<g clip-path="url(#clip0_2151_18106)">
<mask id="mask0_2151_18106" style="mask-type:luminance" maskUnits="userSpaceOnUse" x="0" y="0" width="36" height="18">
<path d="M0 0.699219H36V17.4631H0V0.699219Z" fill="white"/>
</mask>
<g mask="url(#mask0_2151_18106)">
<path d="M0 0.699219H36V17.4631H0V0.699219Z" fill="#016FD0"/>
<mask id="mask1_2151_18106" style="mask-type:luminance" maskUnits="userSpaceOnUse" x="0" y="-9" width="36" height="36">
<path d="M0 -8.74609H36V26.5997H0V-8.74609Z" fill="white"/>
</mask>
<g mask="url(#mask1_2151_18106)">
<path d="M36 -8.74609H0.0892792V10.3346L1.86696 13.0683L0.0892792 15.5012V26.5998H36V8.61244L34.8891 7.35496L36 6.15216V-8.74609Z" fill="#016FD0"/>
<path d="M29.0273 15.8852V10.3359H23.0578L22.4173 11.1577L21.7557 10.3359H0.0876617V15.5025C0.0876617 15.5025 0.654545 15.8797 1.30975 15.8852H13.3078L14.0299 15.0105V15.8852H16.3961V14.392C16.3961 14.392 16.7194 14.6004 17.4182 14.6004H18.2236V15.8852H21.8063L22.4459 15.0458L23.0953 15.8852H29.0273Z" fill="white"/>
<path d="M36 6.15149L34.6538 3.0625H32.3258L31.5619 4.79282V3.0625H28.6679L28.2131 4.31313L27.7722 3.0625H14.7814V3.69122C14.7814 3.69122 14.0984 3.0625 12.9761 3.0625L8.76096 3.077L8.01024 4.78467V3.0625H5.5884L4.92192 4.04342V3.0625H2.478V8.61175H4.92192L5.5608 7.62766V8.61175H9.1188L9.47664 7.737H10.4333L10.7854 8.61175H13.1983C14.164 8.61175 14.7814 7.99585 14.7814 7.99585V8.61175H18.4196L19.1417 7.737V8.61175H32.6707L33.0283 7.737H33.9818L34.3368 8.61175H36V6.15149Z" fill="white"/>
<path d="M34.1765 3.74609L35.9922 7.90122H34.8101L34.4751 7.06917H32.5275L32.1942 7.90122H30.9861L32.8 3.74609H34.1765ZM33.5048 4.71311L32.9111 6.16708H34.1001L33.5048 4.71311Z" fill="#016FD0"/>
<path d="M30.8633 7.9012V3.74609L29.1834 3.75223L28.2064 6.4312L27.2528 3.74609H25.5864V7.9012H26.6418V4.83955L27.7605 7.9012H28.686L29.8079 4.83955V7.9012H30.8633Z" fill="#016FD0"/>
<path d="M24.8633 7.9012V3.74609H21.4194V4.67552H23.7968V5.38626H21.475V6.26103H23.7968V6.99911H21.4194V7.9012H24.8633Z" fill="#016FD0"/>
<path d="M20.8086 3.74609V7.90122H19.7532V6.42506H19.3089L18.0434 7.90122H16.7537L18.1424 6.37037C17.5725 6.32306 16.9846 5.8416 16.9846 5.09412C16.9846 4.21973 17.6818 3.74609 18.46 3.74609H20.8086ZM19.7532 4.67552H18.5468C18.2574 4.67552 18.0469 4.89834 18.0469 5.11292C18.0469 5.38895 18.3197 5.55029 18.5312 5.55029H19.7532V4.67552Z" fill="#016FD0"/>
<path d="M15.4771 7.9012H16.5547V3.74609H15.4771V7.9012Z" fill="#016FD0"/>
<path d="M12.9196 7.9012H13.1522C14.2776 7.9012 14.9609 7.02851 14.9609 5.84073C14.9609 4.62362 14.2853 3.74609 12.8641 3.74609H11.6976V4.7302H12.9067C13.4836 4.7302 13.8917 5.17336 13.8917 5.851C13.8917 6.65567 13.4251 6.99366 12.753 6.99366H12.4752L12.9196 7.9012Z" fill="#016FD0"/>
<path d="M10.6257 3.74609L12.4414 7.90122H11.2593L10.9243 7.06917H8.9767L8.64334 7.90122H7.43541L9.24933 3.74609H10.6257ZM9.95398 4.71311L9.36022 6.16708H10.5494L9.95398 4.71311Z" fill="#016FD0"/>
<path d="M7.30859 7.9012V3.74609H5.96675L4.25363 6.3567V3.74609H3.19811V7.9012H4.49651L6.25331 5.22226V7.9012H7.30859Z" fill="#016FD0"/>
<path d="M28.3086 15.1746V11.0195H24.8647V11.949H27.2421V12.6597H24.9203V13.5345H27.2421V14.2726H24.8647V15.1746H28.3086Z" fill="#016FD0"/>
<path d="M11.4336 15.1746V11.0195H7.98983V11.949H10.367V12.6597H8.05631V13.5345H10.367V14.2726H7.98983V15.1746H11.4336Z" fill="#016FD0"/>
<path d="M24.7296 15.1746L23.0528 13.1227L24.7695 11.0195H23.4399L22.4175 12.3197L21.3916 11.0195H20.1141L21.8082 13.0971L20.1283 15.1746H21.4578L22.4505 13.895L23.4191 15.1746H24.7296Z" fill="#016FD0"/>
<path d="M20.0039 11.0195V15.1746H18.9208V13.8625H17.8098C16.8698 13.8625 16.1573 13.3717 16.1573 12.4171C16.1573 11.6263 16.7161 11.0195 17.6727 11.0195H20.0039ZM18.9208 11.9592H17.7508C17.4471 11.9592 17.2301 12.1424 17.2301 12.4376C17.2301 12.7149 17.446 12.916 17.7543 12.916H18.9208V11.9592Z" fill="#016FD0"/>
<path d="M15.6992 11.0195V15.1746H14.6438V13.6985H14.1995L12.9341 15.1746H11.6445L13.033 13.6438C12.4631 13.5965 11.8751 13.115 11.8751 12.3675C11.8751 11.4932 12.5725 11.0195 13.3507 11.0195H15.6992ZM14.6438 11.949H13.4375C13.1481 11.949 12.9375 12.1718 12.9375 12.3863C12.9375 12.6624 13.2103 12.8237 13.4218 12.8237H14.6438V11.949Z" fill="#016FD0"/>
<path d="M7.49889 15.1746V14.2726H5.38665C5.07417 14.2726 4.93881 14.1063 4.93881 13.924C4.93881 13.7493 5.07369 13.5727 5.38665 13.5727H6.34113C7.17081 13.5727 7.63281 13.0752 7.63281 12.3282C7.63281 11.662 7.20969 11.0195 5.97681 11.0195H3.92169L4.36617 11.9544H6.14361C6.48321 11.9544 6.58785 12.1299 6.58785 12.2975C6.58785 12.4697 6.45873 12.6597 6.19905 12.6597H5.19921C4.27449 12.6597 3.87321 13.1761 3.87321 13.8523C3.87321 14.5792 4.32033 15.1746 5.24961 15.1746H7.49889Z" fill="#016FD0"/>
<path d="M3.62756 15.1746V14.2726H1.51556C1.20308 14.2726 1.06772 14.1063 1.06772 13.924C1.06772 13.7493 1.2026 13.5727 1.51556 13.5727H2.47004C3.29972 13.5727 3.76172 13.0752 3.76172 12.3282C3.76172 11.662 3.3386 11.0195 2.10572 11.0195H0.0505993L0.494839 11.9544H2.27228C2.61212 11.9544 2.71676 12.1299 2.71676 12.2975C2.71676 12.4697 2.5874 12.6597 2.32796 12.6597H1.32812C0.403159 12.6597 0.00187874 13.1761 0.00187874 13.8523C0.00187874 14.5792 0.448999 15.1746 1.37828 15.1746H3.62756Z" fill="#016FD0"/>
</g>
</g>
</g>
<defs>
<clipPath id="clip0_2151_18106">
<rect width="36" height="17" fill="white" transform="matrix(-1 0 0 1 36 0.5)"/>
</clipPath>
</defs>
</svg>
