<svg width="24" height="24" viewBox="0 0 24 24" fill="none" xmlns="http://www.w3.org/2000/svg">
<rect x="-0.5" y="0.5" width="23" height="23" rx="11.5" transform="matrix(-1 0 0 1 23 0)" fill="#FBC02E"/>
<rect x="-0.5" y="0.5" width="23" height="23" rx="11.5" transform="matrix(-1 0 0 1 23 0)" stroke="#FED881"/>
<path d="M12.9798 6.78047C15.0829 7.58984 16.3173 8.08359 16.3673 8.12734C16.6142 8.35547 16.5673 8.78984 16.2829 8.93984C16.1798 8.99609 16.0079 8.99922 12.111 8.99922C9.78604 8.99922 7.99541 9.01172 7.92666 9.03047C7.77354 9.06484 7.66104 9.14609 7.58291 9.28047C7.53291 9.36172 7.51729 9.46797 7.50479 9.79609C7.48291 10.2492 7.45479 10.3273 7.27354 10.4367C7.13604 10.5211 6.86416 10.5211 6.72666 10.4367C6.52979 10.3148 6.50166 10.2273 6.50166 9.69297C6.50166 9.29297 6.51104 9.18359 6.56729 9.02109C6.76729 8.41797 7.32666 7.99922 7.92979 7.99922H8.14229L8.57979 6.90234C8.82041 6.29922 9.04229 5.76484 9.07041 5.71484C9.15791 5.57109 9.30479 5.49922 9.50166 5.50234C9.64854 5.50547 10.1298 5.68047 12.9798 6.78047ZM9.52666 7.33672C9.38916 7.68672 9.28291 7.97734 9.28916 7.98672C9.29854 7.99297 10.1829 7.99609 11.261 7.99297L13.2142 7.98359L11.5392 7.33672C10.6173 6.98047 9.84229 6.69297 9.81729 6.69609C9.79229 6.69922 9.67041 6.96484 9.52666 7.33672Z" fill="white"/>
<path d="M16.625 6.06533C17.5156 6.29658 18.2094 6.99658 18.4375 7.8872C18.5 8.13095 18.5 8.22158 18.5 12.2497C18.5 16.2778 18.5 16.3685 18.4375 16.6122C18.2062 17.5122 17.5062 18.2091 16.6062 18.4372C16.3625 18.4997 16.2844 18.4997 11.9812 18.4935L7.60312 18.4841L7.3375 18.3528C6.93125 18.1497 6.67812 17.8466 6.54375 17.4091C6.5125 17.306 6.5 17.0403 6.5 16.3841V15.4997H6.1625C5.78438 15.4997 5.675 15.4591 5.5625 15.2747C5.50313 15.1747 5.5 15.1122 5.5 13.4997C5.5 11.8872 5.50313 11.8247 5.5625 11.7247C5.59688 11.6685 5.66875 11.5966 5.725 11.5622C5.825 11.5028 5.8875 11.4997 7.8125 11.4997C9.98125 11.4997 10.0094 11.5028 10.3687 11.6841C10.9031 11.9528 11.3094 12.4435 11.45 12.9903C11.5125 13.231 11.5156 13.7341 11.4531 13.9935C11.325 14.5341 10.9125 15.0435 10.3844 15.3091C10.0312 15.4872 9.91562 15.4997 8.64687 15.4997H7.49687L7.50625 16.3028C7.51562 17.0497 7.52187 17.1185 7.58125 17.2185C7.66875 17.3685 7.81563 17.4622 8.00937 17.4841C8.1 17.4935 9.98438 17.4997 12.2031 17.4935C16.2313 17.4841 16.2344 17.4841 16.4281 17.4185C16.9125 17.2497 17.2812 16.8747 17.4281 16.3903C17.4812 16.2122 17.4844 15.9903 17.4844 12.2497C17.4844 8.50908 17.4812 8.2872 17.4281 8.10908C17.2781 7.62158 16.9062 7.24033 16.4281 7.0872C16.2656 7.03408 16.1219 7.02158 15.525 7.00595C14.9062 6.99345 14.8031 6.98408 14.7188 6.93408C14.575 6.84345 14.5 6.6997 14.5 6.4997C14.5 6.29658 14.575 6.15595 14.725 6.0622C14.8219 6.00283 14.8844 5.9997 15.6094 6.00283C16.2812 6.00283 16.4219 6.0122 16.625 6.06533ZM6.5 13.4997V14.4997H7.95937C9.47188 14.4997 9.725 14.4841 9.94375 14.3716C10.1 14.2903 10.2906 14.0997 10.3812 13.931C10.4406 13.8185 10.4531 13.7497 10.4531 13.4997C10.4531 13.2497 10.4406 13.181 10.3812 13.0685C10.2312 12.7841 9.95625 12.5872 9.65 12.5341C9.55937 12.5185 8.8125 12.506 7.99062 12.5028L6.5 12.4997V13.4997Z" fill="white"/>
</svg>
