<svg width="24" height="24" viewBox="0 0 24 24" fill="none" xmlns="http://www.w3.org/2000/svg">
<path d="M17.317 5.001C18.682 5.063 19.525 5.255 20.121 5.852C21 6.732 21 8.149 21 10.982V15.991C21 18.824 21 20.241 20.121 21.121C19.243 22.001 17.828 22.001 15 22.001H9C6.172 22.001 4.757 22.001 3.879 21.121C3.001 20.241 3 18.824 3 15.991V10.981C3 8.148 3 6.731 3.879 5.851C4.475 5.254 5.319 5.061 6.683 5" stroke="black" stroke-width="1.5" stroke-linecap="round" stroke-linejoin="round"/>
<path d="M14.0003 18H10.0003M12.5003 10L11.5003 7M16.9753 6.54C17.4553 4.66 17.6953 3.72 17.3053 3.03C17.2008 2.84621 17.0678 2.68014 16.9113 2.538C16.3223 2 15.3313 2 13.3503 2H10.6503C8.66929 2 7.67829 2 7.08929 2.538C6.93229 2.681 6.79929 2.848 6.69529 3.031C6.30529 3.721 6.54529 4.661 7.02529 6.541C7.40929 8.039 7.60029 8.788 8.11229 9.281C8.25229 9.41633 8.40595 9.534 8.57329 9.634C9.18729 10 9.97729 10 11.5563 10H12.4443C14.0243 10 14.8143 10 15.4273 9.634C15.5933 9.53417 15.7475 9.4161 15.8873 9.282C16.4003 8.788 16.5923 8.039 16.9753 6.54Z" stroke="black" stroke-width="1.5" stroke-linecap="round" stroke-linejoin="round"/>
</svg>
