<svg width="61" height="60" viewBox="0 0 61 60" fill="none" xmlns="http://www.w3.org/2000/svg">
<path fill-rule="evenodd" clip-rule="evenodd" d="M29.8825 52.4225C27.0072 49.8135 24.3462 46.9777 21.925 43.9425C16.825 37.535 13.7225 31.2175 13.5125 25.6C13.4294 23.317 13.8073 21.0406 14.6236 18.907C15.44 16.7733 16.678 14.826 18.2638 13.1815C19.8495 11.537 21.7505 10.2289 23.853 9.33551C25.9556 8.4421 28.2167 7.98164 30.5012 7.98164C32.7858 7.98164 35.0469 8.4421 37.1495 9.33551C39.252 10.2289 41.153 11.537 42.7387 13.1815C44.3245 14.826 45.5625 16.7733 46.3788 18.907C47.1952 21.0406 47.5731 23.317 47.49 25.6C47.2775 31.2175 44.1725 37.535 39.075 43.9425C36.6538 46.9777 33.9928 49.8135 31.1175 52.4225C30.8408 52.6725 30.635 52.8542 30.5 52.9675L29.8825 52.4225ZM32.345 55.335C32.345 55.335 50.5 40.045 50.5 25C50.5 19.6957 48.3929 14.6086 44.6421 10.8579C40.8914 7.10714 35.8043 5 30.5 5C25.1957 5 20.1086 7.10714 16.3579 10.8579C12.6071 14.6086 10.5 19.6957 10.5 25C10.5 40.045 28.655 55.335 28.655 55.335C29.665 56.265 31.3275 56.255 32.345 55.335ZM30.5 32C28.6435 32 26.863 31.2625 25.5503 29.9497C24.2375 28.637 23.5 26.8565 23.5 25C23.5 23.1435 24.2375 21.363 25.5503 20.0503C26.863 18.7375 28.6435 18 30.5 18C32.3565 18 34.137 18.7375 35.4497 20.0503C36.7625 21.363 37.5 23.1435 37.5 25C37.5 26.8565 36.7625 28.637 35.4497 29.9497C34.137 31.2625 32.3565 32 30.5 32ZM30.5 35C33.1522 35 35.6957 33.9464 37.5711 32.0711C39.4464 30.1957 40.5 27.6522 40.5 25C40.5 22.3478 39.4464 19.8043 37.5711 17.9289C35.6957 16.0536 33.1522 15 30.5 15C27.8478 15 25.3043 16.0536 23.4289 17.9289C21.5536 19.8043 20.5 22.3478 20.5 25C20.5 27.6522 21.5536 30.1957 23.4289 32.0711C25.3043 33.9464 27.8478 35 30.5 35Z" fill="#9D64CB"/>
</svg>
