<svg width="24" height="24" viewBox="0 0 24 24" fill="none" xmlns="http://www.w3.org/2000/svg">
<g clip-path="url(#clip0_2145_56458)">
<path d="M3.37422 5.41768C2.07578 5.68486 1.01172 6.50049 0.421094 7.67705C-0.150781 8.82549 -0.150781 10.3067 0.421094 11.4552C0.866406 12.3411 1.53203 12.9833 2.45547 13.4099C3.24766 13.7755 2.95234 13.7567 7.61641 13.7849L11.7883 13.8083L11.9148 15.2849C11.9805 16.0958 12.0508 16.8458 12.0602 16.9442C12.093 17.1739 12.2523 17.3427 12.482 17.3802C12.6273 17.4036 12.7023 17.3755 12.9461 17.2302C13.2883 17.0286 13.1945 16.9536 13.7477 17.8536C14.3664 18.8708 14.357 18.8661 15.5336 18.1489C16.4617 17.5771 16.5742 17.488 16.6164 17.3005C16.6539 17.1224 16.5836 16.9677 16.1102 16.1989L15.7023 15.5474L15.9836 15.3692C16.1383 15.2708 16.2836 15.1489 16.3117 15.1021C16.3867 14.9567 16.368 14.6521 16.2789 14.5442C16.232 14.488 15.9555 14.2958 15.6602 14.1177L15.1258 13.7896L17.8633 13.7708C20.957 13.7521 20.793 13.7708 21.6367 13.363C22.7758 12.8099 23.5727 11.8396 23.882 10.6255C24.0461 9.97861 24.0461 9.1583 23.8867 8.5208C23.4789 6.91299 22.1523 5.68955 20.5117 5.39893C20.3336 5.36611 19.0773 5.34736 17.0805 5.34736H13.9305L13.7898 5.46455C13.7148 5.52549 13.6398 5.64268 13.6211 5.72236C13.5883 5.90518 13.6914 6.16299 13.8367 6.24736C13.9211 6.29424 14.6055 6.31299 17.1789 6.33174L20.4133 6.35518L20.7883 6.48643C21.8523 6.86143 22.7008 7.77549 22.9445 8.81611C23.043 9.25205 23.0336 9.94111 22.9211 10.3817C22.7758 10.9489 22.5367 11.3567 22.0773 11.8208C21.6555 12.2474 21.3039 12.4771 20.7648 12.6692L20.4602 12.7771L16.9914 12.7911L13.5227 12.8005L12.9602 12.4536C12.6461 12.2614 12.3414 12.0927 12.2711 12.0739C11.9711 11.9989 11.643 12.313 11.6805 12.6411L11.6992 12.8005H7.75703C3.96953 12.8005 3.79609 12.7958 3.43984 12.7067C2.82109 12.5521 2.42734 12.3224 1.93984 11.8396C1.58828 11.4927 1.48047 11.3474 1.32109 11.0192C1.21328 10.7989 1.09609 10.4849 1.05859 10.3161C0.964844 9.92705 0.964844 9.20518 1.05859 8.81611C1.30234 7.77549 2.14609 6.85674 3.19141 6.49111L3.58516 6.35518L6.81953 6.33174C9.39297 6.31299 10.0773 6.29424 10.1617 6.24736C10.307 6.16299 10.4102 5.90518 10.3773 5.72236C10.3586 5.64268 10.2836 5.52549 10.2086 5.46455L10.068 5.34736L6.87578 5.35205C4.41016 5.35674 3.60859 5.3708 3.37422 5.41768ZM13.9305 14.2255L14.9008 14.8255L14.718 14.9989C14.418 15.2849 14.4414 15.3974 14.9758 16.2692C15.2195 16.6677 15.4211 17.0052 15.4211 17.0192C15.4211 17.0333 15.257 17.1458 15.0602 17.2677C14.7977 17.4271 14.6898 17.4692 14.6617 17.4271C14.6383 17.3989 14.432 17.0614 14.1977 16.6771C13.9633 16.2974 13.7289 15.9646 13.6727 15.9317C13.5273 15.8567 13.2508 15.8708 13.1102 15.9646C12.9883 16.0396 12.9883 16.0396 12.9648 15.9317C12.9508 15.8755 12.9086 15.3927 12.8664 14.863C12.8242 14.3333 12.7773 13.8083 12.7633 13.6911L12.7352 13.4849L12.8477 13.5552C12.9086 13.5974 13.3961 13.8974 13.9305 14.2255Z" fill="#151515"/>
<path d="M11.6681 5.48464C11.4009 5.75182 11.5228 6.22526 11.879 6.31432C12.0478 6.35651 12.2212 6.30026 12.3571 6.16901C12.4415 6.07995 12.4696 6.00495 12.4696 5.84089C12.4696 5.54089 12.2868 5.3487 12.0009 5.3487C11.8462 5.3487 11.7759 5.37682 11.6681 5.48464Z" fill="#151515"/>
<path d="M4.2375 7.77656C4.0875 7.84219 3.9375 8.05781 3.9375 8.20313C3.9375 8.27813 4.14844 8.95313 4.40625 9.7125C4.93594 11.25 4.97344 11.3203 5.31563 11.3203C5.62969 11.3203 5.71875 11.2031 5.97656 10.4859C6.09844 10.1438 6.21094 9.83906 6.22969 9.81094C6.24844 9.77813 6.36094 10.0547 6.48281 10.425C6.74063 11.2031 6.82969 11.3203 7.15313 11.3203C7.5 11.3203 7.5375 11.25 8.09063 9.675C8.55469 8.35313 8.58281 8.26406 8.53125 8.09531C8.46563 7.86563 8.24531 7.72031 8.02031 7.75313C7.725 7.8 7.66875 7.875 7.42969 8.56406C7.30313 8.92031 7.19063 9.22969 7.17188 9.24844C7.15313 9.27188 7.125 9.23438 7.10625 9.16875C7.00313 8.75625 6.67031 7.93594 6.57188 7.84219C6.35625 7.64063 5.95781 7.725 5.82188 7.99219C5.79844 8.04375 5.68594 8.33906 5.57813 8.64844C5.46563 8.95781 5.3625 9.22969 5.34375 9.24844C5.325 9.27188 5.20781 8.99531 5.09063 8.63438C4.95 8.21719 4.83281 7.94531 4.7625 7.87969C4.64062 7.7625 4.38281 7.71563 4.2375 7.77656Z" fill="#151515"/>
<path d="M9.675 7.77656C9.525 7.84219 9.375 8.05781 9.375 8.2125C9.375 8.28281 9.58594 8.9625 9.84375 9.71719C10.3734 11.2547 10.4109 11.3203 10.7578 11.3203C11.0672 11.3203 11.1609 11.1937 11.4141 10.4812C11.5312 10.1484 11.6437 9.84844 11.6625 9.81562C11.6859 9.77812 11.7844 10.0172 11.9203 10.425C12.1781 11.2031 12.2672 11.3203 12.5906 11.3203C12.9281 11.3203 12.975 11.2453 13.4906 9.77344C13.7484 9.05156 13.9687 8.40469 13.9875 8.33437C14.0531 8.05781 13.7859 7.73437 13.4906 7.73437C13.4297 7.73437 13.3172 7.77656 13.2375 7.82344C13.1156 7.89844 13.0641 7.99687 12.8906 8.48906C12.7781 8.80781 12.6703 9.12187 12.6469 9.1875C12.6094 9.29062 12.5719 9.21562 12.3516 8.60625C12.0797 7.8375 12.0047 7.73906 11.7047 7.73437C11.3578 7.73437 11.3016 7.80937 10.9687 8.76094L10.7625 9.34687L10.5375 8.66719C10.4016 8.25469 10.2703 7.95469 10.2047 7.88437C10.0828 7.76719 9.825 7.71562 9.675 7.77656Z" fill="#151515"/>
<path d="M15.1125 7.78125C14.9578 7.84219 14.8125 8.05781 14.8125 8.22187C14.8125 8.30156 15.0234 8.97656 15.2812 9.72656C15.8109 11.25 15.8484 11.3203 16.1906 11.3203C16.5047 11.3203 16.5984 11.2031 16.8516 10.4812C16.9687 10.1437 17.0812 9.83906 17.1 9.81094C17.1234 9.77812 17.2312 10.0453 17.3578 10.425C17.6156 11.2031 17.7047 11.3203 18.0281 11.3203C18.3656 11.3203 18.4078 11.2453 18.9375 9.75C19.2 9.01406 19.4109 8.33906 19.4156 8.24531C19.4203 8.02969 19.3453 7.89375 19.1719 7.80469C18.9984 7.71562 18.8766 7.71562 18.6984 7.80937C18.5391 7.88906 18.5109 7.95 18.2625 8.67188C18.1687 8.94375 18.0797 9.19687 18.0656 9.23438C18.0516 9.27656 17.9578 9.07969 17.8547 8.78906C17.5312 7.875 17.5312 7.875 17.3906 7.80469C17.3156 7.76719 17.1844 7.73437 17.0953 7.73437C16.8094 7.73437 16.725 7.85156 16.4531 8.62969L16.2047 9.34219L15.9656 8.64375C15.75 8.025 15.7078 7.93594 15.5672 7.84219C15.4031 7.72969 15.2766 7.71094 15.1125 7.78125Z" fill="#151515"/>
<path d="M20.5017 10.3234C20.1033 10.4406 20.0095 10.9937 20.347 11.275C20.5674 11.4625 20.8627 11.4484 21.0736 11.2375C21.2095 11.1015 21.233 11.0453 21.233 10.8578C21.233 10.5765 21.1017 10.3843 20.8674 10.3187C20.7736 10.2953 20.6845 10.2718 20.6705 10.2765C20.6564 10.2765 20.5814 10.3 20.5017 10.3234Z" fill="#151515"/>
</g>
<defs>
<clipPath id="clip0_2145_56458">
<rect width="24" height="24" fill="white"/>
</clipPath>
</defs>
</svg>
